<svg width="96" height="84" viewBox="0 0 96 84" fill="none" xmlns="http://www.w3.org/2000/svg">
<g clip-path="url(#clip0_2_169)">
<path fill-rule="evenodd" clip-rule="evenodd" d="M42.08 46.2001C41.9868 44.6762 41.5345 43.1959 40.76 41.8801C40.1998 40.9503 39.498 40.1136 38.68 39.4001C38.3766 39.1514 38.0223 38.9724 37.6422 38.8756C37.262 38.7789 36.8653 38.7668 36.48 38.8401C35.97 39.0047 35.4983 39.2701 35.0929 39.6206C34.6875 39.971 34.3566 40.3993 34.12 40.8801C33.08 42.6801 32.04 45.9601 31.56 46.6801C30.3412 48.6461 28.7678 50.3687 26.92 51.7601L26.56 52.0001C26.88 51.4801 27.2 51.0401 27.48 50.5201C28.2185 49.1019 28.6662 47.5504 28.7967 45.9568C28.9272 44.3632 28.7379 42.7595 28.24 41.2401C27.1382 38.4133 25.1254 36.0346 22.52 34.4801C19.9632 32.871 16.9783 32.076 13.96 32.2001C11.4234 32.2834 8.95685 33.0527 6.82269 34.4262C4.68853 35.7997 2.96656 37.7259 1.83996 40.0001C0.797954 42.3189 0.519258 44.9087 1.04405 47.3961C1.56885 49.8834 2.87002 52.1399 4.75996 53.8401C5.2469 54.3217 5.78319 54.7508 6.35996 55.1201C5.93095 55.3016 5.51642 55.5155 5.11996 55.7601C4.34833 56.3245 3.6378 56.968 2.99996 57.6801C1.75185 59.1949 0.862958 60.9727 0.39996 62.8801C-0.0604032 64.7996 -0.0604032 66.8007 0.39996 68.7201C0.750619 70.4149 1.5702 71.9771 2.76536 73.2288C3.96052 74.4806 5.4832 75.3715 7.15996 75.8001V76.3201C7.43996 78.9201 7.95996 81.4401 8.27996 83.9201C8.27996 84.2702 8.41903 84.6059 8.66658 84.8535C8.91413 85.101 9.24987 85.2401 9.59996 85.2401C9.91549 85.2118 10.2103 85.071 10.4306 84.8433C10.6509 84.6157 10.782 84.3164 10.8 84.0001C11.04 81.2001 11.28 78.3201 11.32 75.4001V70.4001C11.094 67.9269 11.0272 65.4418 11.12 62.9601C11.1551 62.8128 11.16 62.6599 11.1343 62.5107C11.1087 62.3615 11.0531 62.219 10.9708 62.0919C10.8886 61.9648 10.7814 61.8557 10.6558 61.7711C10.5302 61.6866 10.3887 61.6284 10.24 61.6001C9.94327 61.5404 9.635 61.599 9.38092 61.7634C9.12683 61.9278 8.94706 62.185 8.87996 62.4801C7.83071 65.2793 7.19732 68.2172 6.99996 71.2001V72.4801C6.03557 71.7395 5.30057 70.741 4.87996 69.6001C4.33949 67.6909 4.33949 65.6693 4.87996 63.7601C5.05564 62.3644 5.47537 61.0104 6.11996 59.7601C6.52418 58.9751 7.05077 58.2595 7.67996 57.6401C8.15996 57.2001 8.67996 56.8401 9.15996 56.4401L9.75996 56.7201C12.2916 57.3784 14.9061 57.6615 17.52 57.5601C17.8276 57.5601 18.1227 57.4379 18.3402 57.2203C18.5577 57.0028 18.68 56.7078 18.68 56.4001C18.68 56.0925 18.5577 55.7974 18.3402 55.5799C18.1227 55.3623 17.8276 55.2401 17.52 55.2401C15.1759 55.1887 12.8544 54.7703 10.64 54.0001C9.31994 53.5255 8.15701 52.6949 7.27996 51.6001C6.04588 50.3234 5.23726 48.6959 4.9651 46.9413C4.69295 45.1866 4.97061 43.3907 5.75996 41.8001C6.60361 40.2573 7.83917 38.9642 9.34203 38.0512C10.8449 37.1382 12.5619 36.6377 14.32 36.6001C16.4812 36.4839 18.6311 36.9833 20.52 38.0401C22.4484 39.0476 24.0042 40.6454 24.96 42.6001C25.7398 44.7478 25.6538 47.1147 24.72 49.2001C24.3293 50.2951 23.7046 51.2918 22.8894 52.1207C22.0743 52.9497 21.0882 53.591 20 54.0001C19.8363 54.0461 19.6834 54.1242 19.5503 54.2298C19.4171 54.3355 19.3064 54.4666 19.2245 54.6156C19.1425 54.7645 19.0911 54.9283 19.0732 55.0973C19.0552 55.2664 19.0711 55.4373 19.12 55.6001C19.1848 55.8162 19.3093 56.0096 19.4791 56.1582C19.6489 56.3068 19.8572 56.4045 20.08 56.4401C20.1757 56.6576 20.343 56.8357 20.554 56.9449C20.7651 57.054 21.0072 57.0877 21.24 57.0401C23.8749 56.5638 26.3898 55.5715 28.64 54.1201C30.9029 52.6482 32.8925 50.7939 34.52 48.6401C34.92 48.0801 35.8 44.6401 36.76 43.0801C36.76 43.4401 37.08 43.8801 37.12 44.0001C37.6203 44.96 37.8419 46.0408 37.76 47.1201C37.6566 48.3805 37.3737 49.6197 36.92 50.8001C36.2491 52.6624 35.3055 54.4149 34.12 56.0001C32.9632 57.6664 31.6213 59.1961 30.12 60.5601C29.2 61.4401 27.16 62.5601 26.12 63.6801C25.6157 64.1006 25.1833 64.6005 24.84 65.1601C24.5693 65.7756 24.4725 66.4535 24.56 67.1201C24.56 68.3201 25.28 70.2001 25.36 70.8401C25.6 72.7601 25.84 74.8401 25.92 76.6801C26.04 78.6116 26.04 80.5486 25.92 82.4801C25.8742 82.6631 25.8682 82.8538 25.9024 83.0393C25.9366 83.2249 26.0101 83.4009 26.1181 83.5556C26.2261 83.7103 26.3659 83.8401 26.5283 83.9361C26.6906 84.0322 26.8717 84.0924 27.0592 84.1126C27.2468 84.1328 27.4365 84.1125 27.6156 84.0532C27.7947 83.9939 27.9589 83.8969 28.0974 83.7687C28.2358 83.6406 28.3451 83.4842 28.418 83.3102C28.4909 83.1362 28.5257 82.9487 28.52 82.7601C28.7595 80.7155 28.8797 78.6587 28.88 76.6001V70.5201C28.88 69.8801 29.24 67.2801 28.6 66.5201L33.12 63.4401C34.9059 61.9452 36.5042 60.2394 37.88 58.3601C39.3061 56.4455 40.4385 54.3289 41.24 52.0801C41.8845 50.1897 42.1694 48.1954 42.08 46.2001Z" fill="#26BF59"/>
<path fill-rule="evenodd" clip-rule="evenodd" d="M72.0001 19.6401C70.0401 21.0801 68.0001 22.4401 66.0401 23.6401C64.1156 24.9495 62.1117 26.1385 60.0401 27.2001C58.6401 28.0001 57.2001 28.6801 55.7601 29.3601C54.3201 30.0401 52.8001 30.8001 51.2801 31.4401C49.7601 32.0801 47.2801 33.1201 45.0401 33.9201C44.893 33.9621 44.7557 34.0327 44.6359 34.1278C44.5161 34.2229 44.4162 34.3407 44.3419 34.4744C44.2676 34.6081 44.2204 34.7552 44.2029 34.9071C44.1855 35.0591 44.1981 35.213 44.2401 35.3601C44.2822 35.5072 44.3527 35.6445 44.4478 35.7643C44.543 35.8842 44.6607 35.984 44.7944 36.0583C44.9282 36.1326 45.0752 36.1798 45.2272 36.1973C45.3791 36.2148 45.533 36.2021 45.6801 36.1601C49.1563 35.6429 52.6015 34.9351 56.0001 34.0401C58.2449 33.3001 60.4146 32.3492 62.4801 31.2001C64.1929 30.1319 65.8362 28.9562 67.4001 27.6801C69.6801 25.8001 71.8001 23.6801 73.9601 21.6801C74.2306 21.4202 74.3868 21.0635 74.3943 20.6884C74.4018 20.3133 74.26 19.9506 74.0001 19.6801C73.7402 19.4096 73.3835 19.2534 73.0084 19.2459C72.6333 19.2384 72.2707 19.3802 72.0001 19.6401Z" fill="#26BF59"/>
<path fill-rule="evenodd" clip-rule="evenodd" d="M52.9599 36.88C52.663 36.8073 52.3493 36.8547 52.0871 37.012C51.825 37.1693 51.6355 37.4237 51.5599 37.72C50.8075 39.3098 50.2178 40.9715 49.7999 42.68C49.6318 43.4166 49.5247 44.1658 49.4799 44.92C49.4403 45.6528 49.4403 46.3872 49.4799 47.12C49.4799 48.88 49.9599 50.52 50.2399 52.2C50.2399 52.5501 50.379 52.8858 50.6266 53.1334C50.8741 53.3809 51.2098 53.52 51.5599 53.52C51.91 53.52 52.2458 53.3809 52.4933 53.1334C52.7409 52.8858 52.8799 52.5501 52.8799 52.2C52.8799 50.6 53.3999 49 53.6399 47.32C53.7593 46.6452 53.8394 45.9641 53.8799 45.28V43.2C53.8799 41.52 53.6399 39.96 53.8799 38.36C53.9213 38.2022 53.9301 38.0377 53.9057 37.8764C53.8814 37.7152 53.8244 37.5606 53.7383 37.4221C53.6522 37.2836 53.5388 37.1641 53.405 37.0709C53.2711 36.9777 53.1197 36.9127 52.9599 36.88Z" fill="#26BF59"/>
<path fill-rule="evenodd" clip-rule="evenodd" d="M64.5603 32.52C64.2586 32.486 63.9554 32.5716 63.7161 32.7586C63.4768 32.9456 63.3203 33.2189 63.2803 33.52C62.5763 35.6371 62.0282 37.8029 61.6404 40C61.4877 40.9533 61.3942 41.9152 61.3604 42.88V45.72C61.3604 47.96 61.8804 50.16 62.2004 52.36C62.2208 52.7067 62.373 53.0324 62.6259 53.2704C62.8788 53.5084 63.2131 53.6406 63.5604 53.64C63.7337 53.6348 63.9044 53.5956 64.0625 53.5244C64.2207 53.4532 64.3633 53.3516 64.4822 53.2253C64.6011 53.099 64.6939 52.9505 64.7553 52.7883C64.8168 52.6261 64.8457 52.4534 64.8403 52.28C64.8403 50.08 65.3203 47.96 65.5203 45.8C65.5203 44.88 65.5204 43.96 65.7204 43.04C65.9204 42.12 65.7204 41.2 65.7204 40.28C65.7204 38.12 65.4404 36 65.4404 33.8C65.4779 33.5156 65.4087 33.2274 65.2462 32.991C65.0837 32.7546 64.8393 32.5868 64.5603 32.52Z" fill="#26BF59"/>
<path fill-rule="evenodd" clip-rule="evenodd" d="M71.9997 35.5198C71.9997 36.6798 71.7597 37.8798 71.6797 39.0798C71.6198 40.2657 71.6198 41.4539 71.6797 42.6398C71.8445 45.466 72.2323 48.2747 72.8397 51.0398C72.854 51.2106 72.9035 51.3767 72.9852 51.5274C73.0668 51.6781 73.1789 51.8103 73.3142 51.9155C73.4495 52.0208 73.6052 52.0968 73.7714 52.1389C73.9376 52.1809 74.1107 52.188 74.2797 52.1598C74.6232 52.1195 74.9371 51.9461 75.154 51.6769C75.3709 51.4076 75.4735 51.0639 75.4398 50.7198C75.4398 47.9598 75.6797 45.2398 75.8397 42.4798C75.8397 40.6398 76.1598 38.7998 76.1598 36.9598C76.1598 33.7998 75.9598 30.6798 75.7998 27.5598C75.8106 27.4074 75.7913 27.2543 75.7428 27.1094C75.6944 26.9645 75.6178 26.8306 75.5174 26.7154C75.4171 26.6002 75.2949 26.5059 75.1581 26.438C75.0212 26.3701 74.8722 26.3299 74.7197 26.3198C74.5694 26.3089 74.4184 26.3286 74.2758 26.3775C74.1332 26.4264 74.0019 26.5036 73.8899 26.6044C73.7778 26.7053 73.6873 26.8277 73.6237 26.9644C73.5601 27.101 73.5247 27.2491 73.5197 27.3998C72.8797 30.0798 72.2397 32.7598 71.9997 35.5198Z" fill="#26BF59"/>
<path fill-rule="evenodd" clip-rule="evenodd" d="M94.8398 12.28C89.2521 11.5584 83.6317 11.1178 77.9998 10.96H65.4398C61.2398 10.96 57.0798 10.96 52.9198 11.2H44.3198C39.9732 11.2 35.6132 11.36 31.2398 11.68C26.3998 11.96 21.5598 12.4 16.7198 13.12C16.4122 13.1571 16.1319 13.3149 15.9406 13.5587C15.7493 13.8025 15.6627 14.1123 15.6998 14.42C15.737 14.7276 15.8948 15.0079 16.1386 15.1992C16.3824 15.3905 16.6922 15.4771 16.9998 15.44C19.2798 15.28 21.5998 15.24 23.9998 15.2C23.962 15.3306 23.962 15.4693 23.9998 15.6C23.5799 17.502 23.2594 19.4246 23.0398 21.36C22.98 22.1722 22.98 22.9877 23.0398 23.8V26.28C23.0398 28.2 23.5998 30.08 23.8798 32C23.9003 32.3466 24.0525 32.6723 24.3054 32.9103C24.5582 33.1483 24.8926 33.2806 25.2398 33.28C25.5436 33.2319 25.8199 33.0761 26.0182 32.8411C26.2165 32.6061 26.3236 32.3075 26.3198 32C26.5598 30.08 26.8398 28 26.9998 26.24V23.8V21.36C26.9998 19.4 26.3598 17.6 26.0398 15.68V15.16H27.9598C32.9998 15.16 38.0398 15.4 43.0798 15.52H53.2398C56.5998 15.52 61.0398 15.52 64.9598 15.12C70.7598 14.88 76.5998 14.48 82.3998 14.44C84.8398 14.44 87.2398 14.44 89.6398 14.72C89.3198 20.12 88.9998 25.52 88.8398 30.96V40.24V49.56C88.8398 52.68 88.5198 55.72 88.1598 58.8C88.1134 59.149 88.2042 59.5025 88.4131 59.786C88.622 60.0695 88.9327 60.2609 89.2798 60.32C89.6243 60.3656 89.9728 60.2737 90.2499 60.064C90.527 59.8543 90.7102 59.5439 90.7598 59.2C92.0652 53.0058 92.8942 46.7207 93.2398 40.4C93.2398 36.64 93.4398 32.84 93.2398 29.08C93.2398 24.28 92.6398 19.52 92.3198 14.8H94.8798C95.1984 14.7903 95.5027 14.6657 95.7366 14.4491C95.9704 14.2326 96.118 13.9388 96.1522 13.6219C96.1863 13.305 96.1046 12.9865 95.9222 12.7251C95.7398 12.4638 95.469 12.2772 95.1598 12.2L94.8398 12.28Z" fill="#26BF59"/>
<path fill-rule="evenodd" clip-rule="evenodd" d="M86.0803 58.5601C81.6984 59.2306 77.2732 59.5782 72.8403 59.6001H60.4403H41.5603C41.255 59.5884 40.9567 59.6936 40.7263 59.8943C40.4958 60.095 40.3507 60.376 40.3203 60.6801C40.3094 60.8325 40.3288 60.9855 40.3772 61.1304C40.4257 61.2753 40.5023 61.4093 40.6026 61.5245C40.703 61.6397 40.8251 61.734 40.962 61.8019C41.0989 61.8697 41.2479 61.9099 41.4003 61.9201C45.4003 62.4401 49.4003 63.0001 53.1603 63.4801C53.0298 63.7642 52.9228 64.0585 52.8403 64.3601C52.8009 64.6922 52.8009 65.0279 52.8403 65.3601C52.8049 65.6925 52.8049 66.0277 52.8403 66.3601C52.8574 66.5597 52.8574 66.7604 52.8403 66.9601C51.8795 67.323 51.0305 67.9312 50.3779 68.7242C49.7252 69.5172 49.2916 70.4674 49.1203 71.4801C49.1203 71.6801 48.0003 78.6801 56.8403 77.9601C60.1203 77.9601 61.5203 75.1201 61.4003 72.2801C61.3236 70.9457 60.831 69.6688 59.9916 68.6286C59.1523 67.5884 58.0084 66.8371 56.7203 66.4801C56.7377 66.401 56.7377 66.3191 56.7203 66.2401C56.7594 65.9079 56.7594 65.5722 56.7203 65.2401C56.7778 64.9092 56.7778 64.5709 56.7203 64.2401V63.9201C59.0003 64.1201 61.2403 64.2401 63.5203 64.2401C65.8003 64.2401 68.1203 64.2401 70.4003 64.0401C75.8028 63.6716 81.1592 62.8012 86.4003 61.4401C86.7451 61.3658 87.0463 61.1576 87.2376 60.8613C87.4288 60.565 87.4946 60.2048 87.4203 59.8601C87.3461 59.5153 87.1379 59.2141 86.8416 59.0228C86.5453 58.8315 86.1851 58.7658 85.8403 58.8401L86.0803 58.5601ZM58.0803 72.4401C58.3203 73.5601 58.0803 74.8401 56.9203 75.0401C56.9203 75.0401 52.9203 77.0401 52.9203 72.7601C52.9951 72.1621 53.2784 71.6097 53.7203 71.2001C54.0186 70.8741 54.3974 70.6323 54.8186 70.4989C55.2399 70.3655 55.6888 70.3452 56.1203 70.4401C56.6157 70.5161 57.0722 70.7532 57.4192 71.1147C57.7663 71.4762 57.9846 71.942 58.0403 72.4401H58.0803Z" fill="#26BF59"/>
</g>
<defs>
<clipPath id="clip0_2_169">
<rect width="96" height="96" fill="white"/>
</clipPath>
</defs>
</svg>
