<svg width="96" height="84" viewBox="0 0 96 84" fill="none" xmlns="http://www.w3.org/2000/svg">
<path fill-rule="evenodd" clip-rule="evenodd" d="M95.0795 56.6402C93.3995 55.0002 89.8395 55.7202 87.5995 55.7202L68.7595 56.4402C70.9995 54.7602 61.5995 31.1602 54.5595 15.5602L54.0795 13.8802C57.8756 12.0221 62.0534 11.077 66.2795 11.1202C66.2795 16.0002 75.9995 37.6402 79.3995 45.2002C79.3995 45.5202 83.0795 54.4002 83.3995 54.7202C83.6659 54.9676 84.016 55.1051 84.3795 55.1051C84.7431 55.1051 85.0932 54.9676 85.3595 54.7202C86.1595 53.9202 82.4795 43.5202 82.5995 43.8402C70.5995 12.6402 70.5995 7.48019 67.7195 7.04019C63.7195 6.48019 56.5595 9.84019 53.1195 11.6402C49.6795 13.4402 52.3195 16.6002 53.6795 21.7602C53.9995 22.6802 53.8795 22.1202 52.5595 22.1202C50.4613 22.1911 48.3734 22.4454 46.3195 22.8802C45.4795 18.8802 43.8795 18.3202 41.4795 18.0402C38.479 17.8202 35.464 17.9006 32.4795 18.2802C31.4414 18.2632 30.4057 18.3843 29.3995 18.6402C29.9995 13.4802 29.3995 11.1602 24.9595 9.52019C20.2535 7.73413 15.0841 7.57919 10.2795 9.08019C7.79952 9.96019 6.63952 11.2802 6.27952 15.2002C6.07952 17.3202 6.47952 55.7602 7.87952 59.7202C5.6875 60.1485 3.52352 60.7095 1.39952 61.4002C-1.80048 62.5202 1.67952 69.4002 3.31952 72.6402C5.59952 77.0802 3.31952 74.6402 12.6795 74.6002C11.3648 77.2421 10.7322 80.1711 10.8395 83.1202C11.2395 87.1202 14.5195 90.2402 21.5595 88.5602C26.5995 87.0402 24.7595 81.0002 24.5195 77.4402C24.5195 76.9602 24.1195 75.1202 23.9195 74.3202C29.7995 74.0402 35.3195 73.7202 43.4395 72.9202C47.7195 72.4802 52.1195 72.9202 56.4395 72.6802C59.9595 72.6802 64.2395 71.7202 69.8395 71.0802C69.5993 74.6628 69.5993 78.2575 69.8395 81.8402C69.5995 84.3602 70.5595 86.0802 73.8395 87.1202C75.4127 87.7887 77.1586 87.9358 78.8214 87.5399C80.4842 87.144 81.9765 86.2259 83.0795 84.9202C84.5995 82.4402 83.6395 73.8802 83.0795 71.0402C85.5418 72.0408 88.2973 72.0408 90.7595 71.0402C92.9253 69.3964 94.3611 66.9698 94.7595 64.2802C94.8395 62.8002 97.2795 58.8402 95.0795 56.6402ZM28.9995 21.5202C31.8663 21.1296 34.7728 21.1296 37.6395 21.5202C38.6919 21.6088 39.7353 21.7827 40.7595 22.0402C41.1195 22.0402 42.0395 22.0402 41.8795 22.3602C40.8395 24.0002 43.9995 56.0002 43.9995 56.0002C44.2195 56.1537 44.4753 56.2479 44.7423 56.2737C45.0093 56.2995 45.2784 56.256 45.5237 56.1474C45.769 56.0389 45.9821 55.8689 46.1426 55.6539C46.303 55.4389 46.4053 55.1862 46.4395 54.9202C47.0395 51.4402 46.9195 30.6802 46.8395 29.0002C46.5195 24.6802 46.1995 25.0002 51.8395 25.3202C52.2338 25.3577 52.6227 25.4382 52.9995 25.5602C53.3442 27.0003 53.4922 28.4804 53.4395 29.9602C54.2395 35.8002 53.4395 38.6402 54.7595 47.5602L55.4395 53.2402C55.7595 54.5602 55.0795 56.5202 56.7595 56.3602C58.7195 56.9202 58.8395 55.5602 58.4795 36.6402C59.2395 38.8002 60.1195 40.8802 61.0795 42.9602C67.3595 56.9202 66.6395 56.2002 67.0395 56.4402C53.6902 56.1012 40.3325 56.5687 27.0395 57.8402C26.9995 57.3202 28.7995 23.0402 28.9995 21.5202ZM10.6395 16.6802C11.3995 8.00019 24.5995 14.8002 24.9595 14.6402C25.1631 17.1225 25.0691 19.6202 24.6795 22.0802C24.4395 25.6802 23.9995 43.1602 24.6795 52.6802C24.6795 54.6002 24.3195 56.2802 24.2795 58.0402C19.5906 58.1432 14.9136 58.5575 10.2795 59.2802C9.71952 56.9602 10.4795 25.9602 10.6395 16.6802ZM21.0395 82.2402C21.0395 82.6402 20.7995 84.0402 20.3995 84.1202C19.0855 84.4407 17.7136 84.4407 16.3995 84.1202C12.3995 82.9202 15.4395 75.5202 14.4795 74.4002C21.9195 74.4002 20.9195 74.0402 21.0395 74.4002C20.3195 75.0402 21.7195 76.0002 21.0395 82.2402ZM79.4795 82.2402C79.1595 83.0002 75.0395 83.0002 73.8395 82.4802C73.8395 82.0802 73.3195 79.7602 72.0395 70.7602C74.7023 70.5562 77.3768 70.5562 80.0395 70.7602C79.5943 74.5966 79.4073 78.4587 79.4795 82.3202V82.2402ZM90.0395 63.0002C89.2795 66.1202 88.9595 67.7202 86.0395 67.0002C77.5195 64.9602 67.7195 67.0002 59.2395 68.4002C54.1195 69.2002 48.3195 68.6402 42.9595 69.2802C37.5995 69.9202 31.2795 70.6002 25.4395 71.0402C24.3995 71.0402 5.91952 72.3602 5.43952 71.4402C4.95952 70.5202 4.75952 64.6802 3.11952 63.6802C13.3195 60.6802 24.0795 61.7602 35.1195 61.0002C47.4795 60.1602 59.7595 61.0002 70.0395 61.0002C83.7595 61.0002 83.9995 60.0402 90.0395 60.7202C90.0795 61.7202 90.0795 62.8002 90.0395 63.0802V63.0002Z" fill="#FECC19"/>
<path fill-rule="evenodd" clip-rule="evenodd" d="M18.7598 41.8003H17.0798C16.551 41.8353 16.0278 41.9292 15.5198 42.0803C14.2798 42.4003 13.2398 42.9203 11.9598 43.2403C11.6485 43.2507 11.3535 43.3817 11.137 43.6056C10.9206 43.8295 10.7996 44.1288 10.7998 44.4403C10.7984 44.7494 10.9124 45.0479 11.1196 45.2773C11.3268 45.5067 11.6122 45.6504 11.9198 45.6803C13.3722 46.1397 14.8782 46.4086 16.3998 46.4803C17.264 46.4949 18.1259 46.3872 18.9598 46.1603C20.1998 45.9203 21.3598 45.4403 22.5998 45.2403C22.7732 45.2511 22.9471 45.2276 23.1114 45.1711C23.2757 45.1146 23.4272 45.0262 23.5573 44.911C23.6874 44.7958 23.7934 44.656 23.8693 44.4998C23.9453 44.3435 23.9896 44.1737 23.9998 44.0003C24.022 43.6459 23.9048 43.2969 23.673 43.0278C23.4413 42.7587 23.1136 42.5909 22.7598 42.5603C21.4518 42.1882 20.1131 41.9338 18.7598 41.8003Z" fill="#FECC19"/>
<path fill-rule="evenodd" clip-rule="evenodd" d="M36.8 41.8003H35.04C34.4714 41.8317 33.908 41.9256 33.36 42.0803C32 42.4003 30.88 42.9203 29.36 43.2403C29.0743 43.2922 28.8159 43.4428 28.6298 43.6658C28.4437 43.8887 28.3418 44.1699 28.3418 44.4603C28.3418 44.7507 28.4437 45.0319 28.6298 45.2548C28.8159 45.4778 29.0743 45.6283 29.36 45.6803C30.9359 46.1377 32.5607 46.4062 34.2 46.4803C35.1301 46.4971 36.0584 46.3895 36.96 46.1603C38.28 45.9203 39.52 45.4403 40.96 45.2403C41.2857 45.1846 41.5812 45.0156 41.7943 44.763C42.0073 44.5105 42.1242 44.1907 42.1242 43.8603C42.1242 43.5299 42.0073 43.2101 41.7943 42.9576C41.5812 42.705 41.2857 42.5359 40.96 42.4803C39.5942 42.1404 38.2029 41.9129 36.8 41.8003Z" fill="#FECC19"/>
<path fill-rule="evenodd" clip-rule="evenodd" d="M69.8797 34.5203C69.4545 34.6313 69.0397 34.7785 68.6397 34.9603C68.2442 35.1483 67.869 35.3762 67.5197 35.6403C66.6797 36.2803 66.0797 37.0403 65.1997 37.6803C64.9535 37.8163 64.7675 38.0398 64.6786 38.3066C64.5896 38.5734 64.6043 38.8639 64.7197 39.1203C64.9197 39.7603 65.5197 40.1603 65.9597 40.0003C67.2147 40.0392 68.4684 39.8909 69.6797 39.5603C70.3231 39.3294 70.9295 39.006 71.4797 38.6003C72.3597 38.0003 73.0797 37.2803 73.9597 36.7203C74.2458 36.5815 74.4676 36.338 74.5793 36.0402C74.691 35.7424 74.684 35.4131 74.5597 35.1203C74.492 34.8017 74.3053 34.5209 74.0378 34.3351C73.7702 34.1493 73.4419 34.0725 73.1197 34.1203C72.0269 34.1126 70.9378 34.2471 69.8797 34.5203Z" fill="#FECC19"/>
</svg>
