<svg width="96" height="84" viewBox="0 0 96 84" fill="none" xmlns="http://www.w3.org/2000/svg">
<g clip-path="url(#clip0_2_183)">
<path fill-rule="evenodd" clip-rule="evenodd" d="M96 84.76C95.44 80.76 90.32 76.44 87.8 74.68L85.12 72.8C82.4 70.76 83.4 69.84 81.8 69.84C81.8 65.84 82.32 62.12 82.32 58.64V53.84C82.32 52.28 82 50.64 81.76 49.04C81.2 45.56 80.44 42.04 79.48 37.96C79.4205 37.5521 79.202 37.1843 78.8723 36.937C78.5425 36.6896 78.1282 36.5829 77.72 36.64C77.5193 36.6691 77.3264 36.7381 77.1528 36.8429C76.9792 36.9477 76.8283 37.0862 76.709 37.2502C76.5897 37.4142 76.5045 37.6005 76.4583 37.7979C76.4121 37.9954 76.4058 38.2001 76.44 38.4C76.72 42.64 76.72 46.4 76.88 49.8C76.88 52.36 76.88 54.84 77.32 57.36C77.76 61.36 78.52 65.36 79.24 69.92H71.52C66.72 69.72 61.88 69.2 57.08 68.88C53.8 68.68 50.56 68.56 47.32 68.48C43.32 68.48 39.52 68.48 35.64 68.92C29.84 69.36 24.12 70.12 18.32 70.84C17.9593 70.84 17.6133 70.9833 17.3583 71.2384C17.1033 71.4934 16.96 71.8393 16.96 72.2C16.96 72.5607 17.1033 72.9066 17.3583 73.1617C17.6133 73.4167 17.9593 73.56 18.32 73.56H29.84C35.56 73.56 41.24 73.56 47 73.88C50.44 73.88 53.88 74.08 57.36 74.16C60.84 74.24 64.32 74.16 67.8 74.16C71.8 74.16 76.04 73.84 80.08 73.44L83.08 75.8L85.76 77.88C87.2103 78.9283 88.5505 80.121 89.76 81.44L73.24 80H56.92C48.92 80 40.64 80.48 32.52 80.48C25.8 80.72 19 81.64 12.24 81.88H5.03996C5.7736 80.0514 6.77082 78.3399 7.99996 76.8L10.72 74.36L14.72 71.72C15.0382 71.5503 15.276 71.2611 15.381 70.916C15.4861 70.5709 15.4497 70.1983 15.28 69.88C15.1305 69.6443 14.9121 69.4604 14.6545 69.353C14.3969 69.2457 14.1125 69.2202 13.84 69.28L14.4 61.92C14.68 58.28 15.12 54.68 15.4 51C15.68 47.32 16 43.72 16 40C15.56 30.64 15.2 35.04 20 34.24L29.48 32.52C29.8514 32.4051 30.1665 32.1556 30.3635 31.8205C30.5606 31.4854 30.6255 31.0888 30.5454 30.7084C30.4653 30.3279 30.246 29.9911 29.9306 29.7639C29.6151 29.5367 29.2262 29.4354 28.84 29.48L19.6 30.28C18.88 30.28 15.6 30 14 30.28C13.5842 30.3276 13.1822 30.4584 12.818 30.6646C12.4538 30.8707 12.1348 31.148 11.88 31.48C11.4403 32.2261 11.1674 33.0585 11.08 33.92C10.8 35.84 11.08 38.84 11.08 39.92C11.08 43.6 10.68 47.28 10.64 50.92C10.6 54.56 10.64 58.28 10.92 61.96L11.28 70.88L9.31996 72.08L6.07996 74.72C3.42105 77.2886 1.44179 80.4774 0.319963 84C-0.18697 85.4261 -0.215208 86.9786 0.23953 88.4223C0.694268 89.8659 1.60719 91.1219 2.83996 92C4.17957 92.885 5.69379 93.4716 7.27996 93.72C9.32025 94.0039 11.3812 94.111 13.44 94.04L26.56 94.6C38 94.6 49.44 95.28 60.84 95.32C65.8 95.32 70.76 95.32 75.72 94.8L84 93.52L89.12 92.2L92.52 90.76C93.703 90.3147 94.6958 89.4741 95.33 88.3807C95.9643 87.2872 96.2009 86.008 96 84.76ZM90.72 87.2L87.92 88.24L83.24 89.28L75.56 90H65.84C52.76 90 39.68 89.2 26.6 89.32H13.4C11.5634 89.4802 9.71648 89.4802 7.87996 89.32C6.88396 89.1943 5.92052 88.8822 5.03996 88.4C4.42352 87.9617 3.97081 87.3304 3.75347 86.606C3.53613 85.8815 3.56657 85.1052 3.83996 84.4C3.83996 84.4 3.83996 84.2 3.83996 84.12C6.59703 84.5208 9.37503 84.7612 12.16 84.84C18.88 85.08 25.72 84.84 32.4 84.84H48.8C56.8 84.64 65.08 84.08 73.2 83.8H91.48H91.72C91.9466 84.0734 92.101 84.3993 92.1689 84.7479C92.2367 85.0965 92.216 85.4565 92.1085 85.795C92.001 86.1334 91.8102 86.4394 91.5536 86.6849C91.297 86.9304 90.9828 87.1076 90.64 87.2H90.72Z" fill="#CA79F2"/>
<path fill-rule="evenodd" clip-rule="evenodd" d="M37.6404 28.0001C39.0324 29.2901 40.5461 30.4422 42.1604 31.4401C42.3147 31.5784 42.495 31.6846 42.6908 31.7525C42.8867 31.8204 43.094 31.8486 43.3008 31.8354C43.5077 31.8223 43.7098 31.768 43.8954 31.6759C44.0811 31.5837 44.2465 31.4555 44.382 31.2987C44.5175 31.1419 44.6205 30.9597 44.6848 30.7627C44.7491 30.5657 44.7735 30.3579 44.7566 30.1513C44.7397 29.9447 44.6818 29.7436 44.5863 29.5597C44.4908 29.3758 44.3596 29.2127 44.2004 29.0801C43.1214 28.119 42.1184 27.0759 41.2004 25.9601C40.815 25.4742 40.5664 24.8942 40.4804 24.2801L41.1604 23.2401C41.8834 22.136 42.8564 21.2179 44.0004 20.5601C45.3266 19.7719 46.7722 19.2045 48.2804 18.8801L50.0004 18.6001C50.0004 18.6001 49.6804 19.0001 49.5604 19.2401C47.7405 22.3291 46.3923 25.6727 45.5604 29.1601C45.1969 30.5036 45.1902 31.9187 45.5409 33.2655C45.8917 34.6124 46.5878 35.8445 47.5604 36.8401L50.6404 40.0001C51.6581 41.0423 52.9411 41.7868 54.351 42.1533C55.7608 42.5199 57.2439 42.4946 58.6404 42.0801C62.1563 41.1421 65.5131 39.6861 68.6004 37.7601C68.9204 37.7601 69.2004 37.3201 69.5204 37.1601L69.1604 39.2001C68.836 40.7083 68.2686 42.1538 67.4804 43.4801C66.8079 44.6823 65.8625 45.7099 64.7204 46.4801L63.6804 47.1601C63.0663 47.074 62.4862 46.8255 62.0004 46.4401C60.8939 45.5116 59.8515 44.5093 58.8804 43.4401C58.6075 43.1357 58.226 42.9506 57.8179 42.9246C57.4099 42.8986 57.008 43.0339 56.6987 43.3013C56.3894 43.5686 56.1975 43.9467 56.1641 44.3542C56.1308 44.7617 56.2587 45.166 56.5204 45.4801C57.5183 47.0944 58.6703 48.6081 59.9604 50.0001C60.7461 50.7581 61.7085 51.308 62.7604 51.6001C63.4985 51.7603 64.2623 51.7603 65.0004 51.6001C65.905 51.4169 66.7711 51.0786 67.5604 50.6001C69.4345 49.4855 70.9694 47.8814 72.0004 45.9601C72.6957 44.0523 73.0215 42.0296 72.9604 40.0001L72.6404 36.0001C72.6207 35.7605 72.6207 35.5197 72.6404 35.2801C75.2802 33.4324 77.673 31.2547 79.7604 28.8001C82.9903 24.8432 85.1769 20.1399 86.1204 15.1201C86.4235 12.9171 86.4235 10.683 86.1204 8.48006C86.0598 6.477 85.3112 4.55592 84.0004 3.04006C82.5867 1.81854 80.8222 1.07636 78.9604 0.920062C76.7673 0.763912 74.5633 0.884866 72.4004 1.28006C67.4365 2.3824 62.8206 4.69037 58.9604 8.00006C56.4901 10.1434 54.2996 12.5894 52.4404 15.2801H52.0004L48.0004 14.8001C45.8618 14.7863 43.7414 15.1941 41.7604 16.0001C39.75 17.0196 38.0816 18.6046 36.9604 20.5601C36.5043 21.3274 36.1798 22.1656 36.0004 23.0401C35.8397 23.7646 35.8397 24.5155 36.0004 25.2401C36.3245 26.2753 36.8861 27.2204 37.6404 28.0001ZM61.6404 11.3601C65.0395 8.74602 69.0185 6.98976 73.2404 6.24006C74.64 5.99851 76.0612 5.90466 77.4804 5.96006C78.4627 5.87814 79.4451 6.11672 80.2804 6.64006C80.8408 7.50523 81.0944 8.53355 81.0004 9.56006C81.0963 11.0163 81.0292 12.4787 80.8004 13.9201C80.2092 18.1554 78.5581 22.1729 76.0004 25.6001C73.3437 29.1049 70.0618 32.0884 66.3204 34.4001C63.6375 36.2435 60.6999 37.6854 57.6004 38.6801C56.7969 38.9729 55.9305 39.0495 55.0881 38.9021C54.2456 38.7546 53.4567 38.3884 52.8004 37.8401L49.5604 34.7601C48.9846 34.0709 48.6002 33.2425 48.4457 32.3579C48.2913 31.4732 48.3722 30.5635 48.6804 29.7201C49.6836 26.6217 51.1539 23.6947 53.0404 21.0401C55.3524 17.3465 58.3054 14.0955 61.7604 11.4401L61.6404 11.3601Z" fill="#CA79F2"/>
<path fill-rule="evenodd" clip-rule="evenodd" d="M32.6403 43.5198C33.0187 43.795 33.4368 44.0108 33.8803 44.1598L33.5603 44.5998C31.9873 46.5017 30.6447 48.5828 29.5603 50.7998C29.0055 52.2131 28.8939 53.7617 29.2403 55.2398C29.3737 55.6507 29.6074 56.0219 29.9203 56.3198C30.2222 56.6278 30.5921 56.8607 31.0003 56.9998C32.6359 57.5219 34.4014 57.4654 36.0003 56.8398C38.2052 55.756 40.2732 54.4132 42.1603 52.8398L42.6003 52.5198C42.7567 52.9726 42.9719 53.403 43.2403 53.7998C43.6553 54.6381 44.3772 55.2843 45.256 55.6046C46.1348 55.9249 47.1032 55.8945 47.9603 55.5198C49.6555 54.6346 50.9447 53.1305 51.5603 51.3198C51.9956 50.0341 52.159 48.672 52.0403 47.3198C51.8966 45.5855 51.6428 43.862 51.2803 42.1598C51.2566 41.9567 51.1911 41.7608 51.0879 41.5842C50.9847 41.4077 50.8461 41.2545 50.6807 41.1342C50.5154 41.014 50.3269 40.9293 50.1271 40.8855C49.9274 40.8417 49.7208 40.8398 49.5203 40.8798C49.32 40.9044 49.1265 40.9687 48.9513 41.0688C48.7761 41.169 48.6226 41.303 48.4997 41.4631C48.3768 41.6232 48.287 41.8062 48.2356 42.0014C48.1842 42.1965 48.1722 42.4 48.2003 42.5998C48.4241 44.1769 48.5443 45.767 48.5603 47.3598C48.5669 48.2491 48.404 49.1315 48.0803 49.9598C48.0803 50.3198 47.2003 50.6398 46.8003 50.9998L46.6003 48.3598C46.4141 47.7078 45.9768 47.1562 45.3843 46.8262C44.7919 46.4963 44.0927 46.4148 43.4403 46.5998L42.3203 46.9998L39.4003 48.6798C38.4403 49.2798 37.0403 50.2798 35.4003 51.0798H35.2003C35.9347 49.7 36.7495 48.3643 37.6403 47.0798L39.2803 44.0798C39.4424 43.7312 39.5762 43.37 39.6803 42.9998C39.699 42.8806 39.699 42.7591 39.6803 42.6398C39.7627 42.3312 39.7782 42.0086 39.7257 41.6935C39.6732 41.3785 39.5539 41.0783 39.3758 40.8131C39.1978 40.5479 38.9651 40.3239 38.6933 40.156C38.4216 39.9882 38.1171 39.8803 37.8003 39.8398L34.9203 39.9998C34.9203 39.9998 34.9203 39.7998 34.6803 39.9998C34.4403 40.1998 34.6803 40.3998 34.6803 40.3598C34.6803 40.3198 35.7603 39.0398 36.3603 38.7998C37.1974 38.4494 38.0929 38.2594 39.0003 38.2398C40.5922 38.2428 42.1823 38.3496 43.7603 38.5598C43.9391 38.5881 44.1218 38.5804 44.2976 38.5371C44.4735 38.4939 44.6389 38.4159 44.7842 38.3079C44.9295 38.1998 45.0518 38.0639 45.1438 37.9079C45.2359 37.752 45.2959 37.5793 45.3203 37.3998C45.3678 37.1978 45.3698 36.9878 45.3262 36.785C45.2826 36.5821 45.1945 36.3914 45.0681 36.2268C44.9418 36.0622 44.7804 35.9277 44.5958 35.8331C44.4111 35.7385 44.2077 35.6862 44.0003 35.6798C42.3089 35.323 40.5999 35.056 38.8803 34.8798C37.5311 34.7717 36.1737 34.921 34.8803 35.3198C33.1677 35.9751 31.748 37.2245 30.8803 38.8398C30.5204 39.6971 30.5023 40.6596 30.8296 41.5298C31.1569 42.4001 31.8047 43.1121 32.6403 43.5198Z" fill="#CA79F2"/>
</g>
<defs>
<clipPath id="clip0_2_183">
<rect width="96" height="96" fill="white"/>
</clipPath>
</defs>
</svg>
