<svg width="96" height="84" viewBox="0 0 96 84" fill="none" xmlns="http://www.w3.org/2000/svg">
<g clip-path="url(#clip0_2_149)">
<g clip-path="url(#clip1_2_149)">
<path fill-rule="evenodd" clip-rule="evenodd" d="M10.4 32.0002C10.0302 31.8124 9.64127 31.6649 9.23998 31.5602C8.82757 31.5212 8.4124 31.5212 7.99998 31.5602C3.55998 30.8802 3.31998 31.3602 3.03998 32.0002C2.75998 32.6402 2.83998 33.6402 6.67998 35.6402C7.06464 35.8469 7.46606 36.0209 7.87998 36.1602C8.31808 36.218 8.76189 36.218 9.19998 36.1602C9.63998 36.1602 13.72 36.1602 14 34.8802C14.08 34.8002 14.48 33.9202 10.4 32.0002Z" fill="#30B2F2"/>
<path fill-rule="evenodd" clip-rule="evenodd" d="M18.3997 16.48C18.3997 16.48 21.5597 17.72 22.3997 17C23.2397 16.28 21.9597 13 21.9197 13C21.8064 12.7553 21.6428 12.5373 21.4397 12.36C21.2108 12.1939 20.9531 12.0719 20.6797 12C17.5197 10.52 16.9997 11.04 16.6797 11.48C16.3597 11.92 15.9197 12.36 17.4397 15.48C17.533 15.6704 17.6543 15.8457 17.7997 16C17.9476 16.216 18.1565 16.3831 18.3997 16.48Z" fill="#30B2F2"/>
<path fill-rule="evenodd" clip-rule="evenodd" d="M48.3998 8C49.4798 8 50.7198 5.12 50.8398 4.8C50.8817 4.53498 50.8817 4.26502 50.8398 4C50.8776 3.72128 50.8776 3.43872 50.8398 3.16C49.6798 0 49.0398 0 48.3998 0C47.7598 0 47.1198 0 46.0798 3.4C46.0385 3.66507 46.0385 3.93493 46.0798 4.2C46.0409 4.46525 46.0409 4.73475 46.0798 5C47.2798 8.48 48.3598 8 48.3998 8Z" fill="#30B2F2"/>
<path fill-rule="evenodd" clip-rule="evenodd" d="M72.2804 13.6398C72.5796 13.5045 72.8509 13.3146 73.0804 13.0798C73.315 12.8451 73.5291 12.5909 73.7204 12.3198C76.0004 9.11981 75.6404 8.67981 75.2404 8.31981C74.8404 7.95981 74.2004 7.19981 70.6804 8.87981L69.7604 9.43981C69.5032 9.6789 69.2749 9.94741 69.0804 10.2398C69.0804 10.2398 67.1204 13.5998 67.9204 14.2398C68.7204 14.8798 72.0004 13.7998 72.2804 13.6398Z" fill="#30B2F2"/>
<path fill-rule="evenodd" clip-rule="evenodd" d="M88.8395 29.92C88.5341 29.8802 88.2249 29.8802 87.9195 29.92C87.6032 29.957 87.2936 30.0378 86.9995 30.16C82.9995 31.8 83.6795 32.8 83.6795 32.84C83.6795 34 86.8395 34.8 87.6795 34.92C88.037 34.9797 88.402 34.9797 88.7595 34.92C89.1095 34.8746 89.4483 34.7662 89.7595 34.6C93.2795 32.96 93.2395 32.12 93.0795 31.44C92.9195 30.76 92.2795 30.2 88.8395 29.92Z" fill="#30B2F2"/>
<path fill-rule="evenodd" clip-rule="evenodd" d="M50.08 49.5204C48.12 44.9604 46.8 46.2004 45.68 49.5204V52.4404C45.6735 54.2974 45.767 56.1535 45.96 58.0004C46.2 60.8004 46.64 63.5204 46.8 66.3204C46.8 66.713 46.9559 67.0894 47.2335 67.367C47.511 67.6445 47.8875 67.8004 48.28 67.8004C48.6725 67.8004 49.049 67.6445 49.3265 67.367C49.6041 67.0894 49.76 66.713 49.76 66.3204C50.2203 63.5517 50.5407 60.7615 50.72 57.9604V54.4004C50.6864 53.2231 50.5929 52.0483 50.44 50.8804L50.08 49.5204Z" fill="#30B2F2"/>
<path fill-rule="evenodd" clip-rule="evenodd" d="M76.8001 33.5602C75.6872 27.6763 72.9109 22.2346 68.8001 17.8802C64.6779 13.3581 59.2071 10.286 53.2001 9.12024C46.4958 8.30205 39.7083 9.70732 33.8801 13.1202C27.9373 16.211 23.0909 21.0575 20.0001 27.0002C17.9548 31.5985 17.0229 36.6142 17.2801 41.6402C17.4759 46.6226 18.8465 51.4882 21.2801 55.8402C23.5201 59.8402 26.2001 62.5202 28.1201 65.8802C29.3052 67.8807 30.0803 70.0971 30.4001 72.4002H30.0001C29.65 72.4002 29.3143 72.5393 29.0667 72.7869C28.8192 73.0344 28.6801 73.3702 28.6801 73.7202C28.6801 74.0703 28.8192 74.4061 29.0667 74.6536C29.3143 74.9012 29.65 75.0402 30.0001 75.0402H39.5601H44.9201L54.7601 75.4002C56.5195 75.4666 58.2712 75.6672 60.0001 76.0002C60.8434 76.0879 61.66 76.3465 62.4001 76.7602C62.9201 77.0402 63.2801 77.2802 63.4001 77.6002C63.5201 77.9202 63.4001 77.9202 63.0801 78.1202C62.8148 78.4657 62.5055 78.7749 62.1601 79.0402C59.9447 80.689 57.3402 81.7363 54.6001 82.0802C50.1085 82.7058 45.5467 82.6248 41.0801 81.8402C39.6062 81.5614 38.1789 81.0766 36.8401 80.4002C35.452 79.7255 34.115 78.9501 32.8401 78.0802C32.6875 77.9562 32.5112 77.8647 32.3219 77.8114C32.1326 77.7581 31.9344 77.7442 31.7395 77.7704C31.5447 77.7966 31.3572 77.8625 31.1888 77.9639C31.0203 78.0654 30.8744 78.2003 30.7601 78.3602C30.5304 78.6765 30.4313 79.069 30.4835 79.4563C30.5356 79.8437 30.735 80.196 31.0401 80.4402C32.6977 81.7914 34.4789 82.9833 36.3601 84.0002C36.6401 84.0002 37.0001 84.2002 37.3201 84.3602C37.1011 84.5031 36.9328 84.7116 36.8395 84.9559C36.7461 85.2001 36.7323 85.4677 36.8001 85.7202C37.3117 88.2323 38.5014 90.5563 40.2401 92.4402C42.1276 94.3809 44.5755 95.6818 47.2401 96.1602C50.2319 96.4668 53.2297 95.6389 55.6401 93.8402C56.8177 92.9477 57.7252 91.7464 58.2618 90.3696C58.7984 88.9928 58.9432 87.4943 58.6801 86.0402C61.0503 85.5304 63.2944 84.5512 65.2801 83.1602C66.1469 82.5835 66.8807 81.8284 67.4326 80.9455C67.9844 80.0626 68.3415 79.0721 68.4801 78.0402C68.5039 76.8805 68.1819 75.7399 67.555 74.764C66.9281 73.788 66.0247 73.0208 64.9601 72.5602C64.3804 72.3137 63.7773 72.1261 63.1601 72.0002C63.1601 72.0002 63.1601 71.8002 63.1601 71.6402C63.3 69.6254 63.992 67.6879 65.1601 66.0402C67.0001 63.2402 69.5601 60.8002 71.4401 58.0402C73.6772 54.497 75.2622 50.5819 76.1201 46.4802C77.212 42.2629 77.4432 37.8689 76.8001 33.5602ZM54.0401 89.5602C53.1857 90.1932 52.2024 90.6302 51.1601 90.8402C50.0893 91.0398 48.9909 91.0398 47.9201 90.8402C46.1389 90.7367 44.4276 90.1106 43.0001 89.0402C41.5185 87.9305 40.3138 86.493 39.4801 84.8402C39.8033 84.9976 40.1375 85.1312 40.4801 85.2402C45.3166 86.4347 50.3122 86.8532 55.2801 86.4802H55.5201C55.4913 87.0664 55.3455 87.6408 55.0913 88.1698C54.8371 88.6987 54.4797 89.1715 54.0401 89.5602ZM40.0001 39.5202C40.5601 38.0802 41.1201 36.6802 41.8001 35.2802C42.1201 34.5602 42.5601 33.8802 42.9201 33.2002C43.6858 33.632 44.4891 33.9934 45.3201 34.2802C45.9201 34.4411 46.5388 34.5218 47.1601 34.5202C47.7926 34.5308 48.424 34.4637 49.0401 34.3202C50.1738 34.0059 51.2529 33.5203 52.2401 32.8802C53.4001 35.1202 54.4801 37.3602 55.6001 39.6002C53.8801 39.3602 52.2001 39.1202 50.4801 38.9602H47.6801H44.9201C43.1201 39.0802 41.5201 39.3202 40.0001 39.5202ZM44.8401 29.6802C45.6001 28.2802 46.3201 26.8802 47.0801 25.6802L47.6001 24.0002C47.9601 24.8802 48.2801 25.7602 48.4401 26.0802C49.1601 27.2402 49.7601 28.4402 50.4401 29.6002H48.4801C47.7206 29.5593 46.9595 29.5593 46.2001 29.6002C45.7054 29.5852 45.2103 29.612 44.7201 29.6802H44.8401ZM55.2001 70.9602L45.2401 71.4402L41.2401 71.6802V62.4002V57.6002C41.2401 56.0002 41.2401 54.4402 40.9601 52.8402C40.6401 49.4402 40.2001 46.1202 39.8801 42.7602C44.7365 44.2015 49.893 44.2983 54.8001 43.0402C54.282 46.4433 54.0013 49.8782 53.9601 53.3202C53.9601 55.5602 54.2001 57.8002 54.4001 60.0002C54.7201 63.3202 55.2801 66.6002 55.4401 69.9202C55.4241 70.1125 55.4517 70.306 55.521 70.486C55.5902 70.6661 55.6993 70.8282 55.8401 70.9602H55.2001ZM72.4801 45.4002C71.7858 49.1051 70.4309 52.6549 68.4801 55.8802C66.4001 59.3202 63.2801 62.2402 61.5601 65.8002C60.7667 67.4384 60.3174 69.2217 60.2401 71.0402C59.494 71.0002 58.7462 71.0002 58.0001 71.0402C58.263 70.7875 58.4203 70.4444 58.4401 70.0802C58.9651 66.3162 59.2324 62.5207 59.2401 58.7202C59.2401 56.4802 59.2401 54.2402 58.8401 52.0002C58.1815 44.8417 57.0591 37.7334 55.4801 30.7202C54.5601 28.4402 53.6001 26.2002 52.5201 23.9602C51.7659 22.2531 50.8554 20.6195 49.8001 19.0802C49.2156 18.3237 48.4233 17.7538 47.5201 17.4402C46.884 17.3562 46.2376 17.473 45.671 17.7742C45.1045 18.0754 44.6462 18.546 44.3601 19.1202C43.7601 20.2802 42.4001 23.3602 42.3601 23.4402C40.9601 26.8802 39.4401 30.3602 38.3601 33.9602C36.0801 40.6002 36.8401 37.6402 36.3601 53.0002V57.8802C36.3601 59.5202 36.5601 61.0802 36.7201 62.6802C37.0801 65.8002 37.5601 68.8802 38.0001 71.9602L33.2801 72.2802C32.9917 69.5622 32.1765 66.9265 30.8801 64.5202C29.0801 61.0802 26.5201 58.1202 24.4401 54.2002C22.4214 50.2906 21.3525 45.9602 21.3201 41.5602C21.2604 37.2207 22.2338 32.9293 24.1601 29.0402C26.8096 24.0104 30.9435 19.9183 36.0001 17.3202C40.8452 14.5451 46.457 13.4087 52.0001 14.0802C57.0477 14.9825 61.6737 17.4777 65.2001 21.2002C68.8617 24.8051 71.4392 29.3643 72.6401 34.3602C73.2844 38.0173 73.2302 41.7634 72.4801 45.4002Z" fill="#30B2F2"/>
</g>
</g>
<defs>
<clipPath id="clip0_2_149">
<rect width="96" height="96" fill="white"/>
</clipPath>
<clipPath id="clip1_2_149">
<rect width="96" height="96" fill="white"/>
</clipPath>
</defs>
</svg>
