<svg width="96" height="84" viewBox="0 0 96 84" fill="none" xmlns="http://www.w3.org/2000/svg">
<g clip-path="url(#clip0_2_134)">
<path fill-rule="evenodd" clip-rule="evenodd" d="M63.7206 41.3198C63.5648 38.7131 62.8436 36.1715 61.6072 33.8714C60.3708 31.5713 58.6488 29.5677 56.5606 27.9998C56.4345 27.8779 56.2832 27.7852 56.1175 27.728C55.9517 27.6709 55.7754 27.6508 55.601 27.6692C55.4266 27.6875 55.2584 27.7439 55.1081 27.8343C54.9579 27.9246 54.8292 28.0468 54.7313 28.1923C54.6333 28.3377 54.5684 28.5029 54.5412 28.6761C54.5139 28.8493 54.525 29.0264 54.5735 29.1949C54.6221 29.3634 54.707 29.5192 54.8222 29.6513C54.9374 29.7835 55.0803 29.8888 55.2406 29.9598C56.9778 31.3756 58.3831 33.1554 59.3576 35.1735C60.3321 37.1916 60.852 39.3989 60.8806 41.6398C61.128 43.8106 60.8983 46.0093 60.2073 48.082C59.5164 50.1548 58.381 52.0516 56.8806 53.6398C53.4141 55.9734 49.3392 57.239 45.1606 57.2798C40.8684 57.2946 36.6768 55.9812 33.1606 53.5198C30.798 51.9612 29.0208 49.6613 28.1084 46.9821C27.196 44.3029 27.2003 41.3963 28.1206 38.7198C28.8144 36.2596 30.0132 33.971 31.6406 31.9998C34.7885 29.2245 38.2365 26.8096 41.9206 24.7998C43.9319 24.1611 46.0647 24.0021 48.1485 24.3355C50.2322 24.6689 52.209 25.4854 53.9206 26.7198C54.144 26.8769 54.4203 26.9398 54.6898 26.8949C54.9592 26.85 55.2002 26.7009 55.3606 26.4798C55.4457 26.3736 55.5083 26.2511 55.5444 26.1199C55.5806 25.9887 55.5896 25.8515 55.5709 25.7167C55.5521 25.5819 55.5061 25.4523 55.4355 25.3359C55.365 25.2195 55.2714 25.1187 55.1606 25.0398C46.6006 18.3598 35.5206 22.3598 29.1206 29.9998C22.7206 37.6398 21.1206 49.1598 30.8806 56.7198C35.0615 59.6165 40.0343 61.1531 45.1206 61.1198C50.3 61.3019 55.3479 59.4663 59.2006 55.9998C60.9855 54.0348 62.3158 51.7008 63.097 49.1636C63.8782 46.6265 64.0911 43.9485 63.7206 41.3198Z" fill="#E6563A"/>
<path fill-rule="evenodd" clip-rule="evenodd" d="M41.4003 34.1999C41.6829 35.2832 42.0576 36.3404 42.5203 37.3599L41.0403 37.0399C39.633 36.7198 38.2013 36.5191 36.7603 36.4399H31.4403C29.1603 36.4399 29.3603 38.9599 31.2403 39.1199C33.1203 39.2799 33.0403 39.1199 35.2403 39.5599C36.8794 39.7614 38.49 40.1506 40.0403 40.7199C41.0558 40.7844 42.0421 41.0858 42.9203 41.5999C43.3186 42.1403 43.6416 42.7324 43.8803 43.3599C44.4403 44.7199 44.8803 46.2399 45.3203 47.3599C45.7603 48.4799 46.5203 50.3199 47.2003 51.7599L48.5603 54.4799C49.2803 55.5999 52.5603 55.2399 51.2003 53.5999C49.8403 51.9599 50.6803 52.3199 50.0803 50.5599C49.4803 48.7999 49.1603 47.7199 48.7603 46.2399C48.3603 44.7599 48.0803 43.3599 47.5603 41.8799C47.1506 40.7204 46.5264 39.6484 45.7203 38.7199C45.7203 37.1599 45.7203 35.5999 45.4403 33.9999C45.075 31.7735 44.3736 29.6156 43.3603 27.5999C42.1603 26.1599 40.5203 26.9599 40.5603 28.2399C40.6003 29.5199 41.1203 33.1199 41.4003 34.1999Z" fill="#E6563A"/>
<path fill-rule="evenodd" clip-rule="evenodd" d="M24.2002 66.5597C23.3822 66.3941 22.5534 66.2872 21.7202 66.2397H15.9202C15.6455 66.2045 15.3678 66.2763 15.1444 66.44C14.9211 66.6038 14.7692 66.8471 14.7202 67.1197C14.6736 67.3901 14.7357 67.6679 14.8931 67.8927C15.0504 68.1174 15.2902 68.2709 15.5602 68.3197C17.6402 68.9597 19.5602 69.7197 21.9202 70.1997C23.1602 70.4797 24.4802 70.6397 25.7202 70.8397C27.6018 71.0753 29.4613 71.4632 31.2802 71.9997C31.5721 72.1196 31.8995 72.1197 32.1915 71.9999C32.4835 71.8801 32.7166 71.6501 32.8402 71.3597C32.9056 71.2212 32.942 71.0708 32.9471 70.9177C32.9521 70.7647 32.9257 70.6122 32.8694 70.4697C32.8132 70.3273 32.7283 70.1979 32.6201 70.0895C32.5119 69.9811 32.3826 69.8961 32.2402 69.8397C30.491 68.7968 28.6248 67.9644 26.6802 67.3597C25.8766 67.026 25.0472 66.7585 24.2002 66.5597Z" fill="#E6563A"/>
<path fill-rule="evenodd" clip-rule="evenodd" d="M41.9199 70.4399H48.1199L51.7199 70.7599C53.5599 70.7599 55.3599 71.1999 57.1999 71.2399C57.4798 71.2265 57.7576 71.295 57.9992 71.4371C58.2408 71.5792 58.4357 71.7887 58.5599 72.0399C58.5599 72.5199 58.2399 72.9199 57.5999 72.9599C55.7568 73.2225 53.9007 73.3828 52.0399 73.4399H49.6399C48.8207 73.4082 48.005 73.3146 47.1999 73.1599C45.3529 72.8763 43.5234 72.489 41.7199 71.9999C41.1199 71.9999 40.7599 71.5199 40.7999 71.1199C40.8399 70.7199 41.3599 70.3599 41.9199 70.4399Z" fill="#E6563A"/>
<path fill-rule="evenodd" clip-rule="evenodd" d="M65.2 26.1196C64.3751 26.0253 63.5591 25.8648 62.76 25.6396C63.08 24.8396 63.56 23.9196 64 22.9196C66.28 17.8396 67.72 12.3596 64 8.27961C63.9159 8.17718 63.8125 8.0923 63.6957 8.02983C63.5788 7.96736 63.4508 7.92852 63.319 7.91552C63.0527 7.88926 62.7868 7.96987 62.58 8.13961C62.3731 8.30935 62.2421 8.55431 62.2159 8.82061C62.1896 9.08691 62.2702 9.35274 62.44 9.55961C66.44 14.8796 60 20.7996 58.72 25.5596C57.44 30.3196 69.72 30.3596 74.12 28.9596L80.72 27.1196C82.4 26.3596 81.4 24.3996 80.4 24.5996C72.24 26.5996 72 27.1196 65.2 26.1196Z" fill="#E6563A"/>
<path fill-rule="evenodd" clip-rule="evenodd" d="M68.3998 5.51984C63.3198 4.47984 65.6398 5.07984 31.5998 0.839844C31.3204 0.844969 31.0522 0.950822 30.8445 1.13794C30.6369 1.32505 30.5038 1.58084 30.4697 1.85825C30.4357 2.13567 30.5029 2.41606 30.6591 2.64786C30.8153 2.87965 31.0499 3.04725 31.3198 3.11984C62.9998 7.35984 63.9998 7.39984 67.9998 8.27984C71.9998 9.15984 80.5198 19.9998 82.5598 23.9998C83.0224 24.7117 83.2466 25.5522 83.1998 26.3998C82.1198 32.0798 77.6798 48.5598 76.3598 52.3198C75.0398 56.0798 73.8398 58.7998 72.7598 62.1198C72.3198 63.3998 68.7598 78.9998 64.1998 80.5198C57.9198 82.6398 51.5198 79.9198 45.2398 79.6798C41.2398 79.6798 33.2398 79.1199 28.1198 78.3198C8.11983 75.0798 8.99983 75.5198 3.87983 72.2398C9.63983 66.1198 14.9598 50.7998 17.8398 42.0398C20.3545 32.1453 22.3043 22.1158 23.6798 11.9998C23.9998 10.2398 26.8398 1.15984 23.9998 2.07984C22.7998 2.43984 22.9598 4.23984 22.8398 4.99984C22.0398 9.99984 18.5598 29.3998 17.8398 32.5998C14.7773 44.5804 10.1225 56.0963 3.99983 66.8398C3.25654 67.8839 2.45528 68.8855 1.59983 69.8398C0.961376 70.4757 0.422028 71.2038 -0.000169925 71.9998C-0.124783 72.5667 -0.0727375 73.1581 0.148961 73.6945C0.37066 74.2308 0.751367 74.6864 1.23983 74.9998C3.40656 76.6434 5.8243 77.9266 8.39983 78.7999C20.4181 81.5327 32.6505 83.219 44.9598 83.8398C51.3198 84.0798 58.0398 86.9599 65.3198 84.4799C71.9598 82.1999 75.4798 65.8798 76.1998 63.5998C77.2398 60.2798 78.5598 57.0798 79.6398 53.7998C80.7198 50.5198 85.1598 33.7998 86.2798 27.2798C87.3598 21.4798 73.5198 6.59984 68.3998 5.51984Z" fill="#E6563A"/>
<path fill-rule="evenodd" clip-rule="evenodd" d="M92.5999 30.3198C91.4799 35.9998 85.5199 58.5998 84.1999 62.3198C82.8799 66.0398 81.6799 68.8398 80.5999 72.1598C80.1599 73.4398 76.5999 88.9998 72.0399 90.5198C65.7599 92.6398 59.3599 89.9198 53.0799 89.6798C49.0799 89.6798 41.0799 89.1198 35.9599 88.3198C16.8799 85.2398 16.7999 86.0398 12.3999 83.2398C9.79994 81.7998 8.79994 84.3598 10.3599 85.7198C12.1251 87.0824 14.1767 88.0261 16.3599 88.4798C28.3755 91.234 40.6086 92.9338 52.9199 93.5598C59.2799 93.7998 66.0399 96.6398 73.2799 94.1998C80.5199 91.7598 83.4399 75.5998 83.9999 73.2798C85.0399 69.9998 86.3599 66.7998 87.4399 63.5198C88.52 60.2398 94.7999 37.6398 95.9999 31.2398C96.5199 27.9998 93.3999 27.0398 92.5999 30.3198Z" fill="#E6563A"/>
</g>
<defs>
<clipPath id="clip0_2_134">
<rect width="96" height="96" fill="white"/>
</clipPath>
</defs>
</svg>
