<svg width="400" height="344" viewBox="0 0 400 344" fill="none" xmlns="http://www.w3.org/2000/svg">
<path d="M377.163 210.154C385.783 210.154 252.837 210.07 253.249 210.122C252.649 209.996 252.395 210.912 252.995 211.038C254.015 211.224 375.893 211.458 377.257 210.912C377.953 210.912 377.689 210.022 377.163 210.154Z" fill="#FECC19"/>
<path d="M269.021 205.2C268.993 205.678 269.781 205.694 269.781 205.042C270.269 203.576 270.063 173.01 270.003 172.326C271.159 172.434 271.217 172.36 279.043 172.42C279.043 172.42 278.853 202.388 278.885 203.462C278.885 204.032 278.979 204.632 278.947 205.2C278.917 205.674 279.643 205.644 279.675 205.2C279.675 205.356 279.739 204.894 279.739 204.726C280.249 199.616 279.927 176.866 279.927 172.126C279.989 172.063 280.023 171.978 280.023 171.889C280.023 171.801 279.989 171.716 279.927 171.652C279.736 171.52 279.52 171.426 279.292 171.377C279.065 171.328 278.83 171.324 278.601 171.366C278.401 171.366 270.583 171.438 269.749 171.556C269.531 171.382 269.211 171.51 269.211 171.936C269.011 173.136 268.921 203.282 268.927 203.484C269.01 204.052 269.041 204.626 269.021 205.2Z" fill="#FECC19"/>
<path d="M291.877 204.813C291.845 205.287 292.573 205.255 292.603 204.813C292.603 204.875 292.603 204.781 292.635 204.687C292.635 204.623 292.635 204.559 292.667 204.529C293.079 202.889 292.825 174.251 292.825 162.929C293.953 163.029 302.131 162.993 301.929 162.993C301.853 163.519 301.757 205.021 301.771 204.815C301.739 205.289 302.467 205.257 302.499 204.815C302.499 204.877 302.499 204.751 302.529 204.689C302.524 204.624 302.535 204.558 302.561 204.499C302.961 202.899 302.761 163.179 302.687 162.699L302.719 162.667C302.779 162.603 302.813 162.518 302.813 162.43C302.813 162.341 302.779 162.256 302.719 162.193C302.325 161.94 301.853 161.839 301.391 161.909C301.191 161.909 293.521 161.987 292.603 162.129C292.571 162.084 292.528 162.049 292.478 162.028C292.427 162.008 292.372 162.002 292.318 162.012C292.265 162.023 292.215 162.048 292.176 162.086C292.137 162.123 292.109 162.172 292.097 162.225C292.097 162.433 291.753 206.661 291.877 204.813Z" fill="#FECC19"/>
<path d="M315.521 204.812C315.489 205.286 316.217 205.286 316.249 204.812C316.36 204.059 316.413 203.298 316.407 202.536C316.659 197.002 316.497 153.156 316.439 152.684C317.273 152.758 317.075 152.748 325.543 152.748C325.543 153.122 325.447 153.228 325.447 153.506V204.812C325.447 204.856 325.456 204.899 325.472 204.939C325.489 204.98 325.514 205.016 325.544 205.047C325.575 205.078 325.612 205.102 325.652 205.119C325.692 205.136 325.736 205.144 325.779 205.144C325.823 205.144 325.866 205.136 325.906 205.119C325.946 205.102 325.983 205.078 326.014 205.047C326.045 205.016 326.069 204.98 326.086 204.939C326.103 204.899 326.111 204.856 326.111 204.812C326.352 202.661 326.457 200.497 326.427 198.332C326.607 186.82 326.191 152.432 326.395 152.432C326.457 152.369 326.491 152.284 326.491 152.195C326.491 152.107 326.457 152.022 326.395 151.958C325.809 151.558 326.421 151.638 317.545 151.8C317.133 151.801 316.721 151.832 316.313 151.894C316.287 151.843 316.247 151.801 316.197 151.773C316.148 151.744 316.091 151.731 316.034 151.734C315.977 151.738 315.922 151.758 315.876 151.792C315.83 151.826 315.795 151.873 315.775 151.926C315.775 152.09 315.655 152.106 315.711 152.274C315.467 153.502 315.509 205.016 315.521 204.812Z" fill="#FECC19"/>
<path d="M339.925 204.6V204.758C339.893 205.232 340.621 205.232 340.653 204.758V204.568C340.649 204.493 340.659 204.418 340.683 204.346C341.083 201.984 340.883 146.082 340.811 145.424C341.943 145.524 350.117 145.488 349.915 145.488C349.898 145.681 349.861 145.871 349.803 146.056V204.726C349.803 204.816 349.839 204.903 349.903 204.967C349.967 205.03 350.053 205.066 350.143 205.066C350.233 205.066 350.32 205.03 350.384 204.967C350.447 204.903 350.483 204.816 350.483 204.726V204.536C350.478 204.451 350.489 204.365 350.515 204.284C350.873 202.134 350.777 145.794 350.641 145.392V145.2C350.767 145.2 350.891 144.878 350.705 144.694C350.65 144.641 350.586 144.598 350.515 144.566C349.383 144.319 348.214 144.287 347.069 144.472C344.918 144.418 342.765 144.481 340.621 144.662C340.557 144.408 340.115 144.408 340.083 144.662C340.083 144.778 339.971 144.942 340.021 145.042C339.885 145.856 339.719 202.042 339.799 204.374C339.925 204.464 339.925 204.526 339.925 204.6Z" fill="#FECC19"/>
<path d="M341.317 129.134C338.672 128.518 335.97 128.183 333.255 128.134C333.162 128.136 333.073 128.172 333.005 128.234C332.936 128.296 332.892 128.381 332.88 128.473C332.869 128.565 332.891 128.658 332.943 128.735C332.994 128.812 333.071 128.868 333.161 128.892C335.624 129.516 338.127 129.97 340.653 130.25C337.016 132.905 333.227 135.344 329.305 137.554C305.351 151.166 280.157 155.072 270.381 157.404C269.813 157.532 270.065 158.322 270.603 158.226C273.131 157.878 275.661 157.342 278.157 156.804C298.311 152.512 318.411 146 335.599 134.92C337.501 133.698 339.369 132.422 341.199 131.094C341.145 131.478 341.199 131.574 340.883 133.876C340.695 135.298 340.347 136.69 340.189 138.112C340.125 138.808 341.189 138.902 341.389 138.27C341.901 135.969 342.25 133.635 342.433 131.284C342.599 129.4 342.829 129.324 341.317 129.134Z" fill="#FECC19"/>
<path d="M388.733 48.8425C388.721 48.751 388.691 48.6626 388.645 48.5827C388.599 48.5028 388.537 48.4329 388.463 48.3771C388.39 48.3212 388.306 48.2806 388.217 48.2575C388.127 48.2344 388.034 48.2293 387.943 48.2425C387.743 48.2425 33.5027 49.0565 33.2987 49.1585C33.2214 49.0588 33.1147 48.9861 32.9936 48.9505C32.8726 48.915 32.7434 48.9185 32.6245 48.9606C32.5055 49.0027 32.4029 49.0812 32.3311 49.1849C32.2594 49.2887 32.2221 49.4124 32.2247 49.5385C32.2247 51.9965 33.2787 238.437 33.1407 239.805C33.1087 240.659 34.4367 240.659 34.5007 239.805C34.7627 234.879 34.7667 234.487 33.5207 50.4545C37.6587 50.5145 387.057 49.4125 387.437 49.4125C387.437 58.9325 388.481 237.709 388.353 238.983C388.323 239.837 389.649 239.837 389.713 238.983C390.639 221.577 388.759 49.1005 388.733 48.8425Z" fill="#262623"/>
<path d="M95.7989 228.14C95.7697 228.049 95.72 227.965 95.6534 227.896C95.5868 227.826 95.5052 227.773 95.4149 227.74C93.8341 222.662 91.7337 217.761 89.1469 213.114C89.9009 211.844 89.6889 202.714 89.5089 200.36C89.5041 200.265 89.4784 200.172 89.4336 200.088C89.3888 200.003 89.326 199.93 89.2497 199.873C89.1733 199.815 89.0852 199.776 88.9918 199.756C88.8983 199.737 88.8017 199.738 88.7089 199.76C78.6849 201.546 67.8189 205.324 61.0489 212.942C60.5056 213.395 60.0916 213.984 59.8489 214.648C59.6909 215.406 60.2289 216.26 60.4809 216.958C62.2206 221.363 64.2243 225.659 66.4809 229.822C66.5105 229.871 66.5514 229.912 66.6002 229.941C66.649 229.97 66.7041 229.987 66.7609 229.99C64.8369 233.434 67.5609 238.39 70.8749 238.39C70.9369 239.022 71.1909 239.654 71.2849 240.256C71.8849 243.564 70.6169 245.424 70.9049 246.482C70.9207 246.536 70.9483 246.585 70.9857 246.627C71.0231 246.668 71.0692 246.701 71.1208 246.722C71.1724 246.743 71.2281 246.753 71.2838 246.75C71.3395 246.747 71.3939 246.731 71.4429 246.704C72.9749 245.634 72.8009 239.904 72.0109 238.232C73.2529 237.914 74.3338 237.148 75.0469 236.082C75.0894 236.008 75.1096 235.923 75.1052 235.837C75.1008 235.752 75.072 235.669 75.0221 235.599C74.9722 235.53 74.9033 235.476 74.8237 235.444C74.7441 235.412 74.657 235.404 74.5729 235.42C73.4269 235.714 70.8369 239.036 68.3449 235.482C66.3009 232.584 67.7129 229.082 70.0509 229.222C70.578 229.303 71.0898 229.464 71.5689 229.698C71.7689 229.764 72.7569 229.428 72.7689 228.898C72.8329 226.298 73.2409 223.71 73.4649 221.122C73.5329 220.322 73.3389 220.112 74.0329 219.764C78.744 217.49 83.5705 215.464 88.4929 213.692C89.0109 214.946 90.2289 217.39 90.4389 218.026C90.005 217.923 89.5527 217.923 89.119 218.027C88.6852 218.132 88.2822 218.337 87.9429 218.626C87.8801 218.692 87.8402 218.775 87.8292 218.865C87.8181 218.955 87.8365 219.046 87.8816 219.125C87.9267 219.203 87.9961 219.265 88.0792 219.3C88.1624 219.336 88.2549 219.344 88.3429 219.322C88.9673 219.116 89.6399 219.105 90.2709 219.29C90.4589 219.328 90.7329 219.368 90.8709 219.228C92.156 222.2 93.2803 225.24 94.2389 228.332C91.8141 230.541 88.7575 231.934 85.4997 232.314C82.2418 232.693 78.9468 232.042 76.0789 230.45C75.0589 229.432 74.3029 230.508 74.9409 231.144C76.6423 232.817 77.8457 234.93 78.4169 237.246C78.7709 238.742 78.4829 239.732 79.8709 240.216C82.2873 241.129 84.8255 241.679 87.4029 241.848C87.3309 242.61 87.6349 244.59 88.3109 245.024C88.5329 245.148 88.9109 245.054 88.9429 244.77C89.0409 244.19 88.4609 243.246 88.2809 241.874C93.9989 241.834 98.3409 236.522 95.7989 228.14ZM91.5009 236.676C91.1655 236.995 90.7434 237.207 90.2878 237.285C89.8322 237.364 89.3635 237.306 88.9409 237.118C88.5428 236.938 88.1989 236.656 87.9435 236.301C87.6881 235.947 87.5299 235.531 87.4849 235.096C87.4849 234.842 87.8029 234.714 87.9289 234.842C88.4969 235.412 88.9089 236.374 89.8569 236.36C90.8049 236.346 91.3449 235.324 91.7229 235.032C92.4329 234.472 92.7989 235.62 91.4949 236.676H91.5009Z" fill="#262623"/>
<path d="M89.5029 225.612C89.8936 226.286 90.1916 227.009 90.3889 227.762C90.3889 228.38 89.0769 228.5 88.4589 228.456C88.1509 228.456 87.7409 228.81 87.8909 229.184C87.932 229.296 88.0047 229.394 88.1003 229.465C88.1959 229.536 88.3101 229.577 88.4289 229.584C88.9295 229.668 89.4429 229.632 89.9266 229.478C90.4103 229.324 90.8506 229.058 91.2109 228.7C91.8429 227.846 91.2729 226.77 90.8929 225.918C90.0908 223.989 88.8709 222.262 87.3209 220.86C87.0369 220.638 86.5629 220.922 86.7849 221.26C87.792 222.645 88.7003 224.1 89.5029 225.612Z" fill="#262623"/>
<path d="M80.9695 223.527C81.179 223.085 81.4571 222.68 81.7935 222.327C82.1295 222.019 82.3275 222.063 82.6375 221.629C83.1215 220.949 82.3995 220.641 81.9535 220.759C81.5152 220.954 81.1274 221.248 80.8196 221.616C80.5118 221.985 80.2922 222.418 80.1775 222.885C80.0275 223.643 80.7515 223.959 80.9695 223.527Z" fill="#262623"/>
<path d="M28.1768 261.87C29.1286 260.549 29.6679 258.976 29.7268 257.348C29.3432 255.714 28.8144 254.117 28.1468 252.576C27.7984 250.867 27.9292 249.094 28.5248 247.454C28.5568 247.138 28.1148 247.012 27.9248 247.202C27.4969 247.759 27.1843 248.395 27.005 249.073C26.8257 249.752 26.7835 250.459 26.8808 251.154C27.0228 254.398 29.6068 256.448 28.3348 259.372C27.6842 260.522 27.1142 261.716 26.6288 262.944C26.3128 264.05 26.2808 265.82 27.5128 266.422C27.5704 266.453 27.6365 266.465 27.7013 266.456C27.766 266.446 27.826 266.416 27.8723 266.37C27.9186 266.323 27.9487 266.264 27.9582 266.199C27.9676 266.134 27.9559 266.068 27.9248 266.01C27.5684 265.368 27.4028 264.637 27.4475 263.904C27.4921 263.17 27.7451 262.465 28.1768 261.87Z" fill="#262623"/>
<path d="M22.4253 247.455C22.5153 248.089 22.4873 248.973 22.9613 249.455C23.0189 249.506 23.0883 249.542 23.1632 249.561C23.2382 249.579 23.3166 249.579 23.3915 249.561C23.4664 249.542 23.5356 249.505 23.5931 249.453C23.6505 249.402 23.6945 249.337 23.7213 249.265C24.0153 248.553 23.4533 247.695 23.3413 245.219C23.2473 243.859 23.2153 242.469 23.1513 241.109C23.1213 240.731 22.5513 240.635 22.4873 241.015C22.1658 243.148 22.1449 245.316 22.4253 247.455Z" fill="#262623"/>
<path d="M18.8531 249.446C18.8863 249.92 19.0628 250.372 19.3591 250.742C19.4118 250.798 19.4785 250.838 19.5523 250.86C19.626 250.881 19.7041 250.882 19.7783 250.862C19.8525 250.843 19.9201 250.804 19.9741 250.749C20.0281 250.695 20.0664 250.627 20.0851 250.552C20.1905 250.113 20.169 249.652 20.0231 249.224C19.4551 246.008 19.1374 242.753 19.0731 239.488C19.0431 239.14 18.5051 239.014 18.4411 239.394C17.978 242.743 18.1176 246.147 18.8531 249.446Z" fill="#262623"/>
<path d="M14.7989 249.32C14.9889 249.952 15.0829 250.9 15.7789 251.184C15.8628 251.212 15.9539 251.208 16.0353 251.174C16.1166 251.139 16.1826 251.076 16.2209 250.996C16.7109 250.114 15.5109 249.426 14.4509 242.46C14.3869 242.018 13.6289 242.112 13.6509 242.556C13.7858 244.846 14.1707 247.114 14.7989 249.32Z" fill="#262623"/>
<path d="M16.7994 265C13.1294 259 12.3994 252.968 10.7634 246.508C10.6674 246.108 9.96343 246.192 10.0354 246.604C10.5762 252.938 12.3595 259.104 15.2834 264.748C15.7254 265.548 16.2634 266.328 16.7054 267.118C17.6454 268.73 17.5634 269.062 18.0654 269.332C18.1209 269.36 18.1816 269.375 18.2434 269.377C18.3052 269.378 18.3667 269.367 18.4236 269.343C18.4806 269.319 18.5317 269.283 18.5734 269.237C18.6151 269.191 18.6465 269.137 18.6654 269.078C18.9834 268.328 18.2334 267.346 16.7994 265Z" fill="#262623"/>
<path d="M14.7428 254.124C14.7015 254.17 14.6775 254.229 14.675 254.291C14.6726 254.352 14.6918 254.413 14.7293 254.462C14.7669 254.511 14.8204 254.545 14.8806 254.559C14.9408 254.572 15.0038 254.564 15.0588 254.536C20.5548 251.724 22.2188 253.2 23.8148 252.924C24.1628 252.86 24.1308 252.418 23.9108 252.228C22.7388 251.336 17.5448 251.324 14.7428 254.124Z" fill="#262623"/>
<path d="M286.503 257.538C287.415 256.285 287.936 254.789 287.999 253.24C287.643 251.681 287.145 250.157 286.513 248.688C286.202 247.061 286.333 245.38 286.893 243.82C286.923 243.504 286.513 243.408 286.323 243.598C285.92 244.13 285.626 244.736 285.458 245.381C285.29 246.027 285.251 246.7 285.343 247.36C285.481 250.418 287.899 252.36 286.733 255.136C286.127 256.229 285.589 257.359 285.123 258.518C284.837 259.562 284.775 261.268 285.943 261.838C285.996 261.867 286.057 261.878 286.117 261.87C286.177 261.861 286.233 261.833 286.275 261.791C286.318 261.748 286.346 261.692 286.355 261.632C286.363 261.572 286.352 261.511 286.323 261.458C285.996 260.85 285.84 260.164 285.871 259.473C285.903 258.783 286.121 258.114 286.503 257.538Z" fill="#262623"/>
<path d="M280.999 243.85C281.073 244.45 281.061 245.306 281.505 245.748C281.56 245.799 281.627 245.836 281.699 245.854C281.772 245.872 281.848 245.872 281.92 245.853C281.993 245.834 282.059 245.797 282.114 245.746C282.168 245.694 282.208 245.63 282.231 245.558C282.337 244.933 282.283 244.291 282.073 243.692C281.836 241.742 281.71 239.779 281.695 237.814C281.663 237.466 281.125 237.338 281.061 237.718C280.747 239.749 280.726 241.814 280.999 243.85Z" fill="#262623"/>
<path d="M277.621 245.749C277.663 246.195 277.827 246.621 278.095 246.981C278.147 247.029 278.212 247.064 278.281 247.081C278.351 247.099 278.424 247.098 278.494 247.079C278.563 247.06 278.627 247.024 278.678 246.974C278.73 246.924 278.768 246.861 278.789 246.793C278.894 246.374 278.873 245.933 278.727 245.527C278.193 242.466 277.886 239.37 277.809 236.265C277.779 235.949 277.273 235.823 277.209 236.171C276.773 239.362 276.913 242.606 277.621 245.749Z" fill="#262623"/>
<path d="M273.764 245.622C273.938 246.222 274.05 247.138 274.682 247.392C274.766 247.416 274.856 247.41 274.936 247.376C275.017 247.341 275.083 247.28 275.123 247.202C275.611 246.322 274.323 245.49 273.447 239.078C273.385 238.634 272.658 238.762 272.69 239.172C272.81 241.355 273.171 243.518 273.764 245.622Z" fill="#262623"/>
<path d="M275.661 260.543C272.157 254.743 271.551 249.543 269.907 242.967C269.813 242.587 269.149 242.651 269.211 243.061C269.738 249.085 271.436 254.948 274.211 260.321C274.653 261.079 275.127 261.839 275.569 262.597C276.475 264.149 276.345 264.475 276.865 264.715C276.916 264.742 276.973 264.759 277.031 264.763C277.089 264.767 277.147 264.758 277.201 264.737C277.255 264.716 277.304 264.683 277.345 264.642C277.385 264.6 277.416 264.55 277.435 264.495C277.673 263.891 277.323 263.291 275.661 260.543Z" fill="#262623"/>
<path d="M280.149 247.898C278.976 247.818 277.799 247.978 276.69 248.369C275.581 248.76 274.564 249.374 273.701 250.172C273.479 250.394 273.763 250.68 274.017 250.552C279.109 247.952 280.975 249.282 282.331 249.036C282.677 248.972 282.647 248.562 282.425 248.372C281.724 248.009 280.937 247.845 280.149 247.898Z" fill="#262623"/>
<path d="M158.479 242.302C157.561 241.512 156.391 241.164 155.443 240.468C154.494 239.631 153.413 238.955 152.243 238.468C151.709 238.289 151.138 238.241 150.581 238.33C150.024 238.418 149.497 238.64 149.043 238.976C145.843 241.346 146.443 242.976 146.861 245.518C147.068 246.984 147.003 248.476 146.671 249.918C146.652 249.991 146.659 250.068 146.692 250.136C146.724 250.204 146.78 250.258 146.848 250.288C146.917 250.319 146.994 250.324 147.066 250.303C147.138 250.281 147.2 250.235 147.241 250.172C149.241 246.572 146.399 243.436 148.189 241.258C148.742 240.468 149.51 239.853 150.401 239.486C152.401 238.886 154.131 241.162 155.681 242.016C156.563 242.358 157.361 242.886 158.019 243.564C158.16 243.708 158.264 243.884 158.321 244.076C158.378 244.269 158.388 244.473 158.348 244.67C158.309 244.867 158.222 245.052 158.095 245.208C157.968 245.363 157.805 245.486 157.619 245.564C156.891 245.812 156.116 245.89 155.353 245.792C154.591 245.693 153.861 245.421 153.219 244.996C152.819 244.662 152.397 244.355 151.955 244.078C151.669 243.92 151.417 244.204 151.543 244.49C152.218 245.342 153.105 246.001 154.115 246.401C155.125 246.8 156.223 246.927 157.297 246.766C157.82 246.757 158.325 246.578 158.736 246.256C159.147 245.933 159.442 245.486 159.575 244.981C159.709 244.476 159.674 243.941 159.477 243.458C159.279 242.974 158.929 242.569 158.479 242.302Z" fill="#262623"/>
<path d="M155.539 238.414C156.919 235.94 158.163 231.916 159.301 230.132C159.489 229.848 159.701 229.594 159.901 229.31C159.524 232.634 158.879 235.922 157.973 239.142C157.909 239.584 158.541 239.994 158.795 239.488C159.876 236.383 160.587 233.161 160.913 229.888C160.975 229.35 161.007 228.654 160.533 228.306C159.211 227.192 157.595 231.13 156.961 232.732C156.172 234.495 155.476 236.297 154.875 238.132C154.855 238.216 154.866 238.305 154.905 238.382C154.944 238.459 155.009 238.519 155.088 238.553C155.168 238.587 155.256 238.591 155.339 238.566C155.421 238.541 155.492 238.487 155.539 238.414Z" fill="#262623"/>
<path d="M158.637 241.354C158.437 241.698 158.921 242.112 159.205 241.796C159.755 241.161 160.42 240.636 161.165 240.248C162.479 239.59 162.689 240.342 163.251 240.438C163.851 240.586 164.113 239.438 162.651 239.038C161.829 238.993 161.012 239.187 160.299 239.599C159.586 240.01 159.009 240.62 158.637 241.354Z" fill="#262623"/>
<path d="M160.723 243.124C160.439 243.346 160.817 243.788 161.101 243.63C161.995 243.11 162.633 242.41 163.251 242.05C164.265 241.542 164.593 242.156 165.117 242.366C165.641 242.576 165.893 241.422 164.643 241.006C162.843 240.4 161.421 242.576 160.723 243.124Z" fill="#262623"/>
<path d="M165.843 244.768C165.579 243.422 163.771 243.696 162.745 244.926C162.525 245.178 162.809 245.652 163.125 245.432C163.409 245.242 164.579 244.546 164.895 244.926C165.021 245.084 164.895 245.684 164.833 245.874C164.195 249.064 157.309 252.54 157.309 255.926C157.313 256.006 157.342 256.082 157.392 256.145C157.442 256.207 157.511 256.252 157.588 256.273C157.665 256.294 157.747 256.29 157.822 256.262C157.896 256.234 157.96 256.183 158.005 256.116C158.68 254.737 159.577 253.477 160.659 252.386C162.301 250.698 166.419 247.686 165.843 244.768Z" fill="#262623"/>
<path d="M156.139 257.065C152.606 255.59 149.289 253.644 146.277 251.281C146.147 251.21 145.998 251.18 145.851 251.197C145.704 251.214 145.566 251.276 145.455 251.375C140.916 255.024 136.821 259.194 133.255 263.799C132.291 267.1 131.738 270.508 131.611 273.945C131.61 274.044 131.573 274.14 131.508 274.215C131.442 274.29 131.352 274.34 131.254 274.355C131.156 274.371 131.055 274.351 130.97 274.299C130.885 274.247 130.821 274.167 130.789 274.073C129.951 271.323 131.179 267.073 132.211 263.831C131.453 263.071 126.933 258.583 125.479 257.097C118.089 249.697 110.205 240.897 99.2091 240.697C96.2647 240.615 93.3538 241.338 90.7891 242.787C88.6811 244.005 87.5371 246.537 81.3551 247.129C78.564 247.437 75.7409 247.271 73.0051 246.639C70.7451 245.839 72.4491 244.743 67.5031 244.743C57.6871 245.005 49.5031 253.795 44.8711 262.603C42.6515 266.949 40.757 271.454 39.2031 276.081C40.6231 278.431 45.4191 287.383 45.6931 290.105C45.7231 290.547 45.1551 290.611 44.9331 290.295C43.7791 288.639 43.8411 286.971 40.0331 279.957C37.573 274.998 34.0297 270.655 29.6651 267.251C28.5811 266.345 28.3351 266.225 26.7891 266.903C26.4151 267.069 18.1371 270.487 17.9371 270.569C17.7936 270.612 17.6674 270.699 17.5765 270.819C17.4857 270.938 17.4348 271.083 17.4311 271.233C17.3491 272.491 20.9251 286.717 29.7291 300.251C32.4151 304.361 35.7291 308.439 40.5711 310.051C45.8391 311.851 49.7811 310.081 53.6891 306.099C57.1065 302.546 60.0889 298.599 62.5731 294.341C61.6431 290.625 59.8511 283.275 59.1911 279.483C59.1729 279.389 59.191 279.292 59.2419 279.211C59.2928 279.13 59.3725 279.071 59.465 279.047C59.5574 279.023 59.6556 279.035 59.7396 279.08C59.8235 279.126 59.887 279.202 59.9171 279.293C63.1711 289.747 63.1371 297.673 72.4991 313.275C72.5929 313.432 72.7445 313.547 72.9215 313.594C73.0985 313.641 73.2871 313.618 73.4471 313.529C90.6071 305.291 108.609 299.291 127.123 303.919C127.201 303.939 127.282 303.941 127.361 303.926C127.44 303.91 127.514 303.876 127.578 303.827C127.642 303.779 127.693 303.716 127.729 303.644C127.765 303.572 127.784 303.493 127.785 303.413C127.605 300.299 126.822 297.25 125.479 294.435C121.957 286.471 115.343 275.217 115.457 266.143C115.457 265.795 116.027 265.701 116.089 266.049C117.815 276.173 119.701 279.215 125.699 291.849C132.647 292.323 137.451 291.409 141.917 286.065C148.508 277.638 153.491 268.069 156.615 257.837C156.739 257.539 156.487 257.189 156.139 257.065ZM99.9031 284.851C98.2348 283.777 96.6872 282.526 95.2871 281.121C93.9216 279.747 92.8278 278.128 92.0631 276.349C91.9371 276.033 92.4751 275.811 92.6331 276.095C94.5491 280.075 98.9091 282.843 100.313 284.313C100.374 284.37 100.412 284.448 100.419 284.532C100.426 284.616 100.402 284.7 100.351 284.767C100.3 284.833 100.226 284.879 100.143 284.895C100.06 284.91 99.9749 284.894 99.9031 284.851Z" fill="#FECC19"/>
<path d="M232.069 216.761C226.129 202.139 202.611 202.645 198.181 221.561C197.35 224.835 197.237 228.251 197.848 231.574C198.459 234.896 199.781 238.048 201.723 240.813C201.911 241.035 202.291 240.845 202.123 240.561C199.201 235.607 197.97 229.837 198.615 224.123C200.569 208.973 215.269 203.947 224.915 209.865C230.477 213.313 232.275 218.335 232.595 224.691C232.859 228.092 232.347 231.509 231.1 234.685C229.853 237.861 227.903 240.713 225.395 243.027C224.921 243.427 225.617 244.101 226.059 243.689C234.065 236.981 235.175 224.401 232.069 216.761Z" fill="#262623"/>
<path d="M216.421 230.258C215.665 230.363 214.935 230.61 214.271 230.986C213.955 231.144 214.177 231.618 214.493 231.554C217.003 230.87 218.253 231.188 218.693 230.922C218.745 230.893 218.788 230.852 218.82 230.803C218.853 230.754 218.873 230.697 218.879 230.639C218.885 230.58 218.877 230.521 218.856 230.466C218.835 230.411 218.801 230.362 218.757 230.322C217.999 230.091 217.192 230.069 216.421 230.258Z" fill="#262623"/>
<path d="M203.745 230.2C203.68 230.216 203.624 230.255 203.586 230.31C203.549 230.364 203.532 230.431 203.54 230.497C203.548 230.562 203.579 230.623 203.629 230.667C203.678 230.711 203.742 230.736 203.809 230.736C205.275 230.774 206.735 230.944 208.171 231.242C208.272 231.217 208.363 231.161 208.431 231.081C208.499 231.002 208.541 230.904 208.551 230.8C208.551 229.918 205.331 229.706 203.745 230.2Z" fill="#262623"/>
<path d="M211.363 229.942C211.301 229.626 210.827 229.72 210.827 230.006C210.86 231.557 210.319 233.065 209.309 234.242C209.055 234.526 208.677 234.778 208.677 235.19C208.677 236.084 210.923 237.272 211.427 236.644C211.488 236.574 211.521 236.484 211.521 236.391C211.521 236.298 211.488 236.208 211.427 236.138C211.237 235.886 210.763 235.916 210.479 235.822C210.255 235.732 209.625 235.368 209.625 235.222C210.326 234.553 210.851 233.721 211.155 232.8C211.458 231.879 211.529 230.897 211.363 229.942Z" fill="#262623"/>
<path d="M210.383 241.448C210.798 241.617 211.242 241.699 211.69 241.689C212.137 241.678 212.578 241.575 212.983 241.386C213.294 241.255 213.559 241.035 213.745 240.753C213.93 240.472 214.029 240.142 214.027 239.804C214.122 239.134 214.012 238.451 213.711 237.844C213.337 237.376 212.819 237.688 212.869 238.226C212.99 238.57 213.048 238.934 213.039 239.298C213.05 239.583 213.006 239.868 212.911 240.136C212.525 240.446 212.055 240.634 211.561 240.676C211.068 240.719 210.573 240.614 210.139 240.374C209.587 240.156 209.337 240.956 210.383 241.448Z" fill="#262623"/>
<path d="M72.3068 313.87C69.3668 318.844 63.2568 341.312 63.3288 343.9C63.3288 344.278 63.8988 344.468 64.0568 344.09C64.8568 342.49 65.8188 335.112 70.6308 320.792C71.3127 318.594 72.1044 316.432 73.0028 314.313C73.2548 313.801 72.5868 313.4 72.3068 313.87Z" fill="#262623"/>
<path d="M127.879 304.64C127.853 304.545 127.79 304.464 127.705 304.415C127.619 304.366 127.518 304.352 127.423 304.377C127.327 304.401 127.245 304.462 127.194 304.547C127.144 304.631 127.128 304.732 127.151 304.828C129.306 313.879 130.827 323.068 131.703 332.33C132.207 339.202 132.149 339.052 132.337 340.17C132.431 340.706 133.157 340.518 133.189 340.044C133.573 335.302 131.417 315.4 127.879 304.64Z" fill="#262623"/>
<path d="M108.881 329.865C107.735 330.165 101.119 336.265 98.3554 343.173C98.2274 343.521 98.7654 343.743 98.9554 343.427C100.615 340.29 102.642 337.361 104.993 334.703C104.867 336.155 104.835 337.641 104.803 339.103C104.61 340.712 104.642 342.34 104.897 343.941C104.922 344.028 104.975 344.104 105.047 344.158C105.119 344.213 105.207 344.242 105.297 344.242C105.388 344.242 105.476 344.213 105.548 344.158C105.62 344.104 105.673 344.028 105.697 343.941C105.977 342.344 106.063 340.72 105.951 339.103C106.034 337.329 106.005 335.551 105.865 333.781C106.065 333.591 106.109 333.509 106.299 333.319C108.373 331.245 108.913 331.153 109.269 330.473C109.481 330.119 109.229 329.775 108.881 329.865Z" fill="#262623"/>
<path d="M108.059 306.22C107.995 305.84 107.363 305.934 107.363 306.314C107.585 310.114 107.963 313.87 108.185 317.662C108.421 321.2 108.607 328.462 108.817 328.98C108.844 329.06 108.894 329.13 108.963 329.179C109.031 329.229 109.113 329.255 109.197 329.255C109.282 329.255 109.364 329.229 109.432 329.179C109.5 329.13 109.551 329.06 109.577 328.98C109.717 321.364 109.21 313.75 108.059 306.22Z" fill="#262623"/>
<path d="M103.95 325.186C103.923 327.14 104.114 329.091 104.52 331.002C104.538 331.068 104.578 331.125 104.632 331.166C104.686 331.207 104.752 331.229 104.82 331.229C104.888 331.229 104.954 331.207 105.008 331.166C105.062 331.125 105.101 331.068 105.12 331.002C105.256 330.06 105.267 329.104 105.152 328.158C104.64 320.242 104.268 314.274 103.352 307.578C103.32 307.23 102.782 307.23 102.814 307.578C103.052 313.514 103.582 319.466 103.95 325.186Z" fill="#262623"/>
<path d="M236.021 310.012C235.365 309.318 234.621 308.713 233.807 308.212C233.933 307.296 234.359 305.714 234.345 305.146C232.945 304.522 218.311 297.018 217.243 296.454C215.963 295.844 214.738 295.123 213.583 294.3C198.451 301.868 199.129 302.126 195.685 303.5C195.913 305.172 196.24 306.829 196.665 308.462C189.912 312.556 184.564 318.609 181.333 325.816C180.266 327.836 179.529 330.013 179.151 332.266C179.153 332.373 179.19 332.477 179.255 332.562C179.321 332.647 179.413 332.708 179.516 332.736C179.619 332.764 179.729 332.759 179.829 332.719C179.929 332.68 180.013 332.61 180.069 332.518C181.583 329.318 181.407 327.592 184.869 321.96C194.905 305.904 205.855 305.268 224.825 307.608C233.689 308.728 233.791 309.302 237.225 313.52C241.54 318.986 245.161 324.965 248.005 331.32C250.119 335.902 250.355 337.202 251.229 338.592C251.28 338.674 251.358 338.735 251.45 338.764C251.542 338.792 251.641 338.787 251.729 338.749C251.817 338.71 251.889 338.641 251.93 338.555C251.972 338.468 251.981 338.369 251.955 338.276C251.681 335.832 244.919 319.222 236.021 310.012Z" fill="#262623"/>
<path d="M251.099 272.838C251.031 265.183 248.972 257.677 245.125 251.058C243.486 248.218 240.831 246.106 237.695 245.146C235.598 244.54 233.395 244.389 231.234 244.703C229.073 245.017 227.005 245.789 225.167 246.968C224.336 244.24 224.131 241.359 224.567 238.54C225.119 238.506 225.659 238.359 226.152 238.107C226.646 237.856 227.082 237.506 227.435 237.08C227.787 236.653 228.049 236.158 228.202 235.627C228.356 235.095 228.399 234.537 228.329 233.988C228.071 232.188 226.651 230.618 225.009 230.922C225.009 230.266 224.765 230.31 224.125 228.172L223.935 227.604C223.985 227.599 224.034 227.583 224.077 227.556C224.121 227.53 224.157 227.494 224.184 227.451C224.212 227.408 224.229 227.36 224.235 227.31C224.241 227.259 224.236 227.208 224.219 227.16C223.125 224.19 208.619 220.76 203.293 223.684C203.261 223.636 203.216 223.598 203.162 223.575C203.109 223.552 203.05 223.545 202.993 223.555C202.936 223.565 202.883 223.592 202.841 223.631C202.799 223.671 202.769 223.722 202.755 223.778C202.302 226.644 202.06 229.539 202.029 232.44C201.957 238.552 203.707 245.652 209.773 246.57C209.717 247.503 209.567 248.428 209.325 249.33C204.651 246.576 198.571 247.78 194.315 250.838C189.415 254.346 186.413 259.784 183.599 264.966C178.475 274.39 170.535 290.966 177.119 299.392C178.928 301.562 181.427 303.045 184.199 303.592C187.92 304.314 191.763 304.071 195.363 302.888C196.871 302.148 207.609 295.566 229.657 285.574C221.771 281.87 210.783 283.374 202.377 285.606C198.348 286.585 194.459 288.071 190.805 290.03C189.377 291.094 188.905 290.18 189.529 289.53C191.191 288.399 192.99 287.484 194.883 286.806C194.886 284.333 195.337 281.881 196.213 279.568C196.45 278.747 196.871 277.99 197.445 277.356C197.504 277.303 197.578 277.27 197.656 277.261C197.735 277.252 197.814 277.268 197.883 277.306C197.953 277.344 198.009 277.402 198.043 277.473C198.078 277.544 198.09 277.624 198.077 277.702C197.827 279.322 196.259 280.442 195.833 286.428C201.392 284.506 207.15 283.212 212.997 282.57C218.977 281.97 225.633 282.02 230.635 285.32C231.532 285.14 232.441 285.035 233.355 285.004C233.355 284.804 233.437 283.694 233.449 283.488C233.521 282.31 233.481 276.744 233.481 276.312C233.481 275.932 234.113 275.806 234.177 276.216C234.563 279.14 234.658 282.094 234.461 285.036C235.408 285.088 236.349 285.215 237.275 285.416C238.001 285.574 239.121 285.694 239.519 286.364C239.547 286.415 239.563 286.472 239.567 286.53C239.571 286.588 239.562 286.646 239.541 286.7C239.52 286.755 239.488 286.804 239.446 286.844C239.404 286.884 239.354 286.915 239.299 286.934C238.729 287.124 238.211 286.762 237.085 286.552C234.856 286.111 232.567 286.058 230.319 286.396C226.449 288.158 222.361 289.978 214.319 293.95C215.719 294.416 221.005 297.138 221.495 297.396C237.405 305.584 238.201 306.662 242.673 304.066C245.52 302.213 247.702 299.501 248.901 296.322C251.339 290.43 251.399 279.184 251.099 272.838ZM214.145 263.638C212.695 258.908 211.508 254.1 210.589 249.238C210.81 248.409 210.891 247.548 210.827 246.692C213.66 246.721 216.392 245.645 218.445 243.692C219.582 242.818 220.501 241.693 221.131 240.404C221.289 239.992 220.731 239.804 220.467 240.024C219.012 241.877 217.235 243.451 215.221 244.672C214.251 245.194 213.187 245.519 212.091 245.627C210.995 245.735 209.888 245.625 208.835 245.302C207.734 244.871 206.746 244.194 205.947 243.324C205.147 242.453 204.556 241.411 204.219 240.278C202.063 234.578 203.583 227.014 203.461 224.376C204.776 224.001 206.118 223.727 207.475 223.554C211.742 223.255 216.022 223.926 219.993 225.516C221.266 225.919 222.433 226.602 223.407 227.516C223.401 227.822 223.412 228.128 223.439 228.432C223.583 229.263 223.838 230.07 224.197 230.832C224.278 230.959 224.386 231.066 224.513 231.146C224.228 231.279 223.996 231.502 223.851 231.78C223.817 231.847 223.808 231.924 223.825 231.997C223.842 232.07 223.885 232.135 223.945 232.18C224.005 232.225 224.079 232.248 224.154 232.244C224.229 232.24 224.3 232.209 224.355 232.158C225.243 231.24 227.277 232.414 227.355 234.558C227.361 234.975 227.28 235.388 227.118 235.771C226.955 236.155 226.715 236.5 226.411 236.785C226.108 237.071 225.749 237.29 225.356 237.429C224.964 237.568 224.546 237.623 224.131 237.592C224.017 237.59 223.905 237.625 223.813 237.694C223.721 237.762 223.655 237.86 223.625 237.97C223.183 240.35 223.183 242.791 223.625 245.17C223.705 245.654 223.921 247.214 224.435 247.63C223.879 248.62 214.279 263.438 214.145 263.638Z" fill="#262623"/>
<path d="M324.689 231.744C324.111 232.11 324.125 233.086 323.141 233.356C322.32 233.429 321.503 233.18 320.863 232.66C320.808 232.608 320.737 232.577 320.661 232.573C320.586 232.569 320.511 232.592 320.451 232.637C320.39 232.683 320.348 232.748 320.331 232.822C320.314 232.896 320.324 232.973 320.359 233.04C320.682 233.505 321.129 233.87 321.649 234.093C322.168 234.316 322.74 234.39 323.299 234.304C323.678 234.212 324.031 234.039 324.337 233.797C324.642 233.556 324.892 233.251 325.069 232.904C325.256 232.671 325.356 232.381 325.353 232.082C325.347 232.008 325.321 231.937 325.28 231.875C325.238 231.814 325.181 231.764 325.115 231.73C325.048 231.696 324.975 231.68 324.9 231.682C324.826 231.685 324.753 231.706 324.689 231.744Z" fill="#262623"/>
<path d="M329.905 280.236C329.671 280.055 329.396 279.936 329.105 279.888C327.105 279.22 326.209 276.114 324.741 274.45C323.403 273.188 321.892 272.124 320.253 271.29C319.84 270.943 319.506 270.511 319.273 270.024C319.021 269.52 318.389 269.898 318.451 270.372C318.793 272.534 322.083 272.852 324.173 275.304C325.595 277 326.013 279.198 328.125 280.488C328.599 280.742 329.357 281.12 329.863 280.804C329.903 280.77 329.936 280.728 329.96 280.681C329.984 280.633 329.998 280.582 330.002 280.529C330.006 280.476 330 280.423 329.983 280.373C329.966 280.323 329.939 280.276 329.905 280.236Z" fill="#262623"/>
<path d="M312.297 275.714C313.815 276.566 315.457 277.174 317.165 277.514C317.861 277.642 319.031 277.988 319.663 277.514C319.704 277.488 319.738 277.454 319.764 277.413C319.79 277.372 319.807 277.325 319.813 277.277C319.819 277.229 319.815 277.18 319.8 277.134C319.785 277.088 319.76 277.046 319.727 277.01C319.075 276.358 318.575 276.844 315.111 275.776C313.6 275.181 312.123 274.506 310.685 273.754C310.619 273.738 310.55 273.741 310.487 273.763C310.423 273.785 310.367 273.826 310.327 273.88C310.286 273.934 310.262 273.998 310.258 274.066C310.254 274.133 310.271 274.2 310.305 274.258C310.856 274.882 311.535 275.379 312.297 275.714Z" fill="#262623"/>
<path d="M317.133 281.4C317.965 281.502 318.053 281.508 318.587 281.242C318.809 281.146 318.745 280.862 318.587 280.734C317.732 280.315 316.814 280.038 315.869 279.914C313.131 279.012 310.73 277.304 308.979 275.014C308.693 274.666 308.179 275.108 308.379 275.488C309.335 277.039 310.609 278.368 312.119 279.387C313.628 280.407 315.338 281.093 317.133 281.4Z" fill="#262623"/>
<path d="M311.823 282.384C312.527 282.784 315.299 284.184 316.059 283.902C316.11 283.883 316.156 283.853 316.195 283.815C316.234 283.777 316.265 283.732 316.286 283.681C316.307 283.631 316.317 283.577 316.316 283.522C316.315 283.468 316.303 283.414 316.281 283.364C315.727 282.442 312.681 282.678 309.009 279.002C308.954 278.95 308.882 278.919 308.807 278.915C308.731 278.911 308.657 278.933 308.596 278.979C308.536 279.025 308.493 279.09 308.477 279.164C308.46 279.238 308.47 279.315 308.505 279.382C309.334 280.652 310.477 281.686 311.823 282.384Z" fill="#262623"/>
<path d="M320.295 288.486C315.563 287.03 312.869 286.432 309.579 283.144C309.526 283.093 309.456 283.064 309.382 283.06C309.308 283.057 309.236 283.081 309.178 283.127C309.12 283.173 309.081 283.238 309.067 283.311C309.054 283.384 309.068 283.459 309.105 283.522C312.013 288.542 320.143 288.82 325.037 291.488C325.677 291.927 326.367 292.288 327.091 292.564C327.157 292.58 327.226 292.577 327.289 292.554C327.353 292.532 327.408 292.491 327.449 292.437C327.489 292.383 327.513 292.318 327.517 292.251C327.521 292.184 327.505 292.117 327.471 292.058C326.599 290.458 322.043 289.026 320.295 288.486Z" fill="#262623"/>
<path d="M341.823 248.53C338.039 248.658 334.269 249.039 330.537 249.668C321.258 251.162 312.186 253.74 303.509 257.348C303.342 257.391 303.188 257.475 303.062 257.593C302.936 257.711 302.842 257.859 302.789 258.023C302.735 258.187 302.724 258.362 302.756 258.531C302.788 258.701 302.863 258.859 302.973 258.992C307.681 266.938 308.489 268.818 311.127 273.028C311.349 273.408 311.887 273.09 311.727 272.68C309.865 268.658 304.705 259.906 304.267 259.214C303.715 258.25 303.667 258.414 304.013 258.234C315.14 253.652 326.895 250.774 338.881 249.698C339.733 249.636 340.555 249.572 341.377 249.446C341.704 250.378 342.117 251.278 342.611 252.134C352.165 271.878 353.089 277.83 354.433 280.046C354.591 280.33 355.161 280.236 355.097 279.856C354.783 276.4 342.939 248.654 341.823 248.53Z" fill="#262623"/>
<path d="M338.567 297.684C336.057 297.484 325.187 299.666 322.729 300.182C318.393 290.472 318.307 290.25 317.729 289.528C317.539 289.276 317.159 289.56 317.223 289.814C317.479 291.092 321.965 300.74 322.059 300.94C322.305 301.428 322.289 301.084 330.625 299.612C333.338 299.339 336.03 298.895 338.687 298.284C339.009 298.2 338.915 297.712 338.567 297.684Z" fill="#262623"/>
<path d="M365.499 243.283C362.011 237.037 357.383 235.695 350.421 236.549C346.956 236.864 343.601 237.938 340.597 239.695C339.201 236.522 338.395 233.121 338.219 229.659C338.889 229.614 339.529 229.362 340.05 228.938C340.571 228.514 340.947 227.939 341.127 227.293C349.617 222.581 350.053 212.539 345.927 203.893C338.983 189.467 317.941 191.835 311.503 203.925C310.059 206.327 309.548 209.177 310.068 211.932C310.588 214.687 312.104 217.155 314.325 218.865C309.457 220.511 309.737 226.429 314.223 227.255C314.145 232.479 314.867 237.429 319.691 239.363C320.915 239.864 322.225 240.121 323.547 240.119C323.595 241.193 323.503 242.268 323.273 243.319C320.196 242.589 317.035 242.268 313.873 242.363C304.381 242.563 300.273 250.743 296.803 259.495C295.389 262.801 294.316 266.244 293.603 269.769C293.603 270.147 294.173 270.339 294.331 269.959C294.886 268.542 295.36 267.096 295.753 265.627C297.147 261.352 298.837 257.18 300.811 253.141C303.307 248.367 307.227 243.975 312.885 243.531C316.3 243.365 319.723 243.556 323.097 244.101C323.077 244.17 323.072 244.242 323.082 244.314C323.093 244.385 323.119 244.453 323.159 244.513C324.897 246.533 327.933 246.533 330.399 246.375C333.277 246.348 336.082 245.469 338.459 243.849C342.837 240.563 338.637 241.079 344.723 239.011C349.209 237.483 355.499 236.473 359.607 238.631C362.893 240.407 364.693 243.913 366.181 247.325C368.621 253.098 370.29 259.166 371.145 265.375C372.027 271.505 372.645 283.299 371.145 289.305C369.223 297.125 363.391 300.943 355.655 300.873C351.474 300.572 347.361 299.645 343.455 298.123C339.055 296.733 328.255 293.323 327.237 292.971C328.8 289.08 329.935 285.031 330.621 280.895C330.683 280.613 330.683 280.327 330.999 280.199C331.307 280.11 331.627 280.068 331.947 280.075C338.361 279.413 344.833 279.594 351.199 280.613C353.94 281.043 356.652 281.633 359.323 282.381C359.703 282.477 360.113 282.477 360.523 282.539C360.619 282.536 360.712 282.503 360.787 282.444C360.862 282.385 360.916 282.303 360.941 282.211C360.966 282.118 360.961 282.02 360.925 281.931C360.89 281.842 360.827 281.767 360.745 281.717C359.447 281.069 360.703 281.447 356.509 280.389C348.536 278.541 340.313 278.018 332.169 278.841C328.625 279.221 330.303 279.317 327.769 288.071C326.223 293.439 326.153 293.703 326.757 293.887C331.341 295.343 344.997 299.703 347.241 300.401C353.441 302.273 360.127 302.925 365.765 299.167C367.705 315.097 367.879 314.059 367.503 314.245C367.241 314.345 366.963 314.399 366.681 314.403C356.921 315.969 347.04 316.656 337.157 316.457C326.407 316.457 315.821 316.365 305.515 314.089C305.699 304.559 306.449 295.048 307.759 285.607C307.791 285.197 307.159 285.131 307.063 285.511C306.663 287.345 306.337 289.209 306.051 291.075C305.301 291.075 302.949 294.617 297.549 295.911C295.962 296.315 294.31 296.395 292.691 296.145C291.072 295.895 289.521 295.321 288.129 294.457C280.529 289.601 278.381 273.413 276.275 265.187C279.393 265.277 282.675 263.485 285.663 262.213C285.917 262.089 286.167 261.987 286.421 261.865C287.231 261.483 287.039 261.641 288.255 263.265C295.153 272.909 295.679 280.241 296.885 282.485C297.019 282.733 297.331 282.579 297.359 282.359C297.182 279.968 296.627 277.62 295.715 275.403C294.117 270.941 291.915 266.719 289.171 262.855C287.065 259.979 287.729 260.193 283.571 262.033C276.795 265.155 275.371 264.021 275.541 264.847C275.502 264.881 275.472 264.925 275.455 264.975C275.439 265.024 275.436 265.077 275.447 265.129C276.448 272.717 278.391 280.151 281.231 287.259C282.435 290.317 284.419 293.006 286.985 295.059C292.653 299.183 301.185 297.483 305.887 292.437C304.957 299.755 304.461 307.123 304.403 314.501C304.412 314.62 304.455 314.735 304.528 314.83C304.601 314.926 304.7 314.997 304.813 315.037C315.104 316.99 325.575 317.828 336.045 317.535C346.556 317.811 357.068 317.071 367.435 315.323C367.705 315.314 367.967 315.229 368.19 315.078C368.414 314.927 368.59 314.715 368.699 314.469C368.799 313.783 368.757 313.083 368.573 312.415C368.383 310.897 368.193 309.379 367.973 307.893C366.739 298.153 366.843 298.693 366.549 298.537C372.043 294.315 373.009 287.667 373.125 280.707C373.331 268.709 371.399 253.557 365.499 243.283ZM311.883 223.257C312.008 222.461 312.371 221.722 312.925 221.138C313.479 220.553 314.198 220.151 314.985 219.985C315.423 219.991 315.855 220.088 316.253 220.27C316.652 220.453 317.008 220.715 317.299 221.042C317.59 221.369 317.811 221.753 317.946 222.17C318.081 222.587 318.128 223.027 318.083 223.463C317.979 224.134 317.672 224.757 317.203 225.249C316.734 225.741 316.125 226.077 315.459 226.213C315.025 226.291 314.578 226.273 314.151 226.161C313.724 226.049 313.327 225.845 312.986 225.563C312.646 225.282 312.371 224.93 312.181 224.532C311.99 224.133 311.889 223.698 311.883 223.257ZM332.813 244.927C329.941 245.615 326.923 245.353 324.213 244.179C324.643 242.855 324.677 241.434 324.311 240.091C328.539 239.524 332.375 237.321 334.995 233.957C335.289 233.585 334.705 232.939 334.237 233.357C332.356 235.275 330.191 236.894 327.819 238.157C323.197 240.267 317.419 239.143 315.819 233.921C315.244 231.8 314.999 229.604 315.091 227.409C316.008 227.33 316.878 226.973 317.584 226.384C318.291 225.796 318.8 225.005 319.043 224.119C319.101 223.848 319.143 223.574 319.169 223.299L319.927 223.111C319.56 224.412 319.254 225.73 319.011 227.061C318.821 228.061 318.347 229.661 319.769 229.937C321.005 230.154 322.277 229.907 323.341 229.243C323.447 229.172 323.521 229.063 323.55 228.939C323.578 228.815 323.557 228.685 323.493 228.576C323.428 228.466 323.324 228.386 323.202 228.351C323.079 228.315 322.948 228.328 322.835 228.387C322.387 228.627 321.909 228.809 321.413 228.927C320.926 229.051 320.415 229.051 319.927 228.927C319.657 228.777 319.715 228.423 320.275 225.891C320.497 224.943 320.749 223.994 321.033 223.045C321.503 223.083 321.963 223.2 322.393 223.393C322.367 223.968 322.461 224.543 322.669 225.081C322.878 225.618 323.196 226.106 323.603 226.514C324.011 226.922 324.499 227.239 325.037 227.448C325.575 227.656 326.15 227.749 326.725 227.723C327.656 227.658 328.544 227.308 329.269 226.72C329.993 226.132 330.518 225.334 330.771 224.437C330.908 223.841 330.919 223.223 330.803 222.622C330.687 222.022 330.448 221.452 330.099 220.95C329.751 220.447 329.302 220.023 328.781 219.703C328.26 219.384 327.677 219.176 327.071 219.095C326.097 219.133 325.157 219.46 324.369 220.034C323.581 220.608 322.982 221.403 322.647 222.319C322.244 222.15 321.817 222.044 321.381 222.003C321.665 221.087 321.919 220.203 322.181 219.283C322.275 218.937 321.731 218.683 321.547 219.031C321.064 219.99 320.652 220.983 320.315 222.003C319.92 222.04 319.535 222.147 319.177 222.319C319.036 221.489 318.659 220.717 318.092 220.095C317.524 219.473 316.791 219.026 315.977 218.809C316.113 217.965 316.377 216.583 316.453 216.287C318.197 214.641 325.209 215.319 327.483 215.617C329.863 215.956 332.21 216.495 334.499 217.229C335.147 217.429 335.281 217.429 335.385 218.145C335.622 219.904 336.135 221.615 336.905 223.215C336.453 223.659 336.857 224.143 337.219 223.931C338.673 223.045 340.065 224.437 340.253 225.891C340.313 226.238 340.292 226.594 340.193 226.932C340.093 227.27 339.918 227.58 339.68 227.84C339.442 228.099 339.147 228.301 338.819 228.429C338.491 228.557 338.138 228.608 337.787 228.579C337.705 228.558 337.62 228.556 337.537 228.573C337.454 228.59 337.376 228.625 337.31 228.677C337.243 228.729 337.188 228.795 337.151 228.871C337.113 228.947 337.094 229.03 337.093 229.115C337.167 232.115 338.251 238.193 339.989 240.535C339.179 241.739 338.119 242.755 336.88 243.513C335.642 244.271 334.255 244.753 332.813 244.927ZM323.771 222.703C324.063 221.857 326.075 219.659 327.851 220.555C328.472 220.83 328.986 221.298 329.32 221.89C329.653 222.481 329.787 223.164 329.701 223.837C329.616 224.51 329.316 225.138 328.846 225.628C328.376 226.117 327.761 226.442 327.091 226.555C326.584 226.657 326.058 226.623 325.568 226.455C325.078 226.288 324.642 225.993 324.304 225.6C323.966 225.208 323.738 224.733 323.645 224.224C323.551 223.714 323.595 223.189 323.771 222.703Z" fill="#262623"/>
<path d="M308.029 315.767C306.337 318.647 301.177 339.531 300.791 343.837C300.727 344.407 301.613 344.501 301.771 343.963C302.237 342.307 302.771 338.747 304.171 332.963C306.205 324.537 307.325 321.451 307.997 318.991C308.342 317.99 308.609 316.965 308.797 315.925C308.851 315.545 308.217 315.449 308.029 315.767Z" fill="#262623"/>
<path d="M334.235 338.21V338.052C334.237 337.97 334.21 337.889 334.158 337.825C334.106 337.762 334.032 337.719 333.951 337.704C333.643 337.176 333.316 336.659 332.971 336.154C332.924 336.081 332.85 336.029 332.765 336.009C332.68 335.989 332.591 336.004 332.516 336.049C332.442 336.095 332.388 336.168 332.366 336.252C332.345 336.337 332.357 336.427 332.401 336.502C332.687 337.102 332.971 337.702 333.255 338.274C331.825 341.495 330.724 344.852 329.967 348.294C329.955 348.342 329.952 348.392 329.959 348.441C329.965 348.49 329.982 348.537 330.007 348.579C330.032 348.622 330.065 348.659 330.104 348.689C330.144 348.719 330.188 348.741 330.236 348.753C330.284 348.766 330.334 348.769 330.383 348.762C330.432 348.755 330.479 348.739 330.521 348.714C330.564 348.689 330.601 348.656 330.631 348.616C330.661 348.577 330.683 348.532 330.695 348.484C331.373 346.616 332.591 342.084 333.825 339.41C335.737 343.316 337.342 347.364 338.625 351.518C338.847 352.056 339.543 351.644 339.479 351.17C338.188 346.679 336.43 342.336 334.235 338.21Z" fill="#262623"/>
<path d="M363.887 322.879C363.365 320.578 362.678 318.317 361.831 316.115C361.705 315.799 361.137 315.957 361.199 316.273C361.557 319.135 361.867 319.101 367.199 340.455C367.655 342.766 368.256 345.047 368.999 347.283C369.157 347.693 369.853 347.693 369.821 347.189C369.559 344.669 364.523 325.327 363.887 322.879Z" fill="#262623"/>
<path d="M133.095 131.316C131.741 122.53 126.527 113.582 118.175 110.864C109.82 108.702 100.953 109.848 93.4229 114.064C82.3909 120.228 78.8089 131.074 81.4429 143.084C85.0249 159.204 98.4689 169.802 98.7649 180.732C96.3169 181.548 94.8709 185.732 97.3429 187.532C96.9194 187.841 96.5739 188.245 96.3336 188.711C96.0933 189.177 95.965 189.692 95.9588 190.216C95.9525 190.741 96.0686 191.259 96.2978 191.73C96.527 192.202 96.8629 192.613 97.2789 192.932C96.7892 193.431 96.4847 194.082 96.416 194.778C96.3472 195.473 96.5183 196.171 96.9009 196.756C97.5821 197.598 98.4328 198.286 99.3977 198.776C100.363 199.266 101.42 199.548 102.501 199.602C104.926 200.159 107.417 200.372 109.901 200.234C116.301 199.74 117.739 196.034 115.937 194.006C116.432 193.735 116.855 193.348 117.169 192.879C117.483 192.41 117.68 191.872 117.742 191.31C117.804 190.749 117.73 190.181 117.526 189.654C117.322 189.128 116.995 188.658 116.571 188.284C117.551 187.23 118.091 185.84 118.079 184.4C118.152 184.033 118.152 183.655 118.079 183.287C118.006 182.92 117.861 182.571 117.652 182.259C117.444 181.948 117.176 181.681 116.864 181.474C116.552 181.266 116.203 181.122 115.835 181.05C116.913 170.75 125.435 164.412 130.661 150.514C133.078 144.423 133.915 137.819 133.095 131.316ZM107.079 134.572C106.205 133.698 105.799 132.172 106.825 131.41C107.585 130.874 108.279 131.664 108.343 132.39C108.332 132.831 108.211 133.262 107.99 133.643C107.769 134.025 107.456 134.344 107.079 134.572ZM106.573 136.436C106.699 136.372 106.795 136.31 106.921 136.248C108.695 137.666 110.856 138.514 113.121 138.682C112.457 140.61 111.951 142.632 111.477 144.592C108.527 156.477 107.198 168.706 107.525 180.946L103.605 180.756C104.957 168.198 104.381 147.3 100.919 137.606C102.874 137.723 104.825 137.32 106.573 136.436ZM130.439 146.71C125.655 162.934 115.375 169.31 114.475 181.292C114.445 181.324 114.381 181.388 114.381 181.42C112.541 181.224 110.696 181.076 108.849 180.976C108.605 171.644 109.325 162.312 110.999 153.128C111.862 148.22 113.045 143.373 114.539 138.618C115.545 138.606 116.532 138.338 117.406 137.841C118.281 137.343 119.015 136.631 119.539 135.772C121.127 132.372 116.623 129.372 113.629 137.354C111.618 137.309 109.673 136.634 108.065 135.426C111.523 132.388 108.709 129.036 106.421 130.146C104.881 130.894 104.201 133.072 105.979 135.268C104.293 136.13 102.389 136.471 100.509 136.248C99.9662 134.608 99.0705 133.106 97.8849 131.848C95.5249 129.894 92.7369 132.192 93.9029 134.154C95.3275 135.911 97.3568 137.072 99.5929 137.41C100.682 140.786 101.444 144.259 101.869 147.78C104.095 162.738 102.659 177.55 102.659 180.622C100.873 180.542 100.079 180.492 99.7509 180.528C99.7509 170.422 89.5309 162.068 84.2929 148.128C79.9489 136.542 81.0329 124.702 90.7409 117.276C98.8709 111.022 113.481 108.436 121.783 113.988C126.352 117.415 129.592 122.319 130.951 127.866C132.59 134.067 132.412 140.608 130.439 146.71ZM115.077 137.258C115.418 136.475 115.831 135.723 116.309 135.014C118.483 131.876 119.309 134.64 117.709 136.058C116.96 136.695 116.049 137.111 115.077 137.258ZM99.0169 135.962C97.8938 135.653 96.842 135.127 95.9209 134.414C95.5097 134.157 95.1722 133.797 94.9409 133.37C94.6969 132.582 96.2949 131.514 97.6909 133.56C98.2061 134.318 98.65 135.123 99.0169 135.962Z" fill="#262623"/>
<path d="M46.7009 68.0304C46.9109 68.0524 69.8209 68.3664 72.4009 68.3464C74.7029 68.4962 77.0143 68.3902 79.2929 68.0304C79.6729 67.9044 79.7349 67.2724 79.2929 67.2084C78.2869 67.0769 77.2695 67.0561 76.2589 67.1464C70.0089 67.3344 50.0469 66.6684 46.5749 67.1144C45.9989 67.1464 46.1989 67.9784 46.7009 68.0304Z" fill="#262623"/>
<path d="M46.7009 77.5464C46.8189 77.5464 69.1609 77.8864 72.4009 77.8624C74.7029 78.0122 77.0143 77.9062 79.2929 77.5464C79.6729 77.4204 79.7349 76.7864 79.2929 76.7244C78.287 76.5922 77.2695 76.5708 76.2589 76.6604C70.0089 76.8504 50.0469 76.1844 46.5749 76.6284C45.9989 76.6924 46.1989 77.5084 46.7009 77.5464Z" fill="#262623"/>
<path d="M166.761 71.8244C166.871 71.8244 189.215 72.1644 192.461 72.1404C194.763 72.2902 197.073 72.1842 199.351 71.8244C199.731 71.6984 199.793 71.0664 199.351 71.0024C198.345 70.8712 197.328 70.8498 196.317 70.9384C190.067 71.1284 170.105 70.4624 166.633 70.9084C166.065 70.9704 166.287 71.7884 166.761 71.8244Z" fill="#262623"/>
<path d="M166.761 81.3703C166.961 81.3923 189.613 81.7083 192.461 81.6863C194.762 81.8361 197.073 81.7301 199.351 81.3703C199.731 81.2443 199.793 80.6123 199.351 80.5483C198.345 80.4167 197.328 80.3959 196.317 80.4863C190.067 80.6743 170.105 80.0083 166.633 80.4543C166.065 80.4863 166.285 81.3183 166.761 81.3703Z" fill="#262623"/>
<path d="M85.199 108.936C82.4628 102.386 79.1518 96.0918 75.305 90.1262C76.475 90.4422 80.105 91.3602 80.743 91.5502C81.3582 91.8225 82.0333 91.9313 82.703 91.8662C82.7986 91.8395 82.8857 91.7883 82.9554 91.7176C83.0252 91.647 83.0753 91.5593 83.1008 91.4633C83.1262 91.3673 83.1262 91.2663 83.1006 91.1704C83.075 91.0744 83.0248 90.9868 82.955 90.9162C82.3364 90.5224 81.6316 90.2843 80.901 90.2222C80.173 90.0322 77.329 89.3362 76.633 89.1782C74.915 88.7782 73.935 88.1042 73.377 89.7782C72.6205 91.8814 72.0189 94.0372 71.577 96.2282C71.5504 96.3247 71.5634 96.4279 71.6129 96.5149C71.6624 96.6019 71.7444 96.6657 71.841 96.6922C71.9375 96.7187 72.0406 96.7058 72.1276 96.6563C72.2147 96.6068 72.2784 96.5247 72.305 96.4282C73.1067 94.6615 73.7622 92.832 74.265 90.9582C77.9879 96.8642 81.3753 102.975 84.411 109.262C84.635 109.694 85.387 109.38 85.199 108.936Z" fill="#FECC19"/>
<path d="M153.641 95.4682C153.475 94.5522 152.629 94.6302 150.101 94.3002C148.643 94.0809 147.174 93.9433 145.701 93.8882C145.612 93.8913 145.528 93.9256 145.463 93.985C145.398 94.0443 145.356 94.1249 145.345 94.2123C145.333 94.2997 145.354 94.3883 145.402 94.4623C145.449 94.5363 145.522 94.5908 145.607 94.6162C147.489 95.1333 149.414 95.482 151.359 95.6582C146.18 100.308 140.723 104.636 135.017 108.62C134.575 108.936 134.953 109.662 135.459 109.378C138.632 107.472 141.684 105.371 144.599 103.088C149.075 99.6882 152.199 96.6882 152.399 96.5442C152.273 97.7762 151.925 101.57 151.861 102.234C151.698 102.879 151.709 103.555 151.893 104.194C151.945 104.277 152.017 104.346 152.102 104.393C152.188 104.441 152.285 104.466 152.383 104.466C152.481 104.466 152.577 104.441 152.663 104.393C152.748 104.346 152.821 104.277 152.873 104.194C153.053 103.877 153.14 103.515 153.125 103.15C153.315 101 153.779 96.0422 153.641 95.4682Z" fill="#FECC19"/>
<path d="M162.967 150.82C161.505 149.137 159.911 147.572 158.199 146.142C158.127 146.08 158.033 146.047 157.937 146.05C157.841 146.054 157.75 146.093 157.682 146.161C157.614 146.229 157.574 146.32 157.571 146.416C157.567 146.512 157.6 146.606 157.663 146.678C158.801 148.237 160.082 149.688 161.487 151.01C160.309 151.21 153.383 151.326 151.467 151.294C147.819 151.257 144.172 151.141 140.529 150.946C140.055 150.914 139.929 151.736 140.403 151.8C147.455 152.602 154.564 152.771 161.645 152.306C156.477 157.664 156.621 157.44 156.525 157.906C156.499 158.003 156.498 158.104 156.524 158.201C156.549 158.297 156.6 158.385 156.67 158.456C156.741 158.526 156.829 158.577 156.925 158.603C157.021 158.629 157.123 158.629 157.219 158.602C157.929 158.402 157.991 157.98 161.867 153.86C162.375 153.383 162.843 152.865 163.267 152.312C163.725 151.768 163.379 151.26 162.967 150.82Z" fill="#FECC19"/>
<path d="M239.751 115.258C235.293 111.8 229.977 109.623 224.374 108.96C218.771 108.297 213.093 109.174 207.951 111.496C207.838 111.444 207.713 111.424 207.589 111.437C207.465 111.449 207.347 111.495 207.247 111.57C207.146 111.644 207.068 111.743 207.02 111.858C206.971 111.973 206.954 112.099 206.971 112.222C209.185 124.977 212.226 137.574 216.075 149.934C216.113 150.052 216.183 150.156 216.278 150.236C216.373 150.315 216.488 150.366 216.61 150.382C216.733 150.399 216.857 150.38 216.97 150.329C217.082 150.278 217.178 150.196 217.245 150.092C241.133 114.068 240.251 115.758 239.751 115.258Z" fill="#FECC19"/>
<path d="M377.385 86.4925C377.145 85.709 376.714 84.9972 376.132 84.4208C375.549 83.8444 374.833 83.4214 374.047 83.1896C373.261 82.9578 372.43 82.9244 371.628 83.0924C370.826 83.2605 370.078 83.6247 369.451 84.1526C369.139 82.3686 369.781 71.5246 369.143 68.1526C368.963 67.2086 368.865 67.2026 367.775 67.2166C366.589 67.2346 352.563 67.3005 352.507 67.3125C352.077 67.3845 351.763 68.1346 352.475 68.7126C352.883 69.1982 353.178 69.7686 353.339 70.3824C353.499 70.9962 353.521 71.638 353.403 72.2613C353.285 72.8847 353.03 73.4739 352.656 73.9864C352.282 74.4989 351.798 74.9219 351.241 75.2246C350.654 75.5306 350.008 75.7034 349.347 75.7308C348.686 75.7581 348.027 75.6393 347.417 75.3828C346.808 75.1262 346.262 74.7383 345.819 74.2467C345.377 73.755 345.048 73.1718 344.857 72.5386C344.351 70.7386 345.679 69.4086 346.405 67.8906C346.436 67.8268 346.451 67.756 346.447 67.6849C346.444 67.6139 346.422 67.545 346.384 67.4848C346.346 67.4246 346.293 67.3751 346.231 67.3411C346.168 67.3071 346.098 67.2897 346.027 67.2906L289.063 67.1646C288.988 67.1643 288.914 67.1788 288.845 67.2072C288.776 67.2357 288.713 67.2775 288.661 67.3303C288.608 67.3831 288.566 67.4458 288.538 67.5149C288.509 67.5839 288.495 67.6579 288.495 67.7326C288.557 70.1666 288.715 81.7685 288.747 85.1185C288.099 84.6384 287.347 84.3188 286.552 84.1861C285.756 84.0534 284.941 84.1113 284.172 84.3552C283.404 84.5991 282.704 85.0219 282.131 85.5888C281.558 86.1558 281.127 86.8508 280.875 87.6165C280.42 88.8337 280.365 90.1641 280.718 91.4146C281.071 92.6652 281.813 93.7707 282.837 94.5706C283.719 95.1957 284.774 95.5314 285.855 95.5314C286.936 95.5314 287.991 95.1957 288.873 94.5706C288.873 95.3286 289.031 110.439 289.031 110.439C289.033 110.561 289.074 110.679 289.148 110.776C289.222 110.873 289.326 110.943 289.443 110.977C290.115 111.133 307.157 111.105 306.955 111.103C306.111 111.929 305.5 112.964 305.185 114.103C304.981 115.043 305.047 116.023 305.375 116.928C305.703 117.833 306.281 118.627 307.04 119.218C307.8 119.809 308.712 120.174 309.669 120.27C310.627 120.366 311.593 120.189 312.455 119.761C313.248 119.421 313.956 118.909 314.526 118.261C315.096 117.613 315.514 116.847 315.751 116.017C315.987 115.187 316.035 114.315 315.891 113.464C315.748 112.613 315.416 111.805 314.921 111.099C347.875 111.099 345.745 111.299 346.217 111.005C346.563 110.753 346.121 110.405 345.963 110.183C345.427 109.53 345.079 108.743 344.956 107.908C344.833 107.072 344.94 106.219 345.265 105.44C345.59 104.66 346.121 103.984 346.801 103.483C347.481 102.982 348.284 102.676 349.125 102.597C349.806 102.591 350.479 102.732 351.1 103.01C351.722 103.289 352.276 103.697 352.725 104.209C353.266 104.818 353.588 105.59 353.64 106.403C353.691 107.216 353.47 108.024 353.011 108.697C352.505 109.659 351.345 111.143 352.379 111.257C352.379 111.257 368.353 111.145 368.847 111.131C369.923 111.353 369.923 110.941 369.923 110.753C369.923 104.935 369.701 99.1526 369.637 93.3346C373.623 95.4006 378.643 90.8645 377.385 86.4925ZM374.319 91.8346C371.195 94.1626 368.691 90.4346 368.375 92.1826C368.439 98.0926 368.471 103.973 368.659 109.885C363.539 109.979 358.449 109.979 353.329 109.979C356.995 105.839 351.929 99.8005 347.129 101.855C346.39 102.179 345.728 102.655 345.186 103.253C344.644 103.85 344.234 104.556 343.984 105.322C343.733 106.089 343.647 106.9 343.731 107.703C343.816 108.505 344.068 109.281 344.473 109.979C339.701 109.947 334.927 109.979 330.153 109.885C330.027 104.605 329.933 99.3265 329.869 94.0846C329.092 94.8017 328.111 95.2576 327.062 95.3882C326.013 95.5188 324.95 95.3175 324.021 94.8125C323.059 94.2772 322.25 93.5057 321.669 92.5707C321.088 91.6356 320.755 90.568 320.701 89.4686C320.651 88.6525 320.786 87.8356 321.095 87.0788C321.405 86.322 321.881 85.6449 322.489 85.0979C323.097 84.5509 323.82 84.1482 324.605 83.9198C325.39 83.6913 326.217 83.643 327.023 83.7786C327.558 83.8153 328.079 83.9638 328.553 84.2146C329.027 84.4654 329.444 84.8129 329.775 85.2346C329.711 79.6066 329.647 73.9805 329.553 68.3526C334.643 68.4486 339.731 68.4486 344.853 68.4486C341.313 72.5886 346.401 78.5006 351.143 76.4766C354.083 75.2766 355.789 71.1026 353.673 68.4766C358.473 68.4446 363.283 68.5066 368.055 68.3806C368.531 70.2185 367.297 87.6625 369.131 86.1145C373.399 80.4546 379.661 87.8486 374.319 91.8346Z" fill="#FECC19"/>
<path d="M238.613 122.054C238.509 122.254 219.013 151.59 219.139 151.388C218.836 151.854 218.407 152.224 217.901 152.454C217.396 152.685 216.836 152.767 216.285 152.691C215.735 152.615 215.218 152.383 214.794 152.024C214.371 151.665 214.058 151.193 213.893 150.662C210.432 139.602 207.614 128.35 205.453 116.964C196.168 121.374 188.959 129.217 185.347 138.84C177.217 161.78 193.761 183.772 218.793 181.04C234.071 179.402 246.915 168.994 249.517 153.76C250.614 147.984 250.186 142.02 248.273 136.46C246.361 130.9 243.031 125.934 238.613 122.054Z" fill="#FECC19"/>
<path d="M83.9215 225.439C82.5095 225.653 83.4295 227.477 84.4975 227.135C84.7155 227.053 84.8932 226.89 84.9929 226.679C85.0926 226.469 85.1065 226.228 85.0316 226.007C84.9568 225.787 84.799 225.604 84.5918 225.498C84.3846 225.392 84.1441 225.37 83.9215 225.439Z" fill="#262623"/>
<path d="M91.0486 222.767C90.9101 222.815 90.7851 222.895 90.6838 223.002C90.5825 223.108 90.5079 223.236 90.4661 223.377C90.4243 223.518 90.4165 223.666 90.4434 223.81C90.4703 223.955 90.531 224.09 90.6206 224.207C90.778 224.375 90.9888 224.484 91.2173 224.515C91.4458 224.546 91.6781 224.497 91.8746 224.377C92.0306 224.239 92.1405 224.056 92.1895 223.854C92.2385 223.651 92.2242 223.439 92.1486 223.245C92.0657 223.036 91.9035 222.868 91.6973 222.778C91.4912 222.689 91.2579 222.685 91.0486 222.767Z" fill="#262623"/>
<path d="M313.131 223.448C312.929 223.532 312.768 223.692 312.684 223.895C312.599 224.097 312.599 224.325 312.683 224.527C312.766 224.73 312.927 224.891 313.129 224.975C313.331 225.059 313.559 225.06 313.761 224.976C314.589 224.71 314.263 223.034 313.131 223.448Z" fill="#262623"/>
<path d="M324.799 223.8C324.698 223.841 324.606 223.901 324.528 223.977C324.45 224.053 324.388 224.143 324.345 224.243C324.302 224.343 324.28 224.451 324.278 224.559C324.277 224.668 324.297 224.776 324.338 224.877C324.378 224.978 324.438 225.07 324.514 225.148C324.59 225.226 324.681 225.288 324.781 225.331C324.881 225.374 324.988 225.396 325.097 225.398C325.206 225.399 325.314 225.379 325.415 225.338C326.253 225 325.883 223.426 324.799 223.8Z" fill="#262623"/>
</svg>
