<svg width="400" height="365" viewBox="0 0 400 365" fill="none" xmlns="http://www.w3.org/2000/svg">
<path d="M232.226 240.338C232.221 240.2 232.187 240.065 232.127 239.94C232.067 239.816 231.982 239.705 231.878 239.614C231.868 239.197 231.757 238.788 231.556 238.423C231.355 238.058 231.068 237.746 230.721 237.515C230.374 237.283 229.976 237.139 229.561 237.093C229.147 237.048 228.727 237.103 228.338 237.254C226.738 235.254 223.392 238.266 224.538 239.48C224.512 239.506 224.512 239.534 224.484 239.56C223.684 241.598 225.852 243.748 227.73 244.092C228.282 244.211 228.854 244.203 229.402 244.068C229.951 243.933 230.461 243.675 230.895 243.313C231.328 242.951 231.673 242.495 231.904 241.979C232.135 241.464 232.245 240.902 232.226 240.338Z" fill="#262623"/>
<path d="M173.818 260.666C173.602 260.307 173.279 260.024 172.895 259.855C172.511 259.687 172.085 259.642 171.674 259.726C171.476 259.781 171.295 259.887 171.149 260.033C171.003 260.179 170.898 260.359 170.842 260.558C170.19 262.486 172.132 264.558 173.47 263.696C174.362 263.29 174.282 261.4 173.818 260.666Z" fill="#262623"/>
<path d="M185.296 256.75C185.082 256.388 184.76 256.103 184.375 255.935C183.99 255.766 183.562 255.723 183.152 255.812C182.953 255.868 182.772 255.973 182.627 256.119C182.481 256.265 182.375 256.446 182.32 256.644C181.668 258.57 183.608 260.632 184.948 259.78C185.836 259.378 185.764 257.506 185.296 256.75Z" fill="#262623"/>
<path d="M186.128 268.496C184.73 265.566 183.06 262.774 181.14 260.156C180.653 259.288 179.962 258.552 179.128 258.01C179.042 257.964 178.945 257.944 178.848 257.953C178.751 257.961 178.659 257.997 178.582 258.057C178.506 258.116 178.448 258.197 178.416 258.289C178.384 258.381 178.38 258.48 178.404 258.574C178.532 259.404 178.782 259.522 180.872 262.892C182.502 265.55 183.945 268.319 185.19 271.178V271.258C183.902 271.232 180.416 271.234 180.04 271.312C179.13 271.512 179.316 272.712 180.04 272.974C181.141 273.263 182.284 273.363 183.42 273.27C184.424 273.396 185.443 273.323 186.42 273.056C188.346 272.2 186.692 269.676 186.128 268.496Z" fill="#262623"/>
<path d="M180.416 277.588C180.451 278.521 180.815 279.412 181.443 280.104C182.071 280.795 182.922 281.243 183.848 281.368C184.826 281.362 185.769 281.004 186.504 280.359C187.239 279.714 187.716 278.825 187.848 277.856C188.014 277.16 188.202 276.042 187.312 275.738C186.486 275.454 186.058 276.276 185.864 276.916C185.578 277.858 185.3 279.276 184.04 279.276C182.7 279.276 182.28 277.876 181.412 277.158C181.327 277.083 181.222 277.034 181.109 277.016C180.997 276.998 180.882 277.012 180.778 277.058C180.673 277.103 180.584 277.176 180.52 277.27C180.456 277.364 180.42 277.474 180.416 277.588Z" fill="#262623"/>
<path d="M152.66 297C150.5 297.326 148.386 297.902 146.358 298.716C131.794 303.818 116.622 309.742 103.638 319.016C101.661 320.389 99.7713 321.885 97.9803 323.494C96.1353 324.977 94.7878 326.989 94.1183 329.26C93.9583 329.984 94.9183 330.738 95.4863 330.06C96.7192 328.464 98.0351 326.934 99.4283 325.476C104.342 321.254 109.691 317.566 115.384 314.476C125.27 309.243 135.555 304.804 146.144 301.202C148.518 300.489 150.803 299.508 152.954 298.278C153.572 297.942 153.41 296.922 152.66 297Z" fill="#262623"/>
<path d="M190.526 298.532C209.192 307.418 227.04 308.132 242.126 326.61C246.88 332.43 247.882 335.906 250.198 338.784C250.82 339.558 251.86 338.704 251.7 337.9C251.118 335.716 250.165 333.648 248.884 331.786C245.361 326.043 240.912 320.924 235.718 316.634C226.696 309.22 219.582 307.108 209.732 303.492C195.164 298.148 194.702 298.08 191.12 297.244C190.312 297.056 189.778 298.176 190.526 298.532Z" fill="#262623"/>
<path d="M282.832 247.9C282.348 248.7 281.888 250.342 282.698 251.118C282.843 251.249 283.012 251.35 283.197 251.414C283.381 251.478 283.577 251.505 283.771 251.492C283.966 251.48 284.157 251.429 284.331 251.341C284.506 251.254 284.661 251.132 284.788 250.984C285.201 250.453 285.436 249.806 285.46 249.134C285.69 246.924 283.662 246.536 282.832 247.9Z" fill="#262623"/>
<path d="M295.274 248.866C295.106 248.77 294.921 248.709 294.729 248.687C294.536 248.665 294.342 248.682 294.156 248.737C293.971 248.792 293.799 248.884 293.65 249.008C293.501 249.132 293.379 249.284 293.29 249.456C292.808 250.256 292.346 251.898 293.156 252.674C293.302 252.805 293.471 252.905 293.656 252.969C293.84 253.033 294.036 253.06 294.231 253.047C294.426 253.035 294.616 252.983 294.791 252.896C294.966 252.809 295.121 252.688 295.248 252.54C295.661 252.01 295.896 251.362 295.918 250.69C296 250.356 295.982 250.006 295.868 249.682C295.754 249.358 295.547 249.075 295.274 248.866Z" fill="#262623"/>
<path d="M284.842 259.2C286.113 258.347 287.176 257.22 287.954 255.902C289.035 254.038 289.693 251.96 289.884 249.814C289.934 249.198 289.054 249.038 288.758 249.52C287.358 251.792 286.718 254.884 284.226 256.948C283.684 257.398 282.748 257.698 282.348 258.316C281.484 259.652 283.448 261.05 284.36 261.776C285.54 262.714 287.228 264.026 288.812 263.652C288.925 263.62 289.028 263.562 289.115 263.484C289.202 263.405 289.27 263.308 289.314 263.2C289.358 263.091 289.377 262.974 289.369 262.858C289.361 262.741 289.327 262.627 289.268 262.526C288.46 261.2 286.576 261 284.842 259.2Z" fill="#262623"/>
<path d="M292.6 265.44C290.116 266.596 287.299 266.823 284.662 266.082C283.885 265.761 283.061 265.571 282.222 265.52C282.126 265.524 282.033 265.552 281.952 265.602C281.87 265.651 281.802 265.72 281.754 265.803C281.706 265.886 281.679 265.979 281.677 266.075C281.674 266.17 281.696 266.265 281.74 266.35C282.678 268.014 285.54 268.42 287.264 268.55C288.711 268.646 290.164 268.483 291.554 268.068C289.414 274.49 285.004 275.068 284.314 273.056C283.828 271.636 284.012 270.108 283.564 268.684C283.51 268.514 283.403 268.366 283.259 268.261C283.115 268.156 282.942 268.1 282.764 268.1C282.586 268.1 282.412 268.156 282.269 268.261C282.125 268.366 282.018 268.514 281.964 268.684C281.468 270.624 281.667 272.676 282.528 274.484C283.022 275.246 283.762 275.818 284.624 276.106C285.486 276.393 286.421 276.379 287.274 276.066C290.854 275.284 293.418 270.266 294.112 266.654C294.179 266.453 294.182 266.237 294.123 266.035C294.063 265.832 293.943 265.653 293.778 265.521C293.613 265.388 293.412 265.31 293.202 265.295C292.991 265.281 292.781 265.331 292.6 265.44Z" fill="#262623"/>
<path d="M304.5 300.2C303.657 299.98 302.763 300.065 301.978 300.442C297.317 301.742 292.336 301.204 288.06 298.94C286.32 298.05 284.84 296.754 283.154 295.802C283.07 295.753 282.976 295.725 282.879 295.719C282.782 295.714 282.685 295.731 282.596 295.77C282.507 295.809 282.429 295.869 282.367 295.944C282.306 296.019 282.263 296.107 282.242 296.202C281.332 295.942 281.264 296.226 276.986 296.578C269.138 297.224 252.186 295.062 241.8 305.454C239.206 307.757 237.483 310.882 236.92 314.304C236.924 314.52 236.997 314.729 237.129 314.9C237.262 315.071 237.446 315.194 237.654 315.252C237.862 315.309 238.084 315.297 238.285 315.219C238.486 315.14 238.656 314.998 238.77 314.814C239.909 312.209 241.428 309.787 243.276 307.626C252.948 297.442 268.792 299.868 277.172 298.884C278.808 298.684 281.41 298.59 282.572 297.248C282.598 297.222 282.598 297.222 282.598 297.194C285.508 301.82 293.354 304.09 299.252 303.416C300.888 303.23 304.198 303.034 304.964 301.244C305.011 301.146 305.036 301.039 305.037 300.931C305.038 300.822 305.016 300.715 304.972 300.615C304.928 300.516 304.863 300.428 304.782 300.356C304.7 300.284 304.604 300.231 304.5 300.2Z" fill="#262623"/>
<path d="M254.324 228.538C253.278 227.116 249.974 225.666 248.88 227.842C248.841 227.907 248.817 227.98 248.811 228.056C248.805 228.132 248.817 228.208 248.845 228.279C248.874 228.349 248.919 228.412 248.977 228.462C249.034 228.511 249.102 228.547 249.176 228.566C249.82 228.668 250.462 228.488 251.08 228.618C251.453 228.707 251.8 228.881 252.094 229.128C252.387 229.375 252.619 229.687 252.77 230.04C254.59 233.788 251.328 238.788 248.37 237.764C247.73 237.542 247.352 236.964 246.788 236.638C245.96 236.166 244.988 237.066 245.662 238.542C245.491 238.618 245.344 238.738 245.234 238.89C243.565 241.801 241.277 244.31 238.53 246.238C231.514 250.53 223.93 247.4 222.6 241.008C221.6 236.164 222.57 227.882 223.43 223.068C223.81 220.95 224.414 218.776 224.584 216.632C224.584 216.493 224.538 216.358 224.454 216.247C224.37 216.137 224.251 216.057 224.117 216.02C223.983 215.984 223.841 215.992 223.712 216.045C223.583 216.097 223.475 216.19 223.404 216.31C220.804 221.538 219.278 236.608 220.696 242.162C221.539 245.119 223.519 247.621 226.203 249.121C228.887 250.62 232.057 250.995 235.016 250.162C234.942 250.982 235.144 251.582 234.962 254.666C234.738 258.48 234.162 258.962 234.802 259.896C234.851 259.978 234.916 260.05 234.993 260.107C235.07 260.164 235.158 260.205 235.251 260.228C235.344 260.25 235.441 260.254 235.536 260.239C235.63 260.223 235.721 260.189 235.802 260.138C236.652 259.564 236.682 258.688 236.82 257.696C237.093 255.775 237.147 253.829 236.982 251.896C236.959 251.142 236.843 250.394 236.634 249.67C237.196 249.456 237.766 249.254 238.322 249C242.252 247.096 245.311 243.769 246.878 239.694C252.824 242.53 257.912 233.416 254.324 228.538Z" fill="#262623"/>
<path d="M251 241.17C250.004 243.687 249.574 246.393 249.741 249.094C249.908 251.796 250.667 254.428 251.964 256.804C252.502 257.688 254.13 257.102 253.708 256.054C251.252 249.94 251.354 247.874 252.072 241.464C252.074 241.337 252.033 241.212 251.957 241.111C251.881 241.009 251.772 240.935 251.65 240.902C251.527 240.868 251.397 240.876 251.279 240.925C251.161 240.973 251.063 241.06 251 241.17Z" fill="#262623"/>
<path d="M273.848 206.334C274.563 205.11 275.011 203.748 275.164 202.339C275.316 200.929 275.169 199.503 274.732 198.154C274.325 197.156 273.638 196.297 272.752 195.683C271.866 195.069 270.821 194.725 269.744 194.694C270.442 191.396 270.226 187.456 267.868 185.014C267.135 184.271 266.19 183.771 265.163 183.584C264.136 183.397 263.076 183.531 262.128 183.968C261.914 182.727 261.377 181.563 260.573 180.594C259.768 179.624 258.723 178.883 257.542 178.444C256.418 178.089 255.213 178.08 254.084 178.42C252.955 178.759 251.955 179.431 251.214 180.348C249.058 178.574 246.428 177.474 243.652 177.184C242.768 176.996 241.847 177.097 241.026 177.474C240.204 177.85 239.526 178.482 239.092 179.274C237.879 178.491 236.475 178.057 235.032 178.019C233.589 177.981 232.164 178.342 230.912 179.06C229.781 179.788 228.896 180.839 228.37 182.077C227.844 183.314 227.702 184.681 227.962 186C226.61 185.933 225.263 186.198 224.038 186.773C222.813 187.348 221.748 188.215 220.936 189.298C220.18 190.41 219.752 191.712 219.7 193.056C219.648 194.4 219.974 195.731 220.642 196.898C219.516 197.219 218.523 197.892 217.809 198.818C217.094 199.745 216.696 200.876 216.672 202.046C216.719 202.78 216.928 203.494 217.285 204.136C217.643 204.778 218.139 205.333 218.738 205.759C219.336 206.186 220.022 206.473 220.746 206.601C221.47 206.729 222.213 206.694 222.922 206.498C223.063 206.459 223.194 206.392 223.309 206.302C223.424 206.212 223.52 206.1 223.592 205.972C223.664 205.845 223.71 205.704 223.727 205.559C223.745 205.414 223.733 205.267 223.694 205.126C223.654 204.985 223.588 204.854 223.497 204.739C223.407 204.624 223.295 204.528 223.168 204.456C223.04 204.384 222.9 204.339 222.755 204.321C222.61 204.304 222.463 204.315 222.322 204.354C221.932 204.437 221.528 204.434 221.139 204.345C220.75 204.255 220.386 204.081 220.071 203.836C219.757 203.59 219.5 203.279 219.318 202.923C219.137 202.568 219.036 202.177 219.022 201.778C219.185 200.925 219.653 200.16 220.339 199.627C221.026 199.094 221.883 198.829 222.75 198.882C222.979 198.88 223.202 198.81 223.391 198.683C223.581 198.555 223.729 198.374 223.818 198.164C223.906 197.953 223.931 197.72 223.889 197.496C223.847 197.271 223.74 197.063 223.582 196.898C222.707 196.09 222.157 194.991 222.033 193.807C221.91 192.622 222.222 191.433 222.912 190.462C223.699 189.525 224.745 188.841 225.919 188.497C227.094 188.154 228.344 188.165 229.512 188.53C230.396 188.776 231.398 187.694 230.8 186.842C230.482 186.359 230.268 185.816 230.17 185.246C230.073 184.676 230.094 184.092 230.232 183.531C230.37 182.969 230.623 182.442 230.974 181.983C231.326 181.524 231.768 181.143 232.274 180.862C233.459 180.308 234.793 180.158 236.071 180.434C237.35 180.71 238.503 181.397 239.354 182.39C240.186 183.3 241.802 182.134 241.098 181.048C240.546 180.2 241.634 179.554 242.384 179.448C243.945 179.442 245.492 179.747 246.935 180.346C248.377 180.944 249.685 181.824 250.784 182.934C250.923 183.066 251.093 183.16 251.278 183.208C251.463 183.255 251.658 183.255 251.843 183.207C252.028 183.159 252.198 183.064 252.336 182.932C252.474 182.8 252.577 182.635 252.634 182.452C252.815 182.032 253.078 181.652 253.409 181.335C253.739 181.019 254.13 180.772 254.558 180.609C254.985 180.447 255.441 180.371 255.899 180.388C256.356 180.406 256.805 180.514 257.22 180.708C258.219 181.288 259.031 182.143 259.559 183.172C260.087 184.2 260.309 185.358 260.198 186.508C260.207 186.77 260.308 187.021 260.484 187.216C260.66 187.41 260.899 187.537 261.159 187.572C261.419 187.607 261.683 187.55 261.905 187.409C262.126 187.269 262.291 187.054 262.37 186.804C262.576 186.417 262.901 186.106 263.297 185.917C263.693 185.729 264.139 185.673 264.57 185.758C265.114 185.868 265.623 186.112 266.049 186.468C266.475 186.824 266.806 187.28 267.012 187.796C268.077 190.387 268.095 193.29 267.064 195.894C266.696 196.944 267.898 197.536 268.728 197.182C270.77 196.31 272.614 198.308 272.91 200.158C273.011 202.491 272.404 204.801 271.168 206.782C271.061 206.978 271.013 207.201 271.031 207.423C271.049 207.646 271.131 207.858 271.267 208.035C271.403 208.211 271.588 208.344 271.799 208.417C272.01 208.49 272.237 208.5 272.454 208.446C273.582 208.232 274.39 209.41 274.494 210.376C274.514 211.674 274.16 212.949 273.474 214.05C273.091 215.034 272.472 215.908 271.672 216.597C270.872 217.285 269.915 217.767 268.886 218C268.056 218.108 267.886 219.286 268.404 219.8C268.922 220.314 268.634 222.268 268.618 222.964C268.631 224.157 268.356 225.334 267.818 226.398C267.439 227.217 266.777 227.87 265.954 228.238C265.131 228.605 264.202 228.662 263.34 228.398C263.137 228.288 262.905 228.246 262.676 228.278C262.448 228.311 262.236 228.417 262.073 228.58C261.91 228.743 261.804 228.954 261.771 229.183C261.738 229.411 261.78 229.644 261.89 229.846C262.156 230.447 262.266 231.106 262.211 231.761C262.156 232.416 261.936 233.046 261.573 233.594C261.21 234.142 260.714 234.589 260.132 234.895C259.551 235.201 258.901 235.356 258.244 235.344C257.994 235.353 257.756 235.451 257.571 235.619C257.386 235.787 257.267 236.016 257.235 236.264C257.203 236.512 257.259 236.763 257.395 236.973C257.531 237.183 257.737 237.338 257.976 237.41C258.257 237.561 258.499 237.776 258.681 238.038C258.864 238.3 258.982 238.601 259.027 238.917C259.071 239.233 259.04 239.555 258.937 239.857C258.834 240.158 258.661 240.432 258.432 240.654C257.12 241.918 254.8 241.122 253.604 240.118C253.036 239.64 252.026 240.25 252.478 240.948C252.874 241.568 253.403 242.093 254.027 242.484C254.65 242.875 255.353 243.123 256.083 243.21C256.814 243.298 257.555 243.222 258.253 242.988C258.951 242.755 259.589 242.37 260.12 241.86C260.69 241.191 261.034 240.358 261.102 239.481C261.169 238.605 260.957 237.729 260.496 236.98C261.731 236.499 262.772 235.622 263.456 234.487C264.14 233.351 264.429 232.021 264.278 230.704C265.331 230.71 266.367 230.441 267.285 229.924C268.202 229.406 268.968 228.659 269.508 227.754C270.323 226.276 270.756 224.617 270.768 222.928C270.886 221.857 270.858 220.774 270.686 219.71C272.016 219.045 273.195 218.114 274.15 216.975C275.105 215.835 275.816 214.512 276.238 213.086C277.528 209.644 276.012 207.054 273.848 206.334Z" fill="#262623"/>
<path d="M228.446 222.236C228.359 222.092 228.239 221.971 228.096 221.882C227.953 221.794 227.79 221.741 227.622 221.728C227.455 221.715 227.286 221.742 227.131 221.807C226.976 221.872 226.838 221.973 226.73 222.102C226.395 222.435 226.159 222.854 226.05 223.314C225.941 223.773 225.962 224.254 226.112 224.702C226.152 224.851 226.226 224.989 226.328 225.104C226.431 225.22 226.558 225.31 226.701 225.369C226.844 225.427 226.998 225.451 227.152 225.439C227.306 225.428 227.455 225.381 227.588 225.302C228.083 224.986 228.444 224.499 228.603 223.933C228.761 223.367 228.705 222.763 228.446 222.236Z" fill="#262623"/>
<path d="M235.82 223.2C235.733 223.055 235.613 222.934 235.47 222.845C235.327 222.756 235.164 222.703 234.996 222.69C234.828 222.677 234.66 222.704 234.504 222.77C234.349 222.835 234.212 222.937 234.104 223.066C233.768 223.398 233.532 223.818 233.423 224.278C233.315 224.737 233.337 225.218 233.488 225.666C233.528 225.815 233.602 225.952 233.704 226.067C233.806 226.183 233.933 226.273 234.076 226.331C234.219 226.389 234.373 226.414 234.527 226.402C234.68 226.391 234.829 226.344 234.962 226.266C235.455 225.948 235.814 225.461 235.972 224.896C236.13 224.331 236.076 223.728 235.82 223.2Z" fill="#262623"/>
<path d="M230.136 223.952C229.108 225.17 228.267 226.534 227.642 228C226.879 229.472 226.294 231.03 225.898 232.64C225.236 236.154 229.762 235.514 231.772 234.678C232.604 234.332 232.12 233.096 231.342 233.096C230.076 233.096 228.594 233.572 228.124 233.336C227.856 233.524 227.804 233.418 227.936 233.068C228.018 232.854 228.072 232.586 228.15 232.372C229.986 227.308 230.474 226.748 231.074 224.514C231.218 223.982 230.514 223.528 230.136 223.952Z" fill="#262623"/>
<path d="M251.67 212.69C248.948 205.434 241.47 202.54 234.05 203.786C230.171 204.251 226.572 206.041 223.86 208.854C223.672 208.8 223.694 209.066 223.86 208.854L223.834 208.934C223.752 208.908 223.726 208.934 223.672 209.016C223.108 210.034 222.462 211.46 223.324 212.502C224.258 213.632 226.008 213.18 227.212 212.878C230.9 211.948 234.516 209.678 239.682 211.134C244.798 212.584 247.482 216.844 248.826 221.968C249.206 223.418 249.264 225.384 250.812 225.91C250.962 225.956 251.12 225.97 251.275 225.953C251.431 225.935 251.581 225.886 251.717 225.808C251.852 225.73 251.971 225.625 252.064 225.499C252.158 225.374 252.224 225.23 252.26 225.078C252.989 220.956 252.787 216.724 251.67 212.69Z" fill="#FECC19"/>
<path d="M232.254 260.826C232.968 262.778 235.502 263.794 237.35 264.34C239.608 264.932 241.933 265.229 244.268 265.224C246.856 265.403 249.455 265.063 251.91 264.224C253.682 263.53 256.264 262.16 256.524 260.068C256.558 259.913 256.547 259.752 256.493 259.603C256.438 259.454 256.342 259.324 256.216 259.228C256.089 259.132 255.938 259.075 255.78 259.062C255.622 259.049 255.464 259.082 255.324 259.156C253.416 260.288 252.724 263.27 244.034 262.938C235.664 262.616 234.914 260.642 232.878 260.138C232.785 260.112 232.686 260.112 232.594 260.138C232.501 260.165 232.417 260.217 232.352 260.288C232.287 260.36 232.244 260.448 232.226 260.543C232.209 260.638 232.218 260.736 232.254 260.826Z" fill="#262623"/>
<path d="M231.4 260.96C224.503 261.757 217.702 263.24 211.098 265.386C206.523 266.751 202.247 268.971 198.498 271.928C197.98 272.384 197.537 272.919 197.184 273.512C196.8 274.158 196.623 274.906 196.676 275.656C196.681 275.8 196.727 275.939 196.809 276.057C196.89 276.176 197.004 276.268 197.136 276.325C197.268 276.381 197.414 276.398 197.555 276.375C197.697 276.351 197.829 276.288 197.936 276.192C198.8 275.26 199.676 274.18 200.618 273.35C204.32 270.639 208.467 268.597 212.872 267.316C219.014 265.36 225.504 264.366 231.538 262.14C232.12 261.872 232.094 260.91 231.4 260.96Z" fill="#262623"/>
<path d="M257.704 260.906C260.068 262.222 262.618 263.171 265.266 263.722C266.394 264.09 267.542 264.4 268.644 264.85C269.635 265.473 270.722 265.926 271.862 266.19C271.972 266.19 272.081 266.164 272.179 266.114C272.278 266.064 272.363 265.992 272.428 265.904C272.494 265.815 272.537 265.712 272.556 265.603C272.574 265.495 272.567 265.383 272.534 265.278C272.032 263.088 268.334 262.266 266.5 261.738C261.3 260.236 259.806 259.632 258.026 259.7C257.886 259.705 257.752 259.754 257.642 259.841C257.532 259.928 257.454 260.048 257.418 260.183C257.381 260.319 257.39 260.462 257.441 260.592C257.493 260.722 257.585 260.832 257.704 260.906Z" fill="#262623"/>
<path d="M131.634 211.564C129.222 209.63 127.347 207.109 126.19 204.242C125.978 203.312 125.7 202.398 125.36 201.506C125.308 201.427 125.234 201.363 125.148 201.323C125.061 201.283 124.965 201.268 124.871 201.279C124.776 201.29 124.687 201.327 124.612 201.387C124.537 201.446 124.481 201.524 124.448 201.614C124.145 203.317 124.419 205.072 125.226 206.602C125.885 208.134 126.791 209.548 127.908 210.786C129.259 212.221 130.77 213.496 132.412 214.586C132.628 214.72 132.628 214.826 132.332 214.96C132.118 215.36 131.372 215.798 131.018 216.088C130.278 216.688 129.24 217.186 129.06 218.206C129.019 218.372 129.043 218.548 129.128 218.697C129.213 218.846 129.352 218.957 129.516 219.006C130.536 219.168 131.18 218.552 131.984 217.934C132.976 217.347 133.827 216.55 134.478 215.6C135.4 213.632 132.838 212.534 131.634 211.564Z" fill="#262623"/>
<path d="M124.77 225.508C124.632 225.774 124.392 226.334 124.1 226.446C123.64 226.624 123.214 226.046 123 225.75C122.4 224.838 122.428 223.646 121.82 222.772C121.62 222.474 121.036 222.372 120.854 222.772C120.549 223.731 120.596 224.768 120.988 225.696C121.215 226.654 121.776 227.5 122.57 228.082C122.959 228.34 123.41 228.491 123.876 228.519C124.342 228.548 124.808 228.453 125.226 228.244C125.607 228.003 125.924 227.673 126.148 227.282C126.372 226.891 126.497 226.451 126.512 226C126.634 225.05 125.188 224.698 124.77 225.508Z" fill="#262623"/>
<path d="M118.574 205.342C118.266 205.421 117.99 205.596 117.788 205.842C117.585 206.088 117.466 206.392 117.448 206.71C117.617 207.508 117.976 208.253 118.494 208.882C119.294 209.65 120.586 209.346 120.586 207.54C120.586 206.468 119.864 205.054 118.574 205.342Z" fill="#262623"/>
<path d="M101.358 219.636C101.278 219.504 101.15 219.408 101.001 219.368C100.852 219.328 100.694 219.346 100.558 219.42C99.6141 219.948 99.4341 220.978 98.7881 221.754C98.0831 222.618 97.077 223.184 95.9721 223.336C94.7371 223.3 93.5324 222.945 92.475 222.306C91.4177 221.667 90.5437 220.765 89.9381 219.688C87.2101 214.956 91.7741 208.016 95.3021 210.786C95.443 210.93 95.6317 211.016 95.8324 211.03C96.033 211.043 96.2316 210.982 96.3903 210.859C96.5491 210.735 96.6569 210.558 96.6934 210.36C96.7299 210.162 96.6924 209.958 96.5881 209.786C96.2023 209.175 95.6468 208.691 94.9896 208.391C94.3325 208.091 93.6021 207.989 92.8881 208.098C89.0121 208.514 85.2721 214.698 87.6321 220.058C88.3562 221.639 89.5032 222.989 90.9463 223.959C92.3895 224.93 94.0727 225.482 95.8101 225.556C97.3887 225.466 98.8794 224.8 100 223.684C100.988 222.698 102.304 221 101.358 219.636Z" fill="#262623"/>
<path d="M96.9061 226.178C98.4107 230.748 98.8217 235.607 98.1062 240.364C97.6562 242.692 96.9541 242.764 96.9781 244.12C96.9801 244.227 97.0063 244.332 97.0548 244.428C97.1033 244.523 97.1729 244.606 97.2582 244.67C97.3435 244.735 97.4424 244.779 97.5474 244.8C97.6524 244.821 97.7607 244.817 97.8641 244.79C99.4481 244.59 99.9281 242.67 100.224 241.33C101.405 236.019 100.634 230.46 98.0521 225.67C97.9665 225.55 97.8421 225.464 97.7 225.425C97.558 225.386 97.4069 225.398 97.2722 225.457C97.1376 225.517 97.0277 225.621 96.961 225.753C96.8943 225.884 96.8749 226.034 96.9061 226.178Z" fill="#262623"/>
<path d="M92.9636 189.84C93.3819 189.249 93.5546 188.518 93.4456 187.802C93.3975 187.637 93.2872 187.497 93.1379 187.412C92.9886 187.327 92.8121 187.303 92.6456 187.346C91.2236 187.556 90.5916 190.004 90.2316 191.208C88.8424 196.772 89.5494 202.652 92.2176 207.728C92.5336 208.328 93.3376 207.89 93.2356 207.3C92.2396 201.514 90.1136 196.12 92.9636 189.84Z" fill="#262623"/>
<path d="M107.848 176.084C106.091 176.905 104.61 178.218 103.584 179.864C99.8438 184.464 96.5678 190.486 96.8258 196.412C96.8558 197.082 97.8958 197.296 98.0258 196.572C99.01 190.916 101.494 185.628 105.22 181.26C106.6 179.997 107.729 178.484 108.546 176.8C108.574 176.703 108.575 176.599 108.551 176.501C108.526 176.403 108.475 176.313 108.404 176.24C108.334 176.167 108.245 176.115 108.147 176.087C108.049 176.06 107.946 176.059 107.848 176.084Z" fill="#262623"/>
<path d="M121.686 171.6C121.683 171.503 121.658 171.409 121.614 171.323C121.57 171.237 121.508 171.162 121.431 171.103C121.355 171.044 121.266 171.002 121.172 170.981C121.078 170.96 120.98 170.961 120.886 170.982C119.642 171.382 119.8 172.152 117.286 174.764C113.554 178.65 108.918 181.86 107.658 187.314C107.528 187.878 108.386 188.314 108.658 187.714C111.92 180.4 122.1 174.942 121.686 171.6Z" fill="#262623"/>
<path d="M127.102 177.318C128.034 176.464 128.625 175.302 128.766 174.046C128.744 173.646 128.334 173.21 127.908 173.376C126.35 173.976 126.33 175.15 122.812 178.926C121.027 180.891 119.08 182.703 116.992 184.344C116.46 184.744 117.126 185.522 117.664 185.228C121.315 183.261 124.527 180.569 127.102 177.318Z" fill="#262623"/>
<path d="M132.172 181.6C132.808 180.736 133.72 179.644 133.432 178.516C133.413 178.441 133.379 178.371 133.331 178.309C133.284 178.248 133.224 178.197 133.157 178.16C133.089 178.122 133.014 178.099 132.937 178.092C132.86 178.084 132.782 178.092 132.708 178.116C131.742 178.33 131.226 179.344 130.696 180.1C128.576 183.016 126.138 185.687 123.428 188.064C122.924 188.5 123.558 189.29 124.1 188.95C127.266 187.079 130.013 184.577 132.172 181.6Z" fill="#262623"/>
<path d="M136.2 186.622C136.878 185.798 137.706 184.718 137.3 183.622C137.266 183.512 137.192 183.418 137.093 183.359C136.994 183.3 136.877 183.279 136.764 183.3C135.252 183.66 135.26 185.356 131.99 187.938C129.849 189.519 127.61 190.961 125.286 192.256C124.78 192.56 125.1 193.414 125.686 193.222C129.77 192.119 133.431 189.821 136.2 186.622Z" fill="#262623"/>
<path d="M138.446 186.302C138.383 186.187 138.282 186.097 138.159 186.048C138.037 185.999 137.902 185.993 137.776 186.032C136.704 186.408 136.228 187.78 135.712 188.688C135.025 189.844 134.216 190.922 133.298 191.906C131.459 193.853 129.312 195.483 126.942 196.732C126.824 196.805 126.735 196.918 126.694 197.05C126.652 197.183 126.659 197.326 126.715 197.454C126.771 197.581 126.87 197.684 126.996 197.744C127.122 197.803 127.265 197.815 127.398 197.778C131.594 196.44 135.171 193.643 137.482 189.894C138.068 188.916 139 187.47 138.446 186.302Z" fill="#262623"/>
<path d="M91.4619 292.658C92.2779 295.62 93.4959 298.48 94.5199 301.402C96.4059 306.79 96.5999 308.402 97.7379 309.58C97.8086 309.651 97.8966 309.703 97.9931 309.73C98.0897 309.757 98.1916 309.758 98.2889 309.734C98.3862 309.71 98.4756 309.661 98.5484 309.592C98.6211 309.523 98.6747 309.436 98.7039 309.34C98.8281 307.922 98.6071 306.496 98.0599 305.182C96.7091 300.675 94.8843 296.324 92.6159 292.202C92.5443 292.066 92.4249 291.961 92.2806 291.907C92.1363 291.854 91.9773 291.855 91.8341 291.912C91.691 291.968 91.5738 292.076 91.5051 292.214C91.4364 292.351 91.421 292.51 91.4619 292.658Z" fill="#262623"/>
<path d="M119.38 248.57C119.192 248.615 119.011 248.688 118.844 248.786C119.12 247.933 119.129 247.016 118.87 246.158C118.046 240.594 118.686 237.11 118.146 235.558C118.121 235.473 118.071 235.396 118.004 235.339C117.936 235.281 117.853 235.244 117.765 235.233C117.677 235.222 117.587 235.237 117.507 235.275C117.427 235.314 117.36 235.376 117.314 235.452C116.882 236.404 116.653 237.436 116.644 238.482C116.456 240.989 116.528 243.508 116.858 246C116.996 247.046 116.966 248.28 117.858 249C117.945 249.073 118.046 249.128 118.154 249.162C117.618 249.456 117.132 249.762 116.572 250.046C113.247 251.362 109.582 251.55 106.14 250.582C99.8861 249.108 97.5161 245.074 94.9841 242.322C94.8967 242.242 94.7861 242.193 94.6686 242.181C94.5511 242.169 94.4328 242.194 94.3309 242.254C94.2291 242.314 94.149 242.405 94.1025 242.514C94.0559 242.622 94.0453 242.743 94.0721 242.858C95.0941 246.74 99.7441 251.458 105.926 252.834C108.577 253.473 111.325 253.6 114.024 253.21C116.252 252.844 119.46 251.894 120.246 249.51C120.285 249.386 120.291 249.254 120.263 249.128C120.235 249.001 120.174 248.884 120.086 248.789C119.998 248.693 119.886 248.623 119.762 248.584C119.639 248.546 119.507 248.541 119.38 248.57Z" fill="#262623"/>
<path d="M91.7575 242.886C88.5519 243.096 85.4052 243.849 82.4515 245.112C63.3015 251.866 53.7215 264.774 52.0135 277.212C50.0015 291.876 56.5275 310.412 63.0615 317.546C63.6775 318.216 64.6395 317.36 64.2615 316.606C61.0652 311.111 58.4754 305.285 56.5375 299.23C54.7113 293.129 53.8959 286.769 54.1235 280.404C54.6855 268.308 62.6015 258.258 72.6815 252.164C81.2015 247.014 89.5515 245.428 92.0435 243.986C92.1564 243.922 92.2451 243.823 92.2957 243.704C92.3464 243.584 92.3561 243.452 92.3235 243.326C92.2909 243.201 92.2177 243.09 92.1153 243.01C92.013 242.93 91.8872 242.887 91.7575 242.886Z" fill="#262623"/>
<path d="M134.638 250.072C134.358 249.002 133.108 248.414 132.172 247.98C128.719 246.332 124.866 245.707 121.068 246.18C120.952 246.218 120.851 246.291 120.779 246.39C120.707 246.489 120.668 246.608 120.668 246.73C120.668 246.852 120.707 246.971 120.779 247.07C120.851 247.169 120.952 247.242 121.068 247.28C124.524 247.759 127.904 248.679 131.126 250.016C132.038 250.416 133.17 251.112 134.21 250.792C134.36 250.749 134.487 250.65 134.567 250.517C134.646 250.383 134.672 250.224 134.638 250.072Z" fill="#262623"/>
<path d="M200.234 171.2C198.89 167.102 194.34 166.818 192.698 170.692C191.282 174.03 193.26 177.15 197.204 187.372C197.218 187.427 197.244 187.477 197.281 187.52C197.319 187.562 197.365 187.595 197.417 187.616C197.47 187.637 197.526 187.645 197.582 187.64C197.639 187.635 197.693 187.616 197.74 187.586C200.433 185.745 202.852 183.533 204.926 181.016C206.676 178.816 208.926 175.92 208.976 172.97C209.068 168.162 202.892 167.094 200.234 171.2Z" fill="#FECC19"/>
<path d="M247.138 142.24C247.825 142.385 248.529 142.44 249.23 142.402C249.536 142.402 249.83 142.281 250.046 142.064C250.263 141.848 250.384 141.554 250.384 141.248C250.384 140.942 250.263 140.649 250.046 140.432C249.83 140.216 249.536 140.094 249.23 140.094C248.529 140.035 247.822 140.09 247.138 140.256C246.928 140.324 246.745 140.456 246.615 140.634C246.485 140.813 246.415 141.028 246.415 141.248C246.415 141.469 246.485 141.684 246.615 141.862C246.745 142.04 246.928 142.173 247.138 142.24Z" fill="#262623"/>
<path d="M249.282 151.626C248.58 151.576 247.875 151.63 247.19 151.788C246.975 151.851 246.787 151.982 246.653 152.161C246.52 152.339 246.447 152.557 246.447 152.78C246.447 153.003 246.52 153.221 246.653 153.4C246.787 153.578 246.975 153.709 247.19 153.772C247.876 153.921 248.58 153.975 249.282 153.932C249.586 153.93 249.878 153.807 250.094 153.592C250.31 153.377 250.432 153.085 250.436 152.78C250.437 152.628 250.408 152.478 250.35 152.337C250.292 152.197 250.207 152.069 250.1 151.962C249.993 151.854 249.865 151.769 249.724 151.712C249.584 151.654 249.433 151.625 249.282 151.626Z" fill="#262623"/>
<path d="M254.674 135.134C254.566 135.077 254.441 135.056 254.32 135.074C254.198 135.093 254.086 135.15 253.999 135.237C253.912 135.324 253.855 135.436 253.837 135.558C253.818 135.679 253.839 135.803 253.896 135.912C255.153 137.615 256.206 139.46 257.032 141.408C258.454 145.874 258.255 150.699 256.47 155.032C255.082 158.844 253.734 159.856 254.378 161.146C254.416 161.212 254.471 161.267 254.537 161.304C254.603 161.342 254.678 161.361 254.754 161.36C255.88 161.28 256.39 160.02 256.846 159.108C258.734 155.524 259.814 151.57 260.01 147.524C260.1 143.286 258.64 137.4 254.674 135.134Z" fill="#262623"/>
<path d="M202.6 94.0499C188.768 68.3179 152.97 67.2499 134.162 79.8619C120.314 89.1519 114.394 105.93 114.692 122.046C115.04 140.748 128.468 155.872 144.38 158.518C146.606 158.888 148.858 159.054 151.11 159.216C151.384 161.954 155.05 167.556 160.846 170.532C162.158 171.206 164.116 172.382 165.618 171.658C166.944 171.658 166.072 168.82 166.018 168.146C165.708 164.094 166.54 160.914 166.394 157.848C175.902 157.689 185.022 154.054 192.032 147.63C199.198 141.23 203.52 131.864 205.87 122.718C208.43 113.091 207.263 102.853 202.6 94.0499ZM204.632 114C203.788 123.521 200.468 132.655 195 140.496C188.188 149.836 176.936 154.954 165.42 155.81C165.219 155.819 165.025 155.886 164.862 156.005C164.699 156.123 164.574 156.286 164.502 156.474C164.431 156.663 164.417 156.868 164.461 157.064C164.505 157.261 164.605 157.44 164.75 157.58C163.826 161.359 163.483 165.256 163.732 169.138C163.146 168.942 162.573 168.709 162.016 168.44C158.075 166.23 154.861 162.923 152.764 158.92C152.822 158.831 152.858 158.73 152.868 158.625C152.878 158.52 152.863 158.414 152.824 158.316C152.785 158.218 152.723 158.131 152.643 158.062C152.563 157.993 152.467 157.944 152.364 157.92C147.587 157.48 142.89 156.4 138.4 154.71C132.971 152.303 128.215 148.601 124.55 143.929C120.884 139.256 118.421 133.756 117.376 127.91C116.208 119.304 117.062 110.544 119.87 102.326C124.924 87.9619 135.994 78.0159 153.15 75.2139C161.48 73.8301 170.018 74.399 178.09 76.8759C185.949 79.3368 192.792 84.2921 197.581 90.9911C202.371 97.6901 204.846 105.768 204.632 114Z" fill="#262623"/>
<path d="M139.924 115C139.376 115.38 138.93 115.889 138.624 116.482C138.319 117.075 138.164 117.733 138.172 118.4C138.201 119.329 138.576 120.213 139.224 120.879C139.871 121.545 140.745 121.945 141.672 122C142.45 121.964 143.189 121.652 143.757 121.12C144.325 120.589 144.685 119.872 144.772 119.098C145.324 115.58 142.152 113.6 139.924 115Z" fill="#FECC19"/>
<path d="M157.814 115.016C157.254 115.39 156.797 115.9 156.485 116.498C156.174 117.095 156.018 117.762 156.032 118.436C156.061 119.365 156.436 120.25 157.084 120.916C157.732 121.582 158.606 121.982 159.534 122.036C160.311 122 161.051 121.688 161.618 121.156C162.186 120.624 162.546 119.907 162.632 119.134C163.178 115.65 160.104 113.68 157.814 115.016Z" fill="#FECC19"/>
<path d="M178.138 115.412C177.665 114.796 176.981 114.377 176.218 114.233C175.455 114.089 174.665 114.231 174 114.632C173.453 115.013 173.007 115.522 172.702 116.114C172.397 116.707 172.242 117.365 172.25 118.032C172.278 118.961 172.653 119.846 173.301 120.512C173.949 121.178 174.823 121.578 175.75 121.632C178.812 121.644 179.8 117.462 178.138 115.412Z" fill="#FECC19"/>
<path d="M65.2364 82.7862C64.8204 81.6922 64.5024 79.9442 63.2784 79.5142C63.1559 79.4793 63.0263 79.4783 62.9033 79.5115C62.7804 79.5446 62.6687 79.6105 62.5804 79.7022C61.6224 80.8082 62.4904 82.6562 62.9564 83.8322C64.2124 86.9982 68.3444 94.4942 70.9564 94.6922C71.1336 94.6906 71.3031 94.6196 71.4284 94.4942C71.5537 94.3689 71.6248 94.1994 71.6264 94.0222C71.5684 91.6002 68.6944 91.9122 65.2364 82.7862Z" fill="#262623"/>
<path d="M87.5477 69.8599C86.8564 71.1827 86.4478 72.6348 86.3477 74.1239C85.8157 77.8459 85.5657 84.3079 86.9477 87.8539C86.9951 88.0185 87.1001 88.1605 87.2435 88.2541C87.3869 88.3477 87.5591 88.3866 87.7288 88.3638C87.8985 88.341 88.0544 88.258 88.168 88.1299C88.2816 88.0018 88.3454 87.8371 88.3477 87.6659C88.7677 83.0519 87.7977 82.4299 88.6977 74.3379C88.9553 72.9139 89.0273 71.4625 88.9117 70.0199C88.7537 69.3779 87.8457 69.3799 87.5477 69.8599Z" fill="#262623"/>
<path d="M115.518 61.7882C115.47 61.3042 115.006 60.7342 114.444 60.9562C113.204 61.4502 112.716 62.6542 112.112 63.7462C110.053 67.2573 108.397 70.9904 107.178 74.8742C107.143 75.0258 107.163 75.1849 107.233 75.3236C107.304 75.4623 107.421 75.5717 107.564 75.6326C107.707 75.6935 107.868 75.7019 108.016 75.6565C108.165 75.6111 108.293 75.5147 108.378 75.3842C110.874 71.1842 111.656 69.4622 114.118 65.1402C114.688 64.1482 115.64 63.0202 115.518 61.7882Z" fill="#262623"/>
<path d="M315.87 181.044C314.318 180.718 312.734 180.575 311.15 180.616C307.97 180.456 302.288 179.99 298.626 179.57C300.774 176.394 304.876 169.428 305.304 166.348C305.394 165.706 304.554 164.928 304.018 165.624C302.521 167.925 301.184 170.327 300.018 172.812C298.609 175.265 297.078 177.646 295.432 179.946C294.842 180.776 295.646 181.656 296.45 181.746C299.14 182.036 313.154 183.592 315.812 182.98C316.022 182.924 316.209 182.802 316.345 182.632C316.48 182.461 316.557 182.251 316.564 182.034C316.57 181.816 316.506 181.602 316.381 181.423C316.256 181.245 316.077 181.112 315.87 181.044Z" fill="#262623"/>
<path d="M390.772 150.044C390.52 134.114 382.642 117.412 367.972 110.086C351.094 101.654 323.06 103.838 310.45 120.17C301.148 132.214 299.772 155.598 304.094 163.614C304.554 164.468 305.832 163.856 305.622 162.97C303.911 155.327 303.783 147.414 305.246 139.72C306.752 131.218 309.836 123.098 316.51 117.32C327.998 107.386 347.522 105.52 361.482 110.054C376.764 115.018 385.64 128.544 387.924 144.3C389.212 153.188 387.754 160.388 384.786 168.864C381.91 177.08 378.032 183 369.742 187.824C358.29 194.259 344.771 195.943 332.09 192.516C326.605 191.223 321.6 188.395 317.662 184.364C317.094 183.836 315.98 184.564 316.51 185.25C329.878 202.346 371.196 200.05 383.848 176.936C388.193 168.623 390.562 159.421 390.772 150.044Z" fill="#262623"/>
<path d="M369.263 138.352C367.582 137.819 365.827 137.557 364.063 137.574C362.239 137.478 329.817 136.448 328.905 136.448C327.916 136.495 326.931 136.602 325.955 136.77C325.179 136.86 324.827 138.06 325.741 138.272C328.867 138.992 325.491 138.838 363.847 140.256C365.663 140.411 367.492 140.276 369.265 139.856C369.42 139.8 369.553 139.698 369.647 139.563C369.741 139.428 369.792 139.268 369.791 139.104C369.791 138.939 369.74 138.779 369.646 138.645C369.551 138.51 369.418 138.408 369.263 138.352Z" fill="#262623"/>
<path d="M367.332 151.304C365.704 150.884 364.025 150.694 362.344 150.742C360.27 150.628 338.106 149.428 331.944 149.428C330.22 149.319 328.489 149.436 326.794 149.776C326.648 149.821 326.521 149.912 326.43 150.035C326.339 150.158 326.29 150.307 326.29 150.46C326.29 150.613 326.339 150.762 326.43 150.885C326.521 151.008 326.648 151.099 326.794 151.144C328.401 151.529 330.05 151.709 331.702 151.68C367.042 153.364 365.382 153.662 367.342 153.262C368.378 153.048 368.222 151.616 367.332 151.304Z" fill="#262623"/>
<path d="M365.536 162.246C362.322 161.685 359.064 161.424 355.802 161.468C352.576 161.324 349.348 161.216 346.12 161.146C339.67 160.83 333.206 161.009 326.784 161.682C325.954 161.792 326.248 163.004 326.972 163.082C334.854 163.868 340.556 163.174 355.56 163.94C358.774 164.293 362.01 164.418 365.242 164.314C366.368 164.2 366.77 162.542 365.536 162.246Z" fill="#262623"/>
<path d="M273.2 87.6402C270.246 86.8087 267.166 86.518 264.108 86.7822C261.572 81.0522 261.826 76.5822 263.308 70.6102C263.813 69.1066 264.067 67.5302 264.06 65.9442C263.975 65.2824 263.737 64.6496 263.365 64.0956C262.993 63.5416 262.498 63.0816 261.917 62.7519C261.337 62.4222 260.689 62.2318 260.022 62.1957C259.356 62.1597 258.691 62.279 258.078 62.5442C255.304 63.8315 253.129 66.1335 252 68.9762C250.773 71.8243 250.047 74.863 249.854 77.9582C247.103 77.4683 244.301 77.3245 241.514 77.5302C238.624 77.553 235.783 78.2705 233.228 79.6222C229.616 81.9142 228.538 86.6842 232.208 89.3302C231.381 89.8133 230.737 90.5573 230.378 91.4455C230.019 92.3336 229.965 93.3159 230.224 94.2382C230.494 94.973 230.93 95.6357 231.497 96.1751C232.065 96.7144 232.749 97.1158 233.496 97.3482C232.997 97.625 232.619 98.077 232.434 98.6168C232.249 99.1566 232.272 99.7457 232.496 100.27C233.128 101.992 234.696 102.39 236.33 102.63C236.055 102.975 235.89 103.395 235.856 103.835C235.823 104.275 235.922 104.715 236.142 105.098C237.458 107.446 241.398 107.886 243.786 108.208C246.791 108.663 249.854 108.563 252.822 107.914C253.923 107.753 254.943 107.245 255.734 106.463C256.526 105.682 257.047 104.668 257.222 103.57C260.486 102.97 261.11 102.954 261.352 102.47C261.888 103.758 263.552 104.024 264.92 104.32C265.928 104.525 266.95 104.658 267.976 104.72C268.889 104.895 269.833 104.793 270.686 104.426C272.154 103.558 272.172 101.236 272.428 99.7862C272.828 97.5642 273.158 95.3002 273.582 93.0542C273.868 91.5222 275.032 88.5682 273.2 87.6402ZM232.8 94.3442C231.522 92.9442 232.66 90.4242 235.374 90.6982C239.392 91.0982 242.468 91.8982 247.014 90.8322C247.254 90.7502 247.55 90.6982 247.79 90.6162C248.519 90.8389 249.201 91.1934 249.802 91.6622C249.928 91.7553 250.034 91.873 250.114 92.0081C250.193 92.1433 250.244 92.2931 250.264 92.4485C250.284 92.604 250.273 92.7619 250.23 92.9127C250.187 93.0635 250.115 93.2042 250.016 93.3262C249.508 94.1042 248.25 94.3262 247.388 94.6122C245.292 95.2822 243.137 95.7509 240.952 96.0122C239.777 96.2394 238.575 96.2846 237.386 96.1462C235.709 96.0299 234.108 95.4008 232.8 94.3442ZM235.186 100.084C233.284 98.9542 236.552 98.3282 237.36 98.1522C240.165 98.0267 242.955 97.6681 245.7 97.0802C246.969 96.844 248.209 96.4753 249.4 95.9802C250.312 96.3802 251.4 96.9442 251.144 98.0722C250.614 100.336 241.892 101.84 239.638 100.996C238.12 100.872 236.622 100.566 235.176 100.084H235.186ZM245.786 106.284C243.813 106.154 241.865 105.775 239.986 105.158C239.502 104.998 238.116 104.62 238.028 104.032C237.954 103.548 239.028 103.12 239.342 103.12C243.782 103.12 246.942 103.15 250.872 101.002C251.612 101.462 253.86 100.916 255.164 102.422C255.11 102.597 255.11 102.784 255.164 102.958C255.988 106.734 247.8 106.414 245.77 106.278L245.786 106.284ZM261.206 101.162C261.08 101.03 260.922 100.931 260.747 100.874C260.572 100.818 260.387 100.806 260.206 100.84C258.892 101.082 257.55 101.322 256.206 101.564C255.952 100.944 255.499 100.426 254.918 100.09C254.206 99.6976 253.421 99.4514 252.612 99.3662C253.446 98.0722 253.248 96.2962 251.298 94.7522C251.703 94.3677 251.995 93.8794 252.142 93.3405C252.288 92.8017 252.284 92.2329 252.13 91.6962C251.962 91.2016 251.694 90.7467 251.344 90.3591C250.993 89.9716 250.567 89.6596 250.092 89.4422C250.172 89.3622 250.226 89.3362 250.306 89.2562C252.506 87.0762 250.194 84.4902 248.08 83.5162C245.534 82.1841 242.564 81.9144 239.82 82.7662C238.908 83.1662 239.444 84.5102 240.302 84.5362C242.354 84.2124 244.454 84.3964 246.418 85.0722C247.274 85.3942 248.58 85.9082 248.992 86.8142C249.542 88.0282 247.706 88.4582 246.926 88.6922C243.18 89.4599 239.312 89.4142 235.584 88.5582C233.714 87.9582 231.722 86.7882 232.124 84.5362C232.396 83.5499 232.932 82.6564 233.674 81.9517C234.416 81.247 235.335 80.7576 236.334 80.5362C240.952 79.2485 245.815 79.1194 250.494 80.1602C250.648 80.1982 250.808 80.2013 250.963 80.1692C251.119 80.1371 251.265 80.0706 251.391 79.9747C251.517 79.8787 251.62 79.7558 251.692 79.6148C251.764 79.4739 251.804 79.3185 251.808 79.1602C251.828 75.5949 252.662 72.0814 254.248 68.8882C257.282 63.4102 261.262 63.2782 262.16 65.5102C263.114 67.8822 260.864 70.1462 260.55 76.9342C260.292 80.7051 261.17 84.4668 263.07 87.7342C262.923 88.0621 262.807 88.4029 262.722 88.7522C261.543 92.7763 261.029 96.9662 261.2 101.156L261.206 101.162ZM271.852 92.0702C271.664 93.1162 270.642 99.0962 270.296 101.028C270.134 101.94 270.19 102.674 269.144 102.798C268.068 102.843 266.99 102.735 265.944 102.476C265.248 102.342 263.472 102.21 263.156 101.51C263.111 97.5507 263.582 93.6021 264.556 89.7642C264.63 89.5222 264.69 88.7642 264.932 88.6642C265.12 88.5928 265.322 88.5654 265.522 88.5842C266.122 88.5842 272.102 89.3262 272.146 89.3622C272.526 89.6862 271.944 91.6002 271.836 92.0642L271.852 92.0702Z" fill="#262623"/>
<path d="M128.256 221.888C128.701 223.611 128.997 225.37 129.14 227.144C129.422 228.667 129.166 230.241 128.416 231.596C125.216 235.996 115.43 231.468 110.772 228.672C109.387 227.956 108.173 226.951 107.21 225.725C106.247 224.499 105.559 223.081 105.192 221.566C104.954 220.278 102.992 220.816 103.208 222.102C103.64 223.879 104.447 225.543 105.576 226.981C106.705 228.42 108.129 229.6 109.752 230.442C113.268 232.508 117.047 234.087 120.988 235.136C124.156 235.766 128.188 235.584 130.214 232.614C131.092 231.118 131.46 229.377 131.26 227.654C131.118 225.51 130.783 223.382 130.26 221.298C130.158 221.062 129.974 220.871 129.741 220.761C129.508 220.652 129.243 220.631 128.996 220.704C128.749 220.777 128.538 220.937 128.401 221.155C128.265 221.374 128.213 221.634 128.256 221.888Z" fill="#262623"/>
<path d="M353.36 315.614C346.36 306.376 337.116 304.568 329.976 302.528C329.6 302.448 329.28 302.312 328.904 302.206C331.208 301.699 333.388 300.738 335.317 299.379C337.246 298.021 338.885 296.292 340.14 294.294C340.256 294.08 340.301 293.834 340.267 293.593C340.233 293.352 340.122 293.128 339.952 292.954C329.422 283.628 330.078 268.202 329.628 255.276C329.194 242.858 327.108 228.616 315.71 221.378C313.002 219.549 309.85 218.487 306.588 218.303C303.325 218.119 300.074 218.82 297.178 220.332C291.378 215.21 272.932 229.932 276.636 245.38C276.759 245.925 276.997 246.437 277.334 246.882C276.128 250.67 275.363 254.585 275.054 258.548C274.497 262.987 274.724 267.488 275.724 271.848C276.144 273.653 276.924 275.355 278.016 276.852C279.108 278.349 280.49 279.612 282.08 280.564C283.984 281.536 286.113 281.981 288.248 281.852C288.321 284.601 288.053 287.348 287.448 290.03C287.104 291.559 286.61 293.051 285.972 294.482C285.628 295.234 284.918 296.738 286.16 297.056C287.612 297.43 288.386 294.528 288.87 293.114C290.123 289.444 290.473 285.525 289.888 281.69C295.088 280.876 301.4 277.678 303.726 273.09C303.821 272.911 303.85 272.704 303.807 272.506C303.764 272.308 303.651 272.132 303.49 272.009C303.329 271.887 303.129 271.826 302.926 271.837C302.724 271.849 302.532 271.932 302.386 272.072C300.222 274.652 297.522 276.729 294.474 278.158C291.246 279.558 286.99 280.496 283.674 278.936C276.616 275.622 276.822 265.958 277.212 259.386C277.595 255.041 278.248 250.724 279.17 246.46C287.926 236.76 292.12 235.756 293.678 233.508C296.175 240.64 300.752 246.861 306.818 251.368C308.352 252.428 310.032 253.26 311.806 253.836C311.886 253.836 311.966 253.862 312.02 253.836C312.193 253.964 312.355 254.107 312.504 254.264C312.677 254.435 312.901 254.546 313.143 254.579C313.384 254.613 313.63 254.569 313.844 254.452C314.661 254.013 315.608 253.877 316.516 254.068C317.424 254.26 318.235 254.766 318.806 255.498C319.386 256.27 319.769 257.171 319.923 258.124C320.077 259.077 319.997 260.053 319.69 260.968C319.397 261.879 318.912 262.718 318.27 263.427C317.627 264.136 316.84 264.7 315.962 265.081C315.084 265.462 314.134 265.651 313.177 265.636C312.22 265.62 311.277 265.401 310.412 264.992C310.197 264.875 309.951 264.83 309.709 264.864C309.468 264.898 309.243 265.009 309.07 265.18C308.423 266.125 307.976 267.192 307.756 268.316C304.622 279.148 304.986 291.02 305.316 301.544C305.333 301.74 305.398 301.929 305.505 302.094C305.612 302.26 305.758 302.396 305.931 302.491C306.103 302.586 306.296 302.638 306.493 302.641C306.69 302.644 306.884 302.598 307.06 302.508C309.566 303.539 312.261 304.032 314.97 303.956C318.446 303.903 321.915 303.599 325.348 303.046C329.83 305.286 337.148 306.292 342.834 309.508C346.566 311.617 349.769 314.549 352.199 318.08C354.629 321.612 356.223 325.651 356.86 329.89C357.13 331.51 357.354 334.784 357.744 335.87C357.772 335.964 357.826 336.047 357.901 336.11C357.976 336.172 358.068 336.212 358.165 336.223C358.262 336.234 358.36 336.217 358.447 336.173C358.534 336.129 358.607 336.061 358.656 335.976C360.01 332.76 359.22 323.338 353.36 315.614ZM307.02 245.486C306.866 245.579 306.69 245.629 306.511 245.629C306.331 245.629 306.155 245.579 306.002 245.486C302.285 243.153 299.447 239.655 297.93 235.538C297.303 234.277 297.07 232.857 297.26 231.462C297.284 231.373 297.332 231.291 297.398 231.226C297.465 231.161 297.548 231.116 297.638 231.094C297.728 231.072 297.823 231.074 297.912 231.101C298 231.128 298.081 231.178 298.144 231.246C298.975 232.534 299.641 233.922 300.128 235.376C301.506 238.225 303.485 240.741 305.928 242.752C306.668 243.374 308.366 244.582 307.02 245.486ZM313.108 223.444C311.944 223.658 311.482 222.682 308.924 221.914C307.324 221.432 305.67 221.526 304.044 221.164C303.971 221.144 303.907 221.102 303.858 221.045C303.809 220.987 303.779 220.917 303.77 220.842C303.761 220.767 303.775 220.692 303.81 220.625C303.844 220.558 303.898 220.503 303.964 220.466C305.636 219.86 307.458 219.804 309.164 220.306C310.452 220.596 313.164 221.27 313.482 222.8C313.51 223.094 313.376 223.416 313.108 223.444Z" fill="#262623"/>
<path d="M197.712 231.568C198.636 226.418 198.816 220.626 196.13 215.934C195.078 213.951 193.475 212.315 191.516 211.221C189.556 210.127 187.322 209.622 185.082 209.766C180.256 210.366 177.082 214.282 173.256 216.872C163.64 223.4 152.364 221.094 145.5 229.236C137.9 238.236 139.358 251.036 144.052 261.036C142.218 261.857 140.709 263.264 139.76 265.036C139.093 266.343 138.763 267.796 138.801 269.263C138.838 270.73 139.243 272.165 139.976 273.436C140.825 274.821 141.995 275.98 143.388 276.816C144.781 277.652 146.355 278.139 147.976 278.236C149.675 278.506 151.414 278.321 153.018 277.7C155.224 283.427 156.042 289.595 155.406 295.7C155.333 296.18 155.315 296.666 155.352 297.15C155.164 296.962 154.98 296.798 154.788 296.612C154.691 296.523 154.569 296.467 154.438 296.453C154.307 296.438 154.176 296.466 154.062 296.532C153.948 296.598 153.858 296.698 153.806 296.819C153.753 296.939 153.741 297.074 153.77 297.202C154.676 300.502 158.09 302.586 161.09 303.772C167.543 306.184 174.634 306.28 181.15 304.042C184.186 302.986 188.012 301.384 189.892 298.678C190.508 297.792 189.356 296.986 188.552 297.336C187.689 297.745 186.863 298.23 186.084 298.784C186.03 297.334 184.624 296.852 184.368 291.25C184.332 290.472 184.448 289.668 184.368 288.916C186.074 288.7 187.722 288.157 189.222 287.316C190.929 286.195 192.352 284.694 193.38 282.931C194.408 281.167 195.014 279.189 195.148 277.152C195.369 272.007 194.62 266.867 192.94 262C191.54 256.698 189.589 251.556 187.12 246.66C193 242.888 196.416 238.8 197.712 231.568ZM192.94 273C193.236 274.969 193.107 276.979 192.561 278.894C192.015 280.809 191.064 282.585 189.774 284.102C186.932 286.972 182.32 287.134 178.512 286.81C174.435 286.514 170.574 284.863 167.544 282.118C167.429 282.011 167.279 281.948 167.121 281.94C166.964 281.933 166.809 281.981 166.684 282.077C166.559 282.172 166.471 282.309 166.437 282.463C166.403 282.617 166.425 282.778 166.498 282.918C167.416 284.651 168.849 286.057 170.6 286.94C174.344 288.711 178.484 289.478 182.614 289.166C181.942 292.023 182.158 295.017 183.232 297.748C183.54 298.52 183.794 299.41 184.518 299.812C181.178 301.671 177.479 302.798 173.67 303.117C169.86 303.437 166.026 302.941 162.422 301.664C160.301 300.858 158.333 299.696 156.602 298.23C158.002 297.292 157.93 294.85 158.076 293.35C158.698 286.96 156.688 279.238 154.858 276.696C155.261 276.437 155.596 276.086 155.834 275.67C156.072 275.255 156.207 274.788 156.226 274.31C156.225 274.135 156.178 273.963 156.089 273.812C156.001 273.661 155.874 273.535 155.722 273.448C155.57 273.361 155.398 273.316 155.223 273.317C155.048 273.317 154.876 273.364 154.724 273.452C153.096 274.228 152.69 276.422 147.966 275.678C146.774 275.584 145.621 275.206 144.604 274.576C143.587 273.946 142.735 273.082 142.12 272.056C141.633 271.167 141.361 270.175 141.328 269.162C141.295 268.148 141.501 267.141 141.93 266.222C142.358 265.303 142.997 264.498 143.794 263.872C144.592 263.246 145.526 262.816 146.52 262.618C148.269 262.122 150.134 262.23 151.813 262.926C153.492 263.622 154.887 264.864 155.772 266.452C156.386 267.58 158.428 267.122 158.294 265.782C157.769 260.723 158.526 255.614 160.494 250.924C171.566 253.29 178.918 251.63 185.756 247.6C186.584 250.03 192.182 263.458 192.94 273ZM188.648 235.536C190.921 232.27 192.189 228.411 192.296 224.434C192.348 223.2 192.136 221.966 192.188 220.732C192.192 220.591 192.237 220.454 192.317 220.337C192.397 220.221 192.509 220.13 192.64 220.077C192.771 220.023 192.914 220.008 193.053 220.034C193.192 220.06 193.32 220.126 193.422 220.224C195.464 222.15 194.822 226.07 194.468 228.59C194.079 231.628 192.926 234.518 191.116 236.99C190.028 238.416 187.55 236.986 188.648 235.538V235.536Z" fill="#262623"/>
<path d="M45.6582 158.17C46.5291 158.304 47.4153 158.304 48.2862 158.17C49.2393 158.056 50.1506 157.713 50.9422 157.17C51.6564 156.642 52.2127 155.928 52.5509 155.107C52.8891 154.285 52.9964 153.387 52.8611 152.509C52.7258 151.631 52.3531 150.807 51.7833 150.125C51.2136 149.444 50.4683 148.931 49.6282 148.642C48.465 148.302 47.269 148.087 46.0602 148C46.1389 151.395 46.0047 154.792 45.6582 158.17Z" fill="#FECC19"/>
<path d="M81.5143 178.364C79.5461 177.49 77.8098 176.167 76.4443 174.502C75.8443 173.902 74.2443 172.234 73.7363 171.552C77.7654 165.746 79.8646 158.818 79.7363 151.752C80.0703 137.454 69.6543 120.27 53.3203 116.996C45.9956 115.736 38.4603 116.778 31.7522 119.978C25.0442 123.178 19.4934 128.38 15.8643 134.866C10.0903 145.2 8.62833 159.83 14.7123 171.31C18.147 177.61 23.2018 182.878 29.3543 186.57C37.2783 190.606 48.7063 190.718 55.4743 188.796C59.9483 187.524 62.7623 185.112 66.6303 181.396C66.6489 181.421 66.6731 181.441 66.7009 181.455C66.7286 181.469 66.7593 181.476 66.7903 181.476C69.3213 182.428 72.0523 182.723 74.7283 182.334C76.5803 182.076 80.6043 180.934 81.7283 179.546C81.8348 179.475 81.9182 179.375 81.9683 179.257C82.0184 179.14 82.0329 179.01 82.0102 178.885C81.9874 178.759 81.9283 178.643 81.8402 178.55C81.7521 178.457 81.6388 178.393 81.5143 178.364ZM34.7143 147.524C34.7735 147.09 34.9847 146.691 35.3104 146.398C35.636 146.106 36.0549 145.938 36.4926 145.925C36.9303 145.912 37.3584 146.055 37.7008 146.328C38.0431 146.601 38.2775 146.986 38.3623 147.416C38.9203 150.678 34.1683 149.892 34.7163 147.524H34.7143ZM35.7143 157.258C35.908 156.946 36.1919 156.701 36.5283 156.554C36.8647 156.407 37.2377 156.365 37.5981 156.435C37.9585 156.505 38.2891 156.683 38.5463 156.945C38.8035 157.207 38.9751 157.54 39.0383 157.902C39.6443 161.416 33.8843 160.172 35.7103 157.258H35.7143ZM47.6463 161.146C45.9583 161.234 43.0463 161.226 42.8203 159.054C42.7448 156.862 42.9064 154.669 43.3023 152.512C43.5803 150.286 43.8803 148.036 44.3023 145.78C44.3258 145.684 44.3719 145.595 44.4369 145.52C44.5018 145.445 44.5836 145.387 44.6756 145.35C44.7675 145.313 44.8669 145.299 44.9655 145.308C45.0641 145.318 45.159 145.35 45.2423 145.404C45.3783 145.242 46.1743 144.614 48.8883 145.19C58.3783 147.21 58.3603 160.584 47.6423 161.146H47.6463Z" fill="#FECC19"/>
</svg>
