<svg width="420" height="349" viewBox="0 0 420 349" fill="none" xmlns="http://www.w3.org/2000/svg">
<path d="M197.385 262.25C163.022 260.507 131.541 259.718 126.466 262.563C123.851 264.033 119.783 283.353 117.914 296.274C107.36 295.014 94.0963 293.855 80.8453 292.952C82.813 283.011 84.0268 276.782 88.4914 267.177C89.1676 265.722 87.3154 265.134 86.5615 266.463C82.088 274.652 79.0837 283.562 77.6848 292.788C59.7445 291.61 42.0436 290.898 30.9493 290.898C32.2093 280.041 39.1876 255.022 51.6973 242.193C61.3405 232.304 80.0473 223.503 96.6037 221.42C96.8616 223.714 97.7467 225.894 99.1618 227.718C100.577 229.543 102.467 230.942 104.626 231.762C113.471 235.238 129.616 236.151 144.017 228.241C159.211 232.575 187.055 249.111 197.385 262.25Z" fill="#FECC19"/>
<path d="M12.1686 339.526C102.769 341.229 192.96 340.893 283.512 340.996C285.343 340.996 285.757 343.858 283.862 343.892C193.514 345.561 102.088 343.595 11.7549 342.489C9.82495 342.472 10.2492 339.49 12.1686 339.526Z" fill="#FECC19"/>
<path d="M235.245 160.516C225.944 160.69 180.615 159.846 175.796 159.638C174.343 159.575 174.381 157.067 175.796 157.067C182.266 157.067 224.833 157.888 235.245 158.434C235.497 158.469 235.728 158.593 235.895 158.784C236.062 158.975 236.154 159.221 236.154 159.475C236.154 159.729 236.062 159.975 235.895 160.166C235.728 160.357 235.497 160.482 235.245 160.516Z" fill="#FECC19"/>
<path d="M272.371 148.905C273.048 149.257 284.743 163.315 279.354 161.643C278.59 161.406 270.954 151.731 270.578 149.997C270.533 149.772 270.558 149.539 270.65 149.329C270.742 149.118 270.897 148.942 271.092 148.823C271.288 148.703 271.516 148.647 271.745 148.662C271.974 148.677 272.192 148.761 272.371 148.905Z" fill="#FECC19"/>
<path d="M297.854 116.97C294.092 117.146 217.508 116.955 212.942 116.506C212.294 116.42 211.7 116.096 211.277 115.598C210.854 115.099 210.63 114.461 210.651 113.808C210.671 113.154 210.933 112.531 211.386 112.06C211.839 111.588 212.451 111.302 213.104 111.256C234.417 111.52 278.723 111.63 297.734 112.045C300.586 112.111 300.825 116.836 297.854 116.97Z" fill="#FECC19"/>
<path d="M190.652 197.786C195.58 197.786 233.055 197.366 235.709 198.125C236.612 198.385 236.969 199.847 235.886 200.155C233.055 200.968 195.776 200.556 190.629 200.556C185.482 200.556 180.486 200.741 175.446 200.556C173.904 200.5 174.018 197.917 175.546 197.849C180.561 197.627 185.626 197.786 190.652 197.786Z" fill="#FECC19"/>
<path d="M236.299 217.406C236.617 217.501 236.885 217.717 237.045 218.008C237.204 218.299 237.243 218.641 237.152 218.96C236.719 220.43 238.662 219.926 174.794 220.991C174.442 220.955 174.115 220.79 173.878 220.527C173.64 220.264 173.509 219.923 173.509 219.568C173.509 219.214 173.64 218.873 173.878 218.61C174.115 218.347 174.442 218.182 174.794 218.146C236.064 217.157 232.261 217.094 236.299 217.406Z" fill="#FECC19"/>
<path d="M176.159 180.999C175.818 180.976 175.497 180.827 175.259 180.58C175.021 180.334 174.883 180.008 174.873 179.666C174.862 179.323 174.979 178.989 175.201 178.728C175.423 178.467 175.734 178.298 176.073 178.254C185.187 178.002 227.599 177.649 235.293 179.182C236.553 179.432 236.272 181.268 235.069 181.375C228.561 181.961 218.611 179.775 176.159 180.999Z" fill="#FECC19"/>
<path d="M120.145 143.69C120.032 125.601 119.192 103.034 120.71 85.4824C120.752 85.2188 120.89 84.9801 121.097 84.8122C121.304 84.6443 121.567 84.5592 121.833 84.5733C122.1 84.5874 122.351 84.6997 122.54 84.8885C122.728 85.0773 122.84 85.3293 122.854 85.5958C123.348 94.0168 122.883 133.144 122.854 143.892C122.85 145.658 120.156 145.458 120.145 143.69Z" fill="#FECC19"/>
<path d="M278.623 227.497C276.021 230.348 273.254 233.044 270.336 235.572C269.076 236.758 267.136 234.866 268.404 233.682C271.123 230.946 273.982 228.353 276.968 225.912C277.877 225.33 279.324 226.521 278.623 227.497Z" fill="#FECC19"/>
<path d="M395.011 85.4823C395.011 83.9031 397.497 83.6154 397.518 85.2324C398.345 152.13 397.241 229.941 394.045 296.492C393.956 298.336 391.105 297.885 391.199 296.054C394.576 225.655 395.107 155.939 395.011 85.4823Z" fill="#FECC19"/>
<path d="M363.42 234.757C364.126 235.807 362.49 237.142 361.665 236.162C360.6 234.902 354.426 227.747 354.735 226.208C355.585 222.129 362.215 232.974 363.42 234.757Z" fill="#FECC19"/>
<path d="M317.222 200.821C318.299 200.621 325.133 206.686 326.512 208.003C339.413 199.567 338.13 201.644 337.97 206.743C337.921 210.23 337.679 213.713 337.243 217.173C337.086 218.268 335.423 218.076 335.353 217.012C335.091 213.112 335.593 209.225 335.656 205.327C324.297 212.257 327.808 212.047 317.201 203.358C315.941 204.75 309.941 210.588 308.125 210.367C306.655 210.185 301.705 203.534 300.527 202.116C300.527 205.126 300.43 213.715 299.538 216.147C299.076 217.407 297.858 216.961 297.795 215.708C297.639 213.036 297.963 206.705 297.957 203.622C297.957 200.111 297.967 199.212 299.437 197.112C302.629 192.551 310.714 181.377 315.647 175.312C319.992 169.968 320.183 169.852 323.232 174.573C327.93 181.858 335.815 195.993 337.021 198.681C337.531 199.813 335.786 200.346 335.179 199.508C333.159 196.717 328.585 188.513 326.479 184.903C321.743 185.092 317.001 185.012 312.274 184.663C308.39 189.285 304.678 194.048 301.144 198.943L308.377 207.719C309.362 206.938 316.132 201.022 317.222 200.821Z" fill="#FECC19"/>
<path d="M281.042 294.84C292.325 294.21 384.206 294.704 387.791 295.26C388.056 295.346 388.286 295.517 388.443 295.746C388.601 295.976 388.678 296.252 388.662 296.53C388.646 296.808 388.539 297.073 388.357 297.284C388.175 297.494 387.928 297.639 387.655 297.694C352.914 297.793 316.045 297.518 281.243 297.555C279.551 297.555 279.261 294.945 281.042 294.84Z" fill="#FECC19"/>
<path d="M358.993 164.814C357.75 166.202 355.843 164.464 356.877 163.285C359.384 160.44 364.756 153.978 367.232 151.803C368.212 150.94 369.542 152.29 368.849 153.319C367.068 155.975 361.448 162.076 358.993 164.814Z" fill="#FECC19"/>
<path d="M318.571 152.46C318.413 147.01 318.736 141.556 319.535 136.162C319.645 135.968 319.81 135.81 320.008 135.708C320.207 135.605 320.431 135.563 320.653 135.585C320.875 135.607 321.086 135.693 321.26 135.833C321.435 135.973 321.565 136.16 321.635 136.372C321.805 141.816 321.541 147.265 320.845 152.668C320.782 152.939 320.623 153.178 320.397 153.341C320.171 153.503 319.894 153.579 319.617 153.554C319.34 153.528 319.082 153.404 318.889 153.203C318.697 153.002 318.584 152.738 318.571 152.46Z" fill="#FECC19"/>
<path d="M316.733 233.766C316.733 235.509 317.197 247.08 316.571 248.598C316.461 248.79 316.301 248.948 316.11 249.059C315.919 249.17 315.701 249.228 315.48 249.228C315.259 249.228 315.042 249.17 314.85 249.059C314.659 248.948 314.5 248.79 314.389 248.598C313.736 246.931 314.477 236.061 314.564 233.766C314.677 232.537 316.733 232.512 316.733 233.766Z" fill="#FECC19"/>
<path d="M369.276 195.806C343.771 147.84 285.635 152.88 264.255 191.919C289.513 230.468 338.998 236.304 369.391 199.239C370.34 198.084 371.514 199.561 370.651 200.77C343.931 237.94 286.838 233.089 263.263 195.52C262.495 194.565 262.047 193.393 261.982 192.17C261.917 190.946 262.238 189.733 262.9 188.702C288.825 144.303 353.752 152.29 371.031 194.67C371.546 195.93 369.891 196.965 369.276 195.806Z" fill="#FECC19"/>
<path d="M136.808 147.088C143.377 148.348 149.17 162.697 141.923 169.415C137.486 173.529 117.051 173.703 104.663 173.176C104.574 174.692 104.249 176.185 103.699 177.601C103.206 178.861 101.727 179.26 102.095 176.988C102.296 175.694 102.388 174.385 102.37 173.076C100.444 172.992 98.5209 172.852 96.6032 172.656C96.937 175.454 97.4178 178.232 98.0438 180.98C98.3903 182.486 96.6998 182.767 96.1265 181.331C94.3686 176.788 93.6573 171.907 94.0454 167.051C94.793 156.347 124.808 144.782 136.808 147.088ZM134.739 152.741C137.761 153.432 138.475 158.023 138.75 160.478C139.223 164.678 141.9 161.738 141.258 158.044C140.766 155.259 138.387 150.723 134.916 151.175C134.714 151.164 134.517 151.23 134.363 151.36C134.209 151.491 134.111 151.675 134.089 151.875C134.066 152.075 134.121 152.276 134.242 152.437C134.363 152.598 134.541 152.707 134.739 152.741Z" fill="#262623"/>
<path d="M112.248 190.302C110.574 187.467 109.423 184.354 108.85 181.112C106.029 181.623 103.339 182.694 100.939 184.262C99.5113 184.877 98.9696 183.002 99.6794 182.42C102.257 180.32 105.407 179.045 108.72 178.76C110.249 175.864 121.87 175.19 123.663 178.246C124.102 177.999 124.588 177.849 125.09 177.803C125.591 177.758 126.096 177.819 126.572 177.983C127.485 175.476 137.792 174.848 140.361 177.744C143.319 177.418 144.548 180.15 140.638 180.125C140.493 182.839 139.991 185.522 139.145 188.105C138.132 190.176 130.854 190.144 129.405 189.096C127.681 187.851 126.897 182.414 126.408 180.32C125.698 180.097 124.931 180.142 124.251 180.446C124.267 183.253 123.947 186.052 123.3 188.783C122.187 190.997 113.863 192.209 112.248 190.302ZM130.201 186.69C130.543 187.515 130.852 187.712 133.611 187.603C138.273 187.421 137.297 188.431 138.725 179.042C135.441 177.926 131.88 177.926 128.596 179.042C128.641 181.67 129.186 184.265 130.201 186.69ZM121.425 187.641C121.945 185.06 122.131 182.422 121.977 179.793C118.376 178.508 114.422 178.628 110.906 180.131C111.103 182.197 111.633 184.216 112.475 186.112C113.667 188.723 113.865 189.065 117.626 188.758C119.432 188.611 121.171 188.21 121.425 187.643V187.641Z" fill="#262623"/>
<path d="M119.643 185.964C119.251 187.379 116.493 187.545 117.136 183.456C117.503 181.129 120.784 181.86 119.643 185.964Z" fill="#262623"/>
<path d="M95.8258 184.271C103.02 184.873 106.571 198.053 110.393 199.315C113.065 200.199 119.056 196.356 125.11 195.942C131.165 195.529 134.613 198.086 135.743 197.547C136.872 197.007 136.093 192.282 136.093 191.18C136.093 190.077 136.694 189.474 137.761 191.906C138.827 194.338 149.231 217.682 144.705 223.963C138.237 232.938 111.842 234.839 103.648 228.665C93.3751 220.924 102.117 196.064 99.5869 189.588C99.1111 188.662 98.3522 187.912 97.4208 187.448C96.4894 186.983 95.434 186.828 94.4083 187.005C90.9475 188.504 91.8988 198.765 97.4302 197.158C98.8204 196.757 99.1354 198.504 97.8502 199.178C94.0933 201.155 90.4057 198.074 89.9143 192.91C89.5468 189 90.874 183.857 95.8258 184.271ZM124.472 207.581C129.686 207.581 130.74 205.512 131.179 202.121C126.666 203.091 121.99 203.009 117.512 201.883C117.989 204.983 118.651 207.589 124.472 207.589V207.581Z" fill="#262623"/>
<path d="M126.967 185.549C127.932 187.775 128.655 190.099 129.123 192.479C129.642 195.304 125.885 195.312 123.768 194.987C122.508 194.794 122.277 193.357 123.657 193.256C124.671 193.181 126.664 193.13 126.853 192.78C126.68 190.437 126.229 188.122 125.511 185.885C125.219 184.961 126.568 184.6 126.967 185.549Z" fill="#262623"/>
<path d="M132.93 186.06C131.763 185.615 131.67 182.471 132.668 181.885C135.186 180.39 135.537 187.043 132.93 186.06Z" fill="#262623"/>
<path d="M112.387 75.4531C209.507 75.5287 312.609 75.304 408.251 76.1188C409.881 76.1314 409.919 80.3188 408.352 80.3293C311.532 80.9362 209.558 80.1802 112.487 80.1046C110.744 80.1025 110.707 75.4531 112.387 75.4531Z" fill="#262623"/>
<path d="M223.036 299.006C239.626 298.019 265.323 294.773 280.804 288.126C282.795 287.269 292.63 288.876 303.795 283.716C304.963 283.178 305.427 284.823 304.335 285.497C298.629 289.012 291.422 289.949 284.841 290.161C283.072 290.115 281.319 290.507 279.738 291.301C261.497 297.843 242.287 301.275 222.91 301.455C221.318 301.478 221.368 299.107 223.036 299.006Z" fill="#262623"/>
<path d="M34.4199 294.243C34.7433 292.475 37.1268 293.099 36.8286 294.857C35.8025 301.166 36.2095 307.626 38.0193 313.757C42.3054 328.694 54.918 326.298 67.5432 325.716C80.7942 325.107 99.0432 323.837 110.492 323.31C110.745 323.276 111.001 323.343 111.206 323.495C111.41 323.647 111.547 323.873 111.587 324.125C111.628 324.377 111.568 324.635 111.421 324.843C111.274 325.052 111.052 325.195 110.801 325.242C99.7866 326.991 76.2582 328.026 67.0917 328.461C54.5547 329.057 40.5687 330.729 35.9004 316.214C33.6035 309.124 33.0949 301.577 34.4199 294.243Z" fill="#262623"/>
<path d="M116.6 301.728C100.375 299.148 84.0312 297.387 67.6297 296.451C67.3646 296.427 67.1191 296.301 66.9444 296.1C66.7697 295.9 66.6794 295.639 66.6925 295.373C66.7055 295.107 66.8208 294.857 67.0142 294.674C67.2077 294.491 67.4644 294.39 67.7305 294.393C84.2441 295.07 100.702 296.745 117.013 299.407C117.321 299.463 117.594 299.639 117.772 299.896C117.95 300.153 118.019 300.47 117.964 300.778C117.908 301.085 117.732 301.358 117.475 301.537C117.218 301.715 116.901 301.784 116.593 301.728H116.6Z" fill="#262623"/>
<path d="M289.329 283.563C289.154 283.562 288.981 283.525 288.821 283.456C288.661 283.386 288.516 283.285 288.396 283.159C288.275 283.032 288.182 282.883 288.121 282.719C288.059 282.555 288.032 282.381 288.039 282.207C288.047 282.032 288.09 281.861 288.165 281.703C288.24 281.546 288.346 281.405 288.477 281.289C288.608 281.173 288.761 281.085 288.927 281.03C289.093 280.975 289.268 280.954 289.442 280.968C297.237 281.217 301.17 279.004 306.315 275.35C307.13 274.773 307.995 275.791 307.365 276.61C303.703 281.451 295.158 283.79 289.329 283.563Z" fill="#262623"/>
<path d="M276.361 270.27C275.412 271.916 273.421 272.139 271.649 272.54C261.18 274.919 237.226 274.125 226.114 273.995C224.535 273.976 224.854 271.935 226.478 271.95C234.59 272.032 259.074 272.263 271.222 270.02C273.465 269.6 273.35 269.932 274.494 268.13C276.657 264.715 279.883 260.538 283.795 260.469C284.963 260.448 285.055 261.574 284.06 262.073C280.604 263.807 277.875 266.712 276.361 270.27Z" fill="#262623"/>
<path d="M283.291 270.736C288.713 269.145 296.376 266.591 300.59 261.146C301.85 259.512 302.921 260.782 302.296 262.099C299.671 267.626 290.061 272.599 284.544 272.809C281.493 272.937 282.341 271.014 283.291 270.736Z" fill="#262623"/>
<path d="M305.251 266.45C305.424 266.239 305.671 266.103 305.942 266.069C306.212 266.035 306.486 266.106 306.706 266.267C306.926 266.428 307.075 266.668 307.124 266.936C307.173 267.205 307.117 267.481 306.968 267.71C304.967 270.582 302.367 272.986 299.348 274.759C296.33 276.531 292.963 277.629 289.48 277.977C289.205 277.986 288.935 277.906 288.711 277.748C288.486 277.59 288.319 277.363 288.236 277.102C288.152 276.84 288.156 276.559 288.247 276.3C288.338 276.041 288.511 275.818 288.74 275.667C290.582 274.873 298.411 274.363 305.251 266.45Z" fill="#262623"/>
<path d="M63.4921 330.7C67.2532 330.21 110.881 331.176 112.901 330.349C114.921 329.522 125.371 270.01 128.101 266.1C130.831 262.189 216.824 264.669 220.734 266.927C224.644 269.184 211.731 337.161 208.386 338.537C205.402 339.761 67.9756 338.06 63.4858 337.823C58.996 337.586 59.731 331.189 63.4921 330.7ZM171.835 311.142C183.568 312.119 187.245 292.872 175.521 290.959C169.956 290.05 165.052 294.985 164.013 301.063C163.797 302.247 163.833 303.464 164.119 304.633C164.404 305.803 164.934 306.899 165.672 307.85C166.41 308.801 167.341 309.586 168.403 310.154C169.465 310.721 170.634 311.058 171.835 311.142Z" fill="#262623"/>
</svg>
