<svg width="620" height="460" viewBox="0 0 620 460" fill="none" xmlns="http://www.w3.org/2000/svg">
<path d="M493.784 269.649C496.27 269.517 498.669 268.698 500.716 267.283C502.764 265.867 504.377 263.911 505.378 261.633C506.231 258.734 503.162 257.711 502.136 260.951C501.279 262.724 499.984 264.25 498.373 265.384C496.763 266.518 494.89 267.223 492.932 267.433C492.25 267.603 490.886 269.705 493.784 269.649Z" fill="#262623"/>
<path d="M498.899 245.094C497.894 241.337 492.758 244.753 495.83 248.334C496.682 249.357 499.944 249.009 498.899 245.094Z" fill="#262623"/>
<path d="M491.568 229.238C489.178 229.91 489.181 232.648 492.247 232.648C495.675 232.395 499.116 232.925 502.31 234.198C502.529 234.272 502.768 234.268 502.986 234.188C503.203 234.107 503.387 233.955 503.506 233.756C503.625 233.557 503.672 233.323 503.64 233.093C503.608 232.863 503.499 232.651 503.329 232.493C501.72 231.134 499.835 230.14 497.805 229.578C495.775 229.016 493.647 228.9 491.568 229.238Z" fill="#262623"/>
<path d="M482.36 237.751C480.082 236.463 477.397 236.097 474.858 236.728C473.308 237.239 473.494 238.944 475.028 239.115C477.031 239.184 479.001 239.647 480.825 240.479C482.868 241.343 483.37 238.628 482.36 237.751Z" fill="#262623"/>
<path d="M485.085 249.53C484.601 253.321 484.544 257.154 484.915 260.957C485.6 265.39 495.656 262.15 494.125 259.763C493.272 258.399 489.862 261.313 487.643 260.275C487.051 256.726 486.824 253.126 486.964 249.53C486.964 249.281 486.865 249.042 486.689 248.866C486.513 248.69 486.274 248.591 486.025 248.591C485.775 248.591 485.537 248.69 485.36 248.866C485.184 249.042 485.085 249.281 485.085 249.53Z" fill="#262623"/>
<path d="M481.675 250.721C484.226 249.171 481.848 243.901 479.632 245.606C477.924 246.629 478.596 252.584 481.675 250.721Z" fill="#262623"/>
<path d="M464.454 264.534C466.841 272.377 472.638 282.607 479.288 287.381C482.357 289.598 483.891 287.381 480.838 284.483C474.283 278.96 469.336 271.773 466.516 263.679C466.402 263.405 466.185 263.188 465.911 263.075C465.638 262.962 465.331 262.962 465.057 263.076C464.784 263.189 464.567 263.407 464.454 263.68C464.341 263.954 464.341 264.261 464.454 264.534Z" fill="#262623"/>
<path d="M519.87 272.719C520.704 272.015 520.04 270.673 519.017 271.169C509.469 275.261 502.82 290.094 507.423 300.668C508.105 302.032 509.981 301.521 509.64 299.983C507.082 286.87 510.452 280.661 519.87 272.719Z" fill="#262623"/>
<path d="M462.921 275.958C464.26 280.221 466.445 284.169 469.345 287.568C472.245 290.966 475.801 293.744 479.801 295.736C482.017 296.759 484.234 295.054 480.824 292.838C473.807 288.817 468.253 282.666 464.967 275.276C464.115 273.912 462.543 274.433 462.921 275.958Z" fill="#262623"/>
<path d="M470.252 264.193C474.088 272.126 480.527 278.505 488.495 282.267C499.578 287.211 501.797 279.538 511.345 273.23C512.368 272.548 511.854 271.184 510.66 271.525C502.135 273.571 501.283 284.824 489.348 279.027C482.385 275.158 476.519 269.585 472.298 262.829C472.1 262.603 471.826 262.456 471.528 262.416C471.229 262.377 470.927 262.447 470.676 262.614C470.426 262.781 470.245 263.033 470.167 263.324C470.088 263.614 470.119 263.924 470.252 264.193Z" fill="#262623"/>
<path d="M485.085 309.051C485.94 310.411 488.157 309.221 487.472 307.857C484.232 299.158 471.274 297.283 466.671 289.61C465.818 288.246 464.284 289.61 464.811 290.974C469.569 299.999 479.303 299.819 485.085 309.051Z" fill="#262623"/>
<path d="M469.058 237.592C469.684 245.95 471.345 254.199 474.003 262.147C474.344 263.341 476.56 262.829 476.219 261.465C472.624 249.944 471.179 237.86 471.957 225.815C473.163 226.254 474.448 226.437 475.729 226.353C477.01 226.268 478.259 225.918 479.398 225.325C480.536 224.732 481.539 223.908 482.342 222.906C483.145 221.905 483.731 220.747 484.062 219.507C488.669 226.327 502.309 225.645 506.571 219.507C505.378 228.884 516.29 245.423 518.506 242.354C519.529 240.804 520.552 239.114 522.428 238.603C529.418 236.386 530.612 249.685 526.349 251.561C524.489 252.413 520.723 250.011 522.939 255.994C525.883 263.805 528.388 271.774 530.441 279.864C530.782 281.398 532.658 280.716 532.658 279.182C531.157 270.913 528.874 262.805 525.838 254.968C527.424 254.765 528.894 254.031 530.009 252.886C531.124 251.74 531.817 250.25 531.976 248.659C533.97 247.935 535.752 246.722 537.157 245.133C538.563 243.543 539.548 241.627 540.023 239.558C540.498 237.49 540.448 235.336 539.876 233.292C539.305 231.249 538.231 229.381 536.753 227.858C545.96 218.651 544.255 203.474 530.1 203.644C530.978 200.852 530.991 197.859 530.136 195.06C529.282 192.26 527.6 189.784 525.312 187.958C523.025 186.132 520.238 185.041 517.319 184.828C514.399 184.615 511.484 185.29 508.955 186.765C503.84 172.954 482.869 177.046 482.357 189.322C469.058 178.41 451.835 195.46 462.065 208.589C450.474 208.775 449.451 236.399 469.058 237.592Z" fill="#262623"/>
<path d="M492.419 318.586C493.44 319.729 494.786 320.533 496.276 320.89C497.767 321.247 499.33 321.14 500.758 320.583C502.186 320.027 503.41 319.048 504.266 317.777C505.122 316.506 505.569 315.003 505.548 313.471C508.369 312.368 511.105 311.058 513.732 309.55C513.35 307.233 512.478 305.024 511.174 303.071C508.52 303.758 505.948 304.729 503.502 305.969C502.516 304.748 501.167 303.872 499.65 303.468C498.134 303.065 496.528 303.154 495.065 303.724C493.603 304.293 492.36 305.314 491.515 306.637C490.671 307.96 490.27 309.518 490.37 311.084C488.665 312.107 486.79 313.301 486.108 313.812C486.023 316.168 486.673 318.492 487.968 320.462C489.347 319.95 491.04 319.281 492.419 318.586ZM493.951 311.084C494.49 305.117 502.321 305.799 501.626 313.301C501.115 319.439 493.306 318.248 493.951 311.084Z" fill="#262623"/>
<path d="M455.081 376.218C454.569 367.693 454.228 347.571 456.445 340.069C456.786 338.705 458.491 338.364 458.305 341.263C457.731 352.854 457.845 364.47 458.646 376.048C471.521 375.633 484.408 376.26 497.182 377.923C491.723 363.601 484.05 319.098 483.198 313.301C482.345 307.504 470.751 303.579 464.598 297.612C450.276 302.727 430.324 318.757 414.809 340.581C420.516 353.022 425.192 365.91 428.79 379.117C437.493 377.663 446.27 376.696 455.081 376.218Z" fill="#262623"/>
<path d="M535.386 282.948C528.396 290.28 522.428 293.86 511.857 294.031C514.074 309.221 527.376 331.374 538.97 347.574C540.782 343.72 542.099 339.651 542.888 335.466C543.233 333.079 544.748 333.931 544.748 335.295C544.47 340.675 543.318 345.974 541.338 350.984C555.323 370.08 573.578 388.494 580.398 411.685C588.071 401.967 618.082 348.755 597.281 313.471C585.008 292.155 558.237 281.243 535.386 282.948Z" fill="#262623"/>
<path d="M560.452 437.08C572.561 437.251 578.184 437.251 588.414 437.251C593.703 424.122 599.159 398.377 601.034 377.061C590.119 412.367 573.581 429.076 560.452 437.08Z" fill="#262623"/>
<path d="M513.902 426.519C494.655 428.341 475.601 431.82 456.952 436.919C468.035 436.749 507.935 436.408 521.916 436.749C518.296 434.202 515.509 430.643 513.902 426.519Z" fill="#262623"/>
<path d="M511.191 422.256C513.24 421.946 512.896 418.846 510.85 419.187C461.526 426.109 453.333 432.018 432.243 433.85C429.345 434.021 426.973 437.09 430.879 437.09C443.499 437.09 464.3 430.611 477.94 428.053C489.863 425.666 499.259 424.101 511.191 422.256Z" fill="#262623"/>
<path d="M434.955 381.333C427.446 382.834 429.328 385.255 432.056 384.573C451.496 380.481 477.753 381.333 497.193 384.573C499.069 384.914 499.921 382.015 498.046 381.674C478.776 378.435 454.206 377.492 434.955 381.333Z" fill="#262623"/>
<path d="M554.997 376.9C555.843 377.592 557.555 376.559 556.857 375.35C540.745 356.179 526.419 335.576 514.058 313.797C513.376 312.603 511.33 313.797 511.842 314.99C518.336 327.961 543.828 367.796 554.997 376.9Z" fill="#262623"/>
<path d="M576.139 413.049C576.821 411.344 574.589 409.98 573.752 411.499C568.637 420.536 562.499 429.572 552.61 434.005C542.551 438.609 531.465 437.245 524.133 428.549C508.277 409.794 496.683 350.119 492.417 323.003C492.076 321.298 489.689 321.98 490.03 323.685C493.611 349.601 505.22 410.647 522.087 430.595C535.005 445.99 562.266 442.183 576.139 413.049Z" fill="#262623"/>
<path d="M321.908 345.011C323.101 344.335 322.249 342.965 320.885 343.151C314.747 344.344 310.655 346.049 308.776 352.19C306.882 357.783 306.413 363.761 307.412 369.581C307.753 371.131 309.97 370.775 310.14 369.24C310.311 362.591 309.288 361.227 311.504 353.895C313.38 347.06 316.461 348.111 321.908 345.011Z" fill="#262623"/>
<path d="M324.123 318.927C323.936 322.624 324.05 326.331 324.464 330.009C324.635 331.373 327.022 331.203 327.192 330.009C327.269 326.308 327.099 322.606 326.681 318.927C326.507 317.73 324.151 317.73 324.123 318.927Z" fill="#262623"/>
<path d="M337.082 317.563C341.636 315.083 348.862 310.232 351.916 304.261C352.768 302.556 352.601 302.045 351.404 300.51C349.897 298.806 348.116 297.365 346.134 296.248C344.091 295.225 343.918 295.906 342.386 296.929C332.324 303.92 316.966 302.556 306.405 297.1C305.552 296.588 303.165 297.953 305.382 299.146C318.513 305.799 332.662 306.992 344.77 298.464C346.721 299.701 348.5 301.192 350.059 302.897C346.021 308.636 340.554 313.222 334.199 316.199C331.812 313.301 329.425 310.573 327.038 307.674C323.439 303.678 321.964 310.87 316.123 316.711C310.214 313.791 304.566 310.369 299.244 306.481C300.949 304.772 302.483 303.071 304.188 301.362C305.211 300.51 303.847 298.805 302.638 299.502C300.841 300.805 299.184 302.29 297.694 303.935C297.083 304.639 296.775 305.556 296.839 306.486C296.903 307.416 297.333 308.282 298.035 308.895C300.763 311.453 314.573 320.319 316.793 319.296C320.544 317.436 322.59 312.476 325.147 309.407C327.534 311.794 330.774 316.568 332.649 318.444C333.843 319.78 335.876 318.22 337.082 317.563Z" fill="#262623"/>
<path d="M355.158 249.016C355.776 246.393 356.005 243.692 355.837 241.002C355.496 238.104 352.771 237.933 352.939 241.173C353.28 245.435 351.748 250.38 352.26 251.403C353.453 254.305 357.716 249.543 359.759 252.6C362.657 257.374 356.349 266.41 352.427 264.023C351.407 263.341 350.567 263.853 349.87 266.069C348.827 269.054 347.455 271.914 345.778 274.594C336.571 288.064 317.986 291.474 307.756 279.864C304.149 275.193 301.801 269.675 300.936 263.837C300.909 263.453 300.783 263.083 300.569 262.762C300.356 262.442 300.062 262.183 299.718 262.011C299.374 261.839 298.99 261.759 298.606 261.781C298.222 261.802 297.849 261.923 297.526 262.132C293.946 264.86 290.706 260.768 290.365 255.653C289.854 248.659 294.116 248.148 297.185 250.535C297.376 250.69 297.611 250.781 297.856 250.795C298.102 250.809 298.345 250.746 298.553 250.614C298.76 250.482 298.921 250.288 299.012 250.06C299.103 249.831 299.12 249.58 299.061 249.341C298.89 247.791 298.038 239.111 298.038 237.236C297.867 235.531 295.821 236.213 295.821 237.747C295.992 240.816 296.162 244.056 296.503 246.954C295.563 246.498 294.525 246.278 293.48 246.314C292.436 246.349 291.415 246.639 290.508 247.159C289.601 247.678 288.834 248.411 288.275 249.294C287.715 250.176 287.379 251.182 287.296 252.224C285.932 261.435 292.411 268.596 298.379 265.186C300.084 272.688 302.982 280.36 309.294 284.964C308.95 288.033 308.782 291.102 308.441 294.171C308.271 296.899 310.146 297.24 310.828 295.876C311.289 292.768 311.574 289.637 311.681 286.498C315.86 288.676 320.544 289.697 325.251 289.457C329.957 289.218 334.513 287.725 338.449 285.134C338.62 288.203 338.449 291.443 338.79 294.512C338.793 294.706 338.838 294.897 338.92 295.073C339.002 295.249 339.12 295.405 339.266 295.532C339.413 295.66 339.585 295.755 339.77 295.811C339.956 295.868 340.152 295.884 340.344 295.86C340.537 295.836 340.722 295.772 340.888 295.671C341.054 295.571 341.197 295.437 341.308 295.277C341.419 295.118 341.495 294.937 341.531 294.746C341.567 294.556 341.563 294.359 341.518 294.171C341.007 289.056 341.348 285.816 341.177 283.259C346.34 279.165 350.096 273.562 351.922 267.232C352.954 267.477 354.03 267.482 355.065 267.246C356.1 267.009 357.066 266.538 357.889 265.868C365.9 260.443 365.215 245.947 355.158 249.016Z" fill="#262623"/>
<path d="M312.701 234.012C310.976 233.978 309.263 234.311 307.676 234.986C306.088 235.662 304.662 236.667 303.491 237.933C302.468 238.956 303.149 241.173 305.195 240.15C307.399 238.568 309.996 237.624 312.701 237.422C315.77 237.081 315.271 234.195 312.701 234.012Z" fill="#262623"/>
<path d="M354.133 340.922C353.654 336.778 352.095 332.832 349.611 329.48C347.128 326.129 343.807 323.489 339.981 321.826C338.121 321.144 337.935 323.019 339.299 323.686C347.995 328.289 351.405 337.155 351.749 346.536C352.087 354.208 348.506 366.143 357.543 370.406C359.093 371.088 360.274 368.546 358.736 367.848C351.064 364.283 355.937 352.528 354.133 340.922Z" fill="#262623"/>
<path d="M314.914 324.724C315.748 323.685 314.744 322.337 313.55 323.174C306.925 328.846 302.072 336.303 299.569 344.657C298.376 349.093 298.717 353.697 297.694 357.959C296.5 362.904 292.238 364.779 288.316 367.507C286.952 368.36 288.146 370.747 289.68 370.065C293.503 368.502 296.769 365.83 299.058 362.392C302.638 356.254 299.058 348.582 306.389 335.791C308.95 331.894 311.8 328.195 314.914 324.724Z" fill="#262623"/>
<path d="M304.684 361.726C305.27 356.456 304.855 350.981 307.753 346.207C309.059 344.235 310.767 342.562 312.766 341.298C314.765 340.035 317.009 339.209 319.35 338.875C321.396 338.534 321.21 336.488 319.35 336.488C316.647 336.578 314.003 337.304 311.632 338.607C309.262 339.911 307.233 341.755 305.71 343.99C302.769 349.344 301.632 355.504 302.471 361.555C302.468 362.748 304.532 363.09 304.684 361.726Z" fill="#262623"/>
<path d="M325.501 360.201C324.881 364.643 325.842 430.62 326.012 434.201C326.012 436.076 329.081 435.906 329.081 434.03C329.081 415.12 328.229 381.002 327.888 360.371C327.705 359.339 325.678 358.827 325.501 360.201Z" fill="#262623"/>
<path d="M343.732 391.563C341.776 390.828 340.035 389.616 338.666 388.038C337.296 386.46 336.342 384.566 335.889 382.527C334.013 373.49 343.391 364.795 338.617 355.417C337.782 353.663 336.397 352.23 334.673 351.335C332.949 350.44 330.981 350.132 329.066 350.457C328.817 350.457 328.578 350.556 328.403 350.732C328.227 350.908 328.128 351.146 328.128 351.395C328.128 351.644 328.227 351.882 328.403 352.058C328.578 352.234 328.817 352.333 329.066 352.333C330.172 352.375 331.258 352.64 332.259 353.114C333.259 353.587 334.153 354.259 334.887 355.088C335.62 355.917 336.178 356.887 336.526 357.937C336.874 358.988 337.005 360.099 336.912 361.202C336.912 366.146 334.184 370.75 333.161 375.524C332.12 379.278 332.523 383.285 334.291 386.757C336.058 390.228 339.061 392.912 342.709 394.279C344.584 395.144 345.601 392.27 343.732 391.563Z" fill="#262623"/>
<path d="M286.951 371.615C286.771 370.251 286.951 365.647 284.564 366.345C282.472 366.732 280.418 367.302 278.426 368.05C275.698 369.243 274.334 372.312 278.085 371.289C279.79 370.778 281.666 370.266 283.355 369.739C284.223 380.789 288.65 391.259 295.972 399.58C285.983 408.113 275.185 415.651 263.732 422.086C260.492 423.961 261.345 426.86 264.073 425.325C276.465 418.857 287.983 410.836 298.347 401.455C298.858 400.944 299.54 400.262 298.858 399.239C292.748 389.688 288.411 382.707 286.951 371.615Z" fill="#262623"/>
<path d="M432.056 409.639C430.168 391.737 417.393 356.781 410.232 341.262C399.317 317.904 382.097 309.379 357.886 304.09C357.569 304.022 357.238 304.082 356.965 304.258C356.693 304.434 356.502 304.711 356.433 305.028C356.365 305.345 356.426 305.676 356.602 305.948C356.777 306.221 357.054 306.412 357.371 306.48C378.346 313.812 393.861 316.54 405.288 338.193C413.472 353.712 431.545 401.285 428.987 419.528C426.941 433.68 419.439 432.998 409.55 433.68C391.815 434.873 361.466 411.174 348.846 399.58C357.371 393.609 362.83 379.969 364.365 370.421C377.939 374.147 391.044 379.409 403.425 386.107C405.133 386.959 406.497 384.743 404.792 383.89C396.907 379.468 388.699 375.649 380.237 372.467C379.501 368.398 377.74 364.584 375.122 361.384C373.758 360.191 373.076 361.725 373.587 362.578C375.252 365.279 376.516 368.209 377.338 371.273C373.299 369.727 369.135 368.529 364.892 367.693C361.652 367.181 361.652 367.693 361.141 370.421C355.511 397.534 342.724 396.848 346.304 400.773C358.924 414.925 389.273 436.237 409.054 436.578C427.623 437.08 434.09 428.909 432.056 409.639Z" fill="#262623"/>
<path d="M345.436 355.417C345.225 352.926 344.291 350.55 342.749 348.581C341.207 346.612 339.125 345.135 336.756 344.332C333.837 343.766 330.862 343.537 327.89 343.65C326.523 343.65 326.523 345.355 327.72 345.699C332.664 347.063 336.756 345.184 340.337 350.302C344.258 355.758 342.042 361.044 342.724 364.283C342.817 364.538 342.982 364.761 343.199 364.924C343.416 365.087 343.676 365.183 343.947 365.201C344.218 365.22 344.488 365.158 344.725 365.026C344.962 364.893 345.155 364.694 345.281 364.454C345.857 361.473 345.909 358.416 345.436 355.417Z" fill="#262623"/>
<path d="M323.442 349.45C321.476 350.073 319.668 351.112 318.138 352.494C316.608 353.876 315.392 355.571 314.573 357.463C307.412 372.467 327.022 383.55 298.716 393.953C298.369 394.057 298.075 394.29 297.896 394.605C297.716 394.92 297.665 395.292 297.753 395.643C297.841 395.995 298.061 396.299 298.367 396.492C298.674 396.686 299.043 396.753 299.398 396.681C303.912 395.618 308.116 393.515 311.674 390.54C327.534 377.241 304.854 364.454 324.294 351.325C325.317 350.473 324.809 349.127 323.442 349.45Z" fill="#262623"/>
<path d="M308.606 249.186C310.8 251.09 313.566 245.094 310.655 243.56C308.094 242.196 307.056 247.841 308.606 249.186Z" fill="#262623"/>
<path d="M343.049 343.309C347.442 347.45 347.141 353.539 347.312 359.168C347.312 360.532 349.358 360.362 349.699 359.168C350.551 353.03 349.869 345.696 345.095 341.092C339.98 336.318 332.137 335.636 325.658 336.659C325.511 336.666 325.366 336.704 325.234 336.77C325.102 336.837 324.986 336.931 324.893 337.046C324.8 337.161 324.732 337.294 324.695 337.437C324.657 337.58 324.65 337.729 324.674 337.875C324.699 338.02 324.754 338.159 324.836 338.282C324.918 338.405 325.025 338.51 325.15 338.588C325.275 338.667 325.416 338.718 325.562 338.738C325.709 338.758 325.858 338.747 325.999 338.705C331.796 338.705 338.399 338.925 343.049 343.309Z" fill="#262623"/>
<path d="M284.735 244.924C286.267 246.291 287.975 243.901 286.611 242.537C276.722 232.648 276.722 217.641 283.542 206.047C303.149 172.285 361.466 179.108 373.572 213.89C375.67 219.45 375.89 225.545 374.196 231.242C372.503 236.939 368.99 241.924 364.194 245.435C363.171 246.288 364.024 248.163 365.388 247.481C379.028 240.661 381.415 222.759 375.788 209.971C359.079 171.947 294.113 169.901 278.256 209.971C273.482 221.736 275.001 236.244 284.735 244.924Z" fill="#262623"/>
<path d="M290.021 234.694C300.409 235.853 313.212 228.556 318.327 219.69C318.482 219.44 318.538 219.141 318.481 218.853C318.425 218.564 318.262 218.308 318.024 218.135C317.786 217.962 317.492 217.886 317.2 217.921C316.908 217.957 316.641 218.101 316.451 218.326C308.779 227.703 301.785 230.772 290.021 232.136C289.718 232.186 289.442 232.342 289.243 232.576C289.044 232.81 288.935 233.108 288.935 233.415C288.935 233.722 289.044 234.02 289.243 234.254C289.442 234.488 289.718 234.644 290.021 234.694Z" fill="#262623"/>
<path d="M322.759 260.954C323.956 260.104 323.953 258.908 322.759 258.396C321.907 258.055 317.303 259.249 316.962 258.396C316.28 256.691 318.838 249.357 319.349 245.776C319.69 243.219 318.497 243.219 317.303 245.265C316.11 247.311 312.343 257.714 314.06 260.783C315.769 263.341 321.06 262.154 322.759 260.954Z" fill="#262623"/>
<path d="M253.702 332.396C264.087 317.891 275.529 311.936 292.579 306.651C294.284 306.139 293.772 303.411 292.067 303.923C272.46 309.72 262.397 315.176 250.462 331.714C248.757 333.76 251.994 334.78 253.702 332.396Z" fill="#262623"/>
<path d="M359.6 236.228C359.849 236.154 360.064 235.996 360.211 235.782C360.358 235.568 360.427 235.31 360.407 235.051C360.388 234.793 360.28 234.548 360.102 234.359C359.924 234.17 359.687 234.047 359.43 234.012C348.856 233.841 336.068 232.307 328.055 224.634C320.553 217.473 316.802 205.024 316.275 194.964C316.104 193.259 313.547 193.104 313.717 194.794C313.888 205.365 318.677 219.178 326.334 226.51C333.991 233.841 349.172 237.828 359.6 236.228Z" fill="#262623"/>
<path d="M318.156 270.672C323.683 273.608 330.602 271.866 332.478 266.58C332.819 265.387 331.455 264.364 330.602 265.387C325.642 271.184 321.395 268.797 318.822 268.967C317.474 268.797 317.145 270.136 318.156 270.672Z" fill="#262623"/>
<path d="M340.151 241.855C338.862 238.135 331.626 234.012 328.216 235.205C326.852 235.717 326.341 238.445 328.216 238.786C332.005 239.279 335.564 240.881 338.446 243.389C339.299 244.071 340.629 243.231 340.151 241.855Z" fill="#262623"/>
<path d="M329.24 250.38C332.485 249.735 332.309 243.73 329.751 244.412C327.361 244.924 326.515 250.922 329.24 250.38Z" fill="#262623"/>
<path d="M423.361 142.618C425.07 142.116 426.771 141.595 428.476 141.068C427.453 145.33 426.26 149.593 425.237 153.855C423.532 159.993 425.919 160.505 427.283 158.288C431.545 151.639 435.978 144.819 440.582 138.34C446.894 129.303 448.425 130.156 436.831 130.497C438.877 126.572 440.923 122.651 442.798 118.717C444.674 114.783 432.057 119.228 430.863 120.251C430.624 120.404 430.45 120.641 430.374 120.914C430.299 121.188 430.327 121.48 430.454 121.735C430.581 121.989 430.798 122.187 431.062 122.291C431.327 122.395 431.62 122.397 431.886 122.297C433.25 121.956 436.149 120.592 439.388 119.91L433.762 131.166C433.421 132.019 433.762 133.042 434.785 133.042C437.001 133.042 439.388 132.871 441.605 132.871C437.342 139.009 433.08 145.318 428.817 151.456L432.398 139.18C432.488 138.935 432.509 138.669 432.459 138.413C432.409 138.156 432.29 137.918 432.114 137.725C431.938 137.532 431.713 137.39 431.462 137.316C431.212 137.242 430.946 137.238 430.693 137.304C428.988 137.816 427.112 138.498 425.423 139.009C426.446 134.065 427.81 129.12 429.003 124.002C429.344 122.638 427.298 122.297 426.787 123.491C424.803 129.057 423.208 134.754 422.013 140.541C421.486 141.595 422.171 142.965 423.361 142.618Z" fill="#262623"/>
<path d="M217.382 271.54C218.237 272.222 219.601 271.54 219.09 270.517C217.893 267.107 216.87 263.697 219.431 260.117C220.479 258.713 221.89 257.621 223.512 256.959C225.135 256.298 226.907 256.092 228.638 256.363C228.918 256.361 229.189 256.269 229.412 256.1C229.635 255.931 229.798 255.694 229.875 255.425C229.951 255.156 229.939 254.869 229.839 254.608C229.739 254.347 229.557 254.125 229.32 253.976C224.546 251.759 215.165 255.851 215.165 264.891C215.032 266.094 215.161 267.311 215.544 268.459C215.926 269.607 216.553 270.658 217.382 271.54Z" fill="#262623"/>
<path d="M210.902 291.644C210.919 292.017 211.08 292.369 211.35 292.626C211.619 292.884 211.978 293.028 212.351 293.028C212.725 293.028 213.083 292.884 213.353 292.626C213.623 292.369 213.783 292.017 213.801 291.644C214.169 288.503 213.938 285.321 213.119 282.267C211.414 276.299 205.787 274.083 205.958 268.115C206.128 264.535 206.81 260.954 206.981 257.544C206.977 257.265 206.869 256.998 206.679 256.795C206.488 256.592 206.228 256.467 205.95 256.446C205.672 256.424 205.397 256.508 205.177 256.679C204.958 256.851 204.81 257.099 204.764 257.374C204.082 260.784 203.4 264.194 203.059 267.604C202.377 275.106 207.492 277.152 209.538 281.926C210.915 284.967 211.388 288.341 210.902 291.644Z" fill="#262623"/>
<path d="M212.778 228.044L215.335 253.108C215.506 254.131 217.381 254.131 217.552 252.937C218.404 246.629 216.188 234.182 214.824 227.517C214.653 226.51 212.607 226.851 212.778 228.044Z" fill="#262623"/>
<path d="M230.001 274.083C230.665 275.456 232.388 274.424 232.047 273.23C231.536 270.332 230.342 266.922 235.969 266.922C240.572 266.922 241.239 271.014 241.084 274.765C240.743 281.755 234.775 287.723 234.775 294.031C234.781 294.387 234.917 294.729 235.156 294.994C235.395 295.258 235.722 295.427 236.076 295.468C236.429 295.51 236.787 295.422 237.08 295.22C237.374 295.019 237.585 294.717 237.674 294.372C239.379 287.382 240.061 288.064 242.448 282.267C244.51 277.947 244.816 272.996 243.3 268.456C239.89 260.784 224.576 262.895 230.001 274.083Z" fill="#262623"/>
<path d="M222.33 265.216C222.001 267.743 222.478 270.309 223.694 272.548C223.832 272.749 224.038 272.895 224.273 272.96C224.509 273.025 224.76 273.005 224.982 272.903C225.204 272.801 225.384 272.624 225.488 272.403C225.593 272.183 225.616 271.932 225.554 271.695C224.872 268.115 224.19 263.852 227.6 261.977C229.101 261.059 230.807 260.531 232.565 260.442C234.322 260.352 236.073 260.704 237.659 261.465C238.853 262.147 239.876 260.272 239.023 259.419C236.14 255.839 223.353 257.203 222.33 265.216Z" fill="#262623"/>
<path d="M145.257 236.57C144.234 236.74 143.211 236.911 142.359 237.081C140.824 232.307 136.221 227.363 130.594 229.409C124.627 231.625 124.453 238.104 124.797 241.003C119.837 241.514 114.735 242.196 109.79 242.708C109.51 242.774 109.262 242.937 109.092 243.169C108.921 243.401 108.839 243.686 108.86 243.974C108.88 244.261 109.002 244.531 109.204 244.737C109.406 244.942 109.674 245.069 109.961 245.095C115.076 244.754 120.191 244.413 125.309 244.242C128.31 259.584 145.642 255.421 143.211 240.15C144.064 239.98 144.916 239.98 145.598 239.809C147.492 253.077 162.918 253.486 161.455 237.763C162.819 237.763 165.717 237.081 164.353 235.035C163.671 234.012 162.137 234.694 161.114 234.865C158.386 223.612 145.769 224.976 145.257 236.57ZM127.525 242.367C127.014 238.445 127.866 234.353 130.424 232.819C134.686 230.091 138.949 234.353 140.313 239.809C143.134 252.863 129.181 255.628 127.525 242.367ZM155.317 246.8C149.055 248.97 144.848 234.744 150.372 230.602C157.71 224.858 162.515 244.292 155.311 246.8H155.317Z" fill="#262623"/>
<path d="M145.598 255.839C141.677 256.18 142.018 257.885 144.575 258.226C146.28 258.396 149.008 258.055 149.845 256.521C151.209 254.134 149.334 250.209 146.947 247.993C145.242 246.288 144.389 247.822 145.087 248.675C146.631 251.062 150.372 254.986 145.598 255.839Z" fill="#262623"/>
<path d="M158.044 251.232C157.883 249.527 156.184 249.527 156.184 251.232C156.525 262.829 155.332 281.414 138.793 282.778C132.311 283.289 125.321 280.22 119.694 276.981C118.671 276.299 117.307 278.004 118.501 278.856C124.134 282.912 130.835 285.224 137.77 285.506C138.111 288.234 138.793 291.132 139.134 293.86C139.987 299.146 142.033 296.588 141.692 294.883C141.333 291.688 140.878 288.504 140.328 285.335C156.339 282.778 159.306 264.528 158.044 251.232Z" fill="#262623"/>
<path d="M134.686 271.184C135.63 271.635 136.658 271.881 137.703 271.908C138.749 271.934 139.788 271.74 140.753 271.338C141.718 270.935 142.588 270.334 143.305 269.573C144.023 268.812 144.571 267.909 144.916 266.921C146.11 264.364 145.428 263.852 143.211 263.852C141.055 264.014 138.891 263.684 136.882 262.886C134.873 262.089 133.072 260.845 131.614 259.249C128.805 256.905 128.117 268.682 134.686 271.184ZM142.87 266.41C140.142 271.68 131.955 269.138 131.788 263C135.022 265.293 138.906 266.489 142.87 266.41Z" fill="#262623"/>
<path d="M134.175 241.855C133.819 242.875 134.343 245.606 136.051 245.265C137.415 245.095 137.415 243.219 136.903 242.026C136.221 240.321 134.829 239.97 134.175 241.855Z" fill="#262623"/>
<path d="M153.099 238.786C152.734 239.973 153.27 243.048 154.959 242.366C155.812 242.025 156.153 241.173 155.982 239.638C155.657 237.75 153.738 236.727 153.099 238.786Z" fill="#262623"/>
<path d="M123.43 231.795C126.014 228.819 129.589 226.881 133.493 226.339C133.897 226.257 134.259 226.032 134.512 225.706C134.766 225.38 134.894 224.974 134.873 224.561C134.852 224.149 134.684 223.757 134.4 223.458C134.115 223.158 133.733 222.971 133.322 222.929C131.349 222.946 129.402 223.38 127.609 224.203C125.816 225.026 124.218 226.219 122.918 227.703C119.167 231.795 122.379 232.961 123.43 231.795Z" fill="#262623"/>
<path d="M78.0732 229.579C77.7933 234.87 79.0235 240.132 81.6202 244.751C84.2169 249.37 88.0732 253.155 92.7393 255.665C93.5918 260.61 96.8313 266.41 102.969 266.41C104.803 275.523 105.999 284.752 106.55 294.031C106.538 294.195 106.56 294.36 106.615 294.515C106.669 294.67 106.755 294.812 106.867 294.932C106.979 295.053 107.115 295.149 107.266 295.214C107.416 295.28 107.579 295.314 107.743 295.314C107.908 295.314 108.07 295.28 108.221 295.214C108.372 295.149 108.507 295.053 108.619 294.932C108.731 294.812 108.817 294.67 108.872 294.515C108.927 294.36 108.949 294.195 108.937 294.031C108.76 285.153 107.79 276.309 106.038 267.604C105.697 266.069 105.697 262.997 103.992 263.167C100.582 263.508 97.1723 260.61 96.1493 255.154C94.9558 249.357 98.1953 244.583 102.799 246.784C103.481 247.125 103.992 246.613 104.333 246.272C110.983 239.793 119.337 227.858 119.337 214.727C128.203 218.651 149.519 220.186 159.237 216.943C158.555 203.985 146.109 184.037 118.485 186.765C87.6243 189.849 78.377 213.378 78.0732 229.579Z" fill="#262623"/>
<path d="M149.008 224.293C151.176 223.633 153.49 223.633 155.658 224.293C157.363 224.805 157.192 223.1 155.828 221.906C154.659 221.288 153.378 220.91 152.061 220.792C150.743 220.675 149.416 220.822 148.156 221.224C145.598 222.418 146.476 225.375 149.008 224.293Z" fill="#262623"/>
<path d="M83.8707 200.932C85.7946 196.698 89.1879 193.306 93.4218 191.384C89.8413 164.783 52.6692 161.714 41.2302 188.15C29.7912 214.587 52.8273 227.21 57.6013 236.916C62.2048 246.635 64.9328 261.642 61.8638 267.606C58.7948 273.403 62.5458 273.744 66.8083 265.746C70.2183 259.267 76.3563 240.326 71.4118 224.653C66.1387 208.434 79.2672 199.738 83.8707 200.932Z" fill="#262623"/>
<path d="M259.668 336.488C238.015 336.16 202.207 335.295 182.599 337C167.251 338.364 163.5 343.138 159.92 356.44C154.805 375.877 146.621 408.446 143.893 427.03C123.289 426.725 102.684 427.522 82.1655 429.417C74.493 430.44 73.9815 436.067 76.3685 438.454C77.562 439.647 79.0965 437.942 78.2285 436.749C78.0596 436.447 77.952 436.114 77.912 435.77C77.8721 435.427 77.9004 435.078 77.9955 434.746C78.0906 434.413 78.2505 434.102 78.466 433.831C78.6816 433.561 78.9485 433.335 79.2515 433.168C83.514 430.27 135.182 429.758 142.513 429.758C145.241 429.758 146.094 429.417 146.776 426.519C151.891 402.478 158.556 374.854 164.678 352.177C166.538 344.843 172.18 340.921 181.22 340.239C204.067 338.364 236.294 339.387 260.505 339.728C269.033 339.898 274.145 343.308 273.466 352.859C272.614 365.647 261.358 404.865 257.266 419.358C255.969 425.042 253.964 430.541 251.298 435.726C250.275 437.431 252.833 439.309 253.856 437.586C256.919 431.18 259.374 424.502 261.187 417.637C266.643 398.541 274.319 370.917 276.706 354.037C277.76 342.456 271.265 336.665 259.668 336.488Z" fill="#262623"/>
<path d="M213.118 377.412C212.427 378.429 213.63 379.969 214.823 379.117C216.022 378.14 217.512 377.593 219.058 377.562C220.604 377.531 222.115 378.018 223.351 378.946C225.568 380.992 226.079 385.255 221.987 392.586C216.869 401.967 209.879 403.331 206.797 399.58C203.046 394.976 206.627 385.596 210.207 381.845C211.06 380.822 209.525 379.287 208.657 380.14C201.155 386.96 199.791 397.022 204.054 401.626C210.874 409.128 220.766 402.99 224.514 394.976C226.73 390.199 230.14 383.72 227.071 378.776C226.437 377.531 225.5 376.467 224.346 375.68C223.192 374.893 221.858 374.41 220.468 374.274C219.078 374.138 217.676 374.354 216.392 374.903C215.107 375.451 213.982 376.314 213.118 377.412Z" fill="#262623"/>
<path d="M233.582 167.855C237.522 165.325 232.388 158.645 228.312 162.737C224.886 165.979 230.358 169.922 233.582 167.855Z" fill="#262623"/>
<path d="M191.978 170.75C196.423 172.421 199.821 167.511 197.093 164.953C193.342 161.373 186.878 168.835 191.978 170.75Z" fill="#262623"/>
<path d="M210.903 169.73C216.874 171.59 219.087 163.933 213.29 162.569C209.539 161.717 205.962 168.186 210.903 169.73Z" fill="#262623"/>
<path d="M437.342 200.079C436.508 198.365 434.447 198.886 434.614 200.42C435.299 205.69 445.867 206.558 448.939 200.761C454.392 190.19 437.159 187.121 434.958 193.941C434.106 196.499 436.319 196.328 437.516 194.453C439.047 191.895 449.107 192.903 446.382 199.056C445.188 202.125 438.74 202.962 437.342 200.079Z" fill="#FECC19"/>
<path d="M408.187 164.445C408.017 173.822 417.906 177.232 425.408 178.767C452.861 184.393 465.308 169.73 461.898 159.497C461.879 159.36 461.832 159.228 461.758 159.11C461.684 158.992 461.586 158.892 461.47 158.815C461.354 158.738 461.223 158.687 461.086 158.665C460.949 158.643 460.809 158.651 460.675 158.688C460.541 158.725 460.416 158.79 460.31 158.879C460.203 158.968 460.117 159.079 460.056 159.204C459.996 159.329 459.963 159.465 459.96 159.604C459.957 159.743 459.983 159.881 460.038 160.009C461.061 172.458 446.565 177.059 436.506 177.232C428.663 177.403 407.009 173.311 411.613 161.373C412.465 159.327 410.931 158.133 409.753 159.327C402.762 166.661 392.188 164.615 387.073 155.746C381.617 146.198 384.515 132.729 396.45 134.263C396.813 134.284 397.17 134.171 397.455 133.946C397.74 133.721 397.932 133.399 397.995 133.041C398.058 132.684 397.988 132.316 397.797 132.007C397.607 131.698 397.31 131.469 396.962 131.365C386.902 127.273 385.182 111.584 397.303 104.252C408.9 97.2617 418.619 101.183 426.462 110.39C427.826 112.095 429.531 111.754 429.701 108.344C430.554 99.4782 441.807 94.3632 449.823 96.4092C451.95 97.0986 453.918 98.2045 455.613 99.6622C457.308 101.12 458.695 102.901 459.695 104.9C460.695 106.9 461.287 109.078 461.436 111.309C461.585 113.539 461.289 115.777 460.565 117.892C460.053 119.442 461.588 119.941 462.781 119.6C473.352 116.869 484.605 128.466 485.628 138.526C487.333 154.894 472.67 155.405 463.804 153.53C462.099 153.189 462.44 155.08 463.804 155.576C476.592 159.838 489.891 153.871 488.356 138.526C487.333 127.273 475.569 114.994 463.634 116.869C464.464 113.14 464.215 109.252 462.917 105.659C461.618 102.066 459.324 98.9168 456.302 96.5797C445.387 88.5662 429.19 95.5567 426.973 106.639C423.524 102.36 418.688 99.4208 413.3 98.331C407.913 97.2413 402.315 98.0693 397.473 100.672C385.879 106.639 380.423 122.158 391.339 131.024C383.322 132.899 379.741 140.913 380.764 149.097C383.291 163.763 398.124 171.435 408.187 164.445Z" fill="#FECC19"/>
<path d="M593.031 442.89C447.35 441.393 207.028 438.55 23.8711 446.811C22.6776 446.811 22.8481 450.562 24.0416 450.562C200.162 446.108 361.145 442.685 593.202 447.834C594.727 447.834 594.553 442.905 593.031 442.89Z" fill="#FECC19"/>
<path d="M197.944 332.92C206.469 332.92 223.181 332.92 234.605 332.75C237.102 321.107 238.862 309.318 239.875 297.453C230.838 298.647 213.785 297.794 206.283 294.896C204.517 307.772 201.728 320.487 197.944 332.92Z" fill="#FECC19"/>
<path d="M71.6098 437.08C71.1232 434.975 71.364 432.768 72.2929 430.817C73.2217 428.866 74.7839 427.288 76.7248 426.339C81.3283 424.122 128.563 423.781 139.655 423.27C140.166 420.542 141.701 413.21 143.917 403.662C116.006 398.06 87.638 395.035 59.1726 394.626C56.6151 394.626 57.6381 392.236 59.1726 392.236C63.2646 392.065 67.3566 392.065 71.4486 392.065C74.6018 379.595 79.2995 367.567 85.4327 356.26C86.1147 355.067 87.6492 355.749 87.1377 356.942C81.8545 368.294 77.6299 380.108 74.5176 392.236C98.1033 393.137 121.587 395.817 144.77 400.252C148.521 384.052 153.636 363.251 158.41 349.27C162.502 336.82 168.981 333.751 177.679 333.24C183.359 332.994 189.046 332.937 194.729 333.069C195.411 331.023 196.093 328.977 196.775 326.42C188.421 312.78 170.515 300.671 146.134 298.796C137.779 308.688 114.418 307.665 101.63 295.556C94.1282 296.409 69.3902 301.865 54.5691 318.577C33.765 342.447 5.46196 397.183 19.102 425.998C25.8972 440.673 63.9218 437.942 71.6098 437.08Z" fill="#FECC19"/>
<path d="M306.559 37.754C307.083 33.4915 304.172 11.8349 301.956 9.7889C301.825 9.65211 301.663 9.54987 301.483 9.49137C301.304 9.43288 301.112 9.41996 300.926 9.45377C300.74 9.48758 300.566 9.56706 300.418 9.68508C300.27 9.8031 300.154 9.95595 300.08 10.1299C299.398 11.6644 303.49 35.0229 304.002 37.754C304.068 38.0439 304.23 38.3029 304.462 38.4884C304.695 38.6739 304.983 38.7749 305.281 38.7749C305.578 38.7749 305.866 38.6739 306.099 38.4884C306.331 38.3029 306.494 38.0439 306.559 37.754Z" fill="#FECC19"/>
<path d="M330.603 124.712C330.729 124.455 330.786 124.169 330.769 123.883C330.752 123.596 330.661 123.32 330.505 123.079C330.348 122.839 330.133 122.643 329.878 122.511C329.624 122.378 329.339 122.314 329.053 122.325C326.154 122.325 322.233 127.955 307.908 125.905C306.358 125.735 305.35 127.955 306.885 128.637C315.94 132.04 329.22 127.948 330.603 124.712Z" fill="#FECC19"/>
<path d="M347.994 94.7042C354.141 98.2742 360.588 101.298 367.264 103.741C367.557 103.786 367.857 103.737 368.121 103.601C368.385 103.465 368.598 103.248 368.731 102.983C368.864 102.717 368.909 102.416 368.86 102.124C368.81 101.831 368.669 101.561 368.457 101.354C362.335 97.7828 355.882 94.8135 349.187 92.4877C348.894 92.3295 348.549 92.2944 348.229 92.3904C347.909 92.4863 347.641 92.7053 347.482 92.9992C347.324 93.2932 347.289 93.6379 347.385 93.9577C347.481 94.2774 347.7 94.546 347.994 94.7042Z" fill="#FECC19"/>
<path d="M315.429 132.387C315.079 132.313 314.715 132.372 314.406 132.552C314.097 132.733 313.867 133.022 313.761 133.363C313.654 133.705 313.679 134.073 313.829 134.397C313.98 134.721 314.247 134.978 314.577 135.115C318.839 137.502 326.357 134.774 323.443 132.217C322.091 131.023 320.026 133.28 315.429 132.387Z" fill="#FECC19"/>
<path d="M344.243 54.6335C346.788 53.5795 360.444 37.5835 362.66 34.5145C363.513 33.321 361.637 32.1275 360.614 32.98C354.967 38.4294 349.616 44.1778 344.584 50.2005C341.344 53.781 343.043 55.1295 344.243 54.6335Z" fill="#FECC19"/>
<path d="M301.273 108.514C301.411 108.819 301.652 109.066 301.953 109.212C302.255 109.357 302.597 109.393 302.922 109.311C303.247 109.23 303.532 109.038 303.73 108.767C303.927 108.497 304.023 108.166 304.001 107.832C302.808 100.33 295.988 96.0524 292.221 89.9299C284.378 77.1393 294.779 62.4763 308.078 59.0663C318.993 56.1678 331.269 60.0893 334.168 73.2178C336.725 84.4739 331.61 92.6579 328.03 102.888C327.348 105.104 329.58 105.786 330.587 103.74C335.191 95.0604 339.624 84.6444 338.26 74.7523C335.873 58.8958 322.574 51.9053 307.737 55.4858C294.779 58.7253 283.696 69.9783 285.913 84.1329C287.804 95.7269 297.966 98.9292 301.273 108.514Z" fill="#FECC19"/>
<path d="M305.041 121.473C308.965 122.868 313.155 123.348 317.292 122.875C321.43 122.402 325.404 120.989 328.911 118.745C330.446 117.551 329.764 114.994 327.547 115.846C318.511 119.086 314.93 119.938 306.061 118.745C304.514 118.574 303.491 120.806 305.041 121.473Z" fill="#FECC19"/>
<path d="M258.134 109.026C256.947 110.576 258.134 112.607 261.544 110.22C266.281 107.272 270.785 103.966 275.017 100.331C275.243 100.133 275.39 99.8588 275.43 99.5605C275.47 99.2622 275.399 98.9596 275.232 98.7092C275.066 98.4587 274.813 98.2776 274.523 98.1995C274.232 98.1214 273.923 98.1516 273.653 98.2846C268.173 101.4 262.98 104.995 258.134 109.026Z" fill="#FECC19"/>
<path d="M270.94 63.4993C271.222 63.5728 271.52 63.5449 271.783 63.4206C272.046 63.2962 272.257 63.0833 272.379 62.8191C272.501 62.5549 272.526 62.2563 272.45 61.9754C272.374 61.6946 272.202 61.4494 271.963 61.2828C265.143 56.8606 258.02 52.9242 250.648 49.5028C250.341 49.4067 250.01 49.4229 249.715 49.5485C249.419 49.674 249.178 49.9008 249.034 50.1881C248.891 50.4753 248.854 50.8044 248.931 51.1162C249.008 51.428 249.193 51.7023 249.454 51.8898C256.333 56.2628 263.513 60.1424 270.94 63.4993Z" fill="#FECC19"/>
<path d="M305.04 114.991C310.701 116.767 324.992 113.968 328.061 111.581C330.107 109.876 328.232 107.489 325.674 108.512C319.311 110.928 312.524 112.03 305.722 111.751C302.638 111.581 302.142 114.092 305.04 114.991Z" fill="#FECC19"/>
<path d="M318.838 105.104C318.62 96.119 319.421 87.1378 321.225 78.3328C321.268 78.0488 321.202 77.759 321.04 77.5215C320.879 77.284 320.634 77.1162 320.354 77.0516C320.074 76.987 319.78 77.0303 319.53 77.1731C319.281 77.3158 319.095 77.5473 319.009 77.8213C316.766 86.7296 315.96 95.9389 316.622 105.101C316.614 105.252 316.636 105.402 316.688 105.544C316.74 105.685 316.82 105.815 316.924 105.924C317.027 106.034 317.152 106.121 317.29 106.181C317.429 106.24 317.578 106.271 317.728 106.271C317.879 106.272 318.028 106.241 318.167 106.182C318.305 106.122 318.43 106.036 318.534 105.926C318.638 105.817 318.718 105.688 318.771 105.547C318.823 105.405 318.846 105.255 318.838 105.104Z" fill="#FECC19"/>
<path d="M314.746 76.8015C310.239 78.0049 305.597 78.6299 300.933 78.6615C300.675 78.6633 300.423 78.7344 300.203 78.8672C299.982 79 299.801 79.1896 299.679 79.4162C299.557 79.6429 299.499 79.8981 299.509 80.1553C299.52 80.4124 299.599 80.662 299.739 80.878C303.235 88.7799 306.309 96.8616 308.949 105.089C309.461 106.639 310.995 106.282 310.654 104.748C309.061 96.6987 306.542 88.8606 303.149 81.3895C307.391 81.1892 311.583 80.3854 315.599 79.0025C315.858 78.8676 316.059 78.6418 316.162 78.3683C316.265 78.0947 316.264 77.7927 316.158 77.5201C316.053 77.2474 315.85 77.0233 315.59 76.8907C315.329 76.7581 315.029 76.7263 314.746 76.8015Z" fill="#FECC19"/>
<path d="M191.125 195.646C191.546 203.803 190.263 211.957 187.357 219.59C184.45 227.223 179.985 234.166 174.246 239.976C171.006 243.216 173.734 243.898 176.974 242.704C192.319 236.737 206.114 219.175 210.051 203.486C210.733 200.758 208.346 200.929 208.005 202.634C205.912 210.347 202.26 217.549 197.275 223.796C192.289 230.043 186.077 235.202 179.02 238.953C189.458 227.206 194.907 211.854 194.21 196.155C194.039 193.597 193.698 193.427 190.629 192.915C164.369 188.823 154.651 151.14 196.085 135.965C233.087 122.493 261.564 147.559 255.081 172.796C250.307 191.722 230.188 194.62 213.647 194.62C211.43 194.62 211.601 197.348 213.817 197.348C230.867 197.689 250.307 195.302 256.616 178.252C270.256 141.933 232.064 122.142 199.836 131.191C147.645 146.198 160.773 194.453 191.125 195.646Z" fill="#FECC19"/>
</svg>
