<svg width="65" height="59" viewBox="0 0 65 59" fill="none" xmlns="http://www.w3.org/2000/svg">
<g clip-path="url(#clip0_1_714)">
<path d="M0.927527 43.4354C0.160839 40.8445 1.24724 38.8001 2.48963 37.0463C4.24978 34.6298 6.28429 32.3758 8.47479 30.4124C18.7989 21.6334 30.8788 18.1018 44.2022 19.0957C47.5887 19.3606 50.9906 20.1193 54.7554 20.7405C53.9356 17.2369 51.0647 14.6777 50.0225 11.1085C51.6156 11.1706 52.358 12.205 52.9963 13.0457C55.6017 16.5051 58.185 20.0395 60.672 23.6271C61.8525 25.3616 61.7131 26.3805 59.9806 27.3374C56.3972 29.3792 52.5528 30.1209 48.5435 29.5092C48.3952 29.4655 48.2392 29.1748 47.9571 28.7655C49.7239 25.7801 53.5794 27.7327 55.8805 25.3942C51.12 22.6854 45.9624 22.1428 40.8202 22.094C35.4335 22.0546 30.1365 22.5309 25.0264 24.2856C20.0126 25.987 15.5928 28.6792 11.2848 31.8121C6.92485 34.848 3.59595 38.7589 0.927527 43.4354Z" fill="#FECC19"/>
</g>
<defs>
<clipPath id="clip0_1_714">
<rect width="45" height="54" fill="white" transform="translate(0 43.1619) rotate(-73.5672)"/>
</clipPath>
</defs>
</svg>
