<svg width="263" height="33" viewBox="0 0 263 33" fill="none" xmlns="http://www.w3.org/2000/svg">
<g clip-path="url(#clip0_1_811)">
<path d="M241.715 13.2836C236.062 12.5483 230.31 11.8085 224.559 11.0688C222.707 10.8251 220.75 10.7381 218.898 10.4944C214.795 10.1507 210.693 9.80703 206.591 9.46333C204.347 9.20225 201.999 9.09788 199.756 8.83681C199.071 8.80636 198.386 8.77592 197.799 8.74983C196.331 8.6846 194.863 8.61936 193.298 8.54978C186.546 8.24971 179.795 7.94965 173.043 7.64958C171.478 7.58 169.814 7.50607 168.242 7.59754C164.223 7.58029 160.309 7.40634 156.29 7.38909C151.782 7.3501 147.281 7.15005 142.773 7.11106C135.518 7.11135 128.165 7.10729 120.91 7.10759C116.696 7.08164 112.481 7.0557 108.266 7.02975C101.004 7.1911 93.7421 7.35244 86.4799 7.51379C82.4539 7.65759 78.5329 7.64469 74.5068 7.7885C66.9368 8.2589 59.374 8.56826 51.8111 8.87761C47.7851 9.02142 43.7591 9.16522 39.7259 9.47008C32.2465 10.1059 24.6622 10.8984 17.1757 11.6953C15.603 11.7867 13.9253 12.0349 12.2548 12.122C9.10219 12.466 5.83745 13.1278 2.57987 13.6285C2.38418 13.6198 2.18132 13.7721 1.98563 13.7634C1.59424 13.746 1.28638 14.0551 0.97137 14.5252C0.446345 15.3087 0.207703 16.2664 0.164755 17.2327C0.121807 18.199 0.274552 19.174 0.735155 19.84C1.09791 20.5016 1.76137 21.0152 2.2506 21.0369C6.19311 20.5667 10.0449 19.931 13.9874 19.4607C17.6293 19.1385 21.2711 18.8162 24.9129 18.494C28.8482 18.1848 32.7907 17.7145 36.8239 17.4097C38.3966 17.3182 39.9765 17.0657 41.6471 16.9785C47.8329 16.7694 53.928 16.3948 60.1139 16.1856C63.9442 16.0331 67.7746 15.8806 71.6049 15.7281C73.1776 15.6366 74.7503 15.5451 76.323 15.4537C82.411 15.2401 88.4918 15.1877 94.5798 14.9741C98.3052 14.9783 101.94 14.8171 105.665 14.8213C106.937 14.8779 108.119 14.769 109.391 14.8255C115.961 14.7948 122.523 14.9251 129.094 14.8944C132.721 14.8942 136.446 14.8984 140.074 14.8983C141.346 14.9548 142.723 14.8547 143.995 14.9112C150.753 15.0502 157.505 15.3503 164.361 15.4936C168.569 15.6806 172.783 15.7066 176.991 15.8936C184.134 16.211 191.374 16.5329 198.51 17.0114C199.88 17.0723 201.34 17.2985 202.71 17.3594C206.715 17.6988 210.622 18.0338 214.619 18.5342C217.547 18.8257 220.573 19.1216 223.502 19.4131C225.647 19.6698 227.695 19.9222 229.84 20.1789C235.983 20.9361 242.217 21.8586 248.352 22.7768C249.911 23.0074 251.469 23.2381 253.027 23.4687C254.684 23.7037 256.438 23.943 258.087 24.339C258.38 24.3521 258.569 24.5218 258.855 24.6959C259.533 24.8874 260.12 24.9135 260.736 24.2954C261.344 23.8383 261.779 22.8894 262.017 21.9318C262.502 19.8555 261.819 17.566 260.478 16.8609C259.325 16.3255 258.158 16.1123 257.096 15.7423C256.321 15.5465 255.545 15.3507 254.762 15.3159C253.211 14.9242 251.646 14.8546 250.192 14.4673C247.46 14.1844 244.539 13.7319 241.715 13.2836Z" fill="#FECC19"/>
</g>
<defs>
<clipPath id="clip0_1_811">
<rect width="261.904" height="20.9576" fill="white" transform="translate(0.930664) rotate(2.54484)"/>
</clipPath>
</defs>
</svg>
