<svg width="646" height="49" viewBox="0 0 646 49" fill="none" xmlns="http://www.w3.org/2000/svg">
<g clip-path="url(#clip0_1_719)">
<path d="M14.2562 17.1039C19.3083 17.2062 24.6047 17.1272 29.6606 17.0433C31.8257 17.0872 33.7541 16.94 35.9193 16.9838C45.0686 16.7966 54.218 16.6094 63.3674 16.4222C74.4414 16.2739 85.2785 15.9346 96.3525 15.7864C112.005 15.3583 127.654 15.1165 143.306 14.6884C146.918 14.5754 150.527 14.6484 154.139 14.5353C163.289 14.3481 172.438 14.1609 181.584 14.1598C190.733 13.9726 199.883 13.7854 209.028 13.7843C212.641 13.6712 216.253 13.5581 219.862 13.6312C234.304 13.5512 248.986 13.476 263.428 13.3959C272.333 13.39 281.238 13.3841 290.388 13.1968C293.996 13.2699 297.368 13.1519 300.977 13.225C314.934 13.3214 329.131 13.4226 343.089 13.519C357.046 13.6154 370.762 13.7069 384.719 13.8032C388.328 13.8763 391.936 13.9494 395.786 14.0273C404.928 14.2124 413.829 14.3927 422.971 14.5778C437.165 14.8652 451.118 15.1477 465.316 15.249C469.886 15.3415 474.457 15.4341 479.028 15.5266C488.651 15.7215 498.274 15.9163 507.897 16.1112C508.619 16.1258 509.581 16.1453 510.303 16.1599C488.648 15.9076 466.751 15.6505 445.092 15.5844C435.947 15.5855 427.045 15.4053 417.9 15.4063C414.051 15.3284 409.961 15.2456 406.108 15.3538C392.872 15.272 379.874 15.3813 366.638 15.2995C351.475 15.365 336.315 15.2443 321.151 15.3097C318.505 15.2561 316.095 15.3936 313.449 15.34C305.262 15.5467 297.319 15.5721 289.132 15.7788C272.762 16.0061 256.391 16.2333 240.021 16.4606C237.615 16.4118 235.206 16.5493 232.796 16.6867C224.85 16.8983 216.659 17.2912 208.712 17.5028C194.263 17.9552 180.054 18.4124 165.604 18.8648C161.751 18.973 157.654 19.2625 153.801 19.3708C144.648 19.7442 135.495 20.1175 126.338 20.6771C114.775 21.1879 102.972 21.6939 91.4091 22.2048C75.268 22.9954 58.8863 23.7811 42.7451 24.5717C38.8922 24.68 35.0354 24.9743 30.9419 25.0777C23.9539 25.4949 16.966 25.9122 9.97799 26.3294C9.25626 26.3148 8.527 26.6725 8.51192 27.4172C8.50061 27.9757 9.21103 28.5488 9.93275 28.5634C12.5791 28.617 14.9811 28.8518 17.6274 28.9054C17.1274 29.8265 16.8755 30.3801 16.8642 30.9386C16.8227 32.9865 18.9502 34.892 21.8371 34.9504C41.8236 34.4239 61.5734 33.7064 81.5562 33.366C98.8888 33.1583 116.225 32.7643 133.558 32.5566C152.578 32.1967 171.839 31.8418 190.856 31.6681C196.874 31.6037 202.892 31.5394 208.914 31.2888C210.598 31.3229 212.286 31.1708 214.211 31.2098C245.016 31.2748 275.824 31.1537 306.629 31.2187C322.996 31.1777 339.603 31.1414 355.966 31.2865C361.984 31.2221 367.758 31.3391 373.776 31.2747C405.299 31.5405 436.821 31.8063 468.344 32.0721C481.82 32.1587 495.296 32.2454 508.772 32.332C520.323 32.3796 531.871 32.6135 543.426 32.475C553.053 32.4836 562.443 32.3013 572.07 32.31C576.885 32.2212 581.696 32.3187 586.271 32.2251C597.108 31.8858 607.945 31.5465 618.783 31.2072C618.046 31.9372 618.023 33.0542 618.249 33.8038C618.47 34.7395 619.177 35.4987 620.372 35.8954C621.327 36.2873 622.763 36.6888 623.733 36.336C626.154 35.64 628.575 34.9441 630.755 34.2432C630.755 34.2432 630.755 34.2432 630.514 34.2384C630.755 34.2432 630.759 34.0571 630.999 34.062C631.24 34.0668 631.484 33.8855 631.484 33.8855L631.244 33.8807C632.454 33.5327 633.664 33.1847 635.119 32.6554C636.329 32.3075 637.784 31.7782 638.995 31.4302C640.449 30.9009 641.664 30.3668 643.118 29.8375C644.573 29.3083 645.566 27.8384 645.592 26.5353C645.607 25.7906 645.378 25.2272 644.912 24.4728C644.446 23.7184 643.262 22.7632 642.063 22.5527C640.863 22.3422 639.664 22.1317 638.461 22.1073C638.221 22.1024 637.98 22.0976 637.74 22.0927C637.018 22.0781 636.056 22.0586 635.33 22.2301C633.402 22.3773 631.714 22.5294 629.789 22.4904C628.346 22.4612 626.899 22.6181 625.215 22.584C621.121 22.6874 617.268 22.7956 613.171 23.0851C612.209 23.0657 611.002 23.2275 610.04 23.208C610.528 22.8454 610.776 22.4779 610.784 22.1056C611.032 21.7381 611.04 21.3658 611.047 20.9935C611.051 20.8073 611.059 20.435 611.303 20.2537C611.31 19.8813 611.318 19.509 611.081 19.318C611.081 19.318 611.322 19.3228 611.326 19.1367C612.055 18.779 612.784 18.4212 613.28 17.6863C613.773 17.1376 614.028 16.3978 614.043 15.6531C614.059 14.9084 613.829 14.3451 613.363 13.5907C613.126 13.3996 612.893 13.0224 612.657 12.8314C611.946 12.2583 611.228 12.0575 610.51 11.8567C609.074 11.4552 607.394 11.2349 605.71 11.2008C604.267 11.1716 603.064 11.1472 601.62 11.118C599.696 11.079 597.771 11.04 595.846 11.0011C593.2 10.9475 590.313 10.889 587.667 10.8354C580.45 10.6893 573.232 10.5432 566.015 10.397C559.279 10.2606 552.302 10.1194 545.566 9.98297C539.311 9.85631 533.297 9.73453 527.042 9.60788C502.263 9.10613 477.721 8.79542 452.938 8.47984C434.41 8.29092 415.882 8.10199 397.357 7.7269C389.178 7.56127 380.754 7.57694 372.571 7.59749C354.039 7.59473 335.511 7.4058 316.979 7.40304C311.686 7.29587 306.39 7.37487 301.097 7.2677C297.97 7.20437 295.079 7.33208 291.952 7.26876C273.657 7.45703 255.362 7.64531 237.067 7.83359C231.53 7.90772 225.993 7.98184 220.215 8.0511C217.088 7.98777 213.956 8.11061 210.825 8.23345C192.526 8.60789 174.468 8.9872 156.17 9.36165C146.78 9.544 137.39 9.72635 127.996 10.0949C111.862 10.5132 95.7288 10.9314 79.832 11.5408C65.8636 12.0029 51.899 12.2788 37.9343 12.5548C35.7654 12.6971 33.6002 12.6533 31.1907 12.7907C27.5783 12.9038 23.9697 12.8308 20.3573 12.9439C17.2148 13.6252 13.8467 13.557 10.7192 13.4937C10.4937 12.7441 9.54275 12.1662 8.81726 12.3377C6.65209 12.2939 4.72372 12.4411 2.55478 12.5834C1.58871 12.7501 0.618875 13.1029 0.363222 13.8427C0.103799 14.7687 0.806675 15.7141 1.7652 15.9198C2.72373 16.1254 3.68226 16.3311 4.64079 16.5367C5.59932 16.7424 6.32104 16.757 7.28334 16.7765C9.68532 17.0113 11.8505 17.0552 14.2562 17.1039ZM577.322 22.5455C580.208 22.6039 583.336 22.6673 586.223 22.7257C586.452 23.2891 586.926 23.6712 587.399 24.0532C586.196 24.0289 584.99 24.1907 584.027 24.1712C581.862 24.1274 579.693 24.2697 577.528 24.2258C567.901 24.2172 558.511 24.3995 548.885 24.3908C544.551 24.4893 540.217 24.5878 535.886 24.5001C529.15 24.3637 522.17 24.4086 515.434 24.2722C499.792 24.1417 484.392 24.0161 468.751 23.8857C438.431 23.6442 408.351 23.4076 378.031 23.1662C356.376 22.9139 334.713 23.034 313.05 23.1541C280.557 23.2411 247.828 23.1371 215.335 23.2242C208.836 23.2788 202.337 23.3334 195.834 23.5742C177.294 23.9438 158.759 24.1272 140.219 24.4968C122.161 24.8761 103.866 25.0644 85.808 25.4437C84.124 25.4096 82.4362 25.5617 80.7522 25.5276C85.5712 25.2527 90.627 25.1688 95.4461 24.8939C112.546 24.3089 129.649 23.5378 146.749 22.9528C152.771 22.7023 158.793 22.4517 164.574 22.1963C167.705 22.0735 170.836 21.9506 173.723 22.0091C191.781 21.6298 209.603 21.0594 227.42 20.6752C230.792 20.5573 234.405 20.4442 237.776 20.3262C242.832 20.2423 247.888 20.1585 252.7 20.2559C270.995 20.0676 289.29 19.8793 307.585 19.6911C311.678 19.5877 315.768 19.6705 319.621 19.5623C320.583 19.5818 321.786 19.6061 322.748 19.6256C325.635 19.6841 328.522 19.7425 331.172 19.6099C349.463 19.6078 367.991 19.7968 386.283 19.7946C394.707 19.779 403.13 19.7633 411.551 19.9338C438.739 20.2981 466.168 20.6673 493.357 21.0316C521.745 21.6064 549.655 21.9853 577.322 22.5455Z" fill="#FECC19"/>
<path d="M50.051 44.3163C50.7785 44.3219 51.3717 43.8582 51.3762 43.2805C51.3806 42.7028 50.7945 42.2299 50.0671 42.2243C49.3397 42.2188 48.7464 42.6825 48.742 43.2602C48.7375 43.8379 49.3236 44.3108 50.051 44.3163Z" fill="#FECC19"/>
</g>
<defs>
<clipPath id="clip0_1_719">
<rect width="645.4" height="43.9332" fill="white" transform="translate(0.337891) rotate(0.440027)"/>
</clipPath>
</defs>
</svg>
