<svg width="24" height="24" viewBox="0 0 24 24" fill="none" xmlns="http://www.w3.org/2000/svg">
<g clip-path="url(#clip0_8_567)">
<path d="M22.1406 6.31037C21.3293 4.96199 20.3177 3.74476 19.1406 2.70037C17.5124 1.22776 15.4624 0.304232 13.2806 0.0603704C11.1244 -0.119582 8.9588 0.270091 7.0006 1.19037C5.3298 1.9495 3.86042 3.09007 2.7106 4.52037C1.58345 5.93779 0.784301 7.58731 0.370598 9.35037C0.360258 9.39307 0.358548 9.43741 0.36557 9.48078C0.372591 9.52415 0.388203 9.56568 0.411489 9.60294C0.434774 9.6402 0.465266 9.67243 0.501174 9.69775C0.537082 9.72306 0.577684 9.74095 0.620598 9.75037C0.703916 9.7654 0.789823 9.74783 0.860551 9.7013C0.93128 9.65477 0.981419 9.58283 1.0006 9.50037C1.42788 7.84382 2.22444 6.30541 3.3306 5.00037C4.4083 3.69851 5.77905 2.67044 7.3306 2.00037C9.16325 1.20009 11.1706 0.883331 13.1606 1.08037C15.126 1.33042 16.9646 2.1868 18.4206 3.53037C19.4939 4.50496 20.4202 5.63 21.1706 6.87037C21.9406 8.07418 22.4072 9.44671 22.5306 10.8704C22.661 12.458 22.4741 14.0557 21.9806 15.5704C21.4774 17.072 20.5585 18.4001 19.3306 19.4004C18.5325 20.0733 17.5975 20.5647 16.5906 20.8404C15.0479 21.2836 13.4551 21.5289 11.8506 21.5704C11.7728 21.5755 11.7 21.6108 11.6478 21.6686C11.5955 21.7265 11.5678 21.8024 11.5706 21.8804C11.5706 21.9193 11.5784 21.9579 11.5936 21.9937C11.6088 22.0296 11.631 22.062 11.659 22.089C11.687 22.1161 11.7202 22.1373 11.7565 22.1512C11.7929 22.1652 11.8317 22.1717 11.8706 22.1704C13.5334 22.1618 15.189 21.9502 16.8006 21.5404C17.8934 21.2579 18.9152 20.7504 19.8006 20.0504C21.1933 18.985 22.2546 17.5458 22.8606 15.9004C23.436 14.2716 23.6841 12.5452 23.5906 10.8204C23.483 9.22115 22.9851 7.67267 22.1406 6.31037Z" fill="#262623"/>
<path d="M15.9204 15.92C16.5994 15.6263 17.1672 15.1237 17.5412 14.4854C17.9152 13.847 18.0761 13.106 18.0004 12.37C17.9719 12.2019 17.901 12.0437 17.7942 11.9107C17.6874 11.7777 17.5484 11.6742 17.3904 11.61C16.9374 11.4872 16.4633 11.4634 16.0004 11.54C14.7804 11.61 12.9504 11.92 11.4604 12.08C11.0604 12.13 10.6804 12.16 10.3504 12.18C10.2814 12.1928 10.2191 12.2293 10.1743 12.2832C10.1295 12.337 10.1049 12.4049 10.1049 12.475C10.1049 12.5451 10.1295 12.613 10.1743 12.6669C10.2191 12.7208 10.2814 12.7573 10.3504 12.77L16.0104 12.59H16.8404C16.8732 13.0929 16.7507 13.5938 16.4896 14.0248C16.2285 14.4558 15.8413 14.7962 15.3804 15C14.9305 15.3066 14.4198 15.5126 13.8831 15.604C13.3465 15.6955 12.7964 15.6702 12.2704 15.53C11.8601 15.3573 11.4816 15.1174 11.1504 14.82C10.8152 14.5426 10.5368 14.203 10.3304 13.82C10.312 13.7793 10.2858 13.7426 10.2532 13.712C10.2207 13.6814 10.1824 13.6576 10.1406 13.6418C10.0988 13.626 10.0543 13.6186 10.0097 13.62C9.965 13.6214 9.92107 13.6316 9.88036 13.65C9.84 13.6674 9.8035 13.6926 9.77302 13.7243C9.74253 13.7559 9.71867 13.7933 9.70284 13.8343C9.68701 13.8753 9.67952 13.919 9.68081 13.9629C9.6821 14.0068 9.69215 14.0501 9.71036 14.09C9.9215 14.5869 10.2311 15.036 10.6204 15.41C10.9989 15.7912 11.434 16.1116 11.9104 16.36C12.5695 16.589 13.2714 16.6683 13.965 16.5921C14.6586 16.516 15.3265 16.2864 15.9204 15.92Z" fill="#262623"/>
<path d="M8.32034 10.9999C8.54286 11.0612 8.77782 11.0612 9.00034 10.9999C9.17688 10.9382 9.33532 10.8336 9.46146 10.6955C9.58761 10.5574 9.67751 10.3902 9.7231 10.2088C9.76869 10.0274 9.76856 9.83756 9.7227 9.65624C9.67684 9.47493 9.58669 9.30783 9.46034 9.16994C8.46034 7.92994 6.46034 9.98994 7.72034 10.8899C7.90724 10.9786 8.11416 11.0165 8.32034 10.9999Z" fill="#262623"/>
<path d="M19.1507 10.3606C19.3753 10.4007 19.6067 10.38 19.8207 10.3006C19.999 10.2395 20.1592 10.1348 20.2868 9.9959C20.4143 9.85705 20.505 9.6885 20.5508 9.50561C20.5965 9.32271 20.5957 9.13128 20.5486 8.94876C20.5014 8.76623 20.4093 8.59841 20.2807 8.46058C19.2807 7.23058 17.2807 9.29058 18.5407 10.1906C18.7245 10.3022 18.9356 10.3611 19.1507 10.3606Z" fill="#262623"/>
<path d="M9.62016 20.1103C9.51783 19.9062 9.36237 19.7335 9.17016 19.6103C9.36645 19.2868 9.44091 18.9038 9.38016 18.5303C9.33844 18.1768 9.22258 17.836 9.04016 17.5303C8.9052 17.3305 8.7276 17.1632 8.52016 17.0403C8.56228 16.9451 8.58927 16.8439 8.60016 16.7403C8.65341 16.4126 8.62666 16.0768 8.52219 15.7617C8.41772 15.4465 8.23863 15.1613 8.00016 14.9303C7.48587 14.5996 6.88076 14.4387 6.27016 14.4703C5.52044 14.4483 4.77537 14.5953 4.09016 14.9003C4.14998 14.0006 3.89936 13.1075 3.38016 12.3703C2.48016 11.3703 0.840158 12.2403 0.670158 13.7303C0.652831 14.3419 0.730419 14.9525 0.900158 15.5403C1.18016 16.5403 1.13016 16.4903 1.38016 16.8703C1.16014 17.1098 0.974983 17.3791 0.830158 17.6703C0.730158 18.0103 0.550158 18.4103 0.710158 18.6703C0.870158 18.9303 1.01016 18.9003 1.18016 18.7303C1.35016 18.5603 1.27016 18.2903 1.32016 18.1303C1.39444 17.8437 1.54272 17.5816 1.75016 17.3703C1.91016 17.1603 2.03016 17.1503 2.22016 16.9703C4.07016 15.2003 6.84016 15.0003 7.34016 15.6903C8.19016 16.8503 6.18016 16.9803 4.44016 18.0603C4.40191 18.0713 4.36644 18.0902 4.33611 18.116C4.30577 18.1417 4.28127 18.1736 4.26424 18.2096C4.24721 18.2456 4.23804 18.2847 4.23733 18.3245C4.23663 18.3643 4.24441 18.4038 4.26016 18.4403C4.27244 18.4777 4.29218 18.5121 4.31821 18.5416C4.34423 18.5711 4.37598 18.595 4.41152 18.6119C4.44707 18.6287 4.48567 18.6381 4.52497 18.6396C4.56428 18.641 4.60347 18.6345 4.64016 18.6203C5.05016 18.5603 5.41016 18.5603 5.76016 18.5103C6.76016 18.3403 7.01016 17.8503 7.92016 18.0003C8.07589 18.1272 8.18289 18.3042 8.223 18.501C8.2631 18.6979 8.23383 18.9026 8.14016 19.0803C7.68022 19.3952 7.16428 19.6193 6.62016 19.7403C6.25081 19.9168 5.89338 20.1172 5.55016 20.3403C5.51217 20.3506 5.47668 20.3685 5.44583 20.3929C5.41498 20.4173 5.38942 20.4477 5.37071 20.4824C5.352 20.517 5.34053 20.555 5.337 20.5942C5.33346 20.6334 5.33794 20.6729 5.35016 20.7103C5.36042 20.7483 5.37831 20.7838 5.40273 20.8146C5.42716 20.8455 5.4576 20.871 5.49221 20.8897C5.52683 20.9085 5.56488 20.9199 5.60407 20.9235C5.64326 20.927 5.68276 20.9225 5.72016 20.9103C6.08119 20.9072 6.44175 20.8839 6.80016 20.8403C6.95678 20.8191 7.11088 20.7822 7.26016 20.7303C7.62422 20.5145 8.05601 20.4431 8.47016 20.5303C8.50302 20.5365 8.53423 20.5495 8.56178 20.5684C8.58933 20.5873 8.61262 20.6118 8.63016 20.6403C8.66028 20.7175 8.66028 20.8031 8.63016 20.8803C8.57739 21.1345 8.4564 21.3696 8.28016 21.5603C8.0781 21.7895 7.84988 21.9942 7.60016 22.1703C6.93146 22.631 6.15781 22.9163 5.35016 23.0003C4.54945 23.1181 3.73178 22.9964 3.00016 22.6503C2.46621 22.3678 2.04335 21.9133 1.80016 21.3603C1.52971 20.7747 1.37034 20.144 1.33016 19.5003C1.3289 19.4561 1.31876 19.4126 1.30035 19.3723C1.28193 19.3321 1.25562 19.296 1.22297 19.2661C1.19031 19.2363 1.15199 19.2133 1.11028 19.1986C1.06857 19.1838 1.02432 19.1776 0.980158 19.1803C0.935482 19.1829 0.891749 19.1942 0.851467 19.2137C0.811185 19.2332 0.775146 19.2604 0.745417 19.2939C0.715688 19.3273 0.692853 19.3663 0.678222 19.4086C0.663592 19.4509 0.657453 19.4956 0.660158 19.5403C0.67278 20.4265 0.895552 21.297 1.31016 22.0803C1.61375 22.6256 2.05958 23.0784 2.60016 23.3903C3.46956 23.8693 4.46085 24.0815 5.45016 24.0003C6.44376 23.9091 7.39741 23.5648 8.22016 23.0003C8.63086 22.7263 8.99541 22.3887 9.30016 22.0003C9.52736 21.7062 9.68466 21.3642 9.76016 21.0003C9.80918 20.6963 9.76014 20.3846 9.62016 20.1103ZM1.81016 16.3903L1.72016 15.3903C1.72016 14.6403 1.59016 13.6603 2.09016 13.2003C2.19016 13.2003 2.54016 12.6103 2.97016 13.4203C3.20765 13.8634 3.35387 14.3497 3.40016 14.8503C3.39976 14.9008 3.41134 14.9507 3.43393 14.9959C3.45653 15.0411 3.4895 15.0803 3.53016 15.1103C2.8945 15.4461 2.31436 15.8778 1.81016 16.3903Z" fill="#262623"/>
</g>
<defs>
<clipPath id="clip0_8_567">
<rect width="24" height="24" fill="white"/>
</clipPath>
</defs>
</svg>
