<svg width="24" height="24" viewBox="0 0 24 24" fill="none" xmlns="http://www.w3.org/2000/svg">
<g clip-path="url(#clip0_15_1842)">
<path fill-rule="evenodd" clip-rule="evenodd" d="M16.7999 14.11C16.5399 13.27 16.2999 12.43 16.0399 11.59C15.8599 11.03 15.6699 10.46 15.4599 9.90999C15.2499 9.35999 14.9599 8.51999 14.6799 7.84999C14.4799 7.37999 14.2799 6.91999 14.0399 6.47999C13.9126 6.22305 13.7725 5.97273 13.6199 5.72999C13.4993 5.53028 13.3474 5.35132 13.1699 5.19999C12.9921 5.05883 12.7835 4.9617 12.5611 4.91651C12.3386 4.87133 12.1086 4.87937 11.8899 4.93999C11.2014 5.1771 10.5612 5.53615 9.99988 5.99999C8.84988 6.80999 7.73988 7.66999 6.65988 8.55999C5.57988 9.44999 4.53988 10.39 3.51988 11.36L1.77988 13.05C1.22988 13.58 0.999883 13.89 0.869883 13.97C0.739883 14.05 0.729883 13.89 0.609883 13.48C0.590809 13.4022 0.543246 13.3344 0.476591 13.2899C0.409937 13.2455 0.329039 13.2277 0.249883 13.24C0.209218 13.2459 0.170204 13.2601 0.135262 13.2818C0.100319 13.3034 0.0701937 13.332 0.0467531 13.3657C0.0233124 13.3995 0.00705675 13.4377 -0.00100574 13.478C-0.00906823 13.5183 -0.00876558 13.5598 -0.000116583 13.6C0.0793274 14.4939 0.212906 15.3822 0.399883 16.26C0.499883 16.76 0.649883 17.26 0.799883 17.79C1.06988 18.69 1.36988 19.51 1.49988 20.05C1.50453 20.0975 1.51885 20.1436 1.54196 20.1854C1.56508 20.2271 1.5965 20.2638 1.63429 20.2929C1.67208 20.3221 1.71544 20.3433 1.76171 20.3551C1.80798 20.3669 1.85617 20.3691 1.90332 20.3616C1.95048 20.3541 1.9956 20.337 2.0359 20.3114C2.0762 20.2858 2.11084 20.2522 2.13769 20.2127C2.16453 20.1732 2.18301 20.1286 2.19198 20.0817C2.20096 20.0348 2.20024 19.9866 2.18988 19.94C2.18988 19.38 2.04988 18.52 1.88988 17.6C1.76704 16.9249 1.6068 16.2572 1.40988 15.6C1.30988 15.26 1.13988 14.82 1.01988 14.5C1.21988 14.5 1.34988 14.26 1.51988 14.11L2.24988 13.44L3.99988 11.87C4.99988 10.96 6.09988 10.07 7.18988 9.22998C8.27988 8.38998 9.40988 7.58999 10.5599 6.83999C10.9207 6.58266 11.302 6.35524 11.6999 6.15999C11.9699 6.03999 12.2399 5.89999 12.4299 6.06999C12.5218 6.1497 12.5995 6.24436 12.6599 6.34999C12.7842 6.5607 12.8977 6.77765 12.9999 6.99999C13.2153 7.41629 13.4089 7.84353 13.5799 8.27999C13.8499 8.94999 14.0899 9.62998 14.3499 10.28L15.6799 14.42C15.8319 14.8455 15.9588 15.2796 16.0599 15.72C16.1035 15.9513 16.1035 16.1887 16.0599 16.42L15.6999 16.62L13.4999 17.25C12.8765 17.4317 12.2418 17.572 11.5999 17.67C10.5999 17.83 9.59988 17.93 8.59988 18.05C7.84988 18.14 7.08988 18.3 6.32988 18.39C6.01839 18.4335 5.7044 18.4569 5.38988 18.46C4.86988 18.46 4.22988 18.38 3.64988 18.35C3.37049 18.3239 3.08927 18.3239 2.80988 18.35C2.71846 18.3647 2.63661 18.4151 2.58226 18.4901C2.5279 18.5651 2.50547 18.6585 2.51988 18.75C2.53698 18.8402 2.58792 18.9205 2.66228 18.9744C2.73664 19.0283 2.8288 19.0518 2.91988 19.04C3.14889 19.0097 3.38088 19.0097 3.60988 19.04C3.60988 19.04 3.75988 18.94 4.13988 19.8L4.45988 20.52C4.68175 20.9929 5.02725 21.3972 5.45988 21.69C5.93154 21.9945 6.45267 22.2145 6.99988 22.34C7.87254 22.5456 8.79028 22.4247 9.57988 22C9.85855 21.8308 10.094 21.599 10.2676 21.323C10.4411 21.047 10.5481 20.7344 10.5799 20.41C10.605 20.2074 10.605 20.0025 10.5799 19.8C10.5799 19.54 10.4699 19.3 10.4099 19.03C10.3917 18.9576 10.3536 18.8918 10.2999 18.84L11.8399 18.68C12.514 18.5917 13.182 18.4615 13.8399 18.29L16.1099 17.7C16.3605 17.6293 16.5949 17.5105 16.7999 17.35C16.9908 17.1993 17.1306 16.9932 17.1999 16.76C17.2751 16.3736 17.2751 15.9764 17.1999 15.59C17.0949 15.0894 16.9614 14.5953 16.7999 14.11ZM9.79988 19.84C9.81419 19.9729 9.81419 20.107 9.79988 20.24C9.75327 20.4168 9.66813 20.5811 9.55057 20.7211C9.43301 20.8612 9.28594 20.9735 9.11988 21.05C8.56029 21.311 7.9269 21.3676 7.32988 21.21C6.85991 21.1356 6.40647 20.9799 5.98988 20.75C5.72965 20.6082 5.50155 20.4141 5.31988 20.18L4.91988 19.56C4.58988 19.01 4.74988 19.26 5.56988 19.26C5.90988 19.26 6.24988 19.26 6.56988 19.2C7.32988 19.13 8.08988 19 8.83988 18.93C9.73988 18.84 9.71988 18.61 9.75988 19.84H9.79988Z" fill="#262623"/>
<path fill-rule="evenodd" clip-rule="evenodd" d="M16.3102 7.0504C16.3499 7.04436 16.3879 7.03043 16.4221 7.00944C16.4562 6.98845 16.4858 6.96083 16.5091 6.9282C16.5325 6.89557 16.549 6.8586 16.5578 6.81947C16.5665 6.78034 16.5674 6.73986 16.5602 6.7004C16.5602 6.5304 16.7302 6.0204 16.7302 5.7004H16.8302L18.3302 5.9904C18.5894 6.01938 18.851 6.01938 19.1102 5.9904C19.2242 5.97241 19.3308 5.92246 19.4175 5.84635C19.5042 5.77024 19.5676 5.67108 19.6002 5.5604C19.6834 5.27711 19.7338 4.98519 19.7502 4.6904C19.7731 3.95319 19.7531 3.21528 19.6902 2.4804C19.9501 2.57485 20.2238 2.62553 20.5002 2.6304C20.5917 2.61565 20.6735 2.56528 20.7279 2.4903C20.7822 2.41533 20.8046 2.32187 20.7902 2.2304C20.783 2.18543 20.7668 2.14238 20.7427 2.10378C20.7185 2.06519 20.6868 2.03184 20.6495 2.00573C20.6122 1.97961 20.57 1.96126 20.5255 1.95175C20.4809 1.94225 20.435 1.94179 20.3902 1.9504C20.1324 1.87121 19.8868 1.75679 19.6602 1.6104C19.5839 1.56747 19.4978 1.54492 19.4102 1.54492C19.3227 1.54492 19.2366 1.56747 19.1602 1.6104C19.0632 1.68431 18.9902 1.78518 18.9502 1.9004C18.8878 2.19698 18.8477 2.49782 18.8302 2.8004L18.5402 4.8004L17.0002 4.7204C16.9102 4.7204 16.6502 4.6404 16.4802 4.6304C16.3472 4.61422 16.2123 4.63498 16.0902 4.6904C15.9883 4.76235 15.9039 4.85636 15.8433 4.96543C15.7827 5.0745 15.7475 5.19583 15.7402 5.3204C15.7675 5.82234 15.8548 6.31921 16.0002 6.8004C16.0143 6.87184 16.0531 6.93605 16.1098 6.98176C16.1665 7.02747 16.2374 7.05177 16.3102 7.0504Z" fill="#262623"/>
<path fill-rule="evenodd" clip-rule="evenodd" d="M19.4704 12.1806C19.8404 11.6806 20.1304 11.0006 20.3904 10.5906C20.3904 10.5906 20.4504 10.4006 20.5104 10.2606L20.8504 10.5206L21.4104 11.0406C21.6104 11.2506 21.8204 11.6006 22.0604 11.8506C22.2052 12.0123 22.3823 12.1418 22.5804 12.2306C22.6894 12.2773 22.8095 12.2918 22.9265 12.2723C23.0435 12.2528 23.1524 12.2002 23.2404 12.1206C23.5264 11.6938 23.7519 11.2294 23.9104 10.7406C23.9104 10.6506 23.8104 9.54063 22.7504 11.2206L22.7004 11.1506C22.5204 10.8806 22.3604 10.5606 22.2104 10.3506L21.6104 9.67063C21.4804 9.55063 21.3204 9.39063 21.1604 9.26063C21.0104 9.14506 20.8411 9.05703 20.6604 9.00063C20.56 8.96529 20.4524 8.95593 20.3475 8.97342C20.2426 8.9909 20.1438 9.03466 20.0604 9.10063C19.7829 9.37617 19.5501 9.69332 19.3704 10.0406C19.1704 10.4606 18.9704 11.1406 18.6804 11.6606C18.6175 11.7836 18.5439 11.9007 18.4604 12.0106C18.3504 11.8306 17.9204 11.6506 17.7004 11.4106C17.6448 11.3633 17.5743 11.3372 17.5014 11.3367C17.4284 11.3363 17.3576 11.3616 17.3015 11.4081C17.2453 11.4547 17.2074 11.5196 17.1944 11.5914C17.1814 11.6632 17.1941 11.7373 17.2304 11.8006C17.4625 12.1714 17.7452 12.508 18.0704 12.8006C18.169 12.8731 18.2861 12.9162 18.4082 12.925C18.5302 12.9339 18.6523 12.9081 18.7604 12.8506C19.043 12.6817 19.2853 12.453 19.4704 12.1806Z" fill="#262623"/>
<path fill-rule="evenodd" clip-rule="evenodd" d="M23.9402 17.9205C23.7692 17.4952 23.5653 17.084 23.3302 16.6905C23.181 16.52 22.9748 16.4098 22.7502 16.3805C22.2841 16.3596 21.8185 16.4309 21.3802 16.5905C20.3802 16.9205 20.0702 17.9405 19.5902 15.8605C19.5864 15.821 19.5749 15.7827 19.5562 15.7477C19.5376 15.7127 19.5122 15.6818 19.4815 15.6567C19.4508 15.6316 19.4154 15.6128 19.3774 15.6014C19.3394 15.5901 19.2996 15.5864 19.2602 15.5905C19.2197 15.5942 19.1805 15.606 19.1448 15.6253C19.109 15.6446 19.0776 15.6709 19.0524 15.7027C19.0271 15.7345 19.0086 15.7711 18.9979 15.8102C18.9872 15.8494 18.9846 15.8903 18.9902 15.9305C19.022 16.4834 19.1193 17.0306 19.2802 17.5605C19.3439 17.7789 19.4607 17.9782 19.6202 18.1405C19.8513 18.2514 20.1162 18.2693 20.3602 18.1905C20.7974 18.0683 21.2252 17.9145 21.6402 17.7305C21.9583 17.572 22.294 17.4512 22.6402 17.3705C22.5802 17.6205 23.0802 17.9305 23.3602 18.3005C23.3845 18.3393 23.4164 18.3728 23.454 18.3989C23.4916 18.4251 23.534 18.4434 23.5789 18.4527C23.6237 18.4621 23.6699 18.4623 23.7148 18.4533C23.7597 18.4443 23.8024 18.4264 23.8402 18.4005C23.8789 18.3762 23.9124 18.3443 23.9386 18.3067C23.9647 18.2691 23.983 18.2266 23.9924 18.1818C24.0017 18.137 24.0019 18.0907 23.9929 18.0458C23.984 18.0009 23.966 17.9583 23.9402 17.9205Z" fill="#262623"/>
</g>
<defs>
<clipPath id="clip0_15_1842">
<rect width="24" height="24" fill="white"/>
</clipPath>
</defs>
</svg>
