<svg width="24" height="24" viewBox="0 0 24 24" fill="none" xmlns="http://www.w3.org/2000/svg">
<g clip-path="url(#clip0_8_1285)">
<path fill-rule="evenodd" clip-rule="evenodd" d="M23.89 6.91032C23.8736 5.18729 23.7467 3.46709 23.51 1.76032C23.4665 1.48478 23.3567 1.22396 23.19 1.00032C22.8205 0.715308 22.3825 0.532525 21.92 0.470318C18.5858 0.031059 15.2206 -0.126165 11.86 0.000318252C8.51535 0.00710023 5.17478 0.234259 1.86 0.680318C1.40221 0.730653 0.968421 0.911108 0.61 1.20032C0.2 1.79032 0 5.58032 0 9.84032C0 15.5303 0.37 22.0503 0.72 22.7403C0.997803 23.0634 1.38682 23.2704 1.81 23.3203C4.41277 23.7351 7.04439 23.9424 9.68 23.9403C13.42 24.0303 17.53 23.9403 20.14 23.7503C21.0941 23.7258 22.0386 23.5537 22.94 23.2403C23.2996 23.0053 23.5651 22.6513 23.69 22.2403C23.8948 21.5522 23.9992 20.8382 24 20.1203C24 18.8603 24.06 12.0003 23.89 6.91032ZM22.82 20.1003C22.8324 20.5455 22.8022 20.9909 22.73 21.4303C22.67 21.7603 22.6 22.1103 22.36 22.2503C21.7488 22.4478 21.1122 22.5556 20.47 22.5703C18.39 22.7703 15.12 22.8703 11.86 22.8703C8.64009 22.9461 5.41884 22.7957 2.22 22.4203C1.98563 22.3741 1.755 22.3106 1.53 22.2303C1.18 21.2903 0.82 15.2303 0.73 9.83032C0.65 5.76032 0.73 2.13032 1.11 1.59032C1.18 1.49032 1.49 1.46032 1.94 1.38032C5.23517 0.991171 8.55221 0.817469 11.87 0.860318C14.8081 0.805856 17.7468 0.929416 20.67 1.23032C21.289 1.25578 21.8985 1.39123 22.47 1.63032C22.5364 1.90714 22.5865 2.18762 22.62 2.47032C22.74 3.47032 22.81 5.09032 22.85 6.94032C23 12.0003 22.86 18.8403 22.82 20.1003Z" fill="#262623"/>
<path fill-rule="evenodd" clip-rule="evenodd" d="M18.1403 5.19048C18.072 5.18931 18.005 5.20872 17.9479 5.24617C17.8908 5.28363 17.8464 5.3374 17.8203 5.40048L17.4003 6.00048C16.5803 7.15048 14.7503 9.54048 13.0203 11.8905C11.7903 13.5605 10.6203 15.2005 9.81028 16.2605C9.56605 16.6486 9.29541 17.0195 9.00028 17.3705C9.00028 17.3705 8.89028 17.3705 8.81028 17.3705C8.63477 17.2939 8.46729 17.2001 8.31028 17.0905C7.49532 16.4324 6.7573 15.6843 6.11028 14.8605C5.88028 14.5805 5.75028 14.2705 5.52028 14.4705C5.35028 14.4705 5.18028 14.6205 5.33028 14.8405L5.49028 15.0705C6.02522 15.8523 6.62036 16.5912 7.27028 17.2805C7.6279 17.6897 8.05857 18.0288 8.54028 18.2805C8.7004 18.3516 8.87578 18.3816 9.05045 18.3676C9.22511 18.3537 9.39351 18.2962 9.54028 18.2005C10.1652 17.6182 10.7344 16.9788 11.2403 16.2905C11.8803 15.4805 12.6403 14.4605 13.4103 13.3705C15.2203 10.8305 17.1003 7.92048 17.9603 6.56048C18.1757 6.25076 18.3504 5.91468 18.4803 5.56048C18.4844 5.51337 18.4788 5.46592 18.4635 5.42114C18.4483 5.37636 18.424 5.33525 18.392 5.30042C18.36 5.2656 18.321 5.23784 18.2777 5.21891C18.2344 5.19998 18.1876 5.19029 18.1403 5.19048Z" fill="#262623"/>
</g>
<defs>
<clipPath id="clip0_8_1285">
<rect width="24" height="24" fill="white"/>
</clipPath>
</defs>
</svg>
