<svg width="24" height="24" viewBox="0 0 24 24" fill="none" xmlns="http://www.w3.org/2000/svg">
<g clip-path="url(#clip0_15_2109)">
<path fill-rule="evenodd" clip-rule="evenodd" d="M9.46917 10.5903C8.61917 10.7003 7.81917 10.7603 7.12917 10.8203C6.79917 9.82034 6.75917 9.54034 6.33917 9.13034C6.05607 8.86076 5.72156 8.65099 5.3556 8.51354C4.98964 8.37609 4.59974 8.31378 4.20917 8.33034C4.20917 8.25034 4.04917 7.17034 3.98917 6.79034C5.98917 7.11034 7.10917 5.28034 6.37917 3.49034C6.30917 3.22034 5.94917 3.64034 15.3792 2.20034C15.3792 4.03034 16.8992 5.20034 18.6392 4.36034C18.7161 4.33912 18.7814 4.28822 18.8208 4.21883C18.8602 4.14945 18.8704 4.06725 18.8492 3.99034C18.828 3.91343 18.7771 3.8481 18.7077 3.80871C18.6383 3.76933 18.5561 3.75912 18.4792 3.78034C17.9567 3.78849 17.4454 3.62868 17.0205 3.32444C16.5957 3.02021 16.2797 2.58761 16.1192 2.09034L18.6392 1.70034C19.0499 3.01311 19.3838 4.34871 19.6392 5.70034C19.2021 5.62367 18.7524 5.66864 18.3392 5.83034C18.0907 6.00578 17.8919 6.24262 17.7622 6.51778C17.6325 6.79294 17.5763 7.09701 17.5992 7.40034C17.5992 7.49052 17.635 7.577 17.6988 7.64076C17.7625 7.70452 17.849 7.74034 17.9392 7.74034C18.0293 7.74034 18.1158 7.70452 18.1796 7.64076C18.2434 7.577 18.2792 7.49052 18.2792 7.40034C18.3892 7.00034 19.4592 6.51034 19.7792 6.34034C19.7792 6.54034 19.8592 6.75034 19.8992 6.94034C19.9012 6.98229 19.912 7.02334 19.9309 7.06084C19.9498 7.09835 19.9764 7.13146 20.0089 7.15805C20.0414 7.18463 20.0791 7.2041 20.1197 7.21518C20.1602 7.22626 20.2025 7.22871 20.2441 7.22238C20.2856 7.21605 20.3253 7.20107 20.3607 7.17841C20.396 7.15576 20.4262 7.12593 20.4493 7.09086C20.4724 7.05579 20.4879 7.01626 20.4948 6.97483C20.5017 6.9334 20.4997 6.89099 20.4892 6.85034C19.7992 2.00034 19.6392 0.900342 19.0792 0.700342C18.1692 0.370342 5.17917 2.83034 3.99917 3.00034C3.909 3.0083 3.82568 3.05175 3.76754 3.12114C3.70941 3.19053 3.68122 3.28017 3.68917 3.37034C3.69713 3.46052 3.74058 3.54384 3.80997 3.60197C3.87936 3.66011 3.969 3.6883 4.05917 3.68034C6.19917 3.54034 5.61917 3.36034 5.69917 3.68034C5.72747 4.04567 5.67792 4.41285 5.5538 4.75761C5.42969 5.10237 5.23383 5.41688 4.97917 5.68034C4.68624 5.993 4.30064 6.20333 3.87917 6.28034C3.79917 5.79034 3.87917 6.20034 3.48917 4.36034C3.48592 4.14859 3.46249 3.93764 3.41917 3.73034C3.40942 3.68625 3.39015 3.64482 3.36271 3.60895C3.33528 3.57308 3.30033 3.54363 3.26033 3.52268C3.22032 3.50172 3.17623 3.48976 3.13112 3.48763C3.08601 3.4855 3.04097 3.49325 2.99917 3.51034C2.67917 3.65034 2.79917 4.08034 2.82917 4.39034C3.10917 7.21034 3.03917 11.1403 3.76917 11.8303C4.34917 12.3803 6.17917 11.8303 9.52917 11.2703C9.61935 11.2624 9.70267 11.2189 9.7608 11.1495C9.81894 11.0802 9.84713 10.9905 9.83917 10.9003C9.83122 10.8102 9.78776 10.7268 9.71838 10.6687C9.64899 10.6106 9.55935 10.5824 9.46917 10.5903ZM4.80917 11.0003C4.80917 11.0003 4.53917 11.0903 4.52917 10.5203L4.31917 9.08034C4.39917 9.08034 4.31917 9.02034 4.99917 9.54034C6.06917 10.3603 5.75917 10.0703 6.31917 10.8903C5.81823 10.9546 5.31414 10.9914 4.80917 11.0003Z" fill="#262623"/>
<path fill-rule="evenodd" clip-rule="evenodd" d="M2.26932 8.32071C1.21932 8.10071 0.999318 8.08072 0.999318 8.00072C1.2831 6.68169 1.48019 5.3455 1.58932 4.00072C1.67932 1.78071 1.66932 0.500715 1.66932 0.580715C1.64659 0.519474 1.60566 0.466657 1.55203 0.42936C1.4984 0.392062 1.43464 0.37207 1.36932 0.37207C1.30399 0.37207 1.24024 0.392062 1.18661 0.42936C1.13298 0.466657 1.09205 0.519474 1.06932 0.580715C0.924823 1.28115 0.818003 1.98884 0.749318 2.70072C0.4019 4.26369 0.224204 5.8596 0.219318 7.46072C0.186907 7.83015 0.248842 8.20176 0.399318 8.54072C0.639318 8.85072 1.00932 8.86072 2.19932 8.99072C2.24648 9.0023 2.29558 9.00365 2.34331 8.99467C2.39104 8.98569 2.43629 8.96659 2.47602 8.93865C2.51574 8.91071 2.54902 8.87459 2.57362 8.83271C2.59821 8.79083 2.61355 8.74417 2.61859 8.69586C2.62364 8.64756 2.61828 8.59874 2.60287 8.55268C2.58747 8.50662 2.56237 8.4644 2.52928 8.42885C2.49618 8.39331 2.45586 8.36526 2.41102 8.34661C2.36618 8.32796 2.31786 8.31913 2.26932 8.32071Z" fill="#262623"/>
<path fill-rule="evenodd" clip-rule="evenodd" d="M2.34922 0.680393C4.91338 1.20832 7.53722 1.3866 10.1492 1.21039C10.2288 1.21039 10.3051 1.17879 10.3614 1.12252C10.4176 1.06626 10.4492 0.989958 10.4492 0.910393C10.4492 0.830828 10.4176 0.754522 10.3614 0.698261C10.3051 0.642 10.2288 0.610393 10.1492 0.610393C8.88378 0.358181 7.60506 0.177892 6.31922 0.070393C4.81922 0.000392966 2.91922 0.000392967 2.42922 0.000392967C2.33905 -0.0102157 2.24835 0.0154315 2.17709 0.0716924C2.10583 0.127953 2.05983 0.210219 2.04922 0.300393C2.03861 0.390567 2.06426 0.481261 2.12052 0.552525C2.17678 0.623789 2.25905 0.669784 2.34922 0.680393Z" fill="#262623"/>
<path fill-rule="evenodd" clip-rule="evenodd" d="M13.43 7.59996C13.5748 7.44148 13.6551 7.2346 13.6551 7.01996C13.6551 6.80532 13.5748 6.59844 13.43 6.43996C12.95 5.87996 11.79 5.83996 11.2 5.69996C10.61 5.55996 10.82 5.49996 10.68 5.41996C10.9178 5.13435 11.2398 4.93132 11.6 4.83996H12.11C12.1448 4.91149 12.2056 4.96694 12.2801 4.99486C12.3545 5.02278 12.4369 5.02102 12.51 4.98996C12.87 4.81996 12.7 4.15996 11.7 4.13996C11.728 3.93314 11.6779 3.72334 11.5596 3.55142C11.4413 3.3795 11.2632 3.25778 11.06 3.20996C10.89 3.20996 10.42 3.98996 10.81 4.29996C10.12 4.56996 9.56004 5.04996 9.66004 5.77996C9.66004 6.06996 10.01 6.30996 10.13 6.41996C10.3545 6.61353 10.6219 6.75067 10.91 6.81996C11.49 6.97996 13.77 7.06996 11.32 7.59996C11.03 7.66996 10.74 7.73996 10.64 7.49996C10.6083 7.41431 10.5452 7.34393 10.4635 7.30308C10.3818 7.26223 10.2876 7.25397 10.2 7.27996C9.73004 7.44996 9.98004 8.45996 11.2 8.41996C11.09 8.68996 11.57 9.41996 11.86 9.35996C12.15 9.29996 12.4 8.46996 12.23 8.23996C12.6725 8.11808 13.0823 7.89949 13.43 7.59996Z" fill="#262623"/>
<path fill-rule="evenodd" clip-rule="evenodd" d="M23.2991 21.05C23.0261 20.9279 22.7278 20.873 22.4291 20.89C22.5957 20.1137 22.7225 19.3293 22.8091 18.54C22.8549 17.3853 22.8147 16.2288 22.6891 15.08C22.8527 15.0702 23.0125 15.027 23.1586 14.953C23.3048 14.879 23.4343 14.7759 23.5391 14.65C23.8291 14.23 23.5391 13.81 23.2191 13.44C18.0491 9.00004 16.8091 8.00004 14.8391 9.08004C12.8379 10.4392 10.9364 11.9397 9.14915 13.57C8.35915 14.24 8.51915 14.38 9.04915 14.47C9.12915 14.47 10.8091 13.01 10.8891 12.94C11.9491 12.13 13.0691 11.3 14.1891 10.59C16.1891 9.34004 16.3691 9.50004 17.6291 10.37C18.8891 11.24 20.3691 12.51 22.1591 14.03C19.7091 14.43 18.8991 14.3 14.8991 14.39C13.4566 14.5237 12.0077 14.5771 10.5591 14.55C10.1291 14.1 9.45915 15.1 10.5591 15.25C10.5168 15.525 10.49 15.8021 10.4791 16.08C10.391 16.7161 10.3509 17.3579 10.3591 18C10.3664 19.0899 10.4667 20.1772 10.6591 21.25C9.65915 21.25 8.71915 21.25 8.52915 21.47C8.52221 21.9822 8.55901 22.4941 8.63915 23C8.86915 23.69 9.71915 23.67 10.3991 23.65C15.6491 23.54 22.6191 24.73 23.5391 23.41C23.8191 23 23.9991 21.48 23.2991 21.05ZM19.9991 15.33C19.6742 17.065 19.6742 18.8451 19.9991 20.58C20.0267 20.6582 20.0812 20.724 20.1527 20.7658C20.2243 20.8075 20.3084 20.8225 20.39 20.8081C20.4716 20.7937 20.5454 20.7509 20.5984 20.6871C20.6513 20.6234 20.68 20.5429 20.6791 20.46C20.6942 19.5716 20.7778 18.6856 20.9291 17.81C20.9717 16.9711 20.901 16.1302 20.7191 15.31C21.1789 15.3021 21.6372 15.2552 22.0891 15.17C22.0391 15.37 22.0891 15.01 21.8191 16.97C21.7168 18.2313 21.7168 19.4988 21.8191 20.76C21.8191 21 22.3091 20.82 18.6591 20.87C18.5891 20.22 18.9291 19.44 18.8291 17.93C18.7312 17.0545 18.5776 16.1861 18.3691 15.33C18.4691 15.33 19.0491 15.35 19.9991 15.33ZM16.2691 21C16.1691 20.08 16.7191 19.65 16.2691 16.66C16.1312 16.2073 16.0407 15.7415 15.9991 15.27H17.6791V17.96C17.6791 18.04 17.8791 20.4 17.8891 20.48C17.8991 20.56 17.9391 20.72 17.9591 20.84L16.2691 21ZM15.3491 15.32C15.2491 15.32 15.3491 15.63 15.3491 15.66C15.2576 16.9403 15.2911 18.2263 15.4491 19.5C15.4413 20.0027 15.4815 20.505 15.5691 21C12.9591 21.15 13.3691 21.17 13.3591 21C13.3591 19.65 13.6991 19.18 13.7491 17L13.5891 15.25C14.1755 15.2119 14.7638 15.2185 15.3491 15.27V15.32ZM11.3491 19.89C11.5467 18.6445 11.5467 17.3756 11.3491 16.13C11.3491 16.05 11.4191 15.43 11.2591 15.33C11.7983 15.3716 12.3399 15.3716 12.8791 15.33C12.7391 16.33 12.5991 17.2 12.5391 18.19C12.4708 19.1925 12.5211 20.1994 12.6891 21.19C11.9491 21.19 11.6891 21.24 11.2091 21.25C11.2691 21.11 11.3691 19.92 11.3791 19.84L11.3491 19.89ZM22.2491 22.8C20.2491 23.11 14.1791 22.67 10.3391 22.94C9.33915 23 9.21915 22.94 9.14915 22.49C9.03915 21.68 9.14915 21.92 9.30915 21.92C13.0691 22.1 13.9991 21.74 21.9991 22C22.0491 22 22.7391 22.68 22.2791 22.75L22.2491 22.8Z" fill="#262623"/>
</g>
<defs>
<clipPath id="clip0_15_2109">
<rect width="24" height="24" fill="white"/>
</clipPath>
</defs>
</svg>
