<svg width="24" height="24" viewBox="0 0 24 24" fill="none" xmlns="http://www.w3.org/2000/svg">
<g clip-path="url(#clip0_17_2319)">
<path d="M2.62961 9.90041C3.34554 9.94447 4.06357 9.8598 4.74961 9.65041C4.79844 9.64547 4.84563 9.63001 4.88792 9.60509C4.93021 9.58018 4.96661 9.5464 4.9946 9.50609C5.0226 9.46577 5.04154 9.41987 5.05011 9.37154C5.05869 9.32321 5.0567 9.2736 5.04428 9.22612C5.03186 9.17863 5.00931 9.13439 4.97817 9.09645C4.94703 9.05851 4.90804 9.02776 4.86389 9.00631C4.81974 8.98487 4.77147 8.97324 4.7224 8.97222C4.67332 8.9712 4.62461 8.98082 4.57961 9.00041C3.97201 9.17202 3.33976 9.23964 2.70961 9.20041C2.33308 9.19239 1.97445 9.03818 1.70961 8.77041C1.14068 7.69472 0.871283 6.4859 0.929609 5.27041C0.87744 4.40982 0.958393 3.54632 1.16961 2.71041C1.23287 2.43367 1.38366 2.18468 1.59961 2.00041C2.50961 1.43041 7.27961 1.26041 12.0296 1.34041C14.8658 1.34295 17.6986 1.53337 20.5096 1.91041C21.105 1.94173 21.6858 2.10573 22.2096 2.39041C22.8146 3.31751 23.0368 4.44295 22.8296 5.53041C22.8246 6.65183 22.4523 7.74072 21.7696 8.63041C21.3396 9.00041 20.0496 9.00041 18.5096 9.00041C15.0296 9.00041 10.3696 8.63041 9.79961 8.85041C9.29938 9.077 8.83989 9.38445 8.43961 9.76041C7.71961 10.4004 6.96961 11.2304 6.43961 11.7604C6.34961 11.8404 6.27961 11.9104 6.20961 11.9604C6.18364 11.9165 6.16348 11.8695 6.14961 11.8204C5.96559 11.0533 5.83197 10.275 5.74961 9.49041C5.68961 8.95041 5.11961 9.08041 5.11961 9.36041C5.11961 9.64041 5.18961 10.0604 5.25961 10.5704C5.31648 11.2086 5.45425 11.837 5.66961 12.4404C5.70378 12.5416 5.77284 12.6274 5.86445 12.6824C5.95605 12.7373 6.06422 12.7579 6.16961 12.7404C6.48135 12.6211 6.76424 12.4371 6.99961 12.2004C7.61961 11.6404 8.52961 10.6804 9.33961 10.0704C9.56691 9.8881 9.81957 9.73988 10.0896 9.63041C10.7196 9.41041 16.3896 10.1404 19.7796 10.0304C20.7114 10.0731 21.6382 9.87324 22.4696 9.45041C23.406 8.38834 23.9465 7.0353 23.9996 5.62041C24.1214 4.9279 24.1055 4.21818 23.9528 3.53183C23.8 2.84547 23.5135 2.19595 23.1096 1.62041C22.535 1.18806 21.8544 0.918608 21.1396 0.840414C18.8446 0.467877 16.5246 0.270641 14.1996 0.250414C8.60961 0.110414 2.19961 0.530414 1.11961 1.25041C0.469609 1.66041 0.109609 3.00041 0.0996094 4.50041C0.0996094 6.41041 0.559609 8.58041 1.19961 9.26041C1.57939 9.64519 2.08965 9.87356 2.62961 9.90041Z" fill="#262623"/>
<path d="M18.1597 20.1906V20.4906C18.0626 21.3037 17.9089 22.109 17.6997 22.9006L17.4997 22.7106C16.9697 22.2206 16.2297 21.3806 15.4997 20.7106C15.1012 20.3174 14.6377 19.996 14.1297 19.7606C13.0862 19.6457 12.0332 19.6457 10.9897 19.7606C8.9097 19.8606 6.1697 20.0406 4.1897 19.9606C3.48358 20.0096 2.77559 19.8967 2.1197 19.6306C1.5497 19.1906 1.1197 17.7706 0.9597 16.3306C0.698971 15.1327 0.906493 13.8804 1.5397 12.8306C1.71301 12.6864 1.91901 12.5868 2.1397 12.5406C2.54305 12.4177 2.9539 12.3208 3.3697 12.2506C3.46112 12.2359 3.54297 12.1855 3.59733 12.1105C3.65168 12.0356 3.67411 11.9421 3.6597 11.8506C3.64041 11.7622 3.58854 11.6843 3.51442 11.6325C3.4403 11.5806 3.34936 11.5585 3.2597 11.5706C2.73465 11.6417 2.21627 11.7554 1.7097 11.9106C1.43914 11.9868 1.18949 12.1236 0.979701 12.3106C0.1897 13.1306 -0.0202995 14.7906 0.0497005 16.4106C0.1797 18.1906 0.7897 19.9006 1.4597 20.4606C2.1297 21.0206 3.5197 21.1106 5.3897 21.1206C7.2597 21.1306 9.6697 20.9706 11.3897 20.8506C12.175 20.7456 12.968 20.7087 13.7597 20.7406C14.0269 20.8409 14.2766 20.9827 14.4997 21.1606C15.2997 21.7506 16.2297 22.6906 16.8497 23.2506C17.0889 23.4825 17.3708 23.6659 17.6797 23.7906C17.7867 23.811 17.8975 23.7944 17.9938 23.7435C18.0901 23.6927 18.1662 23.6105 18.2097 23.5106C18.4005 22.9992 18.5216 22.4644 18.5697 21.9206C18.6497 21.3106 18.7197 20.6906 18.7397 20.4106V20.2506C18.8197 20.0006 18.1997 19.8906 18.1597 20.1906Z" fill="#262623"/>
<path d="M22.8299 11.6901C21.6777 11.2455 20.4549 11.0118 19.2199 11.0001C16.555 10.8619 13.8848 10.8619 11.2199 11.0001C11.1404 11.0001 11.0641 11.0317 11.0078 11.088C10.9515 11.1442 10.9199 11.2205 10.9199 11.3001C10.9199 11.3797 10.9515 11.456 11.0078 11.5122C11.0641 11.5685 11.1404 11.6001 11.2199 11.6001C13.5999 11.6001 16.0199 11.7701 18.0099 11.9401C19.0099 12.0301 19.9499 12.1401 20.6899 12.2501C21.2127 12.2874 21.726 12.4089 22.2099 12.6101C22.4117 12.8063 22.545 13.0623 22.5899 13.3401C22.8265 14.2165 22.9343 15.1227 22.9099 16.0301C22.9279 16.9471 22.8202 17.8623 22.5899 18.7501C22.5375 19.0739 22.3875 19.3739 22.1599 19.6101C21.8658 19.8125 21.517 19.9206 21.1599 19.9201C20.4871 19.9218 19.8163 19.848 19.1599 19.7001C19.0697 19.7147 18.9891 19.7645 18.9356 19.8386C18.8822 19.9127 18.8603 20.0049 18.8749 20.0951C18.8895 20.1853 18.9393 20.266 19.0134 20.3194C19.0875 20.3729 19.1797 20.3947 19.2699 20.3801C19.8849 20.5469 20.5144 20.6541 21.1499 20.7001C21.6694 20.7094 22.1802 20.5669 22.6199 20.2901C23.3099 19.8201 23.8399 17.9501 23.9199 16.0501C23.9792 15.0423 23.8882 14.0312 23.6499 13.0501C23.5411 12.516 23.2515 12.0357 22.8299 11.6901Z" fill="#262623"/>
</g>
<defs>
<clipPath id="clip0_17_2319">
<rect width="24" height="24" fill="white"/>
</clipPath>
</defs>
</svg>
