<svg width="24" height="24" viewBox="0 0 24 24" fill="none" xmlns="http://www.w3.org/2000/svg">
<g clip-path="url(#clip0_78_103)">
<path fill-rule="evenodd" clip-rule="evenodd" d="M9.74022 18.2802C9.33171 18.1906 8.93056 18.0703 8.54022 17.9202C8.15783 17.7774 7.7923 17.5929 7.45022 17.3702C6.85545 16.9931 6.36216 16.4759 6.01351 15.864C5.66485 15.2521 5.47145 14.5641 5.45022 13.8602C5.40311 12.4424 5.8444 11.0515 6.70022 9.9202C7.24618 9.16181 7.95305 8.53349 8.77022 8.0802C9.59751 7.64195 10.5066 7.37978 11.4402 7.3102C12.6812 7.23851 13.9152 7.53907 14.9842 8.17334C16.0532 8.80761 16.9084 9.7467 17.4402 10.8702C17.7573 11.4012 17.9635 11.9909 18.0465 12.6038C18.1294 13.2166 18.0874 13.8399 17.9229 14.4361C17.7585 15.0323 17.475 15.589 17.0895 16.0727C16.7041 16.5563 16.2247 16.9569 15.6802 17.2502C15.6351 17.276 15.5956 17.3106 15.5641 17.3519C15.5326 17.3932 15.5096 17.4404 15.4966 17.4907C15.4835 17.541 15.4807 17.5935 15.4882 17.6449C15.4957 17.6963 15.5134 17.7457 15.5402 17.7902C15.5651 17.835 15.5987 17.8742 15.6391 17.9057C15.6795 17.9371 15.7259 17.9601 15.7754 17.9731C15.8249 17.9862 15.8765 17.9891 15.9272 17.9818C15.9778 17.9744 16.0265 17.9569 16.0702 17.9302C19.2802 16.1702 19.6502 13.0202 18.4402 10.3902C17.833 9.05152 16.8458 7.92078 15.6013 7.13851C14.3568 6.35624 12.9098 5.95693 11.4402 5.9902C10.3142 6.06422 9.21829 6.38515 8.23022 6.9302C7.0082 7.61978 6.01047 8.64649 5.35615 9.88774C4.70184 11.129 4.41858 12.5323 4.54022 13.9302C4.58848 14.7656 4.83723 15.577 5.26542 16.2959C5.69362 17.0148 6.28866 17.6199 7.00022 18.0602C7.39924 18.2909 7.8216 18.4786 8.26022 18.6202C8.68436 18.7661 9.11893 18.8798 9.56022 18.9602C9.65296 18.9779 9.74895 18.9585 9.82751 18.9061C9.90607 18.8538 9.96091 18.7726 9.98022 18.6802C9.99638 18.5957 9.98084 18.5082 9.93657 18.4344C9.8923 18.3606 9.82239 18.3057 9.74022 18.2802Z" fill="#262623"/>
<path fill-rule="evenodd" clip-rule="evenodd" d="M11.9001 16.7996C12.3524 16.7106 12.774 16.5065 13.1244 16.2069C13.4747 15.9074 13.7419 15.5226 13.9001 15.0896C13.926 15.0447 13.9424 14.9949 13.9483 14.9434C13.9543 14.8918 13.9496 14.8397 13.9346 14.79C13.9196 14.7404 13.8946 14.6943 13.8612 14.6547C13.8277 14.615 13.7865 14.5827 13.7401 14.5596C13.6951 14.5337 13.6454 14.5173 13.5939 14.5113C13.5423 14.5054 13.4901 14.51 13.4405 14.525C13.3908 14.54 13.3448 14.565 13.3052 14.5985C13.2655 14.6319 13.2332 14.6732 13.2101 14.7196C13.0153 15.017 12.736 15.2493 12.4081 15.3865C12.0801 15.5238 11.7186 15.5597 11.3701 15.4896C11.1644 15.4657 10.9628 15.4153 10.7701 15.3396C10.252 15.1746 9.80468 14.8399 9.50008 14.3896C9.48362 14.3413 9.4565 14.2973 9.42072 14.2609C9.38494 14.2245 9.34142 14.1966 9.29339 14.1793C9.24536 14.162 9.19405 14.1557 9.14327 14.161C9.0925 14.1662 9.04355 14.1828 9.00008 14.2096C8.91533 14.2469 8.84882 14.3162 8.81508 14.4024C8.78135 14.4886 8.78314 14.5847 8.82008 14.6696C9.02831 15.4203 9.50988 16.066 10.1701 16.4796C10.4764 16.6588 10.8172 16.7712 11.1701 16.8096C11.4125 16.8433 11.6587 16.84 11.9001 16.7996Z" fill="#262623"/>
<path fill-rule="evenodd" clip-rule="evenodd" d="M23.8902 12.44C23.8279 12.1749 23.7304 11.9193 23.6002 11.68C23.3641 11.2598 23.0429 10.8933 22.6572 10.6041C22.2715 10.3148 21.8298 10.1091 21.3602 10C21.2837 9.41189 21.1634 8.83027 21.0002 8.26005C20.6296 6.98068 19.9837 5.7978 19.1079 4.7942C18.2322 3.7906 17.1476 2.99055 15.9302 2.45004C14.6426 1.9634 13.2695 1.74349 11.8943 1.80366C10.5191 1.86382 9.17045 2.20281 7.93024 2.80004C6.65474 3.32211 5.52709 4.14964 4.6465 5.20984C3.76591 6.27004 3.15937 7.5304 2.88024 8.88004C2.88024 9.12004 2.88024 9.36005 2.82024 9.60005C2.31136 9.69495 1.83006 9.90219 1.41141 10.2067C0.992767 10.5111 0.647319 10.9052 0.40024 11.36C0.270073 11.5993 0.172539 11.8549 0.11024 12.12C-0.0536738 12.6749 -0.0536738 13.2652 0.11024 13.82C0.259148 14.2382 0.509943 14.6126 0.839942 14.9094C1.16994 15.2062 1.56873 15.4161 2.00024 15.52C2.19904 15.5824 2.40328 15.6259 2.61024 15.65C2.81309 15.67 3.01739 15.67 3.22024 15.65C3.31179 15.6469 3.39948 15.6124 3.46864 15.5523C3.53781 15.4922 3.58426 15.4102 3.60024 15.32C3.6408 15.3395 3.68523 15.3497 3.73024 15.3497C3.77525 15.3497 3.81968 15.3395 3.86024 15.32C3.92145 15.2924 3.97312 15.2473 4.00871 15.1903C4.0443 15.1334 4.06223 15.0672 4.06024 15C3.82605 14.0148 3.67882 13.011 3.62024 12C3.56453 11.0118 3.6351 10.0204 3.83024 9.05005C4.14412 7.89891 4.72919 6.83971 5.53646 5.9611C6.34374 5.08249 7.34973 4.41005 8.47024 4.00004C9.55567 3.47973 10.7344 3.18244 11.9368 3.12575C13.1392 3.06907 14.3407 3.25415 15.4702 3.67004C16.5335 4.11811 17.4881 4.78923 18.2696 5.63802C19.0511 6.48682 19.6413 7.49351 20.0002 8.59004C20.7572 10.8738 20.69 13.3507 19.8102 15.59C19.7908 15.6379 19.7811 15.6892 19.7817 15.7409C19.7823 15.7926 19.7931 15.8436 19.8136 15.8911C19.834 15.9385 19.8637 15.9814 19.9009 16.0173C19.9381 16.0532 19.9821 16.0813 20.0302 16.1C20.092 16.1199 20.1585 16.1199 20.2202 16.1C19.9423 16.6818 19.6074 17.2345 19.2202 17.75C18.8506 18.2511 18.4169 18.7016 17.9302 19.09C17.1819 19.7637 16.2169 20.1469 15.2102 20.17C15.1658 20.0894 15.0942 20.027 15.0082 19.9941C14.9221 19.9611 14.8272 19.9597 14.7402 19.99C14.6422 20.03 14.5641 20.1071 14.5228 20.2046C14.4816 20.3021 14.4807 20.4119 14.5202 20.51C14.5202 20.64 14.5202 20.73 14.3902 20.82C14.2302 20.9418 14.0401 21.0179 13.8402 21.04C13.561 21.0932 13.2732 21.0795 13.0002 21C12.7234 20.9323 12.4643 20.8061 12.2402 20.63C12.0702 20.51 11.9402 20.43 12.0002 20.31C12.0755 20.1641 12.1943 20.0453 12.3402 19.97L13.0202 19.75C13.212 19.7185 13.4059 19.7018 13.6002 19.7H14.2202C14.3091 19.7145 14.4 19.6931 14.4731 19.6406C14.5462 19.5882 14.5955 19.5088 14.6102 19.42C14.6189 19.3747 14.6186 19.3281 14.6092 19.283C14.5998 19.2378 14.5815 19.1949 14.5555 19.1568C14.5295 19.1187 14.4962 19.0861 14.4575 19.0609C14.4189 19.0357 14.3756 19.0184 14.3302 19.01L13.0002 18.79C12.8306 18.7751 12.6599 18.7751 12.4902 18.79C12.3105 18.8039 12.1327 18.8375 11.9602 18.89C11.6768 18.9608 11.4161 19.1026 11.2026 19.3021C10.9892 19.5015 10.83 19.7521 10.7402 20.03C10.6745 20.3465 10.7108 20.6757 10.8437 20.9703C10.9766 21.2649 11.1995 21.5099 11.4802 21.67C11.8805 21.9343 12.335 22.1052 12.8102 22.17C13.264 22.216 13.7223 22.1578 14.1502 22C14.5598 21.8458 14.9098 21.5657 15.1502 21.2C15.1939 21.1073 15.2275 21.01 15.2502 20.91C16.2867 21.0479 17.3399 20.8443 18.2502 20.33C19.079 19.848 19.7682 19.1588 20.2502 18.33C20.6876 17.6126 20.9956 16.824 21.1602 16H21.4402C21.6466 15.9677 21.8504 15.9209 22.0502 15.86C22.4671 15.7445 22.8496 15.5294 23.1649 15.2333C23.4802 14.9371 23.7188 14.5688 23.8602 14.16C24.0415 13.6025 24.052 13.0035 23.8902 12.44ZM2.73024 14.8C2.58689 14.752 2.44663 14.6953 2.31024 14.63C2.07649 14.5159 1.87147 14.3506 1.71046 14.1463C1.54944 13.942 1.43657 13.704 1.38024 13.45C1.31317 13.1201 1.31317 12.78 1.38024 12.45C1.44975 12.0397 1.60616 11.649 1.83899 11.3041C2.07182 10.9591 2.37569 10.668 2.73024 10.45C2.7203 10.9974 2.74033 11.5449 2.79024 12.09C2.8902 13.0747 3.07761 14.0486 3.35024 15C3.29024 15 3.25024 14.93 3.18024 14.93L2.73024 14.8ZM21.7302 14.94C20.2202 15.67 21.6302 14 21.4602 10.82C22.0919 11.2806 22.5189 11.9694 22.6502 12.74C22.716 13.0701 22.716 13.41 22.6502 13.74C22.5942 14.0008 22.4783 14.245 22.3117 14.4532C22.1451 14.6615 21.9323 14.8281 21.6902 14.94H21.7302Z" fill="#262623"/>
<path fill-rule="evenodd" clip-rule="evenodd" d="M8.83024 10.51C8.64938 10.5049 8.46929 10.5355 8.30024 10.6C7.92042 10.7493 7.57876 10.9817 7.30024 11.28C7.22237 11.3294 7.16714 11.4075 7.14654 11.4974C7.12594 11.5872 7.14165 11.6816 7.19024 11.76C7.33024 12.01 9.19024 11.76 9.55024 11.76C9.7097 11.7663 9.86768 11.7931 10.0202 11.84C10.1111 11.893 10.2188 11.9091 10.3212 11.8849C10.4236 11.8607 10.5127 11.7981 10.5702 11.71C10.6227 11.6207 10.6385 11.5145 10.6142 11.4137C10.59 11.313 10.5276 11.2256 10.4402 11.17C10.1411 10.8719 9.76852 10.658 9.36023 10.55C9.18713 10.5066 9.00789 10.4931 8.83024 10.51Z" fill="#262623"/>
<path fill-rule="evenodd" clip-rule="evenodd" d="M16.0798 11.7604C16.1275 11.6809 16.1416 11.5856 16.1191 11.4956C16.0966 11.4056 16.0393 11.3282 15.9598 11.2804C15.684 10.9789 15.3416 10.746 14.9598 10.6004C14.7907 10.536 14.6106 10.5054 14.4298 10.5104C14.2477 10.5001 14.0651 10.5204 13.8898 10.5704C13.4824 10.6806 13.1103 10.8942 12.8098 11.1904C12.724 11.2477 12.6637 11.3358 12.6414 11.4364C12.619 11.537 12.6363 11.6423 12.6898 11.7304C12.7455 11.8205 12.8348 11.8848 12.9379 11.9092C13.041 11.9336 13.1496 11.916 13.2398 11.8604C13.3923 11.8136 13.5503 11.7867 13.7098 11.7804C14.8398 11.6904 15.8698 12.1204 16.0798 11.7604Z" fill="#262623"/>
</g>
<defs>
<clipPath id="clip0_78_103">
<rect width="24" height="24" fill="white"/>
</clipPath>
</defs>
</svg>
