<svg width="25" height="24" viewBox="0 0 25 24" fill="none" xmlns="http://www.w3.org/2000/svg">
<g clip-path="url(#clip0_30_47)">
<path fill-rule="evenodd" clip-rule="evenodd" d="M24.39 12.4996C24.33 11.8296 24.46 10.9296 24.39 10.1496C24.3699 9.7521 24.2749 9.36193 24.11 8.99965C23.9798 8.74161 23.7643 8.53665 23.5 8.41965C23.1262 8.27295 22.7371 8.16896 22.34 8.10965C21.7065 7.99391 21.064 7.93368 20.42 7.92965C19.4733 7.93536 18.528 8.00216 17.59 8.12965C15.46 8.37965 16.2 8.68965 16.2 6.25965L16.07 3.18965C16.0692 2.70387 16.0291 2.21895 15.95 1.73965C15.8681 1.34347 15.6484 0.989148 15.33 0.739648C15.1084 0.569845 14.8525 0.450404 14.58 0.389648C14.24 0.299648 13.87 0.269648 13.58 0.209648C13.3155 0.166079 13.0481 0.142678 12.78 0.139648H11.99C11.3008 0.21627 10.6267 0.394888 9.99 0.669648C9.53185 0.841487 9.12071 1.11901 8.79 1.47965C8.66549 1.62875 8.58268 1.80816 8.55 1.99965C8.51935 2.33228 8.51935 2.66702 8.55 2.99965L8.79 7.79965C8.80299 7.87108 8.84063 7.93568 8.89637 7.9822C8.95211 8.02872 9.0224 8.0542 9.095 8.0542C9.1676 8.0542 9.2379 8.02872 9.29363 7.9822C9.34937 7.93568 9.38701 7.87108 9.4 7.79965L9.23 2.99965V2.22965C9.23071 2.12158 9.26572 2.01653 9.33 1.92965C9.59398 1.66586 9.91584 1.46727 10.27 1.34965C11.0442 1.02396 11.8809 0.873695 12.72 0.909648C13.4398 0.934952 14.1486 1.09435 14.81 1.37965C14.9756 1.52585 15.0881 1.72276 15.13 1.93965C15.1835 2.37753 15.2069 2.81857 15.2 3.25965L15.28 6.25965C15.2026 6.92366 15.1592 7.5912 15.15 8.25965C15.1405 8.54226 15.2249 8.82005 15.39 9.04965C15.5762 9.21319 15.8125 9.30842 16.06 9.31965C16.6072 9.31004 17.1526 9.25316 17.69 9.14965C18.5 8.99965 19.22 8.99965 19.94 8.99965C20.675 8.98991 21.4089 9.05694 22.13 9.19965C23.46 9.44965 23.28 10.0996 23.29 10.2496C23.34 11.0496 23.2 11.9596 23.29 12.6296C23.29 13.0396 23.39 13.5496 23.39 14.0296C23.3932 14.2847 23.3526 14.5383 23.27 14.7796C23.27 14.9096 23.05 14.9196 22.91 14.9496C22.59 15.0296 22.25 15.0496 22 15.0996C21.51 15.1796 21 15.2496 20.44 15.2896C19.62 15.3496 18.78 15.3696 18.03 15.3696C17.72 15.3696 17.24 15.2796 16.82 15.2596C16.5767 15.2498 16.3334 15.2802 16.1 15.3496C15.9745 15.3885 15.8623 15.4614 15.7758 15.5603C15.6893 15.6592 15.6319 15.7801 15.61 15.9096C15.5767 16.1953 15.5767 16.484 15.61 16.7696C15.61 17.4996 15.68 18.2396 15.69 18.9796V19.8596C15.6644 20.5125 15.5808 21.1617 15.44 21.7996C15.3774 22.1508 15.222 22.4788 14.99 22.7496C14.91 22.8296 14.75 22.7496 14.61 22.7496C14.47 22.7496 14.2 22.6996 14.05 22.6896C13.2907 22.6449 12.5293 22.6449 11.77 22.6896C11.4693 22.6916 11.1687 22.6749 10.87 22.6396C10.28 22.5696 10 22.0196 9.8 21.3796C9.54545 20.2589 9.3915 19.1177 9.34 17.9696C9.36873 17.5134 9.36873 17.0559 9.34 16.5996C9.31373 16.4438 9.25691 16.2946 9.17282 16.1608C9.08873 16.0269 8.97902 15.911 8.85 15.8196C8.61974 15.6781 8.36557 15.5799 8.1 15.5296C7.57297 15.418 7.038 15.3478 6.5 15.3196C5.89 15.2596 5.25 15.1696 4.62 15.0696C3.99 14.9696 3.35 14.8296 2.75 14.6896L1.39 14.3996C1.36272 14.2007 1.34603 14.0004 1.34 13.7996C1.34 13.2396 1.43 12.6096 1.43 12.3796C1.39521 11.7921 1.41866 11.2026 1.5 10.6196C1.52422 10.2879 1.65386 9.97252 1.87 9.71965C2.00253 9.59513 2.1641 9.50575 2.34 9.45965C2.68 9.36965 3.06 9.35965 3.4 9.29965C4.14729 9.17797 4.90289 9.11445 5.66 9.10965C6.4207 9.12558 7.17929 9.19576 7.93 9.31965C7.97465 9.32687 8.02028 9.32523 8.0643 9.31481C8.10831 9.3044 8.14985 9.28542 8.18653 9.25896C8.2232 9.23249 8.25431 9.19906 8.27807 9.16057C8.30183 9.12209 8.31778 9.0793 8.325 9.03465C8.33222 8.99 8.33058 8.94436 8.32017 8.90035C8.30975 8.85633 8.29077 8.8148 8.26431 8.77812C8.23784 8.74144 8.20441 8.71034 8.16593 8.68658C8.12744 8.66282 8.08465 8.64687 8.04 8.63965C7.25439 8.49591 6.45849 8.41565 5.66 8.39965C4.85978 8.38204 4.05967 8.43896 3.27 8.56965C2.88703 8.5991 2.50628 8.65254 2.13 8.72965C1.82016 8.80052 1.5362 8.95636 1.31 9.17965C0.981851 9.54148 0.772452 9.99518 0.71 10.4796C0.620154 11.1087 0.586687 11.7446 0.61 12.3796C0.539889 13.0173 0.503173 13.6582 0.5 14.2996C0.505622 14.5556 0.597205 14.8021 0.76 14.9996C0.892307 15.1191 1.04938 15.2079 1.22 15.2596C1.63 15.3896 2.28 15.4696 2.55 15.5396C3.16 15.6896 3.81 15.8396 4.47 15.9596C5.13 16.0796 5.78 16.1796 6.42 16.2396C6.74 16.2396 7.21 16.3096 7.64 16.3896C7.85464 16.415 8.06204 16.483 8.25 16.5896C8.34 16.6496 8.33 16.7796 8.35 16.8996V18.0496C8.35932 19.4828 8.58866 20.9061 9.03 22.2696C9.16081 22.6346 9.38787 22.9574 9.68714 23.2038C9.9864 23.4503 10.3467 23.6112 10.73 23.6696C11.0615 23.7147 11.3955 23.738 11.73 23.7396C12.4562 23.7011 13.1838 23.7011 13.91 23.7396C14.2828 23.8057 14.6619 23.8292 15.04 23.8096C15.3096 23.7813 15.5625 23.6654 15.76 23.4796C16.126 23.0749 16.3809 22.5822 16.5 22.0496C16.6635 21.3504 16.7606 20.6372 16.79 19.9196C16.8104 19.5866 16.8104 19.2527 16.79 18.9196C16.79 18.1896 16.72 17.4496 16.72 16.7296V16.3796C17.14 16.3796 17.64 16.4896 17.96 16.4896C18.74 16.4896 19.61 16.4896 20.46 16.3996C21.04 16.3496 21.61 16.2896 22.14 16.1896C22.633 16.1472 23.1177 16.0361 23.58 15.8596C23.8891 15.7254 24.1357 15.4788 24.27 15.1696C24.4162 14.7966 24.4941 14.4003 24.5 13.9996C24.5 13.4896 24.43 12.9396 24.39 12.4996Z" fill="#262623"/>
</g>
<defs>
<clipPath id="clip0_30_47">
<rect width="24" height="24" fill="white" transform="translate(0.5)"/>
</clipPath>
</defs>
</svg>
