<svg width="24" height="24" viewBox="0 0 24 24" fill="none" xmlns="http://www.w3.org/2000/svg">
<g clip-path="url(#clip0_15_2096)">
<path fill-rule="evenodd" clip-rule="evenodd" d="M11.1403 21.6499C9.4503 21.6499 6.9703 21.6499 5.3003 21.4699C4.2203 21.3699 1.9503 21.5499 1.0903 20.7899C1.1503 20.6599 1.2703 20.4999 1.2803 20.4499C3.0403 16.7499 3.2803 8.84985 3.2803 8.76985C3.5603 2.55985 3.6403 2.84985 3.4203 2.76985C3.38054 2.74041 3.33412 2.72125 3.28517 2.71409C3.23621 2.70694 3.18624 2.712 3.13972 2.72882C3.09319 2.74565 3.05155 2.77373 3.0185 2.81055C2.98546 2.84736 2.96203 2.89179 2.9503 2.93985C2.9003 2.99985 3.0003 1.99985 2.3703 8.67985C1.2703 17.7299 0.170304 20.2399 0.170304 20.2699C0.170304 20.4599 -0.199696 21.0399 0.170304 21.4399C1.3603 22.6899 3.7803 22.3099 5.2303 22.3799C6.8603 22.4499 9.5003 22.3799 11.1403 22.3299C11.2305 22.3299 11.317 22.294 11.3807 22.2303C11.4445 22.1665 11.4803 22.08 11.4803 21.9899C11.4803 21.8997 11.4445 21.8132 11.3807 21.7494C11.317 21.6857 11.2305 21.6499 11.1403 21.6499Z" fill="#262623"/>
<path fill-rule="evenodd" clip-rule="evenodd" d="M23.5707 2.34963C22.8896 1.99511 22.1456 1.77767 21.3807 1.70963C20.6207 1.61963 4.07073 1.18963 4.52073 2.70963C4.53204 2.75491 4.55311 2.79717 4.58248 2.83345C4.61185 2.86972 4.64879 2.89914 4.69073 2.91963C5.46244 2.92609 6.23384 2.88601 7.00073 2.79963C10.2007 2.28963 21.2107 2.79963 21.3007 2.84963C21.8469 2.88848 22.3835 3.01335 22.8907 3.21963C22.5707 4.09963 22.1707 12.7496 22.1707 12.8296C22.1641 12.9092 22.1893 12.9881 22.2409 13.0491C22.2925 13.11 22.3662 13.148 22.4457 13.1546C22.5253 13.1613 22.6042 13.136 22.6652 13.0844C22.7261 13.0329 22.7641 12.9592 22.7707 12.8796C22.9707 10.7996 23.0907 8.77963 23.4207 6.81963C23.8507 4.45963 24.4007 2.81963 23.5707 2.34963Z" fill="#262623"/>
<path fill-rule="evenodd" clip-rule="evenodd" d="M21.9104 13.5992C21.5004 13.4192 17.0904 16.2192 15.4604 14.5992C15.3806 14.5043 15.272 14.4381 15.1511 14.4105C15.0301 14.383 14.9036 14.3956 14.7905 14.4465C14.6774 14.4974 14.584 14.5837 14.5244 14.6925C14.4649 14.8013 14.4424 14.9265 14.4604 15.0492C14.1204 18.1792 14.2304 18.1592 13.5504 19.4492C12.6604 21.2692 11.3804 21.5992 12.0004 21.9992C12.0409 22.0345 12.0904 22.0578 12.1434 22.0667C12.1963 22.0755 12.2507 22.0694 12.3004 22.0492C12.3804 22.0492 13.3004 21.2692 13.3604 21.1892C14.7666 19.8179 15.5964 17.9616 15.6804 15.9992C17.4504 16.5492 19.1704 15.5792 20.8604 14.8492C20.8604 14.8992 19.4704 17.2292 19.4204 17.2892C18.2077 18.8403 16.5718 20.0073 14.7104 20.6492C14.6256 20.681 14.5568 20.7453 14.5193 20.8278C14.4818 20.9103 14.4786 21.0043 14.5104 21.0892C14.5423 21.1741 14.6065 21.2428 14.689 21.2803C14.7715 21.3178 14.8656 21.321 14.9504 21.2892C17.0389 20.7976 18.9122 19.6434 20.2904 17.9992C20.9846 16.8868 21.5578 15.7034 22.0004 14.4692C22.1104 14.1792 22.2604 13.7492 21.9104 13.5992Z" fill="#262623"/>
</g>
<defs>
<clipPath id="clip0_15_2096">
<rect width="24" height="24" fill="white"/>
</clipPath>
</defs>
</svg>
