<svg width="24" height="24" viewBox="0 0 24 24" fill="none" xmlns="http://www.w3.org/2000/svg">
<g clip-path="url(#clip0_8_553)">
<path fill-rule="evenodd" clip-rule="evenodd" d="M7.22025 14.3098C7.48912 14.3447 7.76137 14.3447 8.03025 14.3098C8.29241 14.2713 8.55027 14.2077 8.80025 14.1198C9.36038 13.9064 9.89664 13.6349 10.4002 13.3098C10.4757 13.2711 10.5334 13.2049 10.5613 13.1248C10.5892 13.0448 10.5853 12.957 10.5502 12.8798C10.5098 12.806 10.4435 12.7499 10.3641 12.7222C10.2847 12.6945 10.1978 12.6972 10.1202 12.7298C9.5892 12.9162 9.04414 13.06 8.49025 13.1598C8.15982 13.2276 7.82601 13.2776 7.49025 13.3098H6.99025C7.57383 12.5453 7.92451 11.6286 8.00025 10.6698C8.20025 8.66981 7.21025 6.66981 4.89025 6.46981C4.14466 6.4654 3.40867 6.63806 2.74283 6.97358C2.07699 7.30911 1.50031 7.79792 1.06025 8.39981C0.568705 8.97663 0.27525 9.69597 0.223046 10.452C0.170843 11.2081 0.362648 11.9609 0.770247 12.5998C1.02864 12.9844 1.37046 13.3057 1.77025 13.5398L2.15025 13.7398C1.38317 14.5241 0.802186 15.4708 0.450247 16.5098C0.187508 17.3154 0.0361067 18.1532 0.000247377 18.9998C-0.0444096 20.2348 0.0359999 21.4711 0.240247 22.6898C0.24265 22.735 0.25433 22.7793 0.274562 22.8198C0.294794 22.8603 0.323145 22.8962 0.35785 22.9253C0.392555 22.9543 0.432873 22.976 0.476294 22.9888C0.519716 23.0016 0.565313 23.0054 0.610247 22.9998C0.691578 22.9898 0.765956 22.9489 0.818051 22.8856C0.870146 22.8224 0.895987 22.7416 0.890247 22.6598C0.828519 21.4655 0.86531 20.2681 1.00025 19.0798C1.08748 18.3186 1.238 17.566 1.45025 16.8298C1.73003 15.8031 2.20913 14.8415 2.86025 13.9998C3.13025 14.0698 3.40025 14.1398 3.67025 14.1898C3.74318 14.2044 3.81892 14.1894 3.88081 14.1482C3.9427 14.1069 3.98566 14.0427 4.00025 13.9698C4.01483 13.8969 3.99985 13.8211 3.95859 13.7592C3.91733 13.6974 3.85318 13.6544 3.78025 13.6398C1.78025 13.1798 1.42025 12.2498 1.41025 12.2198C1.12598 11.7083 1.01428 11.1187 1.09174 10.5386C1.16921 9.95848 1.4317 9.41885 1.84025 8.99981C2.18951 8.53476 2.64269 8.15782 3.16358 7.89911C3.68448 7.6404 4.25865 7.50709 4.84025 7.50981C6.55025 7.60981 7.23025 9.09981 7.14025 10.5798C7.15036 11.3538 6.9036 12.1093 6.43858 12.7282C5.97356 13.347 5.31651 13.7942 4.57025 13.9998C4.48804 14.0145 4.41447 14.0598 4.36437 14.1267C4.31426 14.1935 4.29135 14.2768 4.30025 14.3598C4.31495 14.4413 4.36067 14.5139 4.42781 14.5624C4.49494 14.6109 4.57826 14.6315 4.66025 14.6198C5.20126 14.5421 5.71383 14.3288 6.15025 13.9998C6.48901 14.1571 6.84985 14.2617 7.22025 14.3098Z" fill="#262623"/>
<path fill-rule="evenodd" clip-rule="evenodd" d="M10.5703 14.6995C10.162 15.0858 9.70878 15.4216 9.22026 15.6995C8.73685 15.9669 8.22758 16.1847 7.70026 16.3495C7.2945 16.4494 6.894 16.5695 6.50026 16.7095C6.22138 16.8122 5.98531 17.006 5.83026 17.2595C5.60504 17.8104 5.50925 18.4057 5.55026 18.9995C5.55026 20.2495 5.96026 21.7895 6.02026 22.5795C6.02152 22.6211 6.03114 22.662 6.04854 22.6998C6.06595 22.7376 6.0908 22.7715 6.12159 22.7995C6.15239 22.8275 6.18851 22.849 6.22779 22.8628C6.26708 22.8765 6.30873 22.8822 6.35026 22.8795C6.39098 22.8782 6.43104 22.8689 6.46816 22.8521C6.50528 22.8353 6.53872 22.8114 6.56658 22.7817C6.59445 22.752 6.61618 22.717 6.63053 22.6789C6.64489 22.6408 6.6516 22.6002 6.65026 22.5595C6.65026 21.8795 6.54026 20.6295 6.54026 19.4795C6.54026 16.8895 7.15026 17.6195 8.07026 17.2595C8.61986 17 9.14527 16.6921 9.64026 16.3395C10.1441 15.9813 10.601 15.5614 11.0003 15.0895C11.0282 15.0642 11.0505 15.0333 11.0657 14.9989C11.081 14.9644 11.0889 14.9272 11.0889 14.8895C11.0889 14.8518 11.081 14.8146 11.0657 14.7801C11.0505 14.7457 11.0282 14.7148 11.0003 14.6895C10.9733 14.6586 10.9398 14.634 10.9022 14.6175C10.8647 14.6009 10.8239 14.5929 10.7829 14.5938C10.7419 14.5948 10.7016 14.6047 10.6648 14.623C10.6281 14.6413 10.5958 14.6674 10.5703 14.6995Z" fill="#262623"/>
<path fill-rule="evenodd" clip-rule="evenodd" d="M20.6396 13.1296C20.1642 13.1797 19.6849 13.1797 19.2096 13.1296C17.7896 12.9296 15.8596 11.6896 16.5396 9.65964C16.7688 9.06683 17.136 8.5372 17.6108 8.11461C18.0856 7.69202 18.6542 7.38865 19.2696 7.22964C19.9193 7.03278 20.6155 7.0532 21.2525 7.28781C21.8896 7.52242 22.4327 7.95841 22.7996 8.52964C22.9818 8.82183 23.1041 9.14731 23.1595 9.48717C23.2149 9.82703 23.2022 10.1745 23.1222 10.5094C23.0422 10.8443 22.8964 11.16 22.6934 11.4382C22.4904 11.7163 22.2342 11.9513 21.9396 12.1296C21.8714 12.178 21.8249 12.2511 21.8099 12.3333C21.795 12.4156 21.8128 12.5004 21.8596 12.5696C21.8816 12.6056 21.911 12.6366 21.9459 12.6604C21.9807 12.6842 22.0201 12.7005 22.0617 12.708C22.1032 12.7156 22.1459 12.7143 22.1869 12.7042C22.2278 12.6942 22.2663 12.6756 22.2996 12.6496C22.6833 12.4346 23.0206 12.1454 23.2916 11.7988C23.5626 11.4523 23.7621 11.0554 23.8784 10.6311C23.9947 10.2068 24.0255 9.76366 23.9691 9.32737C23.9126 8.89107 23.77 8.47034 23.5496 8.08964C23.1038 7.31809 22.4177 6.7137 21.596 6.3688C20.7744 6.0239 19.8625 5.95746 18.9996 6.17964C18.2162 6.38431 17.4953 6.77877 16.9006 7.32815C16.3059 7.87754 15.8556 8.56494 15.5896 9.32964C15.4225 9.84105 15.3928 10.3874 15.5033 10.9139C15.6139 11.4404 15.8609 11.9286 16.2196 12.3296C16.0545 12.2718 15.8941 12.2016 15.7396 12.1196C15.2172 11.772 14.788 11.3016 14.4896 10.7496C14.2447 10.3088 13.9345 9.90764 13.5696 9.55964C13.2766 9.26545 12.9136 9.05054 12.5148 8.93509C12.116 8.81964 11.6944 8.80744 11.2896 8.89964C10.9578 9.03987 10.6662 9.26046 10.441 9.54153C10.2158 9.8226 10.0641 10.1553 9.99956 10.5096C9.94025 10.7358 9.94025 10.9735 9.99956 11.1996C10.1051 11.4758 10.2253 11.7462 10.3596 12.0096C10.494 12.2687 10.6443 12.5191 10.8096 12.7596C11.2205 13.3904 11.7038 13.9711 12.2496 14.4896C12.8012 15.0098 13.42 15.4538 14.0896 15.8096C14.6255 16.035 15.1729 16.232 15.7296 16.3996C15.8958 16.4593 16.0538 16.5399 16.1996 16.6396C16.3029 17.0089 16.3699 17.3874 16.3996 17.7696C16.4744 18.3666 16.5045 18.9682 16.4896 19.5696C16.4672 20.4897 16.3937 21.4077 16.2696 22.3196C16.2576 22.3939 16.2757 22.4699 16.3198 22.5308C16.3638 22.5918 16.4303 22.6327 16.5046 22.6446C16.5788 22.6566 16.6548 22.6385 16.7157 22.5944C16.7767 22.5504 16.8176 22.4839 16.8296 22.4096C16.9796 21.4896 17.1296 20.5496 17.1896 19.6096C17.2345 18.9738 17.2345 18.3355 17.1896 17.6996C17.1778 17.2874 17.1377 16.8764 17.0696 16.4696C17.0274 16.2922 16.9375 16.1297 16.8096 15.9996C16.5897 15.8119 16.3438 15.657 16.0796 15.5396C15.5796 15.3096 14.9896 15.1596 14.5596 14.9196C13.9785 14.5876 13.441 14.1845 12.9596 13.7196C12.479 13.2509 12.0468 12.735 11.6696 12.1796C11.5296 11.9596 11.3996 11.7396 11.2796 11.5096C10.8596 10.7496 10.9596 10.7896 11.0196 10.5796C11.0451 10.4212 11.1085 10.2713 11.2042 10.1425C11.2999 10.0137 11.4252 9.9098 11.5696 9.83964C11.9096 9.70964 12.3596 9.83964 12.9996 10.2896C13.6396 10.7396 14.0996 12.1096 15.3496 12.7696C15.9401 13.07 16.5975 13.2146 17.2596 13.1896C17.3561 13.2522 17.4563 13.309 17.5596 13.3596C18.0518 13.5827 18.5803 13.7148 19.1196 13.7496C19.6373 13.776 20.1563 13.7526 20.6696 13.6796C20.7061 13.676 20.7415 13.6649 20.7736 13.6472C20.8056 13.6294 20.8338 13.6053 20.8562 13.5763C20.8787 13.5472 20.895 13.514 20.9042 13.4784C20.9134 13.4429 20.9152 13.4059 20.9096 13.3696C20.9044 13.3024 20.8734 13.2399 20.8231 13.1951C20.7727 13.1503 20.7069 13.1269 20.6396 13.1296Z" fill="#262623"/>
<path fill-rule="evenodd" clip-rule="evenodd" d="M21.5404 12.7203C21.5152 12.6884 21.4832 12.6624 21.4469 12.6441C21.4105 12.6259 21.3706 12.6157 21.33 12.6144C21.2893 12.6131 21.2488 12.6207 21.2114 12.6366C21.1739 12.6526 21.1404 12.6765 21.1131 12.7067C21.0859 12.7369 21.0655 12.7727 21.0535 12.8115C21.0415 12.8504 21.0381 12.8915 21.0435 12.9318C21.049 12.9721 21.0632 13.0108 21.0851 13.0451C21.107 13.0793 21.1361 13.1084 21.1704 13.1303C22.0016 14.071 22.5251 15.2435 22.6704 16.4903C22.8008 17.2375 22.8809 17.9925 22.9104 18.7503C22.9475 19.9244 22.9175 21.0997 22.8204 22.2703C22.8148 22.3111 22.8174 22.3526 22.828 22.3923C22.8386 22.4321 22.857 22.4693 22.8821 22.5019C22.9072 22.5345 22.9386 22.5617 22.9744 22.5821C23.0101 22.6024 23.0496 22.6154 23.0904 22.6203C23.1724 22.632 23.2557 22.6114 23.3229 22.5629C23.39 22.5144 23.4357 22.4418 23.4504 22.3603C23.707 21.1721 23.8642 19.9646 23.9204 18.7503C23.9534 17.9177 23.8795 17.0842 23.7004 16.2703C23.4019 14.8771 22.6406 13.6258 21.5404 12.7203Z" fill="#262623"/>
<path fill-rule="evenodd" clip-rule="evenodd" d="M7.13978 4.65016C7.18826 4.81887 7.25185 4.98287 7.32978 5.14016C7.39983 5.29526 7.48 5.44558 7.56978 5.59016C7.79991 5.9405 8.05384 6.27463 8.32978 6.59016C8.36743 6.65319 8.42759 6.6996 8.49811 6.72001C8.56864 6.74043 8.64428 6.73333 8.70978 6.70016C8.77471 6.6643 8.82275 6.60415 8.84338 6.53291C8.864 6.46166 8.85551 6.38515 8.81978 6.32016C8.68978 5.93016 8.61978 5.55016 8.48978 5.17016C8.43346 5.00929 8.36665 4.85228 8.28978 4.70016C8.21968 4.5483 8.13951 4.40131 8.04978 4.26016C7.83978 3.91016 7.60978 3.58016 7.37978 3.26016C7.34257 3.18556 7.2777 3.12842 7.199 3.10092C7.1203 3.07342 7.03397 3.07772 6.95839 3.1129C6.88281 3.14809 6.82394 3.21138 6.79432 3.28931C6.7647 3.36724 6.76666 3.45365 6.79978 3.53016C6.91978 3.89016 6.99978 4.27016 7.13978 4.65016Z" fill="#262623"/>
<path fill-rule="evenodd" clip-rule="evenodd" d="M11.6699 4.88997C11.6698 4.96253 11.6979 5.03227 11.7483 5.0845C11.7987 5.13673 11.8673 5.16737 11.9399 5.16997C11.977 5.17272 12.0142 5.16778 12.0493 5.15545C12.0844 5.14312 12.1166 5.12367 12.1438 5.09832C12.1711 5.07297 12.1928 5.04226 12.2076 5.00813C12.2224 4.97399 12.23 4.93717 12.2299 4.89997C12.3199 4.47997 12.4299 4.08997 12.4799 3.65997C12.4901 3.48345 12.4901 3.30648 12.4799 3.12997C12.4895 2.95343 12.4895 2.7765 12.4799 2.59997C12.4799 2.18997 12.3599 1.78997 12.2999 1.36997C12.3 1.28845 12.2691 1.20995 12.2133 1.15048C12.1576 1.09101 12.0812 1.05506 11.9999 1.04997C11.9583 1.04863 11.9169 1.05565 11.8781 1.07063C11.8394 1.08561 11.804 1.10823 11.7742 1.13715C11.7443 1.16607 11.7206 1.2007 11.7044 1.23898C11.6882 1.27726 11.6798 1.3184 11.6799 1.35997C11.6099 1.77997 11.5299 2.17997 11.4899 2.59997C11.4799 2.77649 11.4799 2.95344 11.4899 3.12997C11.48 3.3065 11.48 3.48344 11.4899 3.65997C11.5099 4.07997 11.6099 4.46997 11.6699 4.88997Z" fill="#262623"/>
<path fill-rule="evenodd" clip-rule="evenodd" d="M15.3102 6.26955C15.6046 6.05806 15.8821 5.82402 16.1402 5.56955C16.2412 5.4582 16.3316 5.33767 16.4102 5.20955C16.4902 5.08955 16.5602 4.95955 16.6302 4.82955C16.7802 4.50955 16.9002 4.19955 17.0402 3.88955C17.092 3.82352 17.1167 3.74023 17.1093 3.65663C17.1018 3.57303 17.0628 3.49541 17.0002 3.43955C16.9309 3.39279 16.8461 3.37498 16.7639 3.38993C16.6817 3.40488 16.6085 3.4514 16.5602 3.51955C16.3002 3.76955 16.0602 3.99955 15.8202 4.26955C15.7302 4.37955 15.6402 4.48955 15.5602 4.60955C15.463 4.73219 15.376 4.86263 15.3002 4.99955C15.1502 5.30955 15.0502 5.61955 14.8902 5.91955C14.8645 5.94691 14.8446 5.97914 14.8317 6.01433C14.8187 6.04952 14.813 6.08695 14.8148 6.12441C14.8166 6.16187 14.8259 6.19858 14.8421 6.23238C14.8584 6.26617 14.8812 6.29636 14.9094 6.32115C14.9375 6.34594 14.9703 6.36482 15.0059 6.37668C15.0415 6.38854 15.0791 6.39313 15.1165 6.39018C15.1538 6.38723 15.1903 6.37681 15.2235 6.35952C15.2568 6.34223 15.2863 6.31844 15.3102 6.28955V6.26955Z" fill="#262623"/>
</g>
<defs>
<clipPath id="clip0_8_553">
<rect width="24" height="24" fill="white"/>
</clipPath>
</defs>
</svg>
