<svg width="24" height="24" viewBox="0 0 24 24" fill="none" xmlns="http://www.w3.org/2000/svg">
<g clip-path="url(#clip0_8_632)">
<path d="M23.9997 14.6102C24.0971 11.6927 23.9465 8.77223 23.5497 5.88021C23.5654 5.67384 23.5654 5.46658 23.5497 5.26021C23.4097 4.59021 21.3997 4.26021 20.5497 4.18021C20.4716 4.17171 20.3933 4.19418 20.3316 4.2428C20.2699 4.29142 20.2297 4.36229 20.2197 4.44021C20.1697 5.10021 21.2197 4.44021 22.8297 5.44021C22.8098 6.15094 22.8668 6.86174 22.9997 7.56021C23.2397 9.80021 23.1097 11.3502 22.9997 17.3002C21.8115 17.0416 20.5943 16.9407 19.3797 17.0002C17.115 16.9845 14.9031 17.6844 13.0597 19.0002C13.7397 16.3602 15.3997 15.6502 17.7397 14.8102C18.0048 14.7271 18.2821 14.6899 18.5597 14.7002C18.6139 14.8229 18.7097 14.9226 18.8301 14.9816C18.9505 15.0407 19.0879 15.0554 19.2181 15.0231C19.3483 14.9909 19.463 14.9137 19.5419 14.8053C19.6209 14.6968 19.659 14.564 19.6497 14.4302C19.2697 4.32021 19.6497 2.90021 19.4897 1.96021C19.3297 1.02021 18.6497 0.910207 17.6997 0.770207C16.5328 0.647835 15.3544 0.840204 14.2869 1.32732C13.2195 1.81444 12.302 2.57854 11.6297 3.54021C11.5497 3.71021 11.0797 4.75021 11.0397 4.86021C10.3573 4.33885 9.56871 3.9736 8.72971 3.79021C6.57564 3.31227 4.32045 3.66967 2.41971 4.79021C2.04926 5.03085 1.73211 5.34492 1.48787 5.71301C1.24363 6.08109 1.07748 6.49536 0.999708 6.93021C0.119708 10.4902 -0.410292 11.5402 0.409708 19.1102C0.409708 19.4202 0.409708 19.9002 0.709708 20.1902C0.776946 20.2463 0.855653 20.287 0.940304 20.3095C1.02495 20.332 1.11349 20.3356 1.19971 20.3202V21.0902C1.32971 22.8902 3.71971 21.7902 6.34971 21.5702C8.52971 21.4002 8.76971 21.8702 10.6997 22.9902C11.4942 23.2889 12.3552 23.365 13.1897 23.2102C13.8737 23.1075 14.5224 22.8398 15.0797 22.4302C21.6697 17.5802 21.4397 23.2502 22.9797 19.1802C23.051 18.9942 23.0948 18.7988 23.1097 18.6002C23.1873 18.6512 23.2769 18.6809 23.3696 18.6863C23.4622 18.6918 23.5547 18.6728 23.6378 18.6313C23.7208 18.5898 23.7915 18.5272 23.8427 18.4498C23.8939 18.3724 23.9239 18.2829 23.9297 18.1902C24.0216 16.9992 24.045 15.8039 23.9997 14.6102ZM11.8797 5.39021C14.8797 -0.249793 18.5997 2.23021 18.7597 2.39021C18.8397 2.69021 18.3897 9.47021 18.3697 10.0902L18.4597 13.5402C17.3504 13.6592 16.2782 14.0089 15.3121 14.5669C14.3459 15.1249 13.5072 15.8788 12.8497 16.7802C12.3497 17.6402 12.5197 17.7302 12.4297 17.1602C12.4097 17.0602 11.8397 5.47021 11.8797 5.39021ZM1.07971 9.73021C1.36971 8.62021 1.72971 5.80021 2.68971 5.48021C5.48971 4.54021 8.28971 4.31021 10.8897 5.73021C11.1982 6.58866 11.3375 7.49878 11.2997 8.41021C11.2997 10.4602 11.3597 16.6502 11.5997 18.5102C10.0078 17.7843 8.26793 17.4418 6.51971 17.5102C5.13687 17.6331 3.78461 17.988 2.51971 18.5602C2.39971 18.5602 1.83971 19.1302 1.43971 19.3502C1.43971 19.2102 1.32971 19.0502 1.31971 18.9702C0.999708 16.2502 0.529708 12.6702 1.07971 9.73021ZM21.6397 19.5602C18.7597 18.4102 16.4697 20.0402 14.4297 21.5002C13.9937 21.7919 13.5026 21.9912 12.9867 22.0858C12.4707 22.1804 11.9408 22.1683 11.4297 22.0502C7.55971 19.3102 6.05971 20.6202 2.55971 21.1502C2.37971 21.1502 2.23971 21.2402 2.14971 21.1502C2.05971 21.0602 1.95971 20.4802 1.72971 20.1502C2.15971 19.9302 2.72971 19.5802 2.86971 19.5402C4.33971 19.0802 5.99971 18.0002 9.59971 19.0002C12.2597 19.6902 12.1197 20.8502 13.0197 20.3602C14.3597 19.6402 16.2897 17.4802 22.3297 18.2102C22.2691 18.2831 22.2371 18.3755 22.2397 18.4702C21.6497 19.5302 21.6797 19.4602 21.6397 19.5602Z" fill="#262623"/>
<path d="M3.65014 9.00059C4.65014 8.86059 4.57014 8.37059 5.89014 8.37059C6.62604 8.42399 7.352 8.57187 8.05014 8.81059C8.24014 8.74059 8.38014 8.66059 8.38014 8.47059C8.38014 8.04059 7.78014 7.60059 6.87014 7.47059C4.24014 6.98059 3.99014 8.24059 3.49014 8.47059C3.44446 8.50821 3.41093 8.5585 3.39376 8.61513C3.37659 8.67176 3.37656 8.73221 3.39366 8.78886C3.41076 8.84552 3.44424 8.89585 3.48988 8.93352C3.53552 8.97119 3.59128 8.99453 3.65014 9.00059Z" fill="#262623"/>
<path d="M3.64989 12.5305C4.64989 12.3905 4.56989 11.9005 5.88989 11.9005C6.62579 11.9539 7.35175 12.1018 8.0499 12.3405C8.2399 12.2805 8.3799 12.1905 8.3799 12.0005C8.3799 11.5705 7.77989 11.1405 6.86989 11.0005C4.23989 10.5105 3.98989 11.7605 3.48989 12.0005C3.44074 11.9955 3.3911 12.0026 3.34538 12.0214C3.29966 12.0401 3.25928 12.0699 3.22782 12.108C3.19637 12.1461 3.17481 12.1914 3.16507 12.2398C3.15533 12.2883 3.1577 12.3384 3.17198 12.3857C3.18626 12.433 3.21201 12.476 3.24693 12.511C3.28185 12.5459 3.32486 12.5717 3.37215 12.5861C3.41944 12.6004 3.46953 12.6028 3.51799 12.5931C3.56644 12.5835 3.61175 12.5619 3.64989 12.5305Z" fill="#262623"/>
<path d="M3.64934 16.1C4.64934 15.96 4.56933 15.47 5.88933 15.47C6.62445 15.5289 7.34972 15.6767 8.04934 15.91C8.23934 15.85 8.37933 15.76 8.37933 15.58C8.37933 15.14 7.77933 14.71 6.86933 14.58C4.23933 14.09 3.98934 15.35 3.48934 15.58C3.43939 15.5731 3.38852 15.5789 3.34142 15.5969C3.29432 15.6149 3.25251 15.6444 3.21986 15.6829C3.18721 15.7213 3.16476 15.7673 3.1546 15.8167C3.14443 15.8661 3.14688 15.9172 3.1617 15.9654C3.17653 16.0136 3.20326 16.0572 3.23943 16.0924C3.27559 16.1275 3.32003 16.1529 3.36863 16.1663C3.41723 16.1798 3.46842 16.1807 3.51748 16.1691C3.56655 16.1575 3.61189 16.1337 3.64934 16.1Z" fill="#262623"/>
</g>
<defs>
<clipPath id="clip0_8_632">
<rect width="24" height="24" fill="white"/>
</clipPath>
</defs>
</svg>
