<svg width="24" height="24" viewBox="0 0 24 24" fill="none" xmlns="http://www.w3.org/2000/svg">
<g clip-path="url(#clip0_30_31)">
<path d="M19.4201 10.7102C19.4008 10.6225 19.3485 10.5455 19.2741 10.4952C19.1996 10.445 19.1087 10.4253 19.0201 10.4402C18.9751 10.4474 18.9321 10.4636 18.8935 10.4878C18.8549 10.5119 18.8216 10.5436 18.7954 10.5809C18.7693 10.6182 18.751 10.6604 18.7415 10.705C18.732 10.7495 18.7315 10.7955 18.7401 10.8402C18.8768 11.8575 18.9336 12.884 18.9101 13.9102C18.9101 16.8202 18.6401 20.3902 18.6301 21.2502C18.6301 21.5402 18.3101 21.6402 17.9701 21.7702C17.3201 22.0102 16.4701 22.1202 15.9701 22.2602C14.8326 22.5469 13.671 22.7277 12.5001 22.8002C10.7401 22.9202 8.96012 22.8602 7.13012 22.8002C6.33011 22.8002 4.85011 22.8602 3.53011 22.7502C2.83631 22.7388 2.1535 22.575 1.53011 22.2702C1.47403 22.0664 1.43061 21.8594 1.40011 21.6502C1.27457 20.3208 1.23116 18.9849 1.27011 17.6502C1.27011 14.8302 1.45011 11.5702 1.61011 10.0302C1.62223 9.19551 1.69913 8.363 1.84011 7.54021C1.94268 7.09477 2.21546 6.70714 2.60011 6.46021C3.79705 5.95573 5.08125 5.69073 6.38012 5.68021C8.98011 5.51021 11.8401 5.68021 12.4701 5.68021C12.5415 5.66722 12.6061 5.62958 12.6527 5.57384C12.6992 5.5181 12.7247 5.44781 12.7247 5.37521C12.7247 5.30261 12.6992 5.23231 12.6527 5.17657C12.6061 5.12084 12.5415 5.08319 12.4701 5.07021C10.0872 4.89815 7.69592 4.87477 5.31011 5.00021C4.2268 5.03538 3.16053 5.27987 2.17011 5.72021C1.87821 5.89773 1.62447 6.13147 1.42362 6.40785C1.22277 6.68423 1.07882 6.99775 1.00011 7.33021C0.812023 8.20938 0.694978 9.10226 0.650115 10.0002C0.430115 11.8002 0.140115 15.9102 0.130115 19.0002C0.0880913 20.2065 0.178634 21.4137 0.400115 22.6002C0.458431 22.8469 0.595297 23.068 0.790115 23.2302C1.39026 23.6173 2.07791 23.8476 2.79011 23.9002C4.22287 24.031 5.66284 24.0644 7.10011 24.0002C8.96011 24.0002 10.7701 24.0002 12.5501 23.8602C13.7838 23.7589 15.0056 23.5446 16.2001 23.2202C17.0485 23.0532 17.8789 22.8054 18.6801 22.4802C18.9213 22.3789 19.129 22.2117 19.2794 21.9976C19.4297 21.7836 19.5166 21.5314 19.5301 21.2702C19.5301 20.4102 19.7001 16.8402 19.6501 13.9302C19.6548 12.8526 19.5779 11.7762 19.4201 10.7102Z" fill="#262623"/>
<path d="M23.6005 1.58994C23.5246 1.14494 23.3153 0.733472 23.0005 0.409937C21.9209 -0.0641692 20.7144 -0.166178 19.5705 0.119937C17.1684 0.516779 14.8197 1.18783 12.5705 2.11994C12.4347 2.17666 12.3222 2.27778 12.2514 2.40675C12.1805 2.53573 12.1556 2.68492 12.1805 2.82994C12.2023 2.94161 12.2486 3.04705 12.316 3.1387C12.3835 3.23034 12.4704 3.3059 12.5705 3.35994C13.5438 3.72537 14.5478 4.00314 15.5705 4.18994C15.7334 4.23671 15.8909 4.30039 16.0405 4.37994C15.1705 5.37994 13.8305 7.01994 12.4005 8.82994C7.65051 14.6699 7.45051 14.9999 8.05051 15.8999C8.41051 16.4599 9.27051 16.6499 10.1205 15.8999C15.1205 11.8999 17.9905 9.72994 19.4805 8.55994L20.0005 8.16994C20.2893 8.87854 20.662 9.54999 21.1105 10.1699C21.2538 10.3695 21.4654 10.5094 21.7052 10.5629C21.945 10.6164 22.196 10.5797 22.4105 10.4599C22.8812 10.071 23.2085 9.53607 23.3405 8.93994C23.6363 7.82287 23.8007 6.67511 23.8305 5.51994C23.9133 4.20546 23.8361 2.88579 23.6005 1.58994ZM22.7005 5.47994C22.6837 6.53879 22.5462 7.59227 22.2905 8.61994C22.2288 8.88526 22.1312 9.14095 22.0005 9.37994C21.9005 9.21994 21.6205 9.03994 21.4805 8.78994C21.0905 8.10994 20.7505 7.29994 20.5805 7.04994C20.5327 6.99137 20.4724 6.94418 20.4041 6.91177C20.3358 6.87936 20.2611 6.86254 20.1855 6.86254C20.1099 6.86254 20.0352 6.87936 19.9669 6.91177C19.8986 6.94418 19.8383 6.99137 19.7905 7.04994C19.4953 7.34651 19.1814 7.62375 18.8505 7.87994C17.3905 8.99994 14.5105 11.2399 9.64051 15.3799C9.23051 15.7199 8.83051 15.7699 8.64051 15.5099C8.25051 14.9299 8.86051 14.1199 12.9005 9.26994C14.6705 7.15994 16.2805 5.26994 17.1105 4.43994C17.1779 4.35638 17.2146 4.25227 17.2146 4.14494C17.2146 4.0376 17.1779 3.9335 17.1105 3.84994C16.8259 3.59782 16.4817 3.4223 16.1105 3.33994C15.4605 3.13994 14.1105 3.01994 13.4505 2.80994C15.1687 2.209 16.9306 1.74096 18.7205 1.40994C19.6092 1.22942 20.5137 1.13896 21.4205 1.13994C21.7125 1.12682 22.0026 1.19244 22.2605 1.32994C22.3605 1.39994 22.3805 1.59994 22.4405 1.84994C22.6742 3.0449 22.7615 4.26387 22.7005 5.47994Z" fill="#262623"/>
</g>
<defs>
<clipPath id="clip0_30_31">
<rect width="24" height="24" fill="white"/>
</clipPath>
</defs>
</svg>
