<svg width="24" height="24" viewBox="0 0 24 24" fill="none" xmlns="http://www.w3.org/2000/svg">
<g clip-path="url(#clip0_15_1934)">
<path fill-rule="evenodd" clip-rule="evenodd" d="M22.9398 1.81954C22.2354 0.990049 21.2984 0.390903 20.2498 0.0995382C19.4955 -0.0819938 18.7018 -0.000862122 17.9998 0.329538C17.3159 0.622468 16.7271 1.10038 16.2998 1.70954C16.1348 1.91672 15.9876 2.13751 15.8598 2.36954C15.7991 2.48378 15.7649 2.61025 15.7598 2.73954C15.791 2.84814 15.847 2.94802 15.9234 3.03132C15.9997 3.11461 16.0944 3.17904 16.1999 3.21954C16.8004 3.48471 17.3848 3.78524 17.9499 4.11954C18.0307 4.17126 18.1289 4.18872 18.2226 4.16809C18.3164 4.14746 18.3981 4.09043 18.4499 4.00954C18.5016 3.92865 18.519 3.83052 18.4984 3.73676C18.4778 3.64299 18.4207 3.56126 18.3398 3.50954C17.859 3.1841 17.3617 2.8837 16.8498 2.60954C16.9298 2.46954 16.9999 2.29954 17.0399 2.23954C17.3881 1.7829 17.8601 1.43583 18.3998 1.23954C18.8849 1.03708 19.4244 1.00535 19.9298 1.14954C20.7469 1.41463 21.4672 1.91569 21.9998 2.58954C22.518 3.2233 22.769 4.03387 22.6999 4.84954C22.7147 4.99917 22.7147 5.14991 22.6999 5.29954C22.6838 5.39883 22.657 5.49608 22.6199 5.58954C22.5042 5.56892 22.3905 5.53882 22.2799 5.49954C21.5896 5.30447 20.9199 5.04326 20.2799 4.71954L19.9698 4.57954C19.8908 4.53571 19.7999 4.51792 19.7101 4.52869C19.6204 4.53946 19.5363 4.57825 19.4698 4.63954C19.2598 4.85954 18.5798 5.74954 18.1598 6.22954C15.5098 3.99954 11.7698 3.59954 9.04985 3.99954C7.80405 4.20204 6.63617 4.7376 5.66985 5.54954C5.32985 5.20954 4.82985 4.61954 4.59985 4.44954C4.52691 4.39742 4.4395 4.3694 4.34985 4.3694C4.2602 4.3694 4.17279 4.39742 4.09985 4.44954L3.82985 4.66954C3.25804 5.14541 2.6457 5.57036 1.99985 5.93954C1.89985 5.93954 1.76985 6.06954 1.66985 6.10954C1.62387 6.02576 1.58377 5.93888 1.54985 5.84954C1.50183 5.70518 1.46177 5.55829 1.42985 5.40954C1.22873 4.60989 1.3471 3.76335 1.75985 3.04954C2.1796 2.31569 2.80545 1.72113 3.55985 1.33954C4.03251 1.11191 4.56858 1.05196 5.07985 1.16954C5.63375 1.26356 6.15199 1.50541 6.57985 1.86954C6.63985 1.92954 6.75985 2.13954 6.87985 2.25954C6.52435 2.6963 6.0902 3.06261 5.59985 3.33954C5.50498 3.35667 5.42055 3.41015 5.36452 3.48859C5.30849 3.56703 5.28529 3.66425 5.29985 3.75954C5.31923 3.85323 5.37324 3.93617 5.4511 3.99179C5.52896 4.0474 5.62493 4.07159 5.71985 4.05954C6.29526 3.80617 6.81773 3.44655 7.25985 2.99954L7.74985 2.54954C7.80779 2.49536 7.85171 2.42792 7.87784 2.35302C7.90397 2.27812 7.91152 2.198 7.89985 2.11954C7.87331 1.99239 7.81864 1.8728 7.73985 1.76954C7.57446 1.5631 7.39397 1.36923 7.19985 1.18954C6.6665 0.672456 6.00298 0.309593 5.27985 0.139538C4.52359 -0.066138 3.71997 -0.00974396 2.99985 0.299538C2.01781 0.767849 1.1991 1.52037 0.649849 2.45954C0.107522 3.44596 -0.025364 4.60603 0.279849 5.68954C0.346158 5.93133 0.436613 6.16584 0.549849 6.38954C0.632758 6.56416 0.740546 6.72584 0.869849 6.86954C1.04248 7.03411 1.26515 7.13628 1.50249 7.15984C1.73983 7.18339 1.97824 7.12697 2.17985 6.99954C2.98239 6.51628 3.72432 5.93885 4.38985 5.27954C4.61985 5.47954 4.90985 5.75954 5.15985 5.98954C4.15102 6.99859 3.40877 8.24253 2.99985 9.60954C2.14767 12.3518 2.40993 15.3193 3.72985 17.8695C3.97166 18.3054 4.26365 18.7115 4.59985 19.0795L3.69985 21.8095C3.61998 22.0786 3.58617 22.3592 3.59985 22.6395C3.62667 22.8585 3.72511 23.0624 3.87985 23.2195C3.99326 23.334 4.1251 23.4287 4.26985 23.4995C4.41985 23.5795 4.59985 23.6395 4.73985 23.6995C5.00361 23.8189 5.2782 23.9126 5.55985 23.9795C5.72903 24.0332 5.91067 24.0332 6.07985 23.9795C6.38635 23.8319 6.6694 23.6398 6.91985 23.4095C7.24055 23.0954 7.54114 22.7614 7.81985 22.4095L8.45985 21.5895C9.58124 21.9707 10.7556 22.1731 11.9398 22.1895C13.4423 22.2193 14.9333 21.9225 16.3098 21.3195C16.3098 21.3795 16.4498 21.4695 16.4798 21.4895L17.2598 22.1995C17.597 22.4931 17.951 22.7669 18.3198 23.0195C18.6107 23.2029 18.9276 23.3412 19.2598 23.4295C19.4378 23.4611 19.6209 23.4438 19.7899 23.3795C20.0518 23.2543 20.3027 23.1071 20.5399 22.9395C20.7172 22.8389 20.8846 22.7217 21.0399 22.5895C21.1364 22.5089 21.2206 22.4146 21.2899 22.3095C21.4097 22.126 21.4659 21.9082 21.4499 21.6895C21.4101 21.4148 21.3185 21.1501 21.1798 20.9095L19.9998 18.7995C19.9578 18.7276 19.8901 18.6742 19.8104 18.6501C19.7306 18.626 19.6447 18.6329 19.5698 18.6695C19.4943 18.708 19.4371 18.775 19.4109 18.8556C19.3846 18.9362 19.3915 19.0239 19.4298 19.0995C19.5798 19.4595 19.7299 19.8195 19.8699 20.1895C20.0099 20.5595 20.1098 20.9295 20.2298 21.2895C20.3498 21.6495 20.4798 21.6995 19.9298 22.0595C19.5698 22.2795 19.3998 22.2495 18.9298 22.0595C18.5638 21.883 18.2097 21.6825 17.8699 21.4595L16.9998 20.9095C18.2857 20.2156 19.3315 19.1489 19.9998 17.8495C20.0436 17.7633 20.0513 17.6633 20.0213 17.5714C19.9913 17.4795 19.926 17.4033 19.8398 17.3595C19.7537 17.3158 19.6536 17.3081 19.5617 17.3381C19.4698 17.3681 19.3936 17.4333 19.3498 17.5195C17.9498 20.1995 14.9598 21.3295 11.9998 21.2195C9.03985 21.1095 5.99985 19.7295 4.74985 17.3395C3.60628 15.0631 3.39116 12.4315 4.14985 9.99954C4.4572 8.79677 5.09803 7.70527 5.99855 6.85075C6.89906 5.99624 8.02263 5.41346 9.23985 5.16954C11.7398 4.70954 15.2398 4.98954 17.5798 6.99954C19.3898 8.54954 20.5198 11.1295 20.0698 15.1395C20.0612 15.224 20.0855 15.3086 20.1377 15.3757C20.1898 15.4427 20.2658 15.4871 20.3498 15.4995C20.3919 15.5051 20.4347 15.5023 20.4757 15.4912C20.5166 15.4801 20.555 15.461 20.5885 15.4349C20.622 15.4089 20.65 15.3764 20.6708 15.3394C20.6916 15.3024 20.7049 15.2617 20.7098 15.2195C21.2798 11.1595 20.2399 8.44954 18.5299 6.68954C18.8899 6.33954 19.3998 5.77954 19.7198 5.44954C20.5096 5.92955 21.3561 6.30915 22.2398 6.57954C22.4584 6.65484 22.6949 6.66067 22.9169 6.59621C23.139 6.53176 23.3356 6.40018 23.4798 6.21954C23.5853 6.05551 23.6661 5.87696 23.7198 5.68954C23.7897 5.44442 23.8365 5.19334 23.8598 4.93954C23.9693 3.8196 23.6394 2.70094 22.9398 1.81954ZM7.66985 21.2495L7.16985 21.7395C6.86985 22.0095 6.51985 22.2395 6.23985 22.5295C5.95985 22.8195 5.54985 22.7095 5.16985 22.5295C4.60985 22.2795 4.63985 22.3795 5.09985 19.9295V19.6495C5.86106 20.3228 6.72977 20.8636 7.66985 21.2495Z" fill="#262623"/>
<path fill-rule="evenodd" clip-rule="evenodd" d="M10.2892 14.1391C10.3159 14.3403 10.403 14.5286 10.5392 14.6791C10.6974 14.8237 10.9049 14.9025 11.1192 14.8991C11.3448 14.8682 11.5685 14.8248 11.7892 14.7691C12.1598 14.7001 12.5336 14.6501 12.9092 14.6191L14.0792 14.5291H14.9992C15.1956 14.5334 15.3914 14.5064 15.5792 14.4491H15.6892C15.7569 14.4112 15.8114 14.3536 15.8454 14.2839C15.8793 14.2142 15.8912 14.1357 15.8792 14.0591C15.8712 13.9996 15.8476 13.9432 15.8107 13.8958C15.7738 13.8483 15.725 13.8115 15.6692 13.7891C15.4492 13.7091 15.1992 13.7891 15.1492 13.7891L14.1492 13.6591C13.6592 13.6591 13.1492 13.5991 12.7092 13.5991C12.3762 13.5787 12.0423 13.5787 11.7092 13.5991C11.6278 13.6211 11.5476 13.6478 11.4692 13.6791C11.5392 12.6791 11.6392 14.1491 11.2792 10.3291L11.2292 9.2091V8.6791C11.2347 8.64599 11.2347 8.61221 11.2292 8.5791C11.2333 8.52138 11.2154 8.46425 11.1792 8.4191C11.1792 8.3591 10.6492 8.1791 10.5792 8.5991C10.5792 8.7391 10.5192 9.1391 10.5092 9.2091L10.3892 10.3291C10.3892 10.8991 10.2992 11.4591 10.2992 12.0291C10.2793 12.4155 10.2793 12.8027 10.2992 13.1891C10.2792 13.3591 10.2492 13.8391 10.2892 14.1391Z" fill="#262623"/>
</g>
<defs>
<clipPath id="clip0_15_1934">
<rect width="24" height="24" fill="white"/>
</clipPath>
</defs>
</svg>
