<svg width="24" height="24" viewBox="0 0 24 24" fill="none" xmlns="http://www.w3.org/2000/svg">
<g clip-path="url(#clip0_8_1348)">
<path fill-rule="evenodd" clip-rule="evenodd" d="M23.89 6.91032C23.8736 5.18729 23.7467 3.46709 23.51 1.76032C23.4665 1.48478 23.3567 1.22396 23.19 1.00032C22.8205 0.715308 22.3825 0.532525 21.92 0.470318C18.5858 0.031059 15.2206 -0.126165 11.86 0.000318252C8.51535 0.00710023 5.17478 0.234259 1.86 0.680318C1.40221 0.730653 0.968421 0.911108 0.61 1.20032C0.2 1.79032 0 5.58032 0 9.84032C0 15.5303 0.37 22.0503 0.72 22.7403C0.997803 23.0634 1.38682 23.2704 1.81 23.3203C4.41277 23.7351 7.04439 23.9424 9.68 23.9403C13.42 24.0303 17.53 23.9403 20.14 23.7503C21.0941 23.7258 22.0386 23.5537 22.94 23.2403C23.2996 23.0053 23.5651 22.6513 23.69 22.2403C23.8948 21.5522 23.9992 20.8382 24 20.1203C24 18.8603 24.06 12.0003 23.89 6.91032ZM22.82 20.1003C22.8324 20.5455 22.8022 20.9909 22.73 21.4303C22.67 21.7603 22.6 22.1103 22.36 22.2503C21.7477 22.4431 21.1117 22.5508 20.47 22.5703C18.39 22.7703 15.12 22.8703 11.86 22.8703C8.64009 22.9461 5.41884 22.7957 2.22 22.4203C1.98563 22.3741 1.755 22.3106 1.53 22.2303C1.18 21.2903 0.82 15.2303 0.73 9.83032C0.65 5.76032 0.73 2.13032 1.11 1.59032C1.18 1.49032 1.49 1.46032 1.94 1.38032C5.23517 0.991171 8.55221 0.817469 11.87 0.860318C14.8081 0.805856 17.7468 0.929416 20.67 1.23032C21.289 1.25578 21.8985 1.39123 22.47 1.63032C22.5364 1.90714 22.5865 2.18762 22.62 2.47032C22.74 3.47032 22.81 5.09032 22.85 6.94032C23 12.0003 22.86 18.8403 22.82 20.1003Z" fill="#BFBCAC"/>
<path fill-rule="evenodd" clip-rule="evenodd" d="M18.81 4.84059C17.28 6.10059 15.58 7.59059 13.92 9.14059C13.4 9.63059 12.92 10.1406 12.39 10.6306C12.06 10.2906 11.74 9.94059 11.39 9.63059C9.18998 7.41059 7.08998 5.50059 6.09998 4.69059C6.07289 4.66215 6.04031 4.6395 6.00421 4.62403C5.96811 4.60856 5.92925 4.60059 5.88998 4.60059C5.8507 4.60059 5.81184 4.60856 5.77574 4.62403C5.73964 4.6395 5.70706 4.66215 5.67998 4.69059C5.62501 4.74666 5.59422 4.82206 5.59422 4.90059C5.59422 4.97911 5.62501 5.05451 5.67998 5.11059C6.52998 5.91059 8.15998 7.79059 10.07 9.85059L11.54 11.4306C11 12.0006 10.5 12.5506 9.99998 13.0906C8.16998 15.0906 6.63998 16.8506 5.65998 17.9206C5.60501 17.9767 5.57422 18.0521 5.57422 18.1306C5.57422 18.2091 5.60501 18.2845 5.65998 18.3406C5.68706 18.369 5.71964 18.3917 5.75574 18.4071C5.79184 18.4226 5.8307 18.4306 5.86998 18.4306C5.90925 18.4306 5.94811 18.4226 5.98421 18.4071C6.02031 18.3917 6.05289 18.369 6.07998 18.3406C7.24998 17.2306 9.23998 15.3406 11.43 13.2006C11.74 12.9006 12.06 12.5706 12.37 12.2606L13.09 12.9906C15.17 15.1206 17.17 17.0506 18.24 18.0506C18.3048 18.1082 18.3892 18.1388 18.4758 18.1363C18.5625 18.1337 18.6449 18.0982 18.7062 18.0369C18.7676 17.9755 18.8031 17.8931 18.8057 17.8064C18.8082 17.7198 18.7776 17.6354 18.72 17.5706C17.8 16.5706 16.2 14.7406 14.38 12.7606L13.17 11.4506L14.55 10.0006C16.17 8.35059 17.77 6.69059 19.26 5.32059C19.2941 5.29104 19.3221 5.25506 19.3423 5.21469C19.3626 5.17433 19.3747 5.13037 19.3779 5.08533C19.3812 5.0403 19.3755 4.99506 19.3613 4.95221C19.3471 4.90936 19.3245 4.86973 19.295 4.83559C19.2654 4.80144 19.2294 4.77345 19.1891 4.75322C19.1487 4.73298 19.1048 4.72089 19.0597 4.71764C19.0147 4.71439 18.9695 4.72004 18.9266 4.73427C18.8837 4.74851 18.8441 4.77104 18.81 4.80059V4.84059Z" fill="#BFBCAC"/>
</g>
<defs>
<clipPath id="clip0_8_1348">
<rect width="24" height="24" fill="white"/>
</clipPath>
</defs>
</svg>
