<svg width="24" height="24" viewBox="0 0 24 24" fill="none" xmlns="http://www.w3.org/2000/svg">
<g clip-path="url(#clip0_8_1396)">
<path d="M10.7504 22.1204C11.475 20.9472 12.5586 20.0389 13.8404 19.5304C14.7215 19.1065 15.6428 18.7715 16.5904 18.5304C17.6921 18.1666 18.8407 17.9645 20.0004 17.9304C20.4404 17.8604 20.4004 17.2804 19.8804 17.2404C18.7266 17.0898 17.5554 17.144 16.4204 17.4004C15.7645 17.5274 15.1217 17.7148 14.5004 17.9604C13.8702 18.208 13.267 18.5196 12.7004 18.8904C11.4637 19.6016 10.4889 20.6921 9.92041 22.0004C9.78041 22.5204 10.5404 22.4804 10.7504 22.1204Z" fill="#262623"/>
<path d="M18.45 14.2605C16.4072 13.4417 14.2465 12.9555 12.05 12.8205V12.7705C12.9784 10.828 13.7704 8.82312 14.42 6.77047C14.9965 5.18418 14.9751 3.44217 14.36 1.87047C13.9 0.930472 14.16 0.930472 13.71 0.520472C13.2302 0.129654 12.6161 -0.0570867 12 0.000472063C11.2842 0.0581657 10.5786 0.206002 9.89996 0.440472C8.58396 0.922716 7.32879 1.55701 6.15996 2.33047C4.98171 3.04726 3.86459 3.86002 2.81996 4.76047C2.75878 4.82541 2.72471 4.91126 2.72471 5.00047C2.72471 5.08969 2.75878 5.17553 2.81996 5.24047C2.88369 5.30398 2.96999 5.33964 3.05996 5.33964C3.14993 5.33964 3.23623 5.30398 3.29996 5.24047C4.34123 4.43155 5.44465 3.70597 6.59996 3.07047C7.72538 2.39147 8.92703 1.84771 10.18 1.45047C10.7902 1.2618 11.4219 1.15092 12.06 1.12047C12.3741 1.09256 12.6874 1.18158 12.94 1.37047C13 1.37047 12.94 1.50047 12.94 1.57047C12.8999 1.69763 12.8427 1.81874 12.77 1.93047C12.615 2.15809 12.441 2.37219 12.25 2.57047C11.2219 3.34855 10.0997 3.99366 8.90996 4.49047C6.41996 5.69047 3.55996 6.89047 3.42996 6.92047C3.22855 6.96464 3.02493 6.99802 2.81996 7.02047H2.46996C2.38996 7.02047 2.46996 6.79047 2.54996 6.54047C2.56666 6.5044 2.57602 6.46537 2.57751 6.42566C2.579 6.38594 2.57257 6.34632 2.55862 6.3091C2.54466 6.27188 2.52345 6.23781 2.49621 6.20886C2.46898 6.17992 2.43626 6.15667 2.39996 6.14047C2.36389 6.12377 2.32486 6.11441 2.28514 6.11292C2.24542 6.11144 2.20581 6.11786 2.16859 6.13181C2.13137 6.14577 2.0973 6.16698 2.06835 6.19422C2.0394 6.22146 2.01616 6.25417 1.99996 6.29047C1.86591 6.5466 1.7959 6.83139 1.7959 7.12047C1.7959 7.40956 1.86591 7.69434 1.99996 7.95047C2.66666 9.35705 3.74402 10.5285 5.08996 11.3105C6.85625 12.3767 8.78504 13.1469 10.8 13.5905C9.66882 15.5976 8.83034 17.7561 8.30996 20.0005C7.99996 21.5505 8.13996 22.8905 8.81996 23.5405C9.07133 23.7313 9.35816 23.8703 9.66375 23.9493C9.96934 24.0283 10.2876 24.0457 10.6 24.0005C12.5551 23.7225 14.4527 23.1316 16.22 22.2505C18.0076 21.4675 19.6879 20.4594 21.22 19.2505C21.94 18.6005 22.22 17.9705 22.15 17.5705C21.93 16.3505 20.53 15.1305 18.45 14.2605ZM5.50996 10.6705C4.26282 9.98262 3.24951 8.93798 2.59996 7.67047C2.90561 7.70586 3.21431 7.70586 3.51996 7.67047C5.83024 6.91386 8.09413 6.02233 10.3 5.00047C11.3038 4.58809 12.2408 4.02863 13.08 3.34047C13.3739 3.04249 13.6262 2.70611 13.83 2.34047C14.1956 3.33697 14.2548 4.42006 14 5.45047C13.3674 7.83063 12.4684 10.1318 11.32 12.3105C11.25 12.4705 11.19 12.6105 11.15 12.7305C9.16892 12.3606 7.26302 11.6645 5.50996 10.6705ZM20.27 18.5305C18.4781 19.8521 16.5216 20.9346 14.45 21.7505C13.274 22.2576 12.0421 22.6235 10.78 22.8405C10.3827 22.9454 9.9612 22.9065 9.58996 22.7305C9.26996 22.5505 9.23996 22.0605 9.21996 21.5605C9.2273 20.7628 9.33823 19.9695 9.54996 19.2005C10.0192 17.3943 10.6901 15.6467 11.55 13.9905L11.7 13.7205C13.8675 13.8749 15.9954 14.3815 18 15.2205C19.1738 15.6046 20.1891 16.3635 20.89 17.3805C21 17.4705 21.08 17.8705 20.27 18.5305Z" fill="#262623"/>
</g>
<defs>
<clipPath id="clip0_8_1396">
<rect width="24" height="24" fill="white"/>
</clipPath>
</defs>
</svg>
