<svg width="24" height="24" viewBox="0 0 24 24" fill="none" xmlns="http://www.w3.org/2000/svg">
<g clip-path="url(#clip0_8_653)">
<path fill-rule="evenodd" clip-rule="evenodd" d="M23.6901 2.72963C23.6851 2.26337 23.5537 1.80721 23.3101 1.40963C22.6131 0.968091 21.8216 0.697412 21.0001 0.619628C18.0193 0.193518 15.0112 -0.0137029 12.0001 -0.000372216C7.25011 -0.000372216 2.42011 0.379628 0.920114 1.38963C0.580118 1.77769 0.388775 2.27376 0.380114 2.78963C0.155697 4.47013 0.0487712 6.16424 0.0601141 7.85963C0.000114064 13.8196 0.560114 21.9996 0.940114 22.7096C1.21065 23.0278 1.58715 23.2374 2.00011 23.2996C4.57716 23.7415 7.18556 23.9756 9.80011 23.9996C13.4901 24.0996 17.5501 24.0496 20.1301 23.8496C21.0746 23.836 22.0105 23.6671 22.9001 23.3496C23.0253 23.2728 23.126 23.1618 23.1901 23.0296C23.3191 22.6743 23.4063 22.3051 23.4501 21.9296C23.6901 20.1296 23.8701 16.2396 23.9201 12.3496C24.0093 9.14114 23.9325 5.93019 23.6901 2.72963ZM22.8401 10.1696C22.7901 14.4996 22.6101 19.3096 22.3301 21.5096C22.3301 21.8496 22.2101 22.1996 22.1701 22.3596C21.6089 22.4948 21.0365 22.5785 20.4601 22.6096C18.4001 22.7996 15.1801 22.8796 11.9601 22.8696C8.77952 22.9284 5.59866 22.768 2.44011 22.3896C2.20812 22.3472 1.9805 22.2836 1.76011 22.1996C1.42011 21.2696 0.940114 15.1996 0.760114 9.94963C0.67605 7.72807 0.736176 5.5034 0.940114 3.28963C1.03011 2.55963 1.10011 2.04963 1.28011 1.92963C2.76011 0.999628 7.42011 0.739628 12.0001 0.829628C14.934 0.858806 17.8618 1.10279 20.7601 1.55963C21.378 1.62153 21.9804 1.79073 22.5401 2.05963C22.5401 2.14963 22.6201 2.39963 22.6501 2.62963C22.8401 3.99963 22.8801 6.99963 22.8401 10.1696Z" fill="#262623"/>
<path fill-rule="evenodd" clip-rule="evenodd" d="M10.0001 4.10988C8.77016 4.32606 7.62749 4.88882 6.70635 5.73201C5.78522 6.5752 5.12389 7.6638 4.80009 8.86988C4.08708 11.1978 4.32063 13.713 5.45009 15.8699C6.05219 16.8298 6.86476 17.6401 7.82631 18.2395C8.78785 18.839 9.87316 19.2118 11.0001 19.3299C13.1866 19.7137 15.4369 19.2371 17.2801 17.9999C17.3544 17.9468 17.4045 17.8665 17.4195 17.7764C17.4345 17.6864 17.4131 17.5941 17.3601 17.5199C17.307 17.4456 17.2267 17.3955 17.1367 17.3805C17.0466 17.3655 16.9544 17.3868 16.8801 17.4399C15.1565 18.5116 13.0835 18.8702 11.1001 18.4399C10.1237 18.3093 9.18916 17.9611 8.36531 17.4211C7.54147 16.8811 6.84937 16.1631 6.34009 15.3199C5.39814 13.4023 5.23682 11.194 5.89009 9.15988C6.1486 8.15991 6.68493 7.25357 7.43705 6.5457C8.18916 5.83783 9.12631 5.35736 10.1401 5.15988C11.3385 4.91304 12.5755 4.92265 13.7699 5.18808C14.9643 5.4535 16.089 5.96872 17.0701 6.69988C18.5701 7.98988 19.5101 10.1199 19.1501 13.4499C19.1031 13.978 18.9923 14.4984 18.8201 14.9999C18.6482 15.4717 18.409 15.9163 18.1101 16.3199C18.0618 16.3851 18.041 16.4667 18.0522 16.5471C18.0635 16.6275 18.1058 16.7003 18.1701 16.7499C18.2366 16.7971 18.319 16.8162 18.3995 16.8031C18.4799 16.79 18.552 16.7458 18.6001 16.6799C18.9432 16.2395 19.2195 15.7509 19.4201 15.2299C19.628 14.7098 19.7691 14.1654 19.8401 13.6099C20.3701 9.91988 19.3301 7.52988 17.7001 6.04988C16.6261 5.20162 15.3848 4.59022 14.0577 4.25586C12.7306 3.9215 11.3478 3.87175 10.0001 4.10988Z" fill="#262623"/>
<path fill-rule="evenodd" clip-rule="evenodd" d="M12.6002 11.7501V11.1001C12.5202 10.1001 12.3202 8.78009 12.2902 8.47009C12.2902 8.43069 12.2825 8.39168 12.2674 8.35528C12.2523 8.31889 12.2302 8.28581 12.2024 8.25796C12.1745 8.2301 12.1414 8.208 12.105 8.19292C12.0686 8.17785 12.0296 8.17009 11.9902 8.17009C11.95 8.16875 11.9099 8.17551 11.8724 8.18999C11.8348 8.20446 11.8005 8.22635 11.7716 8.25434C11.7427 8.28233 11.7197 8.31586 11.704 8.35293C11.6883 8.38999 11.6802 8.42984 11.6802 8.47009C11.6802 8.78009 11.5102 10.1201 11.4902 11.1301V12.2701C11.4924 12.4102 11.547 12.5444 11.6432 12.6462C11.7395 12.7481 11.8705 12.8101 12.0102 12.8201C12.0102 12.8201 12.5902 12.8201 13.3602 12.8201H15.3602C15.4417 12.8062 15.5155 12.7639 15.5688 12.7008C15.6221 12.6376 15.6513 12.5577 15.6513 12.4751C15.6513 12.3925 15.6221 12.3125 15.5688 12.2494C15.5155 12.1863 15.4417 12.144 15.3602 12.1301L12.6002 11.7501Z" fill="#262623"/>
</g>
<defs>
<clipPath id="clip0_8_653">
<rect width="24" height="24" fill="white"/>
</clipPath>
</defs>
</svg>
