<svg width="92" height="64" viewBox="0 0 92 64" fill="none" xmlns="http://www.w3.org/2000/svg">
<g clip-path="url(#clip0_1_526)">
<path fill-rule="evenodd" clip-rule="evenodd" d="M47.7002 25.4528V23.7493H52.8042V47.707H49.8841C48.6821 47.707 47.7068 46.736 47.7002 45.5362C47.6995 45.537 47.6988 45.537 47.698 45.5377C45.6424 47.0407 43.1014 47.9337 40.357 47.9337C33.4832 47.9337 27.9098 42.3639 27.9098 35.4945C27.9098 28.6251 33.4832 23.056 40.357 23.056C43.1014 23.056 45.6424 23.9482 47.698 25.4513C47.6988 25.452 47.6995 25.452 47.7002 25.4528ZM26.5875 16.0452V16.8215C26.5875 18.2706 26.3936 19.4529 25.4526 20.8408L25.3389 20.9706C25.1333 21.2038 24.6507 21.7513 24.4211 22.0479L8.03771 42.6118H26.5875V45.5231C26.5875 46.7295 25.6086 47.707 24.4022 47.707H0.367188V46.3344C0.367188 44.6528 0.784864 43.9034 1.31261 43.122L18.7785 21.5041H1.09539V16.0452H26.5875ZM58.9943 47.707C57.9905 47.707 57.1741 46.8913 57.1741 45.889V16.0452H62.6367V47.707H58.9943ZM78.7891 22.9059C85.7102 22.9059 91.3201 28.5172 91.3201 35.4282C91.3201 42.3457 85.7102 47.957 78.7891 47.957C71.8671 47.957 66.258 42.3457 66.258 35.4282C66.258 28.5172 71.8671 22.9059 78.7891 22.9059ZM40.357 42.8129C44.4018 42.8129 47.6798 39.5371 47.6798 35.4945C47.6798 31.4584 44.4018 28.1819 40.357 28.1819C36.3122 28.1819 33.0334 31.4584 33.0334 35.4945C33.0334 39.5371 36.3122 42.8129 40.357 42.8129ZM78.7891 42.8006C82.8579 42.8006 86.16 39.5007 86.16 35.4282C86.16 31.3622 82.8579 28.0623 78.7891 28.0623C74.7136 28.0623 71.4174 31.3622 71.4174 35.4282C71.4174 39.5007 74.7136 42.8006 78.7891 42.8006Z" fill="#0068FF"/>
</g>
<defs>
<clipPath id="clip0_1_526">
<rect width="91.4286" height="32" fill="white" transform="translate(0.149414 16)"/>
</clipPath>
</defs>
</svg>
