<svg width="173" height="64" viewBox="0 0 173 64" fill="none" xmlns="http://www.w3.org/2000/svg">
<g clip-path="url(#clip0_1_528)">
<path d="M4.40441 36.6817C4.44561 36.6817 4.4868 36.6817 4.5486 36.6817V23.54L19.2542 15.0801L30.0054 21.2813C30.2937 20.3984 30.8294 19.6386 31.5296 19.0842L19.2336 12L1.87109 22V37.421C2.59196 36.9487 3.45699 36.6817 4.40441 36.6817Z" fill="#51B981"/>
<path d="M34.3925 27.2977C34.2278 27.2977 34.0834 27.2977 33.9393 27.2772V40.46L19.2337 48.92L8.72963 42.8829C8.4207 43.7454 7.844 44.4845 7.10254 45.0186L19.2131 52L36.5756 42V26.7433C35.9372 27.0924 35.1956 27.2977 34.3925 27.2977Z" fill="#012A49"/>
<path d="M34.2276 19.4538C32.4357 19.4538 30.9734 20.9117 30.9734 22.6981C30.9734 23.2526 31.1175 23.7659 31.3647 24.2177L22.0965 32.8008C21.5197 32.308 20.7782 32 19.9544 32C18.1625 32 16.7002 33.4579 16.7002 35.2443C16.7002 35.4087 16.7208 35.5934 16.7414 35.7577L6.38154 38.8584C5.80486 38.3449 5.06339 38.0369 4.23954 38.0369C2.44768 38.0369 0.985352 39.4948 0.985352 41.2812C0.985352 43.0678 2.44768 44.5256 4.23954 44.5256C6.03141 44.5256 7.49372 43.0678 7.49372 41.2812C7.49372 41.0759 7.47315 40.8501 7.43195 40.6447L17.6888 37.5647C18.2655 38.1192 19.0688 38.4683 19.9544 38.4683C21.7462 38.4683 23.2087 37.0103 23.2087 35.2237C23.2087 34.9979 23.188 34.7926 23.1468 34.5872L32.8064 25.5934C33.239 25.7988 33.7126 25.922 34.2276 25.922C36.0194 25.922 37.4816 24.4641 37.4816 22.6776C37.4816 20.8912 36.0194 19.4538 34.2276 19.4538ZM4.23954 42.5338C3.55987 42.5338 3.00377 41.9794 3.00377 41.3019C3.00377 40.6241 3.55987 40.0699 4.23954 40.0699C4.91921 40.0699 5.47531 40.6241 5.47531 41.3019C5.47531 41.9794 4.91921 42.5338 4.23954 42.5338ZM19.9544 36.4969C19.2747 36.4969 18.7186 35.9425 18.7186 35.2649C18.7186 34.5872 19.2747 34.0328 19.9544 34.0328C20.6341 34.0328 21.1902 34.5872 21.1902 35.2649C21.1902 35.9425 20.6341 36.4969 19.9544 36.4969ZM34.2276 23.9302C33.5478 23.9302 32.9917 23.3758 32.9917 22.6981C32.9917 22.0205 33.5478 21.4661 34.2276 21.4661C34.9072 21.4661 35.4633 22.0205 35.4633 22.6981C35.4633 23.3758 34.9072 23.9302 34.2276 23.9302Z" fill="#51B981"/>
<path d="M44.0987 19.4227H47.4765V28.4165C47.4765 29.2584 47.4146 29.8744 47.4146 29.8744H47.4765C48.2385 28.1701 50.4835 25.9525 53.9849 25.9525C58.1247 25.9525 60.0402 28.2112 60.0402 32.6876V43.9402H56.6625V33.4678C56.6625 31.0038 56.1474 29.0531 53.3258 29.0531C50.6688 29.0531 48.4858 30.8601 47.7443 33.4062C47.5383 34.1043 47.4559 34.9052 47.4559 35.7266V43.9606H44.0781V19.4227H44.0987Z" fill="#012A49"/>
<path d="M73.3455 25.9525C78.6181 25.9525 82.8608 29.8128 82.8608 35.1311C82.8608 40.4905 78.6181 44.3713 73.3455 44.3713C68.0728 44.3713 63.8301 40.4699 63.8301 35.1311C63.8301 29.8128 68.0728 25.9525 73.3455 25.9525ZM73.3455 41.4555C76.682 41.4555 79.4008 38.8066 79.4008 35.1311C79.4008 31.4761 76.682 28.8683 73.3455 28.8683C70.0295 28.8683 67.2903 31.4761 67.2903 35.1311C67.2697 38.8066 70.0295 41.4555 73.3455 41.4555Z" fill="#012A49"/>
<path d="M86.6504 19.4227H90.0283V38.5602C90.0283 40.6753 90.8727 41.0654 91.9026 41.0654C92.2114 41.0654 92.4997 41.0243 92.4997 41.0243V44.0223C92.4997 44.0223 91.9848 44.0839 91.3875 44.0839C89.472 44.0839 86.6504 43.5705 86.6504 39.1557V19.4227Z" fill="#012A49"/>
<path d="M96.0625 19.4227H99.4815V22.8724H96.0625V19.4227ZM96.0831 26.3837H99.4608V43.9606H96.0831V26.3837Z" fill="#012A49"/>
<path d="M104.981 39.4021C104.981 39.4021 106.958 41.4555 110.027 41.4555C111.489 41.4555 112.951 40.6959 112.951 39.2584C112.951 36.0346 103.889 36.6918 103.889 30.9627C103.889 27.7594 106.752 25.9525 110.274 25.9525C114.146 25.9525 115.959 27.9032 115.959 27.9032L114.599 30.4494C114.599 30.4494 113.034 28.8888 110.233 28.8888C108.771 28.8888 107.349 29.5048 107.349 31.0449C107.349 34.207 116.412 33.5089 116.412 39.279C116.412 42.1948 113.899 44.392 110.027 44.392C105.702 44.392 103.333 41.8252 103.333 41.8252L104.981 39.4021Z" fill="#012A49"/>
<path d="M121.108 29.32H118.801V26.6095H121.21V21.5377H124.485V26.6095H128.728V29.32H124.485V37.1433C124.485 40.6546 126.957 41.1064 128.254 41.1064C128.749 41.1064 129.058 41.0448 129.058 41.0448V44.0427C129.058 44.0427 128.563 44.1043 127.863 44.1043C125.597 44.1043 121.108 43.4062 121.108 37.5336V29.32Z" fill="#012A49"/>
<path d="M132.827 19.4227H136.246V22.8724H132.827V19.4227ZM132.848 26.3837H136.225V43.9606H132.848V26.3837Z" fill="#012A49"/>
<path d="M149.715 25.9525C154.144 25.9525 156.347 28.5192 156.347 28.5192L154.741 30.9011C154.741 30.9011 152.867 28.8888 149.86 28.8888C146.296 28.8888 143.722 31.5377 143.722 35.1515C143.722 38.7245 146.296 41.4761 149.963 41.4761C153.237 41.4761 155.4 39.1146 155.4 39.1146L156.759 41.5788C156.759 41.5788 154.329 44.392 149.715 44.392C144.175 44.392 140.262 40.4699 140.262 35.1928C140.282 29.9566 144.175 25.9525 149.715 25.9525Z" fill="#012A49"/>
<path d="M160.796 39.4021C160.796 39.4021 162.773 41.4555 165.842 41.4555C167.305 41.4555 168.767 40.6959 168.767 39.2584C168.767 36.0346 159.705 36.6918 159.705 30.9627C159.705 27.7594 162.567 25.9525 166.089 25.9525C169.961 25.9525 171.774 27.9032 171.774 27.9032L170.414 30.4494C170.414 30.4494 168.849 28.8888 166.048 28.8888C164.586 28.8888 163.165 29.5048 163.165 31.0449C163.165 34.207 172.227 33.5089 172.227 39.279C172.227 42.1948 169.714 44.392 165.842 44.392C161.517 44.392 159.148 41.8252 159.148 41.8252L160.796 39.4021Z" fill="#012A49"/>
</g>
<defs>
<clipPath id="clip0_1_528">
<rect width="171.34" height="40" fill="white" transform="translate(0.985352 12)"/>
</clipPath>
</defs>
</svg>
