<svg width="187" height="64" viewBox="0 0 187 64" fill="none" xmlns="http://www.w3.org/2000/svg">
<g clip-path="url(#clip0_1_527)">
<path d="M93.2366 32.2728C91.891 37.5649 91.9173 41.6059 92.5222 43.8966C92.7301 44.6904 93.0589 45.7375 92.7188 46.2214C92.3786 46.7053 90.5981 46.8943 88.6286 45.8849C86.6592 44.8756 85.1774 42.6151 85.7142 37.788C85.9372 36.1549 85.8541 36.7635 85.9448 35.7996C86.1452 33.6638 85.4874 32.7755 83.0719 34.2308C80.6564 35.6862 77.5642 37.5951 72.4195 43.1103C70.2648 45.4238 68.8889 47.4953 67.5356 47.5331C66.9679 47.5341 66.4119 47.3727 65.9329 47.068C65.4539 46.7632 65.0722 46.3278 64.8328 45.8131C63.9142 43.9003 64.3225 41.9423 65.4112 37.8371C66.4998 33.7318 66.9799 32.6356 65.4678 32.6356C63.7215 32.6356 58.2856 35.0624 55.1216 39.4701C51.8179 44.0705 51.8179 47.8506 49.4326 48.0283C48.4762 48.0963 47.3837 47.4083 46.7865 46.055C46.1893 44.7018 46.7865 41.8969 47.7655 38.302C48.7116 34.9015 49.8384 31.5538 51.1412 28.2734C51.5192 27.3888 52.3055 26.6517 53.7873 27.249C54.5625 27.567 55.2026 28.1451 55.5979 28.8839C55.9931 29.6227 56.1188 30.476 55.9533 31.2975C57.2801 30.1634 60.6596 28.0125 64.3376 26.5458C67.7397 25.1963 71.4782 24.6558 72.8731 26.4287C74.268 28.2015 74.0071 30.8174 72.6803 34.0192C78.2862 28.8139 82.5086 26.3115 86.1716 24.9469C88.6892 24.0056 91.3465 24.3571 92.6771 25.8919C94.1476 27.5892 93.6751 29.8157 93.2366 32.2728Z" fill="#EB3300"/>
<path d="M110.95 23.1475C103.125 23.3932 96.5209 29.241 96.2072 35.7769C95.8935 42.3127 101.847 45.9341 107.548 45.6467C113.248 45.3595 120.657 41.9725 122.385 34.794C124.377 26.5231 117.18 22.9509 110.95 23.1475ZM115.565 34.76C114.25 38.302 110.005 40.2451 106.849 39.9388C103.378 39.5986 102.69 37.3381 103.51 34.4425C104.331 31.5469 106.996 28.5191 110.874 28.3603C114.348 28.2166 117.005 30.8892 115.565 34.76Z" fill="#FF9425"/>
<path d="M45.8449 26.936C46.7937 27.624 45.1342 29.877 42.4428 40.0795C41.4373 43.92 41.3353 45.6816 41.3504 46.8837C41.3654 48.0858 40.2654 48.5998 39.0823 48.7397C38.1788 48.8456 36.9767 48.7964 36.2925 48.3617C35.6084 47.927 34.9808 47.0689 35.2606 44.9596C35.7633 41.1039 37.729 34.3148 39.4187 29.635C40.3032 27.1892 41.1803 26.8264 42.7793 26.6676C44.1628 26.524 45.2023 26.4672 45.8449 26.936ZM47.2095 19.784C46.2553 19.7907 45.3032 19.8767 44.3631 20.041C43.18 20.2376 42.6167 20.6005 42.0157 22.1579C41.4147 23.7153 41.2597 24.9514 42.6053 25.1291C43.9511 25.3068 45.8034 25.2765 46.7333 24.5507C47.6632 23.8249 48.0563 22.3961 48.3701 21.4246C48.6838 20.4531 48.6271 19.7802 47.2095 19.784Z" fill="#2774AE"/>
<path d="M31.4461 26.6596C30.1193 26.6899 26.8834 26.9054 23.0277 27.1813C24.8346 21.0197 26.3391 17.5155 26.6679 16.3739C26.7668 16.054 26.8216 15.722 26.8306 15.3873C26.8306 14.3742 26.1237 14.0302 24.9934 14C24.7855 14 24.5663 14 24.3357 14C22.5212 14.0945 20.2418 15.0017 18.8621 18.6949C17.6146 22.0214 16.6393 25.0417 15.872 27.7105C10.009 28.1641 4.39174 28.6177 2.64154 28.75C-0.189768 28.9617 -0.409016 30.4851 0.69856 32.5982C1.80614 34.7113 4.26699 35.0174 8.19454 34.6999C9.80487 34.5676 11.9482 34.371 14.2767 34.1367C13.8279 36.1449 13.5122 38.1805 13.3317 40.2302C13.2965 40.5326 13.27 40.8275 13.2523 41.1148C13.2335 41.4021 13.2221 41.6856 13.2183 41.9578C13.1503 45.7909 14.4204 48.2365 16.129 49.1097C17.8377 49.983 19.4517 49.93 20.0339 49.6011C20.1062 49.5637 20.1694 49.5107 20.2191 49.4462C20.3049 49.3105 20.3508 49.1533 20.3514 48.9926C20.326 48.4634 20.2372 47.9393 20.0868 47.4314C20.0642 47.3255 20.0414 47.2197 20.0225 47.1214C19.8323 46.0837 19.7336 45.0314 19.7277 43.9764C19.7088 41.6667 20.0868 38.79 21.0809 34.5525C21.1717 34.1745 21.2662 33.77 21.3682 33.3618C23.1979 33.1388 24.9556 32.9082 26.4752 32.6814C30.8185 32.0236 37.7589 30.1222 38.0726 28.5799C38.3864 27.0376 35.4303 26.5727 31.4461 26.6596Z" fill="#563D82"/>
<path d="M141.988 27.3588C141.988 28.6667 141.61 29.6647 140.874 30.3829C140.137 31.1012 139.056 31.4224 137.649 31.4224H135.399V23.4842H137.891C139.188 23.4842 140.197 23.8282 140.915 24.5124C141.281 24.8866 141.566 25.3328 141.751 25.8228C141.936 26.3128 142.017 26.8359 141.988 27.3588ZM140.238 27.4004C140.238 25.6968 139.482 24.8437 137.97 24.8412H137.074V30.0162H137.797C139.427 30.0162 140.241 29.1442 140.238 27.4004Z" fill="#747D87"/>
<path d="M145.028 31.4038V23.4656H146.71V31.4038H145.028Z" fill="#747D87"/>
<path d="M153.117 26.9434H156.266V31.0637C155.796 31.2202 155.315 31.3378 154.826 31.4153C154.368 31.4805 153.905 31.5134 153.443 31.5136C152.245 31.5136 151.329 31.162 150.694 30.4589C150.063 29.752 149.745 28.7427 149.745 27.4348C149.745 26.1269 150.123 25.1668 150.849 24.4372C151.575 23.7076 152.6 23.3598 153.9 23.3598C154.71 23.3592 155.511 23.5252 156.255 23.8475L155.696 25.1969C155.136 24.911 154.516 24.762 153.888 24.7623C153.561 24.748 153.234 24.8063 152.931 24.9331C152.628 25.0599 152.358 25.252 152.138 25.4956C151.677 26.0467 151.442 26.7516 151.481 27.4689C151.434 28.1669 151.62 28.8607 152.01 29.4421C152.194 29.6704 152.43 29.8512 152.698 29.9696C152.966 30.088 153.259 30.1404 153.552 30.1225C153.912 30.1223 154.269 30.0868 154.622 30.0166V28.3458H153.11L153.117 26.9434Z" fill="#747D87"/>
<path d="M159.548 31.4038V23.4656H161.233V31.4038H159.548Z" fill="#747D87"/>
<path d="M167.686 31.404H166.019V24.8719H163.86V23.4619H169.86V24.8719H167.701L167.686 31.404Z" fill="#747D87"/>
<path d="M177.321 31.4037L176.743 29.5137H173.847L173.272 31.4037H171.458L174.263 23.4314H176.319L179.136 31.4037H177.321ZM176.341 28.1036C175.808 26.3875 175.507 25.4186 175.441 25.1967C175.374 24.9699 175.328 24.7923 175.298 24.6637C175.178 25.125 174.837 26.2741 174.27 28.1036H176.341Z" fill="#747D87"/>
<path d="M181.517 31.4038V23.4656H183.202V30.0165H186.431V31.4038H181.517Z" fill="#747D87"/>
<path d="M135.399 36.8131H137.872C138.998 36.8131 139.817 36.9744 140.325 37.2969C140.574 37.4592 140.775 37.6848 140.908 37.9505C141.041 38.2162 141.101 38.5125 141.081 38.809C141.099 39.2245 140.98 39.6344 140.745 39.977C140.642 40.1238 140.51 40.2481 140.357 40.3424C140.204 40.4366 140.034 40.4988 139.857 40.5251V40.5819C140.285 40.6484 140.673 40.8721 140.946 41.2093C141.185 41.5729 141.302 42.003 141.282 42.4379C141.3 42.765 141.239 43.0917 141.103 43.3899C140.968 43.6881 140.761 43.949 140.503 44.1502C139.88 44.5855 139.13 44.7998 138.372 44.7588H135.399V36.8131ZM137.082 39.9619H138.046C138.391 39.9888 138.735 39.914 139.036 39.7465C139.142 39.6655 139.226 39.5587 139.28 39.4364C139.334 39.314 139.355 39.1801 139.342 39.0471C139.353 38.9179 139.328 38.7884 139.268 38.673C139.21 38.5575 139.12 38.4606 139.01 38.3932C138.681 38.2392 138.318 38.1717 137.955 38.1966H137.067L137.082 39.9619ZM137.082 41.2963V43.3677H138.182C138.544 43.3958 138.905 43.3012 139.207 43.0994C139.321 42.9994 139.411 42.8737 139.47 42.7326C139.527 42.5914 139.551 42.4387 139.539 42.2867C139.539 41.6264 139.068 41.2963 138.125 41.2963H137.082Z" fill="#747D87"/>
<path d="M149.128 44.7591L148.55 42.869H145.654L145.079 44.7591H143.266L146.07 36.783H148.127L150.943 44.7591H149.128ZM148.149 41.4553C147.616 39.7429 147.318 38.7714 147.25 38.5484C147.181 38.3253 147.132 38.1476 147.106 38.0154C146.985 38.4803 146.644 39.6257 146.078 41.4553H148.149Z" fill="#747D87"/>
<path d="M160.379 44.7585H158.239L154.784 38.7481H154.736C154.803 39.8116 154.837 40.5676 154.837 41.0162V44.7547H153.325V36.8165H155.45L158.901 42.7663H158.939C158.881 41.7331 158.853 41.0036 158.855 40.5776V36.7975H160.367L160.379 44.7585Z" fill="#747D87"/>
<path d="M170.178 44.7588H168.249L166.167 41.4097L165.456 41.92V44.7588H163.77V36.8206H165.456V40.4571L166.117 39.5234L168.288 36.8131H170.158L167.388 40.3286L170.178 44.7588Z" fill="#747D87"/>
</g>
<defs>
<clipPath id="clip0_1_527">
<rect width="186.353" height="36" fill="white" transform="translate(0.078125 14)"/>
</clipPath>
</defs>
</svg>
