<svg width="187" height="64" viewBox="0 0 187 64" fill="none" xmlns="http://www.w3.org/2000/svg">
<path d="M0.758134 31.6627H10.4215C10.74 31.6627 10.9921 31.9328 10.974 32.2514C10.9196 33.1509 10.9573 34.3721 11.3272 35.7518C11.6909 37.1102 12.26 38.1865 12.7747 38.9668C13.0177 39.3351 12.752 39.8242 12.3113 39.8242H2.92416C2.7853 39.8242 2.65246 39.7744 2.55134 39.6807C1.93549 39.1177 0.715874 37.8167 0.21625 35.7518C-0.158089 34.2076 0.0275711 32.8854 0.220778 32.0853C0.279646 31.8363 0.503041 31.6627 0.758134 31.6627Z" fill="#0298F1"/>
<path d="M57.9769 31.6627H48.3136C47.9951 31.6627 47.743 31.9328 47.7611 32.2514C47.8155 33.1509 47.7778 34.3721 47.4079 35.7518C47.0442 37.1102 46.4751 38.1865 45.9604 38.9668C45.7174 39.3351 45.9831 39.8242 46.4238 39.8242H55.8109C55.9498 39.8242 56.0826 39.7744 56.1837 39.6807C56.7996 39.1177 58.0193 37.8167 58.5188 35.7518C58.8932 34.2076 58.7076 32.8854 58.5143 32.0853C58.4555 31.8363 58.2321 31.6627 57.9769 31.6627Z" fill="#0298F1"/>
<path d="M45.5439 15.1532C45.4745 14.9464 45.2905 14.8 45.0746 14.7789C40.3063 14.3049 35.0444 14 29.3569 14C23.689 14.0015 18.4421 14.3064 13.686 14.7789C13.4701 14.8 13.286 14.9464 13.2166 15.1532C11.9728 18.8513 10.7275 22.5494 9.48223 26.249C9.37205 26.5765 9.58639 26.9237 9.92752 26.9736C15.5683 27.7826 22.1147 28.3607 29.3946 28.3607C36.664 28.3607 43.1999 27.7811 48.8331 26.9736C49.1756 26.9237 49.3885 26.5765 49.2783 26.249C48.033 22.5494 46.7892 18.8513 45.5439 15.1532Z" fill="#0298F1"/>
<path d="M43.3402 48.9585C43.2708 49.1652 43.0867 49.3117 42.8709 49.3327C38.7667 49.7388 34.2384 50 29.3478 50C24.4725 50 19.9592 49.7388 15.8657 49.3327C15.6483 49.3117 15.4657 49.1652 15.3962 48.9585C14.3637 45.8928 13.3329 42.8272 12.3004 39.7615C12.166 39.3645 12.5042 38.9691 12.9177 39.0385C17.6619 39.8324 23.3328 40.4286 29.7313 40.406C35.8249 40.3834 41.2452 39.8037 45.8203 39.0385C46.2323 38.9691 46.5689 39.3645 46.4361 39.7615C45.4037 42.8272 44.3727 45.8928 43.3402 48.9585Z" fill="#0298F1"/>
<path d="M74.4925 20.8995C74.9077 20.8995 75.3031 21.0112 75.6775 21.2316C76.0517 21.455 76.322 21.7871 76.488 22.2293L83.0148 37.3222L82.2254 37.6964L88.8367 22.2716C89.2245 21.3569 89.848 20.9131 90.7069 20.9418C91.2608 20.9418 91.7257 21.1154 92.1 21.461C92.4744 21.8082 92.6615 22.258 92.6615 22.812C92.6615 22.978 92.6329 23.1516 92.5785 23.3312C92.5227 23.5123 92.4532 23.6859 92.3702 23.852L84.4714 41.6451C84.1106 42.4768 83.5144 42.9206 82.6827 42.9764C82.2676 43.0307 81.8586 42.9418 81.457 42.7063C81.054 42.4708 80.7431 42.1176 80.5212 41.6451L72.6631 23.852C72.6073 23.7418 72.553 23.5954 72.497 23.4157C72.4412 23.2346 72.4141 23.0203 72.4141 22.7697C72.4141 22.3546 72.6012 21.9395 72.9756 21.5229C73.3499 21.1078 73.8541 20.8995 74.4925 20.8995Z" fill="#0298F1"/>
<path d="M114.239 21.1076C114.822 21.1076 115.312 21.3084 115.715 21.7099C116.117 22.1129 116.317 22.6186 116.317 23.2284V34.1626C116.317 37.0457 115.512 39.2962 113.907 40.9174C112.298 42.54 110.026 43.3505 107.087 43.3505C104.177 43.3505 101.925 42.54 100.332 40.9174C98.7369 39.2962 97.9414 37.0457 97.9414 34.1626V23.2284C97.9414 22.6186 98.1346 22.1129 98.5226 21.7099C98.9105 21.3084 99.4102 21.1076 100.02 21.1076C100.603 21.1076 101.093 21.3084 101.496 21.7099C101.898 22.1129 102.098 22.6186 102.098 23.2284V34.1626C102.098 35.9649 102.521 37.3083 103.366 38.1944C104.212 39.0819 105.452 39.5257 107.087 39.5257C108.75 39.5257 110.012 39.0819 110.871 38.1944C111.73 37.3083 112.16 35.9649 112.16 34.1626V23.2284C112.16 22.6186 112.353 22.1129 112.741 21.7099C113.129 21.3084 113.629 21.1076 114.239 21.1076Z" fill="#0298F1"/>
<path d="M132.822 20.6088C134.318 20.6088 135.648 20.7688 136.812 21.0872C137.977 21.4057 138.885 21.8495 139.535 22.4171C140.187 22.9861 140.513 23.6442 140.513 24.3914C140.513 24.8638 140.375 25.3 140.096 25.7016C139.82 26.1031 139.404 26.3038 138.85 26.3038C138.462 26.3038 138.136 26.2359 137.873 26.097C137.609 25.9582 137.366 25.7921 137.146 25.5974C136.924 25.4042 136.646 25.2095 136.314 25.0163C136.01 24.8488 135.558 24.7114 134.961 24.5997C134.366 24.4895 133.833 24.4336 133.362 24.4336C131.893 24.4336 130.625 24.7657 129.558 25.4314C128.49 26.097 127.659 26.9981 127.063 28.1333C126.466 29.2699 126.17 30.559 126.17 32.0004C126.17 33.4419 126.466 34.731 127.063 35.8661C127.659 37.0042 128.477 37.9038 129.516 38.5695C130.555 39.2352 131.768 39.5672 133.153 39.5672C133.985 39.5672 134.665 39.5053 135.191 39.3801C135.718 39.2547 136.175 39.0963 136.563 38.9015C136.98 38.6525 137.333 38.3958 137.623 38.1332C137.914 37.8691 138.324 37.7378 138.85 37.7378C139.46 37.7378 139.924 37.9249 140.244 38.2993C140.562 38.6736 140.721 39.137 140.721 39.6925C140.721 40.3022 140.353 40.8909 139.619 41.4585C138.885 42.0275 137.907 42.491 136.689 42.8517C135.468 43.211 134.124 43.3921 132.655 43.3921C130.494 43.3921 128.615 42.8924 127.022 41.8947C125.428 40.897 124.195 39.54 123.321 37.8207C122.449 36.1031 122.013 34.1619 122.013 32.0004C122.013 29.8118 122.47 27.863 123.385 26.1589C124.299 24.4548 125.573 23.1039 127.209 22.1061C128.844 21.1084 130.716 20.6088 132.822 20.6088Z" fill="#0298F1"/>
<path d="M155.19 39.5671C156.493 39.5671 157.643 39.235 158.64 38.5694C159.639 37.9037 160.414 36.9966 160.968 35.8464C161.523 34.6962 161.801 33.4147 161.801 32.0003C161.801 30.5603 161.523 29.2713 160.968 28.1347C160.414 26.9981 159.639 26.097 158.64 25.4313C157.643 24.7657 156.493 24.4336 155.19 24.4336C153.915 24.4336 152.785 24.7657 151.802 25.4313C150.818 26.097 150.041 26.9981 149.474 28.1347C148.905 29.2713 148.622 30.5603 148.622 32.0003C148.622 33.4147 148.905 34.6962 149.474 35.8464C150.041 36.9966 150.818 37.9037 151.802 38.5694C152.785 39.235 153.915 39.5671 155.19 39.5671ZM163.671 20.7747C164.28 20.7747 164.78 20.977 165.168 21.3785C165.555 21.78 165.75 22.2857 165.75 22.8955V40.8562C165.75 41.466 165.555 41.9716 165.168 42.3731C164.78 42.7762 164.28 42.9769 163.671 42.9769C163.089 42.9769 162.597 42.7762 162.195 42.3731C161.794 41.9716 161.593 41.466 161.593 40.8562V37.863L162.466 37.9867C162.466 38.4864 162.265 39.0403 161.863 39.6502C161.46 40.2599 160.912 40.8502 160.221 41.4177C159.527 41.9852 158.711 42.4561 157.769 42.8305C156.825 43.2049 155.814 43.392 154.732 43.392C152.82 43.392 151.101 42.8999 149.578 41.9158C148.052 40.9331 146.848 39.5807 145.96 37.863C145.073 36.1437 144.63 34.1905 144.63 32.0003C144.63 29.7559 145.073 27.7799 145.96 26.0758C146.848 24.3717 148.046 23.0343 149.557 22.0638C151.067 21.0947 152.751 20.6087 154.608 20.6087C155.8 20.6087 156.9 20.8034 157.914 21.1913C158.925 21.5792 159.804 22.0789 160.554 22.6872C161.302 23.297 161.877 23.9415 162.279 24.6207C162.68 25.3 162.882 25.9445 162.882 26.5544L161.593 26.6781V22.8955C161.593 22.3128 161.794 21.8147 162.195 21.3981C162.597 20.983 163.089 20.7747 163.671 20.7747Z" fill="#0298F1"/>
<path d="M174.689 42.9763C174.079 42.9763 173.579 42.7756 173.191 42.374C172.804 41.9725 172.61 41.4653 172.61 40.8556V23.2284C172.61 22.6186 172.804 22.113 173.191 21.71C173.579 21.3084 174.079 21.1077 174.689 21.1077C175.27 21.1077 175.762 21.3084 176.165 21.71C176.567 22.113 176.767 22.6186 176.767 23.2284V27.885L176.352 26.0963C176.573 25.3205 176.913 24.6005 177.371 23.9348C177.828 23.2692 178.375 22.6881 179.012 22.1884C179.651 21.6903 180.364 21.3024 181.154 21.0247C181.943 20.7469 182.767 20.6081 183.628 20.6081C184.348 20.6081 184.971 20.8028 185.498 21.1907C186.024 21.5786 186.289 22.0632 186.289 22.6458C186.289 23.3945 186.094 23.9424 185.706 24.2881C185.318 24.6352 184.888 24.8073 184.417 24.8073C184.002 24.8073 183.599 24.7182 183.211 24.5371C182.823 24.3575 182.365 24.2669 181.84 24.2669C181.258 24.2669 180.662 24.4194 180.051 24.7242C179.442 25.0307 178.888 25.4805 178.388 26.0752C177.89 26.673 177.495 27.3718 177.203 28.1748C176.913 28.9793 176.767 29.8805 176.767 30.8782V40.8556C176.767 41.4653 176.567 41.9725 176.165 42.374C175.762 42.7756 175.27 42.9763 174.689 42.9763Z" fill="#0298F1"/>
</svg>
