<svg width="210" height="64" viewBox="0 0 210 64" fill="none" xmlns="http://www.w3.org/2000/svg">
<g clip-path="url(#clip0_1_530)">
<mask id="mask0_1_530" style="mask-type:luminance" maskUnits="userSpaceOnUse" x="0" y="14" width="210" height="36">
<path d="M209.014 14H0.614258V50H209.014V14Z" fill="white"/>
</mask>
<g mask="url(#mask0_1_530)">
<path d="M69.3419 19.4734L59.7275 45.1842H64.9095L67.2619 38.7485H77.3451L79.6375 45.1842H84.8435L75.2491 19.4734H69.3419ZM68.9651 33.9327L72.2755 24.8184L75.5859 33.9327H68.9651Z" fill="#0D4073"/>
<path d="M98.9629 28.1907C97.9089 27.6012 96.7909 27.3045 95.6125 27.3045C94.2057 27.3045 92.9393 27.7696 91.8133 28.6959V19.4734H86.9961V45.1842H91.8133V36.4509C91.8133 31.8356 94.1577 31.6712 94.8989 31.6712C96.4021 31.6712 97.6081 32.8701 97.6081 36.2344V45.1802H102.426V35.5888C102.426 33.4796 102.073 31.8115 101.372 30.5805C100.814 29.5781 100.013 28.7801 98.9629 28.1907Z" fill="#0D4073"/>
<path d="M142.018 27.2925C140.211 27.2925 138.595 27.906 137.165 29.137C135.834 27.906 134.391 27.2925 132.836 27.2925C131.53 27.2925 130.315 27.7576 129.185 28.6839V27.6574H124.408V45.1722H129.225V35.9657C129.225 32.1243 131.422 31.9078 131.919 31.9078C132.736 31.9078 134.455 32.5774 134.455 35.9136V45.1722H139.273V35.9657C139.273 32.2085 141.152 31.8637 141.95 31.8637C143.072 31.8637 144.463 32.9864 144.463 35.9136V45.1722H149.28V35.6489C149.28 33.5398 148.943 31.9118 148.266 30.757C146.983 28.4473 144.903 27.2925 142.018 27.2925Z" fill="#0D4073"/>
<path d="M182.491 27.6494L178.375 38.0227L174.312 27.6494H168.953L176.259 45.1842H180.511L187.797 27.6494H182.491Z" fill="#0D4073"/>
<path d="M195.933 27.3045C193.549 27.3045 191.529 28.1706 189.873 29.9029C188.218 31.6351 187.389 33.7563 187.389 36.2664C187.389 38.8006 188.222 40.9218 189.889 42.63C191.557 44.3382 193.645 45.1882 196.153 45.1882C199.488 45.1882 202.125 43.6084 204.057 40.4446L199.845 38.7886C198.943 40.2201 197.701 40.9338 196.121 40.9338C194.214 40.9338 192.947 39.9314 192.318 37.9225H204.285C204.309 37.4453 204.325 37.0082 204.325 36.6032C204.325 33.9207 203.536 31.6992 201.953 29.939C200.374 28.1867 198.366 27.3045 195.933 27.3045ZM192.318 34.5703C192.895 32.5373 194.097 31.5228 195.933 31.5228C197.689 31.5228 198.891 32.5373 199.544 34.5703H192.318Z" fill="#0D4073"/>
<path d="M160.429 27.2283C155.483 27.2283 151.472 31.2422 151.472 36.1902C151.472 41.1383 155.483 45.1522 160.429 45.1522C165.374 45.1522 169.386 41.1383 169.386 36.1902C169.386 31.2422 165.378 27.2283 160.429 27.2283ZM160.437 40.8616C157.908 40.8616 155.86 38.8126 155.86 36.2825C155.86 33.7523 157.908 31.7033 160.437 31.7033C162.966 31.7033 165.014 33.7523 165.014 36.2825C165.014 38.8086 162.966 40.8616 160.437 40.8616Z" fill="#0D4073"/>
<path d="M117.459 28.8483C116.08 27.8218 114.637 27.3045 113.13 27.3045C110.745 27.3045 108.722 28.1746 107.051 29.9189C105.383 31.6632 104.55 33.7643 104.55 36.2263C104.55 38.7124 105.383 40.8256 107.051 42.5698C108.718 44.3141 110.745 45.1842 113.13 45.1842C114.633 45.1842 116.076 44.671 117.459 43.6404V44.8795H122.276V27.7055H117.459V28.8483ZM113.471 40.9739C111.106 40.9739 109.191 38.8528 109.191 36.2344C109.191 33.616 111.106 31.4908 113.471 31.4908C115.835 31.4908 117.751 33.6119 117.751 36.2344C117.751 38.8487 115.835 40.9739 113.471 40.9739Z" fill="#0D4073"/>
<path d="M206.89 25.7447C206.89 25.3237 206.694 24.8224 205.768 24.8224H204.742V27.7937H205.443V26.7111H205.688L206.281 27.7897H207.071L206.381 26.5868C206.71 26.4264 206.89 26.1336 206.89 25.7447ZM205.716 26.1096H205.439V25.4159H205.716C206.117 25.4159 206.197 25.5402 206.197 25.7407C206.197 25.8329 206.197 26.1096 205.716 26.1096Z" fill="#0D4073"/>
<path d="M205.756 23.0661C203.961 23.0661 202.498 24.5297 202.498 26.3261C202.498 28.1265 203.961 29.5861 205.756 29.5861C207.552 29.5861 209.014 28.1225 209.014 26.3261C209.014 24.5297 207.552 23.0661 205.756 23.0661ZM205.756 29.0407C204.261 29.0407 203.043 27.8218 203.043 26.3261C203.043 24.8305 204.261 23.6115 205.756 23.6115C207.251 23.6115 208.469 24.8305 208.469 26.3261C208.469 27.8258 207.251 29.0407 205.756 29.0407Z" fill="#0D4073"/>
<path d="M52.7783 47.3093L43.3043 21.2535C41.7251 16.919 37.6133 13.9036 33.0044 14.0038C29.0408 14.088 25.3978 16.2012 23.3459 19.6015L21.9512 22.0034H21.9472L21.6306 22.5527H14.1001C13.0501 22.5527 12.1965 23.4068 12.1965 24.4574C12.1965 25.5079 13.0501 26.3621 14.1001 26.3621H19.4224L19.4183 26.3701H20.2239C21.3501 26.3701 22.2598 27.2803 22.2598 28.4071C22.2598 29.5338 21.3501 30.444 20.2239 30.444H17.0578L17.0538 30.448H2.51791C1.4679 30.444 0.614258 31.2941 0.614258 32.3447C0.614258 33.3952 1.4679 34.2493 2.51791 34.2493H14.8817L12.7175 37.9945H12.6854L12.473 38.3634H6.93838C5.88838 38.3634 5.03474 39.2175 5.03474 40.268C5.03474 41.3186 5.88838 42.1727 6.93838 42.1727H10.3049L7.5155 47.0005C6.74602 48.3317 7.7119 49.9998 9.24682 49.9998H19.4785C20.9052 49.9998 22.2237 49.238 22.9411 48.0029L26.3997 42.0003H38.8597L41.1119 48.0029C41.5487 49.1658 42.6551 49.9397 43.8975 49.9477L50.8867 49.9998C52.2815 50.0038 53.2555 48.6205 52.7783 47.3093Z" fill="#FF7F32"/>
<path d="M29.1013 34.3497C28.0232 34.3497 27.1455 33.4756 27.1455 32.3929C27.1455 31.3143 28.0192 30.4402 29.1013 30.4402C30.1833 30.4402 31.057 31.3143 31.057 32.3929C31.057 33.4756 30.1793 34.3497 29.1013 34.3497Z" fill="#0D4073"/>
<path d="M36.4274 34.3457C35.3453 34.3457 34.4717 33.4716 34.4717 32.393C34.4717 31.3103 35.3453 30.4322 36.4274 30.4322C37.5055 30.4322 38.3832 31.3103 38.3832 32.393C38.3832 33.4676 37.5055 34.3457 36.4274 34.3457Z" fill="#0D4073"/>
</g>
</g>
<defs>
<clipPath id="clip0_1_530">
<rect width="208.4" height="36" fill="white" transform="translate(0.614258 14)"/>
</clipPath>
</defs>
</svg>
