<svg width="159" height="64" viewBox="0 0 159 64" fill="none" xmlns="http://www.w3.org/2000/svg">
<path d="M76.8984 44.21C76.8994 43.6826 77.0566 43.1672 77.3502 42.729C77.6437 42.2908 78.0605 41.9494 78.5478 41.7478C79.0352 41.5462 79.5714 41.4934 80.0887 41.5962C80.606 41.699 81.0813 41.9527 81.4546 42.3253C81.8279 42.6979 82.0825 43.1727 82.1863 43.6898C82.29 44.207 82.2383 44.7432 82.0376 45.231C81.8369 45.7188 81.4962 46.1362 81.0586 46.4305C80.6209 46.7249 80.1059 46.883 79.5784 46.885C79.2276 46.885 78.8803 46.8157 78.5563 46.6812C78.2323 46.5466 77.9381 46.3494 77.6905 46.1009C77.4429 45.8524 77.2468 45.5574 77.1134 45.2329C76.9801 44.9084 76.9121 44.5608 76.9134 44.21M81.6034 44.21C81.5734 43.8235 81.4316 43.4542 81.1955 43.1468C80.9593 42.8394 80.6389 42.6072 80.2732 42.4786C79.9076 42.35 79.5124 42.3303 79.1358 42.4221C78.7592 42.5139 78.4174 42.7132 78.152 42.9957C77.8865 43.2781 77.7089 43.6317 77.6407 44.0133C77.5725 44.3948 77.6166 44.788 77.7677 45.145C77.9189 45.5019 78.1704 45.8073 78.4919 46.0239C78.8134 46.2405 79.1909 46.359 79.5784 46.365C79.8523 46.358 80.1219 46.2963 80.3716 46.1836C80.6212 46.0709 80.8458 45.9094 81.0322 45.7086C81.2185 45.5078 81.3628 45.2718 81.4566 45.0145C81.5504 44.7571 81.5919 44.4836 81.5784 44.21M78.5284 42.71H79.6534C80.3784 42.71 80.7734 42.96 80.7734 43.6C80.7814 43.7071 80.7665 43.8147 80.7296 43.9156C80.6926 44.0165 80.6346 44.1084 80.5594 44.185C80.4841 44.2617 80.3934 44.3214 80.2932 44.3602C80.193 44.399 80.0857 44.416 79.9784 44.41L80.7884 45.735H80.2134L79.4334 44.43H79.0934V45.735H78.5284V42.71ZM79.1034 44H79.6034C79.9334 44 80.2234 43.95 80.2234 43.55C80.2234 43.15 79.8984 43.135 79.6084 43.135H79.1084L79.1034 44Z" fill="#0E69AF"/>
<path d="M68.2936 15.89C66.3776 15.9161 64.5155 16.528 62.9576 17.6435C61.3997 18.759 60.2205 20.3246 59.5786 22.13C59.5086 22.315 59.2686 23.085 59.2686 23.085L53.7686 46.885H66.3936C70.7336 46.885 74.3936 43.755 75.4436 39.54L80.9036 15.885L68.2936 15.89Z" fill="#0DB04B"/>
<path d="M47.2731 9C45.2549 9.00578 43.2937 9.67005 41.6874 10.8919C40.0811 12.1138 38.9174 13.8265 38.3731 15.77C38.2895 16.0629 38.2211 16.36 38.1681 16.66L29.5781 53.775H42.2131C44.2785 53.7671 46.2822 53.0704 47.9069 51.7952C49.5317 50.5201 50.6846 48.7393 51.1831 46.735L59.9031 9H47.2731Z" fill="#F27226"/>
<path d="M23.0781 15.89C21.0925 15.9224 19.168 16.5821 17.5801 17.7748C15.9923 18.9675 14.8224 20.632 14.2381 22.53C14.2081 22.615 14.1831 22.7 14.1581 22.79L13.9481 23.62L8.57812 46.885H21.5031C23.3769 46.856 25.196 46.2493 26.712 45.1477C28.228 44.046 29.3669 42.5032 29.9731 40.73L30.4731 38.515L35.7031 15.89H23.0781Z" fill="#0E69AF"/>
<path d="M20.7236 23.62H20.5286C19.5991 23.6303 18.7031 23.9685 17.9986 24.575C17.3401 25.0824 16.8461 25.7729 16.5786 26.56L13.6836 39.135H13.8486C14.786 39.1253 15.6896 38.7834 16.3986 38.17C17.1529 37.5922 17.6831 36.7704 17.8986 35.845L18.5336 33.115H24.2836C25.22 33.0951 26.1207 32.7524 26.8336 32.145C27.5847 31.5686 28.1144 30.7511 28.3336 29.83L28.3686 29.665H19.3236L19.9236 27.07H27.7486C28.6773 27.0602 29.573 26.7239 30.2786 26.12C31.025 25.5392 31.5535 24.7235 31.7786 23.805L31.8186 23.64L20.7236 23.62Z" fill="white"/>
<path d="M52.6629 24.38C52.4095 24.1313 52.1082 23.9366 51.7773 23.8077C51.4464 23.6787 51.0928 23.6183 50.7379 23.63H39.6929L36.1279 39.13H36.2929C37.2304 39.1203 38.134 38.7784 38.8429 38.165C39.5972 37.5872 40.1274 36.7654 40.3429 35.84L40.9829 33.08H48.6329C49.5281 33.1567 50.4197 32.8964 51.1329 32.35C51.9018 31.6886 52.4425 30.8015 52.6779 29.815L53.3479 26.945C53.3973 26.7131 53.4241 26.477 53.4279 26.24C53.4362 25.8939 53.3724 25.5499 53.2407 25.2297C53.109 24.9095 52.9123 24.6202 52.6629 24.38ZM49.2179 29.66H41.7729L42.3729 27.06H49.8229L49.2179 29.66Z" fill="white"/>
<path d="M75.1327 24.39C74.8808 24.1391 74.5798 23.943 74.2486 23.8139C73.9173 23.6848 73.5629 23.6256 73.2077 23.64H61.5777V23.75C61.5288 23.9736 61.5003 24.2012 61.4927 24.43C61.4774 24.7782 61.5333 25.126 61.6571 25.4518C61.781 25.7777 61.97 26.0748 62.2127 26.325C62.4649 26.5754 62.766 26.7712 63.0972 26.9002C63.4284 27.0293 63.7826 27.0888 64.1377 27.075H66.5777L63.7977 39.135H63.9627C64.9018 39.1261 65.8072 38.7841 66.5177 38.17C67.2705 37.5908 67.8003 36.7696 68.0177 35.845L70.0527 27.075H75.8027V26.965C75.8546 26.7335 75.8814 26.4972 75.8827 26.26C75.8943 25.9133 75.8336 25.568 75.7044 25.2461C75.5753 24.9242 75.3806 24.6326 75.1327 24.39Z" fill="white"/>
<path d="M94.0782 38.305C93.2436 38.9748 92.192 39.3147 91.1232 39.26C90.0987 39.2968 89.0807 39.0822 88.1582 38.635L88.7982 37C89.4945 37.3908 90.2797 37.5957 91.0782 37.595C91.6535 37.6199 92.2195 37.4431 92.6782 37.095C92.877 36.9422 93.0361 36.744 93.1423 36.5169C93.2484 36.2898 93.2985 36.0405 93.2882 35.79C93.2882 35.0433 92.6515 34.39 91.3782 33.83C90.6282 33.5227 89.9313 33.0992 89.3132 32.575C88.9921 32.2905 88.7364 31.9398 88.5638 31.5471C88.3912 31.1544 88.3057 30.7289 88.3132 30.3C88.2937 29.8385 88.3768 29.3785 88.5567 28.9531C88.7365 28.5277 89.0086 28.1475 89.3532 27.84C90.1204 27.2169 91.0911 26.8998 92.0782 26.95C93.0141 26.9097 93.9429 27.1276 94.7632 27.58L94.1732 29.08C93.5548 28.7265 92.8555 28.5388 92.1432 28.535C91.6265 28.5092 91.1176 28.6687 90.7082 28.985C90.5293 29.1324 90.3869 29.3193 90.2924 29.531C90.1978 29.7426 90.1536 29.9734 90.1632 30.205C90.1632 30.9317 90.8299 31.5983 92.1632 32.205C92.8882 32.5073 93.5626 32.9188 94.1632 33.425C94.4834 33.7113 94.7384 34.063 94.9109 34.4564C95.0834 34.8497 95.1694 35.2755 95.1632 35.705C95.1879 36.1919 95.1033 36.6781 94.9156 37.128C94.7278 37.578 94.4417 37.9801 94.0782 38.305Z" fill="#1068B0"/>
<path d="M102.923 37.925C102.563 38.3435 102.117 38.6793 101.616 38.9096C101.115 39.1398 100.569 39.259 100.018 39.259C99.466 39.259 98.9208 39.1398 98.4194 38.9096C97.918 38.6793 97.4723 38.3435 97.1127 37.925C96.4075 36.9739 96.0541 35.8076 96.1127 34.625C96.0541 33.4424 96.4075 32.2761 97.1127 31.325C97.4746 30.9102 97.9211 30.5777 98.4221 30.3499C98.9232 30.122 99.4673 30.0042 100.018 30.0042C100.568 30.0042 101.112 30.122 101.613 30.3499C102.114 30.5777 102.561 30.9102 102.923 31.325C103.628 32.2761 103.981 33.4424 103.923 34.625C103.981 35.8076 103.628 36.9739 102.923 37.925ZM101.578 32.3C101.41 32.0367 101.179 31.82 100.905 31.6698C100.632 31.5196 100.325 31.4409 100.013 31.4409C99.7007 31.4409 99.3936 31.5196 99.1201 31.6698C98.8465 31.82 98.6153 32.0367 98.4477 32.3C98.0583 33.0034 97.8746 33.8022 97.9177 34.605C97.8742 35.4095 98.0579 36.2099 98.4477 36.915C98.6117 37.1829 98.8417 37.4042 99.1158 37.5577C99.3898 37.7112 99.6986 37.7919 100.013 37.7919C100.327 37.7919 100.636 37.7112 100.91 37.5577C101.184 37.4042 101.414 37.1829 101.578 36.915C101.968 36.2099 102.151 35.4095 102.108 34.605C102.151 33.8022 101.967 33.0034 101.578 32.3Z" fill="#1068B0"/>
<path d="M109.324 27.545C108.147 27.545 107.559 28.0567 107.559 29.08V30.185H109.409V31.54H107.579V39.08H105.814V31.54H104.644V30.185H105.814V29.08C105.789 28.6581 105.859 28.2359 106.019 27.8447C106.179 27.4535 106.425 27.1033 106.739 26.82C107.387 26.3061 108.202 26.0481 109.029 26.095C109.217 26.0945 109.406 26.1045 109.594 26.125V27.545H109.324Z" fill="#1068B0"/>
<path d="M114.619 39C114.264 39.1473 113.882 39.2155 113.499 39.2C111.869 39.2 111.054 38.33 111.054 36.59V31.54H109.854V30.185H111.079V28.125L112.849 27.58V30.185H114.644V31.54H112.849V36.5C112.849 37.245 113.244 37.62 114.034 37.62C114.243 37.6233 114.45 37.5842 114.644 37.505L114.619 39Z" fill="#1068B0"/>
<path d="M125.213 39.08H123.348L121.763 33.435C121.647 33.0129 121.558 32.5837 121.498 32.15H121.468C121.397 32.5832 121.302 33.0122 121.183 33.435L119.603 39.08H117.738L115.078 30.185H116.878L118.408 36.06C118.527 36.5197 118.61 36.9877 118.658 37.46H118.693C118.778 36.96 118.878 36.46 118.988 36.06L120.603 30.185H122.303L123.923 36.06C124.033 36.475 124.128 36.945 124.218 37.46H124.253C124.297 36.9875 124.379 36.5193 124.498 36.06L126.078 30.185H127.878L125.213 39.08Z" fill="#1068B0"/>
<path d="M135.438 38.635C134.437 39.0975 133.339 39.3119 132.238 39.26C129.678 39.26 128.396 38.33 128.393 36.47C128.377 35.9453 128.529 35.4293 128.827 34.9968C129.124 34.5644 129.552 34.238 130.048 34.065C131.226 33.6366 132.469 33.4134 133.723 33.405V32.84C133.723 31.84 133.096 31.34 131.843 31.34C130.994 31.3342 130.154 31.5206 129.388 31.885L128.923 30.645C129.901 30.2225 130.957 30.0096 132.023 30.02C134.303 30.02 135.441 31.02 135.438 33.02V38.635ZM133.723 34.605C132.877 34.6185 132.037 34.7412 131.223 34.97C130.894 35.05 130.602 35.2388 130.394 35.5057C130.186 35.7725 130.075 36.1018 130.078 36.44C130.078 37.44 130.776 37.94 132.173 37.94C132.695 37.9695 133.217 37.8912 133.708 37.71L133.723 34.605Z" fill="#1068B0"/>
<path d="M141.118 31.57C140.819 31.5023 140.514 31.4704 140.208 31.475C139.731 31.4578 139.255 31.536 138.808 31.705V39.08H137.008V30.63C138.105 30.1942 139.278 29.9817 140.458 30.005C140.792 29.9971 141.127 30.0188 141.458 30.07L141.118 31.57Z" fill="#1068B0"/>
<path d="M149.693 34.59L143.788 35.415C143.975 37.0217 144.883 37.825 146.513 37.825C147.364 37.8522 148.208 37.6648 148.968 37.28L149.498 38.635C148.527 39.0861 147.463 39.3003 146.393 39.26C145.796 39.2936 145.198 39.1985 144.641 38.9811C144.084 38.7638 143.58 38.4292 143.163 38C142.359 37.0637 141.95 35.8518 142.023 34.62C141.963 33.4193 142.337 32.2371 143.078 31.29C143.438 30.8628 143.893 30.5242 144.405 30.3005C144.917 30.0768 145.474 29.974 146.033 30C146.533 29.9721 147.033 30.0518 147.5 30.2338C147.967 30.4158 148.389 30.6958 148.738 31.055C149.419 31.8453 149.768 32.8682 149.713 33.91C149.713 34.21 149.708 34.435 149.693 34.59ZM147.978 33.635C147.978 32.095 147.311 31.325 145.978 31.325C145.66 31.31 145.343 31.3712 145.053 31.5034C144.764 31.6356 144.51 31.835 144.313 32.085C143.85 32.7013 143.616 33.46 143.653 34.23L147.978 33.635Z" fill="#1068B0"/>
</svg>
