<svg width="48" height="48" viewBox="0 0 48 48" fill="none" xmlns="http://www.w3.org/2000/svg">
<g clip-path="url(#clip0_8_584)">
<path fill-rule="evenodd" clip-rule="evenodd" d="M46.4403 0C43.399 0.370865 40.3903 0.972602 37.4403 1.8C35.2803 2.46 33.1603 3.32 31.0003 4.02C27.4603 5.16 28.2603 4.36 23.5003 12.94C23.1544 11.1685 22.4757 9.47869 21.5003 7.96C19.5003 5.96 17.5003 8.98 16.0803 11.28C11.8603 18.18 8.00032 24.38 7.20032 34.76C7.18706 34.9191 7.23756 35.077 7.3407 35.1989C7.44385 35.3208 7.59119 35.3967 7.75032 35.41C7.90945 35.4233 8.06733 35.3728 8.18923 35.2696C8.31113 35.1665 8.38706 35.0191 8.40032 34.86C9.28032 24.98 13.2003 18.86 17.5003 12.2C18.113 11.035 18.9649 10.0127 20.0003 9.2C20.1203 9.4 20.2403 9.2 20.7603 10.56C21.2803 11.92 21.6803 14.76 22.4603 15.36C23.2403 15.96 24.2203 15.36 24.8403 14.5C25.4603 13.64 28.7603 7.24 30.0003 6.68C30.5753 6.4442 31.1713 6.26339 31.7803 6.14C36.2143 4.43063 40.8216 3.21008 45.5203 2.5C45.5685 4.18716 45.3663 5.87213 44.9203 7.5C43.8104 12.3531 42.2365 17.0882 40.2203 21.64C39.6203 22.98 38.6603 26.04 37.3003 27.02C37.1603 26.82 36.7403 26.66 36.6203 26.54C34.9567 25.0506 33.0213 23.8962 30.9203 23.14C28.3603 22.8 29.6603 28.5 29.5403 29.86C28.0603 28.84 24.4003 26.98 23.7403 28.54C23.3003 29.58 23.9403 30.92 24.1403 31.74C24.6003 33.48 25.7203 36.84 24.3803 38.08C21.6003 40.0506 18.1794 40.9004 14.8003 40.46C10.0003 40 11.5003 38 10.4603 38.76C10.0603 38.92 9.62032 39.28 10.0603 39.8C10.6426 40.6506 11.5188 41.2561 12.5203 41.5C16.3003 42.6 22.3003 41.98 25.3603 39.28C27.6003 37.28 26.2403 32.94 25.3603 29.86C26.9957 30.343 28.4685 31.2626 29.6203 32.52C29.8284 32.6924 30.0901 32.7867 30.3603 32.7867C30.6305 32.7867 30.8922 32.6924 31.1003 32.52C31.8603 31.66 31.1003 27.96 31.2603 25.54H31.6403C32.8267 26.2746 33.9565 27.0969 35.0203 28C35.418 28.4741 35.891 28.8795 36.4203 29.2C37.6403 29.7 39.0203 28.42 39.7603 27.42C42.2603 24.12 51.2403 0.52 46.4403 0Z" fill="#262623"/>
<path fill-rule="evenodd" clip-rule="evenodd" d="M14.1199 32.4597C27.9999 16.8597 34.7799 12.2197 39.0999 9.01967C39.1735 8.96714 39.236 8.90064 39.2838 8.82397C39.3316 8.7473 39.3639 8.66195 39.3788 8.57281C39.3936 8.48366 39.3908 8.39247 39.3704 8.30442C39.35 8.21638 39.3125 8.13321 39.2599 8.05967C39.2074 7.98613 39.1409 7.92366 39.0642 7.87582C38.9876 7.82798 38.9022 7.79571 38.8131 7.78085C38.7239 7.76599 38.6327 7.76884 38.5447 7.78922C38.4566 7.80961 38.3735 7.84714 38.2999 7.89967C35.4999 9.89967 32.7599 11.5997 30.1799 13.6797C15.5799 25.6797 10.2799 33.6797 1.81994 44.7597L0.279941 47.0397C0.217191 47.174 0.204662 47.3264 0.244625 47.4692C0.284588 47.612 0.374397 47.7357 0.497766 47.8179C0.621135 47.9002 0.769893 47.9355 0.917064 47.9175C1.06423 47.8994 1.20007 47.8293 1.29994 47.7197C5.33994 42.4397 11.8399 35.0197 14.1199 32.4597Z" fill="#262623"/>
</g>
<defs>
<clipPath id="clip0_8_584">
<rect width="48" height="48" fill="white"/>
</clipPath>
</defs>
</svg>
