<svg width="48" height="48" viewBox="0 0 48 48" fill="none" xmlns="http://www.w3.org/2000/svg">
<g clip-path="url(#clip0_8_419)">
<path d="M43.0798 29.4402C42.5592 28.3424 41.6271 27.4939 40.4854 27.0784C39.3437 26.6629 38.0843 26.7138 36.9798 27.2202C36.626 27.3408 36.2844 27.4948 35.9598 27.6802C35.6401 27.8567 35.3387 28.0644 35.0598 28.3002C34.9994 28.3422 34.9478 28.3957 34.9081 28.4577C34.8683 28.5196 34.8411 28.5888 34.8281 28.6612C34.8151 28.7336 34.8165 28.8079 34.8323 28.8798C34.848 28.9517 34.8778 29.0198 34.9198 29.0802C35.0113 29.2005 35.1461 29.2803 35.2955 29.3027C35.4449 29.3251 35.5971 29.2884 35.7198 29.2002C35.9756 29.0403 36.243 28.8999 36.5198 28.7802C36.789 28.6571 37.0706 28.5633 37.3598 28.5002C38.1402 28.2338 38.9936 28.281 39.7398 28.6317C40.4861 28.9825 41.067 29.6094 41.3598 30.3802C41.8765 31.5692 42.0829 32.8698 41.9598 34.1602C41.9132 35.4294 41.4728 36.6526 40.6998 37.6602C40.058 38.3484 39.2632 38.8759 38.3798 39.2002C37.4414 39.5644 36.46 39.8064 35.4598 39.9202C35.2901 39.9202 35.1273 39.9877 35.0073 40.1077C34.8873 40.2277 34.8198 40.3905 34.8198 40.5602C34.8198 40.73 34.8873 40.8927 35.0073 41.0128C35.1273 41.1328 35.2901 41.2002 35.4598 41.2002C36.8241 41.1684 38.1745 40.9185 39.4598 40.4602C40.3968 40.1319 41.2599 39.6222 41.9998 38.9602C43.1831 37.7074 43.8907 36.08 43.9998 34.3602C44.1865 32.6653 43.8664 30.9531 43.0798 29.4402Z" fill="#262623"/>
<path d="M39.5398 3.42021C39.4722 2.87438 39.2007 2.37429 38.7798 2.02021C38.0971 1.60755 37.3448 1.32289 36.5598 1.18021C35.1315 0.634339 33.6502 0.238869 32.1398 0.000206761C30.9757 -0.165217 29.7894 0.0523911 28.7598 0.620207C28.3941 1.00867 28.1326 1.48342 27.9998 2.00021C27.2798 4.40021 25.8798 10.5602 25.8198 10.9002C25.795 11.048 25.8264 11.1998 25.9078 11.3257C25.9892 11.4515 26.1148 11.5423 26.2598 11.5802C26.3321 11.5948 26.4065 11.5949 26.4788 11.5807C26.5511 11.5665 26.6198 11.5381 26.6812 11.4972C26.7425 11.4563 26.7951 11.4038 26.8361 11.3425C26.877 11.2812 26.9055 11.2125 26.9198 11.1402C26.9198 10.8002 28.7398 4.84021 29.5998 2.54021C29.6803 2.35382 29.7739 2.17337 29.8798 2.00021C30.5736 1.80953 31.306 1.80953 31.9998 2.00021C33.3726 2.2737 34.7131 2.68927 35.9998 3.24021C36.4198 3.38021 36.9198 3.44021 37.3398 3.60021C37.3398 3.60021 37.5198 3.60021 37.5398 3.78021C37.5637 4.53823 37.4345 5.29328 37.1598 6.00021C36.9998 6.62021 36.7798 7.24021 36.5598 7.84021C36.1998 7.58021 35.8398 7.32021 35.4598 7.08021C35.0798 6.84021 35.0398 6.82021 34.8198 6.72021C34.5934 6.61607 34.3594 6.52916 34.1198 6.46021C33.5398 6.28021 32.9798 6.22021 32.3798 6.08021C32.3143 6.04558 32.2425 6.02432 32.1686 6.01766C32.0948 6.01099 32.0204 6.01906 31.9497 6.04138C31.879 6.06371 31.8134 6.09985 31.7568 6.14772C31.7002 6.19558 31.6536 6.25421 31.6198 6.32021C31.5816 6.38388 31.557 6.45475 31.5474 6.52838C31.5378 6.60201 31.5435 6.67683 31.5642 6.74816C31.5848 6.81948 31.62 6.88578 31.6674 6.94291C31.7148 7.00005 31.7735 7.04678 31.8398 7.08021C32.2684 7.5286 32.737 7.93695 33.2398 8.30021C33.4436 8.45318 33.6652 8.58079 33.8998 8.68021C34.1364 8.79327 34.3845 8.88045 34.6398 8.94021C35.1198 9.06021 35.5798 9.14021 36.0598 9.22021C35.9598 9.46021 35.8798 9.72021 35.7998 9.96021C35.4398 11.2002 35.0998 12.5002 34.7798 13.8202H34.6398C34.1598 13.5202 33.7398 13.2202 33.2198 12.9602C33.0234 12.8403 32.8158 12.7398 32.5998 12.6602C32.4059 12.5864 32.2048 12.5328 31.9998 12.5002C31.4339 12.46 30.8658 12.46 30.2998 12.5002C30.229 12.4753 30.1538 12.4649 30.0789 12.4696C30.0039 12.4743 29.9307 12.494 29.8635 12.5276C29.7963 12.5612 29.7366 12.6079 29.6879 12.6651C29.6391 12.7222 29.6024 12.7886 29.5798 12.8602C29.535 13.0035 29.5475 13.1586 29.6146 13.2928C29.6817 13.4271 29.7983 13.5301 29.9398 13.5802C30.4398 13.9002 30.8198 14.2402 31.3398 14.5202C31.5438 14.6337 31.7581 14.7275 31.9798 14.8002L32.6598 14.9602C33.2198 14.9602 33.7598 14.9602 34.3198 15.1202C34.4055 15.1392 34.4942 15.1392 34.5798 15.1202L33.3198 20.5602C32.7598 20.2202 32.2398 19.8402 31.6798 19.5002L30.9198 19.0602C30.6243 18.8913 30.3168 18.7442 29.9998 18.6202C29.3598 18.3402 28.7198 18.1402 27.9998 17.8002C27.8858 17.7021 27.7374 17.6533 27.5874 17.6645C27.4374 17.6758 27.298 17.7462 27.1998 17.8602C27.1017 17.9742 27.0529 18.1226 27.0641 18.2726C27.0754 18.4227 27.1458 18.5621 27.2598 18.6602C27.7237 19.2944 28.2608 19.8717 28.8598 20.3802C29.3899 20.7683 29.9768 21.0719 30.5998 21.2802C31.3167 21.4869 32.0445 21.6538 32.7798 21.7802C32.7798 22.0002 32.6798 22.2202 32.6198 22.4402C32.4598 23.0602 32.2798 23.6602 32.0998 24.2602C31.9598 25.3402 32.2998 25.5602 33.4998 24.2602C33.6598 23.8002 33.8398 23.3202 33.9798 22.8402C35.2398 18.8402 36.2598 14.5402 37.6198 10.6602C38.3191 9.14704 38.9203 7.5905 39.4198 6.00021C39.6304 5.15666 39.6712 4.27966 39.5398 3.42021Z" fill="#262623"/>
<path d="M33.2601 25.4398C32.3801 25.9398 33.3601 27.4398 32.6801 37.1198C32.5613 38.806 32.3342 40.4828 32.0001 42.1398C31.9398 42.6938 31.7552 43.2271 31.4601 43.6998C29.9186 44.8546 28.0643 45.5168 26.1401 45.5998C23.094 46.0066 20.003 45.9324 16.9801 45.3798C16.1323 45.2195 15.3019 44.9784 14.5001 44.6598C14.1012 44.523 13.7388 44.2973 13.4401 43.9998C12.9587 43.3472 12.5933 42.6165 12.3601 41.8398C11.9866 40.5278 11.706 39.1912 11.5201 37.8398C11.1001 35.4598 10.7401 33.0998 10.5001 30.7198C10.3801 29.4398 10.3001 28.1398 10.2601 26.8398C10.2601 26.8398 15.6001 26.6198 18.0001 26.5598H22.0001C23.3001 26.5598 24.6001 26.4398 26.0001 26.4398C27.4001 26.4398 28.6001 26.4398 30.0001 26.5598C30.0887 26.5823 30.1812 26.5856 30.2713 26.5694C30.3613 26.5532 30.4469 26.5178 30.5221 26.4657C30.5974 26.4137 30.6605 26.346 30.7074 26.2675C30.7543 26.1889 30.7838 26.1012 30.7939 26.0102C30.804 25.9193 30.7945 25.8272 30.766 25.7402C30.7375 25.6533 30.6907 25.5734 30.6287 25.5061C30.5668 25.4388 30.4911 25.3855 30.4068 25.3499C30.3225 25.3143 30.2315 25.2972 30.1401 25.2998C28.1401 24.9598 26.2801 24.7398 24.3801 24.5998C24.4924 24.5498 24.588 24.4686 24.6554 24.3657C24.7228 24.2628 24.7591 24.1427 24.7601 24.0198C24.7601 23.0598 24.9001 22.0198 25.0001 21.1198C25.1001 20.2198 25.2201 19.1198 25.3601 18.2398C25.5467 17.4024 25.6803 16.554 25.7601 15.6998C25.5975 13.2281 25.2024 10.7773 24.5801 8.37978C24.2773 7.4693 23.7391 6.6551 23.0201 6.01978C22.8912 5.9127 22.7392 5.83708 22.576 5.7989C22.4129 5.76072 22.2431 5.76102 22.0801 5.79978C21.3401 5.93978 19.7801 9.45978 19.4201 10.3998C19.061 11.2633 18.7669 12.1525 18.5401 13.0598C18.3154 13.1304 18.1238 13.2795 18.0001 13.4798C17.8201 14.8598 17.6601 16.2198 17.5001 17.5998C17.3401 18.9798 17.2201 20.3598 17.1401 21.7398C17.1309 21.8133 17.1362 21.8879 17.1559 21.9594C17.1755 22.0309 17.2091 22.0978 17.2546 22.1563C17.3001 22.2148 17.3567 22.2637 17.4211 22.3004C17.4855 22.337 17.5565 22.3606 17.6301 22.3698C17.7036 22.379 17.7782 22.3736 17.8497 22.3539C17.9211 22.3343 17.988 22.3008 18.0465 22.2553C18.105 22.2098 18.154 22.1532 18.1906 22.0888C18.2273 22.0243 18.2509 21.9533 18.2601 21.8798C18.4401 20.7998 18.6601 19.7398 18.9001 18.6598C19.2001 17.2398 19.5401 15.8398 19.8801 14.4198H22.4401C22.6801 14.4198 23.4001 14.4198 23.3601 14.5598C23.3201 14.6998 23.3601 17.1798 23.3601 17.9198C23.3601 18.6598 23.3601 19.5198 23.2601 20.3198V23.8798C23.2604 23.9878 23.2881 24.0939 23.3406 24.1884C23.393 24.2828 23.4685 24.3624 23.5601 24.4198H22.9201H19.9001C18.8801 24.4198 18.2001 24.4198 17.3601 24.5798C17.0401 23.8598 16.7401 23.1398 16.4001 22.4398C16.22 22.0561 16.0197 21.6823 15.8001 21.3198C15.5991 20.9633 15.3718 20.6224 15.1201 20.2998C14.6001 19.5998 14.0401 18.9598 13.5001 18.2998C14.0489 17.9262 14.5523 17.4899 15.0001 16.9998C15.1327 16.8937 15.2177 16.7393 15.2365 16.5705C15.2552 16.4017 15.2061 16.2324 15.1001 16.0998C14.994 15.9672 14.8395 15.8821 14.6708 15.8634C14.502 15.8446 14.3327 15.8937 14.2001 15.9998C12.8621 17.3557 11.0448 18.1315 9.14005 18.1598C7.64005 17.9998 6.44005 17.0598 6.10005 14.7598C5.98343 14.0982 5.98343 13.4213 6.10005 12.7598C6.32193 11.6988 6.62277 10.6559 7.00005 9.63978C7.20005 9.03978 7.40005 8.45978 7.58005 7.83978C7.76005 7.21978 7.74005 7.15978 7.80005 6.79978C8.54005 7.35978 9.28005 7.89978 9.98005 8.47978C10.51 8.89932 11.0174 9.34661 11.5001 9.81978C12.1951 10.4625 12.8005 11.1957 13.3001 11.9998C13.7584 12.7969 13.9997 13.7003 14.0001 14.6198C14 14.7914 14.0668 14.9563 14.1862 15.0795C14.3057 15.2028 14.4685 15.2746 14.6401 15.2798C14.7241 15.2798 14.8073 15.2632 14.885 15.2311C14.9626 15.1989 15.0332 15.1518 15.0926 15.0923C15.152 15.0329 15.1992 14.9623 15.2313 14.8847C15.2635 14.807 15.2801 14.7238 15.2801 14.6398C15.3222 13.7403 15.1792 12.8418 14.8601 11.9998C14.3347 10.7733 13.5967 9.64932 12.6801 8.67978C12.2001 8.13978 11.6801 7.63978 11.1601 7.13978C10.6401 6.63978 9.56005 5.73978 8.74005 5.13978C8.37224 4.72727 7.97087 4.34596 7.54005 3.99978C7.40009 3.90754 7.24235 3.84564 7.077 3.81809C6.91166 3.79053 6.74237 3.79792 6.58005 3.83978C6.37374 3.93489 6.19645 4.08321 6.0664 4.26949C5.93636 4.45578 5.85823 4.67332 5.84005 4.89978V6.19978C5.78132 6.55101 5.70117 6.89832 5.60005 7.23978C5.42005 7.81978 5.22005 8.37978 5.02005 8.95978C4.5774 10.1077 4.23609 11.2923 4.00005 12.4998C3.83983 13.3792 3.83983 14.2803 4.00005 15.1598C4.12935 16.1598 4.54015 17.1024 5.18461 17.8779C5.82906 18.6533 6.68062 19.2297 7.64005 19.5398C7.81099 19.5846 7.9847 19.618 8.16005 19.6398C8.16986 20.3085 8.21659 20.9762 8.30005 21.6398C8.34447 22.0051 8.41804 22.3662 8.52005 22.7198C8.60832 23.0784 8.71513 23.4322 8.84005 23.7798C9.02005 24.2998 9.20005 24.8198 9.40005 25.3398C9.31694 25.39 9.24775 25.4602 9.19883 25.5441C9.14991 25.6279 9.12282 25.7227 9.12005 25.8198V30.6998C9.24005 33.1198 9.50005 35.5398 9.80005 37.9598C9.94039 39.3869 10.1742 40.8033 10.5001 42.1998C10.7517 43.2134 11.1928 44.1702 11.8001 45.0198C12.2836 45.6458 12.9162 46.1408 13.6401 46.4598C14.5589 46.8649 15.5174 47.1732 16.5001 47.3798C19.7964 48.0155 23.1751 48.1033 26.5001 47.6398C28.8714 47.4456 31.1229 46.5157 32.9401 44.9798C33.866 43.1178 34.3258 41.0588 34.2801 38.9798C34.4824 34.6543 34.4423 30.3208 34.1601 25.9998C34.1201 25.2598 33.2601 25.4398 33.2601 25.4398ZM23.2601 12.3198C22.2038 12.193 21.1363 12.193 20.0801 12.3198H19.7601C19.9201 11.9998 20.1001 11.6798 20.2801 11.3798C20.8601 10.3798 21.5201 9.37978 22.1601 8.49978C22.3573 8.85467 22.531 9.22213 22.6801 9.59978C23.0201 10.4998 23.2801 11.4398 23.5201 12.3198C23.4601 12.3159 23.4 12.3159 23.3401 12.3198H23.2601ZM9.64005 19.6798C10.6198 19.5749 11.5703 19.283 12.4401 18.8198C12.705 19.6352 13.012 20.4362 13.3601 21.2198C13.5403 21.5969 13.7406 21.9641 13.9601 22.3198C14.1801 22.6798 14.4201 23.0198 14.6601 23.3598L15.6801 24.6598C14.1201 24.8598 12.5401 25.1198 10.9401 25.3998C10.9401 24.7398 10.9401 24.0798 10.8001 23.3998C10.7596 23.0236 10.6995 22.6497 10.6201 22.2798C10.6201 21.9198 10.4201 21.5598 10.3001 21.2198C10.1801 20.8798 9.86005 20.1798 9.64005 19.6798Z" fill="#262623"/>
</g>
<defs>
<clipPath id="clip0_8_419">
<rect width="48" height="48" fill="white"/>
</clipPath>
</defs>
</svg>
