<svg width="80" height="80" viewBox="0 0 80 80" fill="none" xmlns="http://www.w3.org/2000/svg">
<rect width="80" height="80" rx="40" fill="#FECC19"/>
<g clip-path="url(#clip0_1_1150)">
<path fill-rule="evenodd" clip-rule="evenodd" d="M30.4197 52.42C30.503 52.2832 30.5336 52.1207 30.5059 51.963C30.4783 51.8053 30.3942 51.663 30.2694 51.5626C30.1446 51.4623 29.9875 51.4108 29.8275 51.4176C29.6675 51.4245 29.5155 51.4893 29.3997 51.6C28.8948 52.292 28.2448 52.8654 27.4951 53.2799C26.7455 53.6945 25.9143 53.9402 25.0597 54C24.2597 53.9895 23.4715 53.8052 22.7497 53.4598C22.028 53.1145 21.3899 52.6164 20.8797 52C20.3976 51.2049 20.1069 50.3086 20.0306 49.3818C19.9542 48.4551 20.0943 47.5233 20.4397 46.66C20.7245 45.7835 21.2773 45.0186 22.0201 44.4732C22.7629 43.9278 23.6582 43.6293 24.5797 43.62C25.4095 43.5953 26.2368 43.7241 27.0197 44C27.7747 44.2794 28.4579 44.7235 29.0197 45.3C29.0657 45.3643 29.1239 45.419 29.191 45.4609C29.2581 45.5027 29.3327 45.5309 29.4107 45.5439C29.4887 45.5569 29.5685 45.5545 29.6456 45.5366C29.7226 45.5188 29.7954 45.4859 29.8597 45.44C29.9241 45.394 29.9788 45.3358 30.0206 45.2687C30.0625 45.2017 30.0907 45.127 30.1037 45.049C30.1167 44.971 30.1142 44.8912 30.0964 44.8141C30.0785 44.7371 30.0457 44.6643 29.9997 44.6C29.3522 43.8148 28.5305 43.1917 27.5997 42.78C26.6616 42.3423 25.652 42.0781 24.6197 42C23.2946 41.9026 21.9738 42.2407 20.8583 42.9627C19.7428 43.6847 18.8936 44.7511 18.4397 46C17.9438 47.1901 17.7483 48.4839 17.8704 49.7674C17.9924 51.0509 18.4284 52.2847 19.1397 53.36C19.3951 53.6125 19.6846 53.8279 19.9997 54C19.4062 54.3936 18.8564 54.8495 18.3597 55.36C17.9952 55.7685 17.6798 56.2182 17.4197 56.7C17.1557 57.1725 16.9348 57.6678 16.7597 58.18C16.3648 59.3525 16.1097 60.5676 15.9997 61.8C15.9697 61.9666 16.0048 62.1384 16.0979 62.2799C16.1909 62.4213 16.3348 62.5216 16.4997 62.56C16.5883 62.5803 16.6801 62.5815 16.7691 62.5636C16.8582 62.5457 16.9424 62.5091 17.0162 62.4561C17.09 62.4031 17.1516 62.335 17.1971 62.2564C17.2425 62.1778 17.2707 62.0904 17.2797 62C17.6226 60.9469 18.0506 59.9235 18.5597 58.94L19.2197 57.74C19.4397 57.36 19.6797 56.98 19.9197 56.6C20.3339 55.9765 20.7812 55.3756 21.2597 54.8C22.4858 55.4521 23.8785 55.7237 25.2597 55.58C26.2946 55.449 27.2899 55.0995 28.1795 54.5548C29.0691 54.01 29.8327 53.2823 30.4197 52.42Z" fill="black"/>
<path fill-rule="evenodd" clip-rule="evenodd" d="M63.3395 58.18C63.1645 57.6678 62.9436 57.1725 62.6795 56.7C62.4195 56.2182 62.104 55.7685 61.7395 55.36C61.2428 54.8495 60.693 54.3936 60.0995 54C60.3845 53.7958 60.6402 53.5535 60.8595 53.28C61.5575 52.2141 61.9859 50.9946 62.1078 49.7264C62.2298 48.4581 62.0416 47.1793 61.5595 46C61.1056 44.7511 60.2564 43.6847 59.1409 42.9627C58.0254 42.2407 56.7047 41.9026 55.3795 42C54.3714 42.0662 53.3829 42.3099 52.4595 42.72C51.5288 43.1316 50.707 43.7548 50.0595 44.54C49.9587 44.6514 49.9063 44.7982 49.9138 44.9483C49.9213 45.0983 49.9881 45.2392 50.0995 45.34C50.2109 45.4408 50.3578 45.4932 50.5078 45.4857C50.6578 45.4782 50.7987 45.4114 50.8995 45.3C51.4614 44.7235 52.1446 44.2794 52.8995 44C53.6838 43.7309 54.511 43.6089 55.3395 43.64C56.261 43.6493 57.1563 43.9478 57.8991 44.4932C58.6419 45.0386 59.1947 45.8035 59.4795 46.68C59.8336 47.5345 59.9854 48.4593 59.9229 49.3822C59.8605 50.305 59.5855 51.201 59.1195 52C58.5944 52.5872 57.9497 53.0552 57.2287 53.3725C56.5077 53.6899 55.7272 53.8493 54.9395 53.84C54.0978 53.7994 53.2747 53.5784 52.5259 53.1919C51.7771 52.8054 51.1202 52.2625 50.5995 51.6C50.4838 51.4893 50.3317 51.4245 50.1717 51.4176C50.0117 51.4108 49.8547 51.4623 49.7299 51.5626C49.6051 51.663 49.521 51.8053 49.4933 51.963C49.4657 52.1207 49.4963 52.2832 49.5795 52.42C50.1732 53.3015 50.9508 54.044 51.8588 54.5964C52.7668 55.1488 53.7837 55.498 54.8395 55.62C56.1876 55.7437 57.5427 55.4727 58.7395 54.84C59.218 55.4156 59.6653 56.0165 60.0795 56.64C60.3195 57.02 60.5595 57.4 60.7795 57.78L61.4395 58.98C61.9466 59.9506 62.3747 60.9606 62.7195 62C62.7339 62.0847 62.7651 62.1657 62.8114 62.2381C62.8578 62.3105 62.9182 62.3728 62.9891 62.4213C63.06 62.4698 63.14 62.5036 63.2243 62.5205C63.3085 62.5375 63.3953 62.5373 63.4795 62.52C63.6402 62.4862 63.7826 62.3937 63.8787 62.2605C63.9749 62.1274 64.018 61.9632 63.9995 61.8C63.922 60.5716 63.7005 59.3566 63.3395 58.18Z" fill="black"/>
<path fill-rule="evenodd" clip-rule="evenodd" d="M49.0195 54.12C48.7064 53.5469 48.3308 53.0103 47.8995 52.52C47.2271 51.7596 46.461 51.0875 45.6195 50.52C46.5244 49.6493 47.2209 48.5856 47.6573 47.4082C48.0936 46.2308 48.2585 44.97 48.1395 43.72C48.1343 42.7009 47.9284 41.6929 47.5335 40.7534C47.1387 39.8139 46.5627 38.9614 45.8384 38.2445C45.1141 37.5276 44.2557 36.9604 43.3122 36.5753C42.3687 36.1902 41.3586 35.9947 40.3395 36C38.1279 35.9185 35.9736 36.7131 34.3445 38.211C32.7155 39.709 31.7434 41.7893 31.6395 44C31.5867 45.4529 31.9749 46.8877 32.7531 48.1158C33.5313 49.3438 34.6631 50.3075 35.9995 50.88C34.8666 51.5119 33.7952 52.2484 32.7995 53.08C31.9019 53.8444 31.1263 54.7414 30.4995 55.74C29.9177 56.5868 29.5117 57.5418 29.3055 58.5483C29.0994 59.5549 29.0974 60.5926 29.2995 61.6C29.3234 61.7697 29.4137 61.923 29.5506 62.0262C29.6875 62.1293 29.8598 62.1738 30.0295 62.15C30.1992 62.1261 30.3525 62.0358 30.4557 61.8989C30.5588 61.762 30.6034 61.5897 30.5795 61.42C30.5837 59.7734 31.18 58.1833 32.2595 56.94C32.8595 56.14 33.5595 55.36 34.2595 54.6C35.3795 53.42 36.4995 52.3 37.5395 51.4C38.3246 51.6012 39.1294 51.7152 39.9395 51.74C40.0157 51.7454 40.0922 51.7357 40.1647 51.7115C40.2371 51.6873 40.3041 51.649 40.3617 51.5988C40.4193 51.5486 40.4665 51.4876 40.5004 51.4191C40.5343 51.3507 40.5544 51.2762 40.5595 51.2C40.565 51.0494 40.5118 50.9026 40.411 50.7906C40.3102 50.6786 40.1698 50.6103 40.0195 50.6C35.6595 50.2 33.5995 47.5 33.5395 44.6C34.1306 44.9113 34.7753 45.1081 35.4395 45.18C35.7509 45.2294 36.0681 45.2294 36.3795 45.18C36.7026 45.1334 37.0184 45.046 37.3195 44.92C38.0904 44.6529 38.7793 44.1913 39.3195 43.58C39.3195 43.58 39.3195 43.42 39.4195 43.36L40.1795 43.76C40.8559 44.0765 41.5676 44.3115 42.2995 44.46C43.6773 44.6812 45.0817 44.6812 46.4595 44.46C46.6247 45.9343 46.2226 47.4163 45.3348 48.605C44.4471 49.7937 43.1401 50.5999 41.6795 50.86C41.5078 50.8801 41.3508 50.9668 41.2424 51.1014C41.1339 51.2361 41.0826 51.4079 41.0995 51.58C41.1094 51.6643 41.1359 51.7458 41.1776 51.8197C41.2193 51.8937 41.2752 51.9586 41.3422 52.0107C41.4092 52.0628 41.4859 52.1011 41.5679 52.1233C41.6498 52.1455 41.7354 52.1511 41.8195 52.14C42.7739 52.0618 43.7009 51.7823 44.5395 51.32C45.2112 52.0542 45.82 52.8437 46.3595 53.68C46.6595 54.14 46.9595 54.6 47.2395 55.08C47.5195 55.56 47.7795 56.06 48.0395 56.58C48.6506 57.7976 49.1461 59.0698 49.5195 60.38C49.5578 60.549 49.6611 60.6963 49.807 60.7898C49.953 60.8834 50.1299 60.9158 50.2995 60.88C50.3824 60.8633 50.4613 60.8303 50.5314 60.783C50.6015 60.7357 50.6615 60.6749 50.708 60.6043C50.7545 60.5336 50.7866 60.4544 50.8023 60.3713C50.818 60.2881 50.817 60.2027 50.7995 60.12C50.6242 58.715 50.2955 57.3334 49.8195 56C49.6118 55.3498 49.344 54.7204 49.0195 54.12ZM37.4795 42.9H36.5195L35.5595 43.04C34.9061 43.2208 34.236 43.3347 33.5595 43.38C33.8902 41.8939 34.7594 40.583 35.9995 39.7C36.5535 40.7954 37.3141 41.7734 38.2395 42.58C38.2723 42.5884 38.3067 42.5884 38.3395 42.58C38.0696 42.7271 37.78 42.8349 37.4795 42.9ZM42.6795 42.5C42.1035 42.3149 41.542 42.0876 40.9995 41.82C40.4491 41.5636 39.9207 41.2626 39.4195 40.92C38.5881 40.3548 37.8349 39.6823 37.1795 38.92C38.1926 38.4657 39.2892 38.2273 40.3995 38.22C41.7911 38.1726 43.1507 38.6435 44.2149 39.5414C45.279 40.4393 45.972 41.7003 46.1595 43.08C44.98 43.0314 43.811 42.8366 42.6795 42.5Z" fill="black"/>
<path fill-rule="evenodd" clip-rule="evenodd" d="M40.9193 54.12C40.9193 53.9662 40.8582 53.8186 40.7494 53.7099C40.6406 53.6011 40.4931 53.54 40.3393 53.54C40.1854 53.54 40.0379 53.6011 39.9291 53.7099C39.8204 53.8186 39.7593 53.9662 39.7593 54.12C39.5793 54.84 39.3593 55.5 39.2393 56.22C39.2093 56.5259 39.2093 56.834 39.2393 57.14C39.2194 57.4396 39.2194 57.7403 39.2393 58.04C39.2393 58.76 39.5193 59.42 39.6593 60.14C39.6591 60.2249 39.6763 60.3089 39.71 60.3869C39.7436 60.4648 39.7929 60.535 39.8548 60.5932C39.9166 60.6513 39.9898 60.6961 40.0697 60.7248C40.1496 60.7535 40.2345 60.7655 40.3193 60.76C40.405 60.76 40.4899 60.7428 40.5689 60.7094C40.6479 60.676 40.7193 60.6271 40.779 60.5655C40.8387 60.5039 40.8854 60.431 40.9164 60.351C40.9474 60.2711 40.9619 60.1857 40.9593 60.1C40.9593 59.4 41.2193 58.74 41.2993 58.1C41.3191 57.807 41.3191 57.513 41.2993 57.22C41.3292 56.9207 41.3292 56.6192 41.2993 56.32C41.2393 55.48 41.0393 54.84 40.9193 54.12Z" fill="black"/>
<path fill-rule="evenodd" clip-rule="evenodd" d="M43.5395 27.46L41.1195 26C41.1195 26 40.5195 25.58 40.2795 25.46C40.0613 25.3512 39.8145 25.3139 39.5739 25.3534C39.3334 25.3929 39.1114 25.5072 38.9395 25.68C38.1795 26.5 37.3795 27.26 36.5995 28.04C35.3995 29.22 34.2195 30.36 32.9595 31.44C31.546 32.6179 30.0705 33.7195 28.5395 34.74C28.4764 34.7794 28.4218 34.8308 28.3786 34.8913C28.3355 34.9518 28.3046 35.0203 28.2879 35.0927C28.2712 35.1651 28.2689 35.2401 28.2812 35.3134C28.2935 35.3868 28.3201 35.4569 28.3595 35.52C28.3989 35.583 28.4503 35.6377 28.5108 35.6808C28.5713 35.724 28.6398 35.7548 28.7122 35.7715C28.7846 35.7882 28.8596 35.7905 28.933 35.7782C29.0063 35.766 29.0764 35.7394 29.1395 35.7C31.2364 34.5631 33.2424 33.2659 35.1395 31.82C36.8023 30.58 38.3917 29.2444 39.8995 27.82L42.3795 29.32L52.5795 36C52.7259 36.0907 52.902 36.1205 53.0702 36.0832C53.2383 36.0458 53.3852 35.9442 53.4795 35.8C53.5279 35.7294 53.5618 35.6499 53.579 35.5661C53.5962 35.4823 53.5964 35.3959 53.5796 35.3119C53.5628 35.228 53.5294 35.1483 53.4813 35.0776C53.4332 35.0068 53.3713 34.9464 53.2995 34.9C50.6395 33.04 48.1795 30.9 45.5795 28.9C44.8995 28.42 44.2195 28 43.5395 27.46Z" fill="black"/>
<path fill-rule="evenodd" clip-rule="evenodd" d="M27.2802 29.52C28.6402 28.64 30.0002 27.68 31.2802 26.7C33.2802 25.24 35.2802 23.72 37.1602 22.22L39.7802 20.22L40.0002 20C40.0002 20 40.5402 20.32 40.6402 20.42C41.3402 21.08 42.0002 21.74 42.6402 22.42C42.9602 22.68 43.3002 22.96 43.6402 23.2C44.9871 24.1497 46.3896 25.0179 47.8402 25.8C49.9602 27.04 52.1402 28.14 54.2402 29.32C54.3124 29.3635 54.3924 29.3923 54.4758 29.4048C54.5591 29.4173 54.6441 29.4132 54.7259 29.3928C54.8077 29.3724 54.8846 29.336 54.9523 29.2857C55.0199 29.2355 55.077 29.1723 55.1202 29.1C55.2041 28.9499 55.228 28.7737 55.1872 28.6067C55.1464 28.4397 55.0438 28.2944 54.9002 28.2C52.9002 26.92 50.8002 25.68 48.7602 24.32C47.4395 23.4478 46.1707 22.4995 44.9602 21.48L42.1402 18.78C41.8037 18.4159 41.4429 18.0751 41.0602 17.76C40.818 17.5863 40.536 17.4763 40.2402 17.44C39.9854 17.4182 39.7294 17.4666 39.5002 17.58C39.1436 17.832 38.803 18.1059 38.4802 18.4L35.8602 20.6C34.0002 22.24 32.2402 24 30.3802 25.5C29.1402 26.58 27.9002 27.5 26.6202 28.58C26.5462 28.6177 26.4812 28.6709 26.4296 28.7359C26.3779 28.8009 26.3408 28.8762 26.3208 28.9568C26.3008 29.0374 26.2983 29.1213 26.3135 29.203C26.3288 29.2846 26.3613 29.362 26.409 29.4299C26.4567 29.4979 26.5185 29.5548 26.5901 29.5968C26.6617 29.6389 26.7415 29.665 26.8241 29.6736C26.9067 29.6821 26.9901 29.6728 27.0688 29.6463C27.1475 29.6198 27.2196 29.5767 27.2802 29.52Z" fill="black"/>
</g>
<defs>
<clipPath id="clip0_1_1150">
<rect width="48" height="48" fill="white" transform="translate(16 16)"/>
</clipPath>
</defs>
</svg>
