<svg width="80" height="80" viewBox="0 0 80 80" fill="none" xmlns="http://www.w3.org/2000/svg">
<rect width="80" height="80" rx="40" fill="#FECC19"/>
<g clip-path="url(#clip0_1_1141)">
<path fill-rule="evenodd" clip-rule="evenodd" d="M54.8804 54.12C54.8804 53.94 54.7604 52.22 54.2604 52.12C53.7604 52.02 53.6204 52.12 53.3204 52.66C53.1378 53.1964 52.9908 53.7442 52.8804 54.3C49.9604 54.52 48.8804 55.3 46.6004 55.36C45.8004 55.54 45.9004 56.54 46.9604 56.62C48.8624 56.81 50.7785 56.81 52.6804 56.62C52.6804 57.96 52.6804 58.18 53.0204 58.76C53.1201 58.886 53.2623 58.9714 53.4204 59C53.7204 59.12 53.9604 59 54.2004 58.72C54.3181 58.4661 54.3989 58.1967 54.4404 57.92C54.6159 57.4443 54.7563 56.9563 54.8604 56.46L60.4004 56C61.3404 56 61.5004 54.8 60.5004 54.66C58.6443 54.3319 56.7651 54.1514 54.8804 54.12Z" fill="#262623"/>
<path fill-rule="evenodd" clip-rule="evenodd" d="M63.82 52.36C63.82 51.78 63.92 50.92 63.82 50.2C63.52 47.86 61.66 47.82 59.66 47.8C59.7131 47.4354 59.7465 47.0682 59.76 46.7C59.5821 45.8354 59.1436 45.0461 58.5036 44.4382C57.8635 43.8303 57.0526 43.4331 56.18 43.3C51.92 42.28 48.18 45.76 48.94 48.38C45.52 49.32 45.28 49.26 44.94 49.88C44 52 44 54.84 44 60.98C44.32 64.06 45.28 62.44 45.3 62.24V58.44C45.3 57.8 45.58 55.1 45.56 55.1C45.6122 53.7326 45.8822 52.3823 46.36 51.1C50.438 49.9281 54.7148 49.6149 58.92 50.18H60.5C60.84 50.18 61.54 50.18 61.4 50.34C61.26 50.5 61.4 58.48 61.4 59.64V61.38C61.4 62.08 62.94 62.06 48 61.88C46.28 61.88 46.24 61.76 46 61.88C45.9186 61.9198 45.8473 61.9775 45.7914 62.0488C45.7355 62.1201 45.6965 62.2031 45.6772 62.2916C45.658 62.3801 45.659 62.4718 45.6803 62.5599C45.7016 62.6479 45.7425 62.73 45.8 62.8C46.14 63.3 46.14 63.12 51.24 63.32C64.4 63.88 63.06 64.66 63.5 59.72C63.7904 57.2781 63.8974 54.8179 63.82 52.36ZM50.32 48.12C50.06 45.82 56.5 44.26 58.08 46.64C58.2536 46.9789 58.3099 47.3657 58.24 47.74C55.5945 47.533 52.9335 47.6607 50.32 48.12Z" fill="#262623"/>
<path fill-rule="evenodd" clip-rule="evenodd" d="M37.1203 32C36.161 31.3803 35.1073 30.921 34.0003 30.64C42.0003 27.46 39.6403 16 31.3403 16.28C20.6203 17.06 20.8403 27.36 25.5403 30.28C27.1403 31.26 26.6603 30.06 23.7203 32.14C20.0783 34.5887 17.5375 38.364 16.6403 42.66C16.0901 44.5241 16.0009 46.4939 16.3803 48.4C16.5488 48.9595 16.8603 49.4654 17.284 49.8677C17.7077 50.2701 18.229 50.555 18.7964 50.6943C19.3638 50.8336 19.9578 50.8226 20.5197 50.6623C21.0815 50.5019 21.5919 50.1978 22.0003 49.78C21.9802 52.7086 22.3092 55.6292 22.9803 58.48C23.6003 61.16 25.2203 63.72 28.0003 63.7C32.7203 63.7 33.6003 64.04 34.8603 62.54C36.4546 59.7385 37.519 56.6672 38.0003 53.48C38.1403 52.42 38.2403 51.24 38.3403 49.7C38.7309 50.1211 39.2223 50.4357 39.7682 50.6142C40.3141 50.7926 40.8965 50.8291 41.4603 50.72C43.7403 50.32 44.2203 48.54 44.2403 46.34C44.1322 43.5828 43.4418 40.8796 42.2147 38.4082C40.9876 35.9367 39.2515 33.7528 37.1203 32ZM31.4803 18.6C32.187 18.5413 32.8981 18.6312 33.5679 18.8639C34.2377 19.0966 34.8514 19.4669 35.3695 19.951C35.8876 20.4352 36.2985 21.0225 36.576 21.675C36.8534 22.3276 36.9911 23.031 36.9803 23.74C35.8246 23.3049 34.7989 22.5821 34.0003 21.64C33.4603 21.08 33.1003 20.02 32.0003 19.64C30.5003 19.16 30.1603 21.78 26.6803 23.28C25.9834 23.5917 25.2403 23.7876 24.4803 23.86C24.8603 20.3 28.0003 18.76 31.4803 18.6ZM26.3803 28.96C25.7733 28.5223 25.2765 27.9492 24.9294 27.2861C24.5822 26.6231 24.3942 25.8883 24.3803 25.14C26.5033 25.2667 28.6097 24.698 30.3803 23.52C30.8866 23.1766 31.3441 22.7662 31.7403 22.3C32.6177 23.3154 33.7111 24.1217 34.9403 24.66C35.5448 24.9376 36.1839 25.1327 36.8403 25.24C35.7003 30.38 28.7203 30.58 26.3803 28.96ZM42.3803 47.96C42.2906 48.187 42.1474 48.389 41.9631 48.549C41.7787 48.709 41.5585 48.8223 41.3211 48.8792C41.0837 48.936 40.8361 48.9349 40.5993 48.8759C40.3624 48.8169 40.1432 48.7017 39.9603 48.54C39.1876 46.5158 38.5201 44.4531 37.9603 42.36C37.9603 42.2 35.9603 41.24 35.9603 43.44C35.9603 44.58 36.2403 47.26 36.1803 48.16C36.1612 51.474 35.5796 54.7607 34.4603 57.88C34.1403 58.8 33.3203 61.4 32.4603 61.4H30.4603C30.878 57.4132 30.9315 53.3966 30.6203 49.4C30.6203 49.2197 30.5487 49.0467 30.4212 48.9192C30.2936 48.7916 30.1207 48.72 29.9403 48.72C29.76 48.72 29.587 48.7916 29.4595 48.9192C29.332 49.0467 29.2603 49.2197 29.2603 49.4C28.4403 56.16 28.3003 55.92 28.9403 61.4H28.0003C26.5003 61.4 25.6603 59.5 25.3403 58.02C22.7403 45.68 26.1203 41.38 23.3403 41.78C22.2203 41.92 22.5203 42.96 21.3403 46.86C21.1718 47.4296 20.9577 47.9847 20.7003 48.52C20.5346 48.702 20.3213 48.834 20.0845 48.9011C19.8477 48.9683 19.5969 48.9679 19.3603 48.9C18.0003 48.7 18.0003 47.26 18.0003 46C18.113 42.9979 19.0019 40.0762 20.5803 37.52C22.2154 35.055 24.548 33.1332 27.2803 32C29.2852 31.3691 31.4355 31.3691 33.4403 32C34.4477 32.2575 35.4067 32.6762 36.2803 33.24C37.6142 34.3158 38.7511 35.6151 39.6403 37.08C40.9394 39.1433 41.8479 41.428 42.3203 43.82C42.5694 45.2035 42.5559 46.6215 42.2803 48L42.3803 47.96Z" fill="#262623"/>
<path fill-rule="evenodd" clip-rule="evenodd" d="M30.0007 40C30.0285 40.1629 30.113 40.3106 30.2393 40.4172C30.3656 40.5237 30.5255 40.5821 30.6907 40.5821C30.8559 40.5821 31.0158 40.5237 31.1421 40.4172C31.2683 40.3106 31.3529 40.1629 31.3807 40C31.7047 37.474 31.6643 34.9145 31.2607 32.4C31.0807 31.6 30.2007 31.84 30.0407 32.4C29.4456 34.8969 29.4319 37.497 30.0007 40Z" fill="#262623"/>
</g>
<defs>
<clipPath id="clip0_1_1141">
<rect width="48" height="48" fill="white" transform="translate(16 16)"/>
</clipPath>
</defs>
</svg>
