<svg width="35" height="32" viewBox="0 0 35 32" fill="none" xmlns="http://www.w3.org/2000/svg">
<circle cx="26.667" cy="20" r="8" fill="#FECC19"/>
<circle cx="9.33301" cy="18.6666" r="8" fill="#FECC19"/>
<path fill-rule="evenodd" clip-rule="evenodd" d="M7.65355 15.68C6.83102 15.7756 6.02433 15.9773 5.25355 16.28C4.71415 16.4844 4.21023 16.7724 3.76022 17.1333C3.20815 17.5479 2.78697 18.1126 2.54689 18.76C2.54689 19.2266 2.62689 19.68 3.40022 19.8266C3.46767 19.8423 3.53758 19.8443 3.60583 19.8326C3.67409 19.8209 3.73931 19.7957 3.79769 19.7584C3.85606 19.7212 3.9064 19.6726 3.94576 19.6157C3.98512 19.5587 4.0127 19.4944 4.02689 19.4266C4.10689 19.1066 3.58689 18.7066 4.48022 18.0933C4.94616 17.7495 5.47002 17.4921 6.02689 17.3333C6.60625 17.172 7.20034 17.0693 7.80022 17.0266C8.73577 16.962 9.66492 17.2226 10.4303 17.7645C11.1957 18.3064 11.7503 19.0961 12.0002 20C12.3083 20.8411 12.3071 21.7643 11.9969 22.6046C11.6867 23.445 11.0876 24.1475 10.3069 24.5866C9.50322 24.9516 8.61504 25.0899 7.73845 24.9865C6.86185 24.8831 6.03023 24.5419 5.33355 24C4.52273 23.549 3.8117 22.9385 3.24338 22.2052C2.67505 21.4719 2.26123 20.631 2.02689 19.7333C1.61489 16.9532 2.03716 14.1133 3.24022 11.5733C4.39171 8.96768 6.1522 6.67676 8.37355 4.8933C8.44807 4.84949 8.51249 4.79042 8.56259 4.71997C8.61268 4.64952 8.64731 4.56928 8.66422 4.4845C8.68113 4.39973 8.67992 4.31233 8.66068 4.22806C8.64144 4.14378 8.60461 4.06452 8.55259 3.99548C8.50057 3.92644 8.43455 3.86917 8.35885 3.82744C8.28314 3.7857 8.19947 3.76044 8.11332 3.75331C8.02717 3.74618 7.94049 3.75734 7.85896 3.78606C7.77742 3.81478 7.70288 3.86041 7.64022 3.91996C5.16619 5.7703 3.16878 8.18364 1.81355 10.96C0.364747 13.7674 -0.224249 16.9396 0.120219 20.08C0.376714 21.2654 0.878068 22.3842 1.59215 23.3647C2.30622 24.3451 3.21727 25.1655 4.26689 25.7733C5.29196 26.5035 6.50116 26.9317 7.7573 27.0095C9.01344 27.0873 10.2662 26.8114 11.3736 26.2133C12.503 25.5255 13.3511 24.4586 13.7663 23.2032C14.1815 21.9477 14.1368 20.5855 13.6402 19.36C13.2186 18.1511 12.3927 17.1247 11.302 16.4543C10.2113 15.7838 8.92257 15.5103 7.65355 15.68Z" fill="#262623"/>
<path fill-rule="evenodd" clip-rule="evenodd" d="M30.44 17.3333C29.8938 16.718 29.1946 16.258 28.4133 16C27.34 15.661 26.2187 15.4988 25.0933 15.52C24.3129 15.4756 23.5338 15.6269 22.8266 15.96C22.1497 16.2825 21.5531 16.7517 21.08 17.3333C20.9823 17.433 20.9275 17.5671 20.9275 17.7067C20.9275 17.8463 20.9823 17.9803 21.08 18.08C21.1284 18.13 21.1865 18.1698 21.2506 18.1969C21.3147 18.2241 21.3837 18.238 21.4533 18.238C21.5229 18.238 21.5919 18.2241 21.656 18.1969C21.7201 18.1698 21.7782 18.13 21.8266 18.08C22.2201 17.6249 22.7006 17.2531 23.24 16.9867C23.7922 16.777 24.3858 16.6993 24.9733 16.76C25.9476 16.7881 26.911 16.9727 27.8266 17.3067C28.3513 17.5298 28.8102 17.8831 29.16 18.3333C29.6215 19.0129 29.9348 19.782 30.0795 20.5906C30.2242 21.3992 30.1971 22.2292 30 23.0267C29.9347 23.7673 29.6322 24.4672 29.1373 25.0221C28.6424 25.577 27.9817 25.9574 27.2533 26.1067C25.4233 26.494 23.5145 26.1647 21.92 25.1867C21.2295 24.5842 20.6707 23.8458 20.2784 23.0176C19.8861 22.1894 19.6688 21.2893 19.64 20.3733C19.4347 17.9631 19.8143 15.5388 20.7466 13.3067C21.6711 10.9748 22.9189 8.78445 24.4533 6.80001C24.551 6.6722 24.5945 6.51114 24.5746 6.35152C24.5546 6.1919 24.4728 6.04651 24.3466 5.94668C24.221 5.84976 24.062 5.80657 23.9046 5.82656C23.7472 5.84655 23.6041 5.9281 23.5066 6.05335C21.5007 8.475 19.9225 11.221 18.84 14.1733C18.0936 16.2019 17.7714 18.362 17.8933 20.52C17.9069 21.7088 18.1731 22.8811 18.6742 23.9592C19.1753 25.0374 19.8999 25.9966 20.8 26.7733C21.786 27.4298 22.8917 27.8854 24.0539 28.1142C25.2162 28.343 26.4121 28.3404 27.5733 28.1067C28.5016 27.966 29.3706 27.5641 30.0789 26.9478C30.7872 26.3316 31.3055 25.5265 31.5733 24.6267C32.0097 23.4132 32.1345 22.1097 31.9365 20.8355C31.7385 19.5613 31.224 18.3571 30.44 17.3333Z" fill="#262623"/>
</svg>
